<svg width="28" height="27" viewBox="0 0 28 27" fill="none"
  xmlns="http://www.w3.org/2000/svg">
  <path fill-rule="evenodd" clip-rule="evenodd" d="M6.08317 20.8951C4.642 19.3523 3.68303 17.422 3.32416 15.3415C2.96529 13.261 3.22215 11.1209 4.06317 9.18446C4.90419 7.24797 6.29271 5.59944 8.05805 4.44149C9.82339 3.28354 11.8886 2.66665 13.9998 2.66665C16.1111 2.66665 18.1763 3.28354 19.9416 4.44149C21.707 5.59944 23.0955 7.24797 23.9365 9.18446C24.7775 11.1209 25.0344 13.261 24.6755 15.3415C24.3166 17.422 23.3577 19.3523 21.9165 20.8951V20.1667C21.9165 18.9512 21.4336 17.7854 20.5741 16.9258C19.7145 16.0663 18.5487 15.5834 17.3332 15.5834H10.6665C9.45093 15.5834 8.28514 16.0663 7.4256 16.9258C6.56606 17.7854 6.08317 18.9512 6.08317 20.1667V20.8951ZM8.58317 22.8834C10.2293 23.836 12.098 24.3362 13.9998 24.3334C15.9017 24.3362 17.7704 23.836 19.4165 22.8834V20.1667C19.4165 19.0167 18.4832 18.0834 17.3332 18.0834H10.6665C9.5165 18.0834 8.58317 19.0167 8.58317 20.1667V22.8834V22.8834ZM0.666504 13.5001C0.666504 9.96386 2.07126 6.57248 4.57175 4.07199C7.07223 1.57151 10.4636 0.166748 13.9998 0.166748C17.5361 0.166748 20.9274 1.57151 23.4279 4.07199C25.9284 6.57248 27.3332 9.96386 27.3332 13.5001C27.3332 17.0363 25.9284 20.4277 23.4279 22.9282C20.9274 25.4287 17.5361 26.8334 13.9998 26.8334C10.4636 26.8334 7.07223 25.4287 4.57175 22.9282C2.07126 20.4277 0.666504 17.0363 0.666504 13.5001V13.5001ZM17.3332 10.1667C17.3332 11.0508 16.982 11.8986 16.3569 12.5238C15.7317 13.1489 14.8839 13.5001 13.9998 13.5001C13.1158 13.5001 12.2679 13.1489 11.6428 12.5238C11.0177 11.8986 10.6665 11.0508 10.6665 10.1667C10.6665 9.28269 11.0177 8.43485 11.6428 7.80973C12.2679 7.1846 13.1158 6.83341 13.9998 6.83341C14.8839 6.83341 15.7317 7.1846 16.3569 7.80973C16.982 8.43485 17.3332 9.28269 17.3332 10.1667V10.1667Z" fill="black"/>
</svg>
