<svg width="48" height="48" viewBox="0 0 48 48" fill="none" xmlns="http://www.w3.org/2000/svg">
<path fill-rule="evenodd" clip-rule="evenodd" d="M24.6475 4.10773C24.144 3.93536 23.5881 3.96984 23.1055 4.21115L7.14432 12.1917C7.07741 12.2235 7.01254 12.2588 6.94996 12.2975C6.81924 12.3779 6.6971 12.4738 6.58659 12.5842C6.4757 12.6948 6.37933 12.8172 6.29851 12.9482C6.18672 13.1287 6.10284 13.3283 6.05289 13.5409C6.01686 13.6931 5.99939 13.8472 5.99951 14C5.9995 14.0144 5.99965 14.0289 5.99995 14.0433V34L6.01556 34.2497C6.09814 34.9071 6.50324 35.4877 7.10552 35.7889L23.0848 43.7785C23.1601 43.8172 23.2378 43.851 23.3173 43.8799L23.3202 43.8811C23.5428 43.9619 23.7726 44.0006 23.9998 44.0004C24.1529 44.0006 24.3071 43.9831 24.4596 43.9469C24.6254 43.9079 24.7833 43.8483 24.9303 43.7709L40.8944 35.7889L41.1107 35.6632C41.6618 35.2954 42 34.6734 42 34V14.0434L42.0003 14.0228L42.0004 14.0034C42.0008 13.8479 41.983 13.6912 41.9459 13.5363C41.8959 13.3256 41.8125 13.1278 41.7017 12.9488C41.6212 12.8181 41.5251 12.6959 41.4145 12.5854C41.3041 12.4749 41.1819 12.3788 41.0512 12.2982C40.9882 12.2593 40.923 12.2237 40.8557 12.1918L24.8944 4.21115L24.6475 4.10773ZM22 38.7639V23.2361L9.99995 17.2361V32.764L22 38.7639ZM26 38.7636V23.2361L38 17.2361V32.762L26 38.7636ZM24 19.7639L35.5278 14L24 8.236L12.4721 14L24 19.7639Z" fill="#404040"/>
</svg>
