<svg width="30" height="31" viewBox="0 0 30 31" fill="none"
  xmlns="http://www.w3.org/2000/svg">
  <path d="M26.6667 0.5H3.33333C1.5 0.5 0 2 0 3.83333V27.1667C0 29 1.5 30.5 3.33333 30.5H26.6667C28.5 30.5 30 29 30 27.1667V3.83333C30 2 28.5 0.5 26.6667 0.5ZM27.5 27.1667C27.5 27.6667 27.1667 28 26.6667 28H3.33333C2.83333 28 2.5 27.6667 2.5 27.1667V7.16667H27.5V27.1667ZM10 12.1667H6.66667V15.5H10V12.1667ZM10 18.8333H6.66667V22.1667H10V18.8333ZM16.6667 12.1667H13.3333V15.5H16.6667V12.1667ZM23.3333 12.1667H20V15.5H23.3333V12.1667ZM16.6667 18.8333H13.3333V22.1667H16.6667V18.8333ZM23.3333 18.8333H20V22.1667H23.3333V18.8333Z" fill="currentColor"/>
</svg>
