<svg width="48" height="48" viewBox="0 0 48 48" fill="none" xmlns="http://www.w3.org/2000/svg">
<path fill-rule="evenodd" clip-rule="evenodd" d="M17.9865 5.76676C17.871 4.77208 17.0257 4 16 4C14.8954 4 14 4.89543 14 6V8H10C6.68629 8 4 10.6863 4 14V38C4 41.3137 6.68629 44 10 44H38C41.3137 44 44 41.3137 44 38V14C44 10.6863 41.3137 8 38 8H34V6L33.9865 5.76676C33.871 4.77208 33.0257 4 32 4C30.8954 4 30 4.89543 30 6V8H18V6L17.9865 5.76676ZM14 12V14L14.0135 14.2332C14.129 15.2279 14.9743 16 16 16C17.1046 16 18 15.1046 18 14V12H30V14L30.0135 14.2332C30.129 15.2279 30.9743 16 32 16C33.1046 16 34 15.1046 34 14V12H38C39.1046 12 40 12.8954 40 14V38C40 39.1046 39.1046 40 38 40H10C8.89543 40 8 39.1046 8 38V14C8 12.8954 8.89543 12 10 12H14ZM34 20C35.1046 20 36 20.8954 36 22C36 23.0257 35.2279 23.871 34.2332 23.9865L34 24H14C12.8954 24 12 23.1046 12 22C12 20.9743 12.7721 20.129 13.7668 20.0135L14 20H34Z" fill="#404040"/>
</svg>
