<svg width="22" height="22" viewBox="0 0 22 22" fill="none" xmlns="http://www.w3.org/2000/svg">
<path d="M20.0973 0.962752L16.1226 0.0484192C15.6821 -0.0522937 15.2203 0.00518485 14.8181 0.210783C14.4158 0.416382 14.0987 0.756987 13.9223 1.17292L12.0806 5.44884C11.9173 5.83342 11.8829 6.26053 11.9825 6.66631C12.0821 7.07209 12.3103 7.43473 12.6331 7.7L14.3221 9.08125C13.1154 11.2923 11.2973 13.109 9.08522 14.3138L7.70614 12.6259C7.44087 12.3031 7.07823 12.0748 6.67245 11.9752C6.26667 11.8757 5.83955 11.9101 5.45497 12.0734L1.17039 13.9075C0.754494 14.0853 0.414325 14.4036 0.209362 14.8068C0.00439848 15.21 -0.0523145 15.6724 0.0491391 16.1132L0.964556 20.0847C1.06111 20.5109 1.30004 20.8914 1.64192 21.1636C1.9838 21.4357 2.40824 21.5833 2.84522 21.5818C5.30641 21.5818 7.7435 21.0971 10.0173 20.1552C12.2912 19.2134 14.3573 17.8329 16.0976 16.0925C17.8379 14.3522 19.2184 12.2861 20.1603 10.0123C21.1021 7.73845 21.5869 5.30136 21.5869 2.84017C21.588 2.40478 21.4412 1.98191 21.1706 1.64084C20.9 1.29976 20.5215 1.06068 20.0973 0.962752ZM2.92431 19.5625L2.04356 15.7383L6.18406 13.9628L8.53272 16.8347C10.3971 16.0668 12.091 14.9375 13.5168 13.5117C14.9425 12.086 16.0719 10.392 16.8397 8.52767L13.9678 6.179L15.7434 2.03959L19.5676 2.92034C19.5476 7.32815 17.7877 11.5497 14.6708 14.6665C11.5538 17.7832 7.33213 19.5428 2.92431 19.5625Z" fill="#1D2A3B"/>
</svg>
