<svg width="40" height="40" viewBox="0 0 40 40" fill="none" xmlns="http://www.w3.org/2000/svg">
<path fill-rule="evenodd" clip-rule="evenodd" d="M12.0837 27.3948C10.6425 25.852 9.68352 23.9217 9.32465 21.8412C8.96578 19.7607 9.22264 17.6207 10.0637 15.6842C10.9047 13.7477 12.2932 12.0992 14.0585 10.9412C15.8239 9.78329 17.8891 9.1664 20.0003 9.1664C22.1116 9.1664 24.1768 9.78329 25.9421 10.9412C27.7074 12.0992 29.096 13.7477 29.937 15.6842C30.778 17.6207 31.0349 19.7607 30.676 21.8412C30.3171 23.9217 29.3582 25.852 27.917 27.3948V26.6665C27.917 25.4509 27.4341 24.2851 26.5746 23.4256C25.715 22.5661 24.5492 22.0832 23.3337 22.0832H16.667C15.4514 22.0832 14.2856 22.5661 13.4261 23.4256C12.5665 24.2851 12.0837 25.4509 12.0837 26.6665V27.3948ZM14.5837 29.3832C16.2298 30.3357 18.0985 30.836 20.0003 30.8332C21.9022 30.836 23.7709 30.3357 25.417 29.3832V26.6665C25.417 25.5165 24.4837 24.5832 23.3337 24.5832H16.667C15.517 24.5832 14.5837 25.5165 14.5837 26.6665V29.3832V29.3832ZM6.66699 19.9998C6.66699 16.4636 8.07175 13.0722 10.5722 10.5717C13.0727 8.07126 16.4641 6.6665 20.0003 6.6665C23.5365 6.6665 26.9279 8.07126 29.4284 10.5717C31.9289 13.0722 33.3337 16.4636 33.3337 19.9998C33.3337 23.5361 31.9289 26.9274 29.4284 29.4279C26.9279 31.9284 23.5365 33.3332 20.0003 33.3332C16.4641 33.3332 13.0727 31.9284 10.5722 29.4279C8.07175 26.9274 6.66699 23.5361 6.66699 19.9998V19.9998ZM23.3337 16.6665C23.3337 17.5506 22.9825 18.3984 22.3573 19.0235C21.7322 19.6486 20.8844 19.9998 20.0003 19.9998C19.1163 19.9998 18.2684 19.6486 17.6433 19.0235C17.0182 18.3984 16.667 17.5506 16.667 16.6665C16.667 15.7824 17.0182 14.9346 17.6433 14.3095C18.2684 13.6844 19.1163 13.3332 20.0003 13.3332C20.8844 13.3332 21.7322 13.6844 22.3573 14.3095C22.9825 14.9346 23.3337 15.7824 23.3337 16.6665V16.6665Z" fill="currentColor"/>
</svg>
