<svg class="nfd-ecommerce-icon-color" width="28" height="27" viewBox="0 0 28 27" fill="none"
  xmlns="http://www.w3.org/2000/svg">
  <rect x="-1" y="-1" width="16.3333" height="24.6667" transform="matrix(3.97376e-08 -1 -1 -4.80825e-08 25.333 24.0835)" stroke="currentColor" stroke-width="2"/>
  <path fill-rule="evenodd" clip-rule="evenodd" d="M15.666 25.4167L15.666 8.75L13.166 8.75L13.166 25.4167L15.666 25.4167Z" fill="currentColor"/>
  <path d="M20.25 4.25C20.25 5.63071 19.1307 6.75 17.75 6.75H15.25V4.25C15.25 2.86929 16.3693 1.75 17.75 1.75C19.1307 1.75 20.25 2.86929 20.25 4.25Z" stroke="currentColor" stroke-width="2"/>
  <path d="M8.25 4.25C8.25 5.63071 9.36929 6.75 10.75 6.75H13.25V4.25C13.25 2.86929 12.1307 1.75 10.75 1.75C9.36929 1.75 8.25 2.86929 8.25 4.25Z" stroke="currentColor" stroke-width="2"/>
</svg>
