<svg width="48" height="48" viewBox="0 0 48 48" fill="none" xmlns="http://www.w3.org/2000/svg">
<path fill-rule="evenodd" clip-rule="evenodd" d="M12 11C12 7.13401 15.134 4 19 4C21.3663 4 23.4583 5.17412 24.7254 6.97157C25.667 6.35712 26.7918 6 28 6C31.3137 6 34 8.68629 34 12C34 12.7013 33.8797 13.3744 33.6586 14H38C41.3137 14 44 16.6863 44 20C44 22.6124 42.3304 24.8349 40 25.6586V38C40 41.1954 37.5022 43.8073 34.3525 43.9898L34 44H24H14C10.8046 44 8.19268 41.5022 8.01019 38.3525L8 38V25.6586C5.66962 24.8349 4 22.6124 4 20C4 16.8046 6.49784 14.1927 9.64745 14.0102L10 14H12.6736C12.2417 13.0907 12 12.0736 12 11ZM12 26V38C12 39.0257 12.7721 39.871 13.7668 39.9865L14 40H22V26H12ZM26 40H34C35.0257 40 35.871 39.2279 35.9865 38.2332L36 38V26H26V40ZM38 22C39.1046 22 40 21.1046 40 20C40 18.9743 39.2279 18.129 38.2332 18.0135L38 18H28H26V22H38ZM29.9865 12.2332C29.871 13.2279 29.0257 14 28 14H26V12C26 10.8954 26.8954 10 28 10C29.1046 10 30 10.8954 30 12L29.9865 12.2332ZM22 12V14H19C17.3431 14 16 12.6569 16 11C16 9.34315 17.3431 8 19 8L19.2889 8.01373C20.8102 8.1591 22 9.44061 22 11V12ZM19 18H22V22H10L9.76676 21.9865C8.77208 21.871 8 21.0257 8 20C8 18.8954 8.89543 18 10 18H19Z" fill="#404040"/>
</svg>
