<svg width="28" height="28" viewBox="0 0 28 28" fill="none" xmlns="http://www.w3.org/2000/svg">
<path fill-rule="evenodd" clip-rule="evenodd" d="M22.9582 20.0933C24.183 18.2976 24.8366 16.1736 24.8332 14C24.8364 12.0166 24.2926 10.0709 23.2615 8.37663L21.1582 9.73163C21.9048 10.98 22.3332 12.44 22.3332 14C22.3359 15.6938 21.82 17.348 20.8548 18.74L22.9582 20.095V20.0933ZM19.7065 23.21L18.3515 21.1083C17.0424 21.9117 15.5358 22.3358 13.9998 22.3333C12.4032 22.3333 10.9132 21.8833 9.64484 21.1066L8.2915 23.2083C10.0048 24.2732 11.9825 24.8362 13.9998 24.8333C16.0164 24.8364 17.9935 24.274 19.7065 23.21ZM5.03984 20.0933C3.81558 18.2974 3.16259 16.1734 3.1665 14C3.1665 11.9416 3.73984 10.0166 4.73817 8.37829L6.83984 9.73163C6.0693 11.0218 5.66375 12.4972 5.6665 14C5.6665 15.76 6.21317 17.3933 7.14484 18.7383L5.0415 20.0933H5.03984ZM9.3415 7.08829C10.717 6.15895 12.3398 5.66371 13.9998 5.66663C15.7248 5.66663 17.3265 6.18996 18.6565 7.08829L20.0098 4.98496C18.2312 3.79609 16.1392 3.16314 13.9998 3.16663C11.8597 3.1633 9.76706 3.79685 7.98817 4.98663L9.3415 7.08829V7.08829ZM13.9998 27.3333C17.5361 27.3333 20.9274 25.9285 23.4279 23.428C25.9284 20.9276 27.3332 17.5362 27.3332 14C27.3332 10.4637 25.9284 7.07235 23.4279 4.57187C20.9274 2.07138 17.5361 0.666626 13.9998 0.666626C10.4636 0.666626 7.07223 2.07138 4.57175 4.57187C2.07126 7.07235 0.666504 10.4637 0.666504 14C0.666504 17.5362 2.07126 20.9276 4.57175 23.428C7.07223 25.9285 10.4636 27.3333 13.9998 27.3333V27.3333ZM13.9998 19.8333C14.7659 19.8333 15.5244 19.6824 16.2322 19.3893C16.9399 19.0961 17.583 18.6664 18.1246 18.1247C18.6663 17.5831 19.096 16.94 19.3891 16.2323C19.6823 15.5245 19.8332 14.766 19.8332 14C19.8332 13.2339 19.6823 12.4754 19.3891 11.7676C19.096 11.0599 18.6663 10.4168 18.1246 9.87517C17.583 9.33349 16.9399 8.90381 16.2322 8.61066C15.5244 8.31751 14.7659 8.16663 13.9998 8.16663C12.4527 8.16663 10.969 8.78121 9.87505 9.87517C8.78109 10.9691 8.1665 12.4529 8.1665 14C8.1665 15.5471 8.78109 17.0308 9.87505 18.1247C10.969 19.2187 12.4527 19.8333 13.9998 19.8333V19.8333Z" fill="black"/>
</svg>
