<svg width="18" height="18" viewBox="0 0 18 18" fill="none" xmlns="http://www.w3.org/2000/svg">
<path fill-rule="evenodd" clip-rule="evenodd" d="M9.00008 0.666748C9.42744 0.666748 9.77967 0.988448 9.82781 1.4029L9.83342 1.50008V2.33341C9.83342 2.79365 9.46032 3.16675 9.00008 3.16675C8.57272 3.16675 8.22049 2.84505 8.17236 2.4306L8.16675 2.33341V1.50008C8.16675 1.03984 8.53984 0.666748 9.00008 0.666748ZM10.4695 12.3334C10.5961 12.1482 10.7404 11.9738 10.9014 11.8128L11.3574 11.3576C12.6589 10.0557 12.6587 7.94534 11.357 6.64373L11.2242 6.51791C9.91548 5.34357 7.9015 5.38551 6.64316 6.64373C5.34144 7.94534 5.34125 10.0557 6.64213 11.357L7.09934 11.8133C7.26005 11.974 7.40422 12.1483 7.53074 12.3334H10.4695ZM9.85438 14.0001H8.14573C8.15967 14.1293 8.16675 14.2598 8.16675 14.3909V14.8334C8.16675 15.2937 8.53984 15.6667 9.00008 15.6667C9.46032 15.6667 9.83342 15.2937 9.83342 14.8334V14.391C9.8334 14.2598 9.84046 14.1293 9.85438 14.0001ZM6.31385 13.5528C6.43527 13.8127 6.50008 14.0986 6.50008 14.3909V14.8334C6.50008 16.2141 7.61937 17.3334 9.00008 17.3334C10.3808 17.3334 11.5001 16.2141 11.5001 14.8334V14.3909C11.5 13.8661 11.7084 13.3628 12.0794 12.9918L12.5355 12.5365C14.4883 10.5832 14.488 7.41758 12.5355 5.46517C10.5829 3.51275 7.41729 3.51275 5.4647 5.46517C3.51212 7.41758 3.51184 10.5832 5.46408 12.5359L5.92136 12.9924C6.07248 13.1435 6.19669 13.317 6.29077 13.505C6.29797 13.5212 6.30567 13.5371 6.31385 13.5528ZM14.8927 3.10749C14.5672 2.78206 14.0396 2.78206 13.7142 3.10749L13.125 3.69666L13.0557 3.77516C12.8015 4.10207 12.8246 4.57477 13.125 4.87517C13.4504 5.20061 13.9781 5.20061 14.3035 4.87517L14.8927 4.286L14.962 4.2075C15.2162 3.88059 15.1931 3.4079 14.8927 3.10749ZM16.5001 8.16675C16.9603 8.16675 17.3334 8.53984 17.3334 9.00008C17.3334 9.42744 17.0117 9.77967 16.5973 9.82781L16.5001 9.83342H15.6667C15.2065 9.83342 14.8334 9.46032 14.8334 9.00008C14.8334 8.57272 15.1551 8.22049 15.5696 8.17236L15.6667 8.16675H16.5001ZM3.16675 9.00008C3.16675 8.53984 2.79365 8.16675 2.33341 8.16675H1.50008L1.4029 8.17236C0.988448 8.22049 0.666748 8.57272 0.666748 9.00008C0.666748 9.46032 1.03984 9.83342 1.50008 9.83342H2.33341L2.4306 9.82781C2.84505 9.77967 3.16675 9.42744 3.16675 9.00008ZM3.10749 3.10749C3.4079 2.80709 3.88059 2.78398 4.2075 3.03817L4.286 3.10749L4.87517 3.69666C5.20061 4.0221 5.20061 4.54973 4.87517 4.87517C4.57477 5.17557 4.10207 5.19868 3.77516 4.94449L3.69666 4.87517L3.10749 4.286C2.78206 3.96057 2.78206 3.43293 3.10749 3.10749Z" fill="white"/>
</svg>
