<svg width="48" height="48" viewBox="0 0 48 48" fill="none" xmlns="http://www.w3.org/2000/svg">
<path fill-rule="evenodd" clip-rule="evenodd" d="M24.7658 6.15187C24.8815 6.19976 24.9936 6.25897 25.1005 6.3295C25.1431 6.35767 25.1849 6.38764 25.2258 6.41941L25.2258 6.41942C25.2912 6.47025 25.3541 6.52571 25.4142 6.58579L33.4142 14.5858C34.1953 15.3668 34.1953 16.6332 33.4142 17.4142C32.6932 18.1352 31.5588 18.1906 30.7742 17.5806L30.5858 17.4142L26 12.8284V32C26 33.1046 25.1046 34 24 34C22.9743 34 22.129 33.2279 22.0135 32.2332L22 32V12.8284L17.4142 17.4142C16.6332 18.1953 15.3668 18.1953 14.5858 17.4142C13.8648 16.6932 13.8094 15.5588 14.4194 14.7742L14.5858 14.5858L22.5858 6.58579C22.7775 6.39403 22.9985 6.24936 23.2344 6.15176C23.4702 6.05397 23.7288 6 24 6M24.003 6C24.2732 6.0004 24.5308 6.05438 24.7658 6.15187ZM41.9865 31.7668C41.871 30.7721 41.0257 30 40 30C38.8954 30 38 30.8954 38 32V34L37.989 34.2985C37.8363 36.3682 36.1087 38 34 38H14L13.7015 37.989C11.6318 37.8363 10 36.1087 10 34V32L9.98654 31.7668C9.87101 30.7721 9.02567 30 8 30C6.89543 30 6 30.8954 6 32V34L6.00979 34.3993C6.21784 38.6321 9.71561 42 14 42H34L34.3993 41.9902C38.6321 41.7822 42 38.2844 42 34V32L41.9865 31.7668Z" fill="#404040"/>
</svg>
