<svg width="18" height="18" viewBox="0 0 18 18" fill="none" xmlns="http://www.w3.org/2000/svg">
<path d="M11.9917 10.975C12.1652 11.7092 12.1703 12.4732 12.0066 13.2097C11.843 13.9462 11.5148 14.6361 11.0466 15.2277C10.5784 15.8193 9.98244 16.2973 9.30329 16.6259C8.62415 16.9545 7.87945 17.1251 7.125 17.125V13.125M11.9917 10.975C13.5832 9.81565 14.878 8.29625 15.7701 6.5409C16.6623 4.78556 17.1266 2.84406 17.125 0.875003C15.1561 0.873581 13.2148 1.33791 11.4596 2.23006C9.70437 3.12221 8.1851 4.41688 7.02583 6.00834M11.9917 10.975C10.5433 12.0344 8.8836 12.7678 7.125 13.125M7.125 13.125C7.03917 13.1425 6.9525 13.1592 6.86583 13.175C6.10982 12.5755 5.42532 11.891 4.82583 11.135C4.84158 11.0482 4.85741 10.9615 4.875 10.875M7.02583 6.00834C6.29155 5.83467 5.52748 5.82944 4.79089 5.99304C4.0543 6.15664 3.36428 6.48483 2.77256 6.95301C2.18084 7.4212 1.70275 8.01723 1.37412 8.69645C1.0455 9.37567 0.874863 10.1205 0.875 10.875H4.875M7.02583 6.00834C5.96657 7.45652 5.23229 9.11671 4.875 10.875M3.00917 12.8667C2.46098 13.2743 2.03477 13.8242 1.77669 14.4567C1.5186 15.0892 1.43848 15.7802 1.545 16.455C2.21986 16.5614 2.91097 16.4812 3.54348 16.2229C4.17599 15.9647 4.7258 15.5383 5.13333 14.99M12.75 6.5C12.75 6.83152 12.6183 7.14947 12.3839 7.38389C12.1495 7.61831 11.8315 7.75 11.5 7.75C11.1685 7.75 10.8505 7.61831 10.6161 7.38389C10.3817 7.14947 10.25 6.83152 10.25 6.5C10.25 6.16848 10.3817 5.85054 10.6161 5.61612C10.8505 5.3817 11.1685 5.25 11.5 5.25C11.8315 5.25 12.1495 5.3817 12.3839 5.61612C12.6183 5.85054 12.75 6.16848 12.75 6.5Z" stroke="#404040" stroke-width="1.15" stroke-linecap="round" stroke-linejoin="round"/>
</svg>
