<svg width="16" height="18" viewBox="0 0 16 18" fill="none" xmlns="http://www.w3.org/2000/svg">
<path fill-rule="evenodd" clip-rule="evenodd" d="M8 0.666748C10.3012 0.666748 12.1667 2.53223 12.1667 4.83341C12.1667 5.29365 11.7936 5.66675 11.3333 5.66675C10.906 5.66675 10.5537 5.34505 10.5056 4.9306L10.5 4.83341C10.5 3.4527 9.38071 2.33341 8 2.33341C6.6686 2.33341 5.58028 3.37418 5.50424 4.68652L5.5 4.83341V7.33342H13C14.3807 7.33342 15.5 8.4527 15.5 9.83342V14.8334C15.5 16.2141 14.3807 17.3334 13 17.3334H3C1.61929 17.3334 0.5 16.2141 0.5 14.8334V9.83342C0.5 8.4527 1.61929 7.33342 3 7.33342H3.83333V4.83341C3.83333 2.53223 5.69881 0.666748 8 0.666748ZM4.66667 9.00008H3C2.53976 9.00008 2.16667 9.37318 2.16667 9.83342V14.8334C2.16667 15.2937 2.53976 15.6667 3 15.6667H13C13.4602 15.6667 13.8333 15.2937 13.8333 14.8334V9.83342C13.8333 9.37318 13.4602 9.00008 13 9.00008H4.66667ZM8 10.6667C8.42736 10.6667 8.77959 10.9884 8.82773 11.4029L8.83333 11.5001V13.1667C8.83333 13.627 8.46024 14.0001 8 14.0001C7.57264 14.0001 7.22041 13.6784 7.17227 13.2639L7.16667 13.1667V11.5001C7.16667 11.0398 7.53976 10.6667 8 10.6667Z" fill="#404040"/>
</svg>
