<svg width="48" height="48" viewBox="0 0 48 48" fill="none" xmlns="http://www.w3.org/2000/svg">
<path fill-rule="evenodd" clip-rule="evenodd" d="M44 12C44 8.68629 41.3137 6 38 6H10L9.64745 6.01019C6.49784 6.19268 4 8.80464 4 12C4 14.6125 5.6697 16.835 8.00018 17.6587L8 36L8.01019 36.3525C8.19268 39.5022 10.8046 42 14 42H34L34.3525 41.9898C37.5022 41.8073 40 39.1954 40 36L40.0018 17.658C42.3312 16.8338 44 14.6118 44 12ZM12 18H36V36L35.9865 36.2332C35.871 37.2279 35.0257 38 34 38H14L13.7668 37.9865C12.7721 37.871 12 37.0257 12 36V18ZM28 22C29.1046 22 30 22.8954 30 24C30 25.0257 29.2279 25.871 28.2332 25.9865L28 26H20C18.8954 26 18 25.1046 18 24C18 22.9743 18.7721 22.129 19.7668 22.0135L20 22H28ZM10 10H38L38.2332 10.0135C39.2279 10.129 40 10.9743 40 12C40 13.1046 39.1046 14 38 14H10L9.76676 13.9865C8.77208 13.871 8 13.0257 8 12C8 10.8954 8.89543 10 10 10Z" fill="#404040"/>
</svg>
