<svg width="275" viewBox="0 0 275 238" fill="none" xmlns="http://www.w3.org/2000/svg">
<path fill-rule="evenodd" clip-rule="evenodd" d="M230.15 94.2314C216.725 96.7985 212.924 94.3985 206.774 82.6875C201.205 72.0875 188.044 76.0345 177.237 75.7685C163.617 75.4325 151.018 71.3495 138.372 65.3015C127.063 59.8965 116.385 54.6725 103.755 53.1455C90.1651 51.6951 76.5368 55.5103 65.6755 63.8055C51.3425 74.6505 45.8095 92.6054 40.7355 109.052C34.8235 128.219 27.6995 144.899 15.0995 160.779C2.67052 176.432 -8.20048 194.265 10.7135 210.314C21.3505 219.345 35.2565 222.836 48.5995 225.682C80.2335 232.425 115.161 244.035 147.047 232.482C156.987 228.882 163.847 221.139 170.312 213.056C181.589 198.956 187 188.656 208.461 179.461C232.255 169.27 251.586 155.893 254.912 135.674C255.562 131.848 255.846 127.969 255.762 124.089C255.78 111.714 250.141 97.0594 236.739 94.3204C234.57 93.8618 232.333 93.8306 230.153 94.2285" fill="#CEEEF9"/>
<path fill-rule="evenodd" clip-rule="evenodd" d="M255.316 132.827C255.173 133.966 255.051 134.815 254.91 135.678C251.896 154.003 235.737 166.704 215.02 176.511C212.88 177.525 210.692 178.51 208.458 179.464C188.692 187.931 182.542 197.344 172.885 209.787C172.055 210.856 171.202 211.945 170.31 213.059C164.974 219.736 159.356 226.175 151.965 230.244C150.502 230.8 149.007 231.265 147.488 231.635C143.395 232.576 139.234 233.188 135.045 233.464C133.499 230.412 132.186 227.248 131.117 223.999C164.059 222.469 177.617 192.255 180.284 174.807C181.984 163.68 179 139.197 187.357 131.415C195.714 123.633 183.234 114.669 185.857 103.829C188.48 92.9894 218.725 95.9404 208.044 91.3884L209.275 89.0134L210.388 88.7874C214.903 95.1704 219.496 96.2684 230.148 94.2314C232.329 93.8335 234.566 93.8648 236.734 94.3234C243.334 95.6744 248.057 99.9234 251.143 105.361C254.241 111.431 255.829 118.158 255.773 124.972C255.779 125.99 255.766 126.721 255.741 127.459C255.695 128.58 255.654 129.327 255.592 130.084" fill="url(#paint0_linear_4202_29423)"/>
<path fill-rule="evenodd" clip-rule="evenodd" d="M220.802 185.275C217.97 184.466 214.836 185.842 212.147 186.775C209.311 187.764 206.55 188.957 203.887 190.346C198.549 193.131 193.639 196.667 189.307 200.846C186.736 203.327 184.387 206.028 182.286 208.917C180.358 211.575 177.955 214.734 180.093 218.042C181.259 219.842 183.662 220.501 185.793 220.216C192.114 219.374 195.158 212.588 199.079 208.403C203.388 203.805 208.386 199.904 213.894 196.84C216.13 195.597 218.445 194.499 220.823 193.552C222.685 192.808 224.354 191.459 224.285 189.194C224.178 188.263 223.786 187.386 223.164 186.684C222.542 185.983 221.719 185.489 220.807 185.271" fill="#CFF0F9"/>
<path fill-rule="evenodd" clip-rule="evenodd" d="M263.779 96.4263C262.78 99.3861 260.909 101.975 258.412 103.852C255.916 105.729 252.909 106.808 249.789 106.945H193.697C187.684 106.945 184.138 102.211 185.818 96.4263L196.118 60.9543C197.116 57.9941 198.987 55.4052 201.484 53.528C203.981 51.6507 206.987 50.5729 210.109 50.4363H266.203C272.218 50.4363 275.763 55.1693 274.082 60.9553L263.779 96.4263Z" fill="#A8E3F6"/>
<path fill-rule="evenodd" clip-rule="evenodd" d="M160.089 35.0913H157.342C154.324 35.0913 153.375 33.1413 155.232 30.7573L177.995 1.55735C179.854 -0.825654 182.158 -0.428654 183.116 2.43835L192.287 29.8733C192.551 30.4665 192.654 31.1181 192.588 31.7636C192.521 32.4091 192.287 33.026 191.908 33.553C191.53 34.08 191.02 34.4989 190.43 34.768C189.839 35.0372 189.189 35.1473 188.542 35.0873H185.796L175.696 80.4393H149.984L160.089 35.0913Z" fill="#A8E3F6"/>
<path fill-rule="evenodd" clip-rule="evenodd" d="M133.649 53.7973H132.588C131.425 53.7973 131.059 53.0453 131.775 52.1273L140.546 40.8783C141.262 39.9603 142.151 40.1133 142.521 41.2173L146.056 51.7883C146.157 52.0168 146.197 52.2679 146.171 52.5166C146.145 52.7652 146.055 53.0029 145.909 53.2059C145.763 53.409 145.567 53.5704 145.34 53.6741C145.112 53.7778 144.861 53.8203 144.613 53.7973H143.556L139.664 71.2733H129.758L133.649 53.7973Z" fill="#A8E3F6"/>
<path fill-rule="evenodd" clip-rule="evenodd" d="M262.663 38.7674C262.338 39.7288 261.73 40.5695 260.919 41.1791C260.108 41.7888 259.131 42.1389 258.118 42.1834H239.891C239.466 42.2162 239.04 42.1413 238.652 41.9657C238.265 41.79 237.928 41.5193 237.672 41.1786C237.417 40.8379 237.252 40.4382 237.192 40.0167C237.133 39.5952 237.181 39.1655 237.332 38.7674L240.679 27.2474C241.003 26.2858 241.612 25.4451 242.423 24.8354C243.235 24.2258 244.212 23.8758 245.226 23.8314H263.451C263.875 23.7988 264.301 23.8739 264.688 24.0496C265.076 24.2254 265.413 24.4961 265.668 24.8367C265.923 25.1773 266.088 25.5769 266.148 25.9982C266.208 26.4196 266.16 26.8493 266.01 27.2474L262.663 38.7674Z" fill="#A8E3F6"/>
<path fill-rule="evenodd" clip-rule="evenodd" d="M235.975 22.5144C235.459 24.0406 234.494 25.3751 233.206 26.3428C231.918 27.3104 230.368 27.866 228.759 27.9364H206.836C206.162 27.9885 205.486 27.8697 204.87 27.5909C204.255 27.3122 203.719 26.8825 203.314 26.3418C202.909 25.8011 202.647 25.1668 202.552 24.4977C202.457 23.8286 202.532 23.1465 202.772 22.5144L206.61 9.30539C207.125 7.77939 208.089 6.44489 209.377 5.47722C210.664 4.50954 212.214 3.95393 213.824 3.88339H235.752C236.425 3.83107 237.101 3.94969 237.716 4.22826C238.332 4.50682 238.867 4.93632 239.272 5.4769C239.678 6.01748 239.94 6.65164 240.035 7.32057C240.129 7.98949 240.054 8.67152 239.815 9.30339L235.975 22.5144Z" fill="#4687C7"/>
<path fill-rule="evenodd" clip-rule="evenodd" d="M220.503 159.251C219.467 162.299 217.535 164.962 214.959 166.892C212.384 168.823 209.285 169.929 206.07 170.067H106.593C100.385 170.067 96.7275 165.2 98.4635 159.251L117.852 92.7134C119.586 86.7644 126.077 81.8984 132.284 81.8984H231.763C237.963 81.8984 241.624 86.7634 239.891 92.7134L220.503 159.251Z" fill="#67CCE6" fill-opacity="0.46"/>
<path fill-rule="evenodd" clip-rule="evenodd" d="M214.902 147.132C213.171 153.107 206.664 157.998 200.453 157.998H100.846C94.6345 157.998 90.9705 153.107 92.7065 147.132L112.121 80.3124C113.857 74.3384 120.358 69.4514 126.571 69.4514H226.179C232.39 69.4514 236.053 74.3384 234.316 80.3124L214.902 147.132Z" fill="#4378A5"/>
<path fill-rule="evenodd" clip-rule="evenodd" d="M207.348 143.639C206.575 145.932 205.126 147.937 203.192 149.391C201.258 150.845 198.929 151.68 196.511 151.786H108.39C103.731 151.786 100.985 148.12 102.29 143.639L119.678 83.8044C120.452 81.5129 121.901 79.5088 123.834 78.0552C125.767 76.6016 128.094 75.7665 130.51 75.6594H218.63C223.289 75.6594 226.03 79.3254 224.73 83.8044L207.348 143.639Z" fill="#D3F1FA"/>
<path fill-rule="evenodd" clip-rule="evenodd" d="M163.512 92.7874H119.584C119.358 92.7874 119.142 92.6979 118.982 92.5384C118.823 92.379 118.734 92.1628 118.734 91.9374C118.734 91.712 118.823 91.4958 118.982 91.3364C119.142 91.177 119.358 91.0874 119.584 91.0874H163.512C163.737 91.0874 163.953 91.177 164.113 91.3364C164.272 91.4958 164.362 91.712 164.362 91.9374C164.362 92.1628 164.272 92.379 164.113 92.5384C163.953 92.6979 163.737 92.7874 163.512 92.7874Z" fill="white"/>
<path fill-rule="evenodd" clip-rule="evenodd" d="M145.421 97.7895H119.585C119.408 97.7828 119.242 97.708 119.119 97.5809C118.997 97.4539 118.929 97.2844 118.929 97.108C118.929 96.9317 118.997 96.7622 119.119 96.6351C119.242 96.508 119.408 96.4333 119.585 96.4265H145.421C145.597 96.4333 145.764 96.508 145.886 96.6351C146.008 96.7622 146.076 96.9317 146.076 97.108C146.076 97.2844 146.008 97.4539 145.886 97.5809C145.764 97.708 145.597 97.7828 145.421 97.7895Z" fill="white"/>
<path fill-rule="evenodd" clip-rule="evenodd" d="M160.645 103.416H119.584C119.358 103.416 119.142 103.327 118.982 103.167C118.823 103.008 118.734 102.792 118.734 102.566C118.734 102.341 118.823 102.125 118.982 101.965C119.142 101.806 119.358 101.716 119.584 101.716H160.644C160.869 101.716 161.085 101.806 161.245 101.965C161.404 102.125 161.494 102.341 161.494 102.566C161.494 102.792 161.404 103.008 161.245 103.167C161.085 103.327 160.869 103.416 160.644 103.416" fill="white"/>
<path fill-rule="evenodd" clip-rule="evenodd" d="M150.988 108.509H116.908C116.703 108.509 116.507 108.428 116.363 108.284C116.219 108.14 116.138 107.944 116.138 107.739C116.138 107.535 116.219 107.339 116.363 107.195C116.507 107.051 116.703 106.969 116.908 106.969H150.988C151.192 106.969 151.388 107.051 151.532 107.195C151.676 107.339 151.758 107.535 151.758 107.739C151.758 107.944 151.676 108.14 151.532 108.284C151.388 108.428 151.192 108.509 150.988 108.509Z" fill="white"/>
<path fill-rule="evenodd" clip-rule="evenodd" d="M146.208 113.925H116.908C116.714 113.925 116.528 113.848 116.391 113.711C116.254 113.574 116.177 113.389 116.177 113.195C116.177 113.001 116.254 112.815 116.391 112.678C116.528 112.541 116.714 112.464 116.908 112.464H146.208C146.401 112.464 146.587 112.541 146.724 112.678C146.861 112.815 146.938 113.001 146.938 113.195C146.938 113.389 146.861 113.574 146.724 113.711C146.587 113.848 146.401 113.925 146.208 113.925Z" fill="white"/>
<path fill-rule="evenodd" clip-rule="evenodd" d="M206.531 126.778H171.304C171.078 126.778 170.862 126.689 170.702 126.529C170.543 126.37 170.454 126.154 170.454 125.928C170.454 125.703 170.543 125.487 170.702 125.327C170.862 125.168 171.078 125.078 171.304 125.078H206.531C206.756 125.078 206.972 125.168 207.132 125.327C207.291 125.487 207.381 125.703 207.381 125.928C207.381 126.154 207.291 126.37 207.132 126.529C206.972 126.689 206.756 126.778 206.531 126.778Z" fill="white"/>
<path fill-rule="evenodd" clip-rule="evenodd" d="M204.951 131.952H169.771C169.545 131.952 169.329 131.863 169.169 131.703C169.01 131.544 168.921 131.328 168.921 131.102C168.921 130.877 169.01 130.661 169.169 130.501C169.329 130.342 169.545 130.252 169.771 130.252H204.951C205.176 130.252 205.392 130.342 205.552 130.501C205.711 130.661 205.801 130.877 205.801 131.102C205.801 131.328 205.711 131.544 205.552 131.703C205.392 131.863 205.176 131.952 204.951 131.952Z" fill="white"/>
<path fill-rule="evenodd" clip-rule="evenodd" d="M203.661 137.405H168.244C168.018 137.405 167.802 137.316 167.642 137.156C167.483 136.997 167.394 136.781 167.394 136.555C167.394 136.33 167.483 136.114 167.642 135.954C167.802 135.795 168.018 135.705 168.244 135.705H203.66C203.885 135.705 204.101 135.795 204.261 135.954C204.42 136.114 204.51 136.33 204.51 136.555C204.51 136.781 204.42 136.997 204.261 137.156C204.101 137.316 203.885 137.405 203.66 137.405" fill="white"/>
<path fill-rule="evenodd" clip-rule="evenodd" d="M219.384 85.9874H119.584C119.358 85.9874 119.142 85.8978 118.982 85.7384C118.823 85.579 118.734 85.3628 118.734 85.1374C118.734 84.9119 118.823 84.6957 118.982 84.5363C119.142 84.3769 119.358 84.2874 119.584 84.2874H219.384C219.609 84.2874 219.825 84.3769 219.985 84.5363C220.144 84.6957 220.234 84.9119 220.234 85.1374C220.234 85.3628 220.144 85.579 219.985 85.7384C219.825 85.8978 219.609 85.9874 219.384 85.9874Z" fill="white"/>
<path fill-rule="evenodd" clip-rule="evenodd" d="M208.164 117.17H165.121L172.521 91.9614H215.566L208.164 117.17Z" fill="white"/>
<path fill-rule="evenodd" clip-rule="evenodd" d="M135.015 136.826H117.965L121.559 124.471H138.604L135.015 136.826Z" fill="#67CCE6"/>
<path fill-rule="evenodd" clip-rule="evenodd" d="M157.094 136.826H140.048L143.639 124.471H160.688L157.094 136.826Z" fill="#67CCE6"/>
<path fill-rule="evenodd" clip-rule="evenodd" d="M201.162 78.5355C201.568 78.2338 202.075 78.1017 202.577 78.167C203.078 78.2323 203.535 78.4899 203.851 78.8855C204.036 79.3569 204.032 79.882 203.839 80.3504C203.646 80.8189 203.279 81.1942 202.815 81.3975C202.408 81.6984 201.901 81.8301 201.399 81.7649C200.898 81.6996 200.441 81.4424 200.125 81.0475C199.94 80.576 199.945 80.0512 200.138 79.583C200.331 79.1147 200.698 78.7394 201.162 78.5355Z" fill="#4378A5"/>
<path fill-rule="evenodd" clip-rule="evenodd" d="M208.317 78.6084C208.722 78.3056 209.229 78.1723 209.731 78.2369C210.233 78.3015 210.69 78.5588 211.006 78.9544C211.193 79.4257 211.19 79.9514 210.996 80.4203C210.803 80.8892 210.435 81.2644 209.97 81.4664C209.564 81.7682 209.057 81.9005 208.556 81.8356C208.055 81.7707 207.599 81.5135 207.284 81.1184C207.098 80.6478 207.102 80.1237 207.295 79.656C207.488 79.1883 207.854 78.8132 208.317 78.6094" fill="#FCB21F"/>
<path fill-rule="evenodd" clip-rule="evenodd" d="M215.475 78.6904C215.88 78.3885 216.387 78.2559 216.889 78.3204C217.39 78.385 217.847 78.6416 218.164 79.0364C218.35 79.5078 218.346 80.033 218.153 80.5015C217.959 80.97 217.592 81.3453 217.128 81.5484C216.722 81.8506 216.215 81.9833 215.714 81.9184C215.213 81.8534 214.756 81.5959 214.442 81.2004C214.254 80.7299 214.257 80.205 214.45 79.7368C214.643 79.2685 215.01 78.8936 215.475 78.6914" fill="#67CCE6"/>
<path fill-rule="evenodd" clip-rule="evenodd" d="M132.634 85.1514C132.634 85.1514 137.869 88.9794 137.206 99.2214C137.544 101.409 138.101 103.558 138.869 105.634C140.061 108.701 141.301 117.696 137.727 123.725C137.727 123.725 135.061 127.725 122.349 123.775C122.349 123.775 120.849 134.401 122.133 137.345L113.205 136.412C113.205 136.412 114.133 109.201 114.205 108.554C114.277 107.907 118.416 98.7924 118.416 98.7924L132.634 85.1514Z" fill="white" stroke="#004B75" stroke-width="1.149"/>
<path fill-rule="evenodd" clip-rule="evenodd" d="M177.606 131.103C176.658 130.481 178.17 130.548 177.158 127.053C176.146 123.558 175.576 123.053 176.723 120.553C177.87 118.053 183.453 104.526 183.841 103.739C184.229 102.952 185.516 102.903 185.149 104.346C184.782 105.789 183.4 114.597 184.098 114.931C184.796 115.265 196.023 116.947 196.525 120.444C197.027 123.941 190.246 133.634 188.664 134.6C181.924 132.684 178.238 131.518 177.606 131.103Z" fill="white" stroke="#004B75" stroke-width="1.149"/>
<path fill-rule="evenodd" clip-rule="evenodd" d="M177.021 129.314L159.007 162.486C144.961 139.862 119.609 135.802 113.967 135.166C113.706 135.566 113.431 135.966 113.14 136.346C113.113 136.386 113.088 136.421 113.06 136.457C112.799 136.799 112.533 137.127 112.255 137.449C112.198 137.517 112.144 137.584 112.087 137.649C111.83 137.939 111.56 138.221 111.28 138.496C111.206 138.572 111.133 138.653 111.054 138.726C110.705 139.062 110.347 139.391 109.974 139.697C99.0095 148.694 81.5185 163.201 81.2345 181.294C80.9735 197.66 91.1145 227.294 125.965 234.002C126.072 234.011 126.175 234.045 126.265 234.102C127.36 234.066 128.465 234.023 129.579 233.969C142.155 233.389 149.473 231.888 154.668 229.218C128.949 228.477 119.306 195.619 128.699 194.648C138.42 193.642 141.279 183.302 141.279 183.302C141.279 183.302 149.715 193.354 162.579 192.922C175.444 192.49 189.879 133.049 189.879 133.049L177.021 129.314Z" fill="#004B75"/>
<path fill-rule="evenodd" clip-rule="evenodd" d="M162.961 166.312L180.289 130.265L177.021 129.314L159.007 162.486C159.007 162.486 163.437 168.801 164.389 171.098L162.961 166.312Z" fill="#4687C7"/>
<path fill-rule="evenodd" clip-rule="evenodd" d="M128.699 194.648C129.442 194.571 130.178 194.431 130.899 194.23C137.357 192.46 140.171 186.367 140.999 184.13L141.008 184.112C141.034 184.034 141.06 183.96 141.088 183.892C141.089 183.883 141.092 183.875 141.097 183.866C141.119 183.802 141.141 183.742 141.158 183.686C141.16 183.678 141.163 183.67 141.167 183.662C141.183 183.612 141.198 183.562 141.214 183.522C141.215 183.514 141.217 183.505 141.221 183.496C141.232 183.461 141.242 183.427 141.25 183.403C141.258 183.379 141.25 183.39 141.25 183.379C141.266 183.331 141.275 183.299 141.275 183.299L128.362 171.295L136.091 182.585C136.091 182.585 132.466 194.55 118.172 191.966C119.952 193.024 121.83 193.906 123.781 194.6C123.488 195.874 122.453 202.2 128.062 211.16V211.137C124.109 203.107 124.087 195.123 128.704 194.647" fill="#4687C7"/>
<path fill-rule="evenodd" clip-rule="evenodd" d="M35.0035 173.915C32.7365 200.734 45.0115 237.678 129.885 233.768C101.186 221.376 91.5255 199.849 91.7945 182.819C92.0795 164.767 99.2095 148.69 110.208 139.711C121.207 130.732 119.893 109.648 119.893 109.648C119.893 109.648 115.586 106.214 117.525 102.774C119.464 99.3344 124.625 102.415 124.625 102.415C125.305 102.035 125.941 101.584 126.525 101.069C127.144 100.559 127.701 99.9774 128.182 99.3364C129.224 97.8442 130.077 96.2298 130.724 94.5294C131.449 92.8023 132.02 91.0152 132.432 89.1884C132.807 87.5224 133.145 85.8384 133.42 84.1524C133.698 82.031 133.804 79.8907 133.737 77.7524C133.737 77.3924 133.729 77.0314 133.737 76.6754C133.251 76.5876 132.759 76.5371 132.264 76.5244C131.551 76.4604 130.84 76.4054 130.126 76.3554C129.767 76.3354 129.389 76.3104 128.99 76.2864C125.681 76.0937 122.37 76.0314 119.057 76.0994C115.594 76.1685 112.136 76.4178 108.698 76.8464C108.717 76.8453 108.735 76.8429 108.752 76.8394C100.039 77.8314 89.6995 80.7394 84.7625 88.6634C80.9385 94.7974 83.3975 102.548 81.1975 109.163C79.1885 115.2 75.4785 121.005 70.1315 124.621C64.2035 128.632 37.1065 149.072 35.0015 173.914" fill="#FCD34D"/>
<defs>
<linearGradient id="paint0_linear_4202_29423" x1="227.975" y1="92.6936" x2="141.911" y2="223.133" gradientUnits="userSpaceOnUse">
<stop stop-color="#CEEEF9"/>
<stop offset="1" stop-color="white"/>
</linearGradient>
</defs>
</svg>
