<svg xmlns="http://www.w3.org/2000/svg" fill="none" viewBox="0 0 275 238"><path fill="#CEEEF9" fill-rule="evenodd" d="M230.2 94.2c-13.5 2.6-17.3.2-23.4-11.5-5.6-10.6-18.8-6.7-29.6-7a94.7 94.7 0 0 1-38.8-10.4c-11.3-5.4-22-10.6-34.6-12.2a53.4 53.4 0 0 0-38.1 10.7c-14.4 10.9-19.9 28.8-25 45.3-5.9 19.1-13 35.8-25.6 51.7-12.4 15.6-23.3 33.5-4.4 49.5 10.7 9 24.6 12.5 37.9 15.4 31.6 6.7 66.6 18.3 98.4 6.8a55 55 0 0 0 23.3-19.4c11.3-14.1 16.7-24.4 38.2-33.6 23.8-10.2 43-23.6 46.4-43.8.7-3.9 1-7.7.9-11.6 0-12.4-5.7-27-19-29.8a17 17 0 0 0-6.6 0" clip-rule="evenodd"/><path fill="url(#a)" fill-rule="evenodd" d="m255.3 132.8-.4 2.9c-3 18.3-19.2 31-39.9 40.8l-6.5 3c-19.8 8.4-26 17.8-35.6 30.3l-2.6 3.3a64.3 64.3 0 0 1-18.3 17.1c-1.5.6-3 1-4.5 1.4-4.1 1-8.3 1.6-12.5 1.9a68 68 0 0 1-3.9-9.5c33-1.5 46.5-31.7 49.2-49.2 1.7-11.1-1.3-35.6 7-43.4 8.4-7.8-4-16.7-1.4-27.6C188.5 93 218.7 96 208 91.4l1.3-2.4 1-.2c4.6 6.4 9.2 7.5 19.8 5.4a17 17 0 0 1 6.6.1 21.4 21.4 0 0 1 14.4 11 42.4 42.4 0 0 1 4.5 24.8" clip-rule="evenodd"/><path fill="#CFF0F9" fill-rule="evenodd" d="M220.8 185.3c-2.8-.8-6 .5-8.7 1.5a62 62 0 0 0-29.8 22.1c-2 2.7-4.3 5.8-2.2 9.1 1.2 1.8 3.6 2.5 5.7 2.2 6.3-.8 9.4-7.6 13.3-11.8a60.8 60.8 0 0 1 21.7-14.8c1.9-.8 3.6-2.1 3.5-4.4a4.6 4.6 0 0 0-3.5-4" clip-rule="evenodd"/><path fill="#A8E3F6" fill-rule="evenodd" d="M263.8 96.4a15.5 15.5 0 0 1-14 10.5h-56.1c-6 0-9.6-4.7-7.9-10.5L196.1 61a15.5 15.5 0 0 1 14-10.6h56.1c6 0 9.6 4.8 7.9 10.6l-10.3 35.4ZM160 35h-2.7c-3 0-4-1.9-2-4.2L178 1.6c1.9-2.4 4.2-2 5.1.8l9.2 27.5a3.7 3.7 0 0 1-3.8 5.2h-2.7l-10.1 45.3H150l10-45.3Zm-26.4 18.8h-1c-1.2 0-1.5-.8-.8-1.7l8.7-11.2c.8-1 1.7-.8 2 .3l3.6 10.6a1.4 1.4 0 0 1-1.5 2h-1l-4 17.5h-9.8l3.8-17.5Zm129.1-15a5 5 0 0 1-4.6 3.4H240a2.5 2.5 0 0 1-2.6-3.4l3.4-11.6a5 5 0 0 1 4.5-3.4h18.3a2.5 2.5 0 0 1 2.5 3.4l-3.3 11.6Z" clip-rule="evenodd"/><path fill="#4687C7" fill-rule="evenodd" d="M236 22.5a8 8 0 0 1-7.2 5.4h-22a4 4 0 0 1-4-5.4l3.8-13.2a8 8 0 0 1 7.2-5.4h22a4 4 0 0 1 4 5.4L236 22.5Z" clip-rule="evenodd"/><path fill="#67CCE6" fill-opacity=".5" fill-rule="evenodd" d="M220.5 159.3a16 16 0 0 1-14.4 10.8h-99.5c-6.2 0-9.9-4.9-8.1-10.8l19.4-66.6A16 16 0 0 1 132.3 82h99.5c6.2 0 9.8 4.9 8 10.8l-19.3 66.6Z" clip-rule="evenodd"/><path fill="#4378A5" fill-rule="evenodd" d="M214.9 147.1a16 16 0 0 1-14.4 10.9h-99.7c-6.2 0-9.8-4.9-8-10.9L112 80.3a16 16 0 0 1 14.5-10.8h99.6c6.2 0 9.9 4.8 8.1 10.8L215 147.1Z" clip-rule="evenodd"/><path fill="#D3F1FA" fill-rule="evenodd" d="M207.3 143.6a12 12 0 0 1-10.8 8.2h-88.1c-4.7 0-7.4-3.7-6.1-8.2l17.4-59.8a12 12 0 0 1 10.8-8.1h88.1c4.7 0 7.4 3.6 6.1 8.1l-17.4 59.8Z" clip-rule="evenodd"/><path fill="#fff" fill-rule="evenodd" d="M163.5 92.8h-44a.9.9 0 1 1 0-1.7h44a.9.9 0 0 1 0 1.7Zm-18.1 5h-25.8a.7.7 0 0 1 0-1.4h25.8a.7.7 0 0 1 0 1.4Zm15.2 5.6h-41a.8.8 0 1 1 0-1.7h41a.9.9 0 0 1 .9.9.8.8 0 0 1-.9.8m-9.6 5.1h-34a.8.8 0 1 1 0-1.5h34a.8.8 0 0 1 0 1.5Zm-4.8 5.5H117a.7.7 0 1 1 0-1.5h29.3a.7.7 0 0 1 0 1.4Zm60.3 12.8h-35.2a.8.8 0 1 1 0-1.7h35.2a.9.9 0 0 1 .9.8.8.8 0 0 1-.9.9ZM205 132h-35.2a.8.8 0 1 1 0-1.7H205a.9.9 0 0 1 .8.8.8.8 0 0 1-.8.9Zm-1.3 5.4h-35.5a.8.8 0 1 1 0-1.7h35.5a.9.9 0 0 1 .8.9.8.8 0 0 1-.8.8M219.4 86h-99.8a.9.9 0 0 1-.6-1.5l.6-.2h99.8a.9.9 0 0 1 0 1.7Zm-11.2 31.2h-43l7.3-25.2h43l-7.3 25.2Z" clip-rule="evenodd"/><path fill="#67CCE6" fill-rule="evenodd" d="M135 136.8h-17l3.6-12.3h17l-3.6 12.3Zm22 0h-17l3.6-12.3h17l-3.5 12.3Z" clip-rule="evenodd"/><path fill="#4378A5" fill-rule="evenodd" d="M201.2 78.5a2 2 0 0 1 2.7.4 2 2 0 0 1-1 2.5 2 2 0 0 1-2.8-.4 2 2 0 0 1 1-2.5Z" clip-rule="evenodd"/><path fill="#FCB21F" fill-rule="evenodd" d="M208.3 78.6a2 2 0 0 1 2.7.4 2 2 0 0 1-1 2.5 2 2 0 0 1-2.7-.4 2 2 0 0 1 1-2.5" clip-rule="evenodd"/><path fill="#67CCE6" fill-rule="evenodd" d="M215.5 78.7a2 2 0 0 1 2.7.3 2 2 0 0 1-1 2.5 2 2 0 0 1-2.8-.3 2 2 0 0 1 1-2.5" clip-rule="evenodd"/><path fill="#fff" fill-rule="evenodd" stroke="#004B75" stroke-width="1.1" d="M132.6 85.2s5.3 3.8 4.6 14a33 33 0 0 0 1.7 6.4c1.2 3.1 2.4 12.1-1.2 18.1 0 0-2.6 4-15.4 0 0 0-1.5 10.7-.2 13.6l-8.9-.9 1-27.8c0-.7 4.2-9.8 4.2-9.8l14.2-13.6Zm45 45.9c-1-.6.6-.6-.4-4-1-3.5-1.6-4-.5-6.5 1.2-2.5 6.8-16 7.1-16.9.4-.7 1.7-.8 1.3.6a39.6 39.6 0 0 0-1 10.6c.7.4 12 2 12.4 5.5.5 3.5-6.3 13.2-7.8 14.2-6.8-2-10.5-3-11-3.5Z" clip-rule="evenodd"/><path fill="#004B75" fill-rule="evenodd" d="m177 129.3-18 33.2a62.7 62.7 0 0 0-45-27.3 19.2 19.2 0 0 1-1.7 2.2l-.2.2-.8.9-.2.2-1.1 1c-11 9-28.5 23.5-28.8 41.6a53.4 53.4 0 0 0 45 52.8l3.4-.1a60.2 60.2 0 0 0 25-4.8c-25.7-.7-35.3-33.6-25.9-34.6 9.7-1 12.6-11.3 12.6-11.3s8.4 10 21.3 9.6c12.8-.4 27.3-59.9 27.3-59.9l-12.9-3.7Z" clip-rule="evenodd"/><path fill="#4687C7" fill-rule="evenodd" d="m163 166.3 17.3-36-3.3-1-18 33.2s4.4 6.3 5.4 8.6l-1.4-4.8Zm-34.3 28.3c.7 0 1.5-.2 2.2-.4 6.5-1.7 9.3-7.8 10.1-10a3.4 3.4 0 0 1 .1-.3v-.2l.1-.2v-.2l-12.8-12 7.7 11.3s-3.6 12-18 9.4c1.9 1 3.7 2 5.7 2.6-.3 1.3-1.3 7.6 4.3 16.6-4-8-4-16 .6-16.6" clip-rule="evenodd"/><path fill="#FCD34D" fill-rule="evenodd" d="M35 174c-2.3 26.7 10 63.7 94.9 59.8-28.7-12.4-38.4-34-38.1-51 .3-18 7.4-34.1 18.4-43 11-9 9.7-30.2 9.7-30.2s-4.3-3.4-2.4-6.8c2-3.5 7.1-.4 7.1-.4a11 11 0 0 0 2-1.3l1.6-1.8a32 32 0 0 0 4.3-10.1l1-5c.2-2.2.3-4.3.2-6.4v-1.1l-1.4-.2-2.2-.1-1.1-.1a126.2 126.2 0 0 0-20.2.5c-8.8 1-19.1 4-24 11.9-3.9 6.1-1.4 13.8-3.6 20.5a30 30 0 0 1-11 15.4c-6 4-33 24.5-35.2 49.3" clip-rule="evenodd"/><defs><linearGradient id="a" x1="228" x2="141.9" y1="92.7" y2="223.1" gradientUnits="userSpaceOnUse"><stop stop-color="#CEEEF9"/><stop offset="1" stop-color="#fff"/></linearGradient></defs></svg>