<svg width="28" height="20" viewBox="0 0 28 20" fill="none" xmlns="http://www.w3.org/2000/svg">
<path fill-rule="evenodd" clip-rule="evenodd" d="M3.1665 5.83333V2.5H24.8332V5.83333H3.1665ZM3.1665 10.8333V17.5H24.8332V10.8333H3.1665ZM0.666504 1.66667C0.666504 1.22464 0.842099 0.800716 1.15466 0.488156C1.46722 0.175595 1.89114 0 2.33317 0H25.6665C26.1085 0 26.5325 0.175595 26.845 0.488156C27.1576 0.800716 27.3332 1.22464 27.3332 1.66667V18.3333C27.3332 18.7754 27.1576 19.1993 26.845 19.5118C26.5325 19.8244 26.1085 20 25.6665 20H2.33317C1.89114 20 1.46722 19.8244 1.15466 19.5118C0.842099 19.1993 0.666504 18.7754 0.666504 18.3333V1.66667Z" fill="black"/>
</svg>
