<svg width="14" height="11" viewBox="0 0 14 11" fill="none" xmlns="http://www.w3.org/2000/svg">
<path d="M8.74191 0.306429L8.80472 0.361888L13.4714 5.02855C13.495 5.05215 13.5164 5.07708 13.5358 5.10309L13.5835 5.17725L13.6192 5.2524L13.6427 5.32263L13.662 5.42123L13.6666 5.49996L13.6648 5.55012L13.6532 5.63378L13.6335 5.70805L13.6042 5.78211L13.5693 5.8471L13.5202 5.91693L13.4714 5.97136L8.80472 10.638C8.54437 10.8984 8.12226 10.8984 7.86191 10.638C7.62159 10.3977 7.6031 10.0196 7.80645 9.75803L7.86191 9.69522L11.39 6.16663H0.99998C0.63179 6.16663 0.333313 5.86815 0.333313 5.49996C0.333313 5.15807 0.590673 4.87629 0.922232 4.83778L0.99998 4.83329H11.39L7.86191 1.3047C7.60156 1.04435 7.60156 0.622238 7.86191 0.361888C8.0822 0.141592 8.41832 0.107701 8.67425 0.260213L8.74191 0.306429Z" fill="white"/>
</svg>
