<svg width="40" height="41" viewBox="0 0 40 41" fill="none"
  xmlns="http://www.w3.org/2000/svg">
  <path d="M10 18.0002C10 23.0002 14.1667 27.1668 19.1667 27.1668C21 27.1668 22.6667 26.6668 24.1667 25.6668L29.1667 31.3335L31 29.6668L26.1667 24.0002C27.6667 22.3335 28.5 20.3335 28.5 18.0002C28.5 13.0002 24.3333 8.8335 19.3333 8.8335C14.1667 8.8335 10 13.0002 10 18.0002ZM25.8333 18.0002C25.8333 21.6668 22.8333 24.6668 19.1667 24.6668C15.5 24.6668 12.5 21.6668 12.5 18.0002C12.5 14.3335 15.5 11.3335 19.1667 11.3335C22.8333 11.3335 25.8333 14.3335 25.8333 18.0002Z" fill="currentColor"/>
</svg>
