<svg width="420" height="20" viewBox="0 0 420 20" fill="none" xmlns="http://www.w3.org/2000/svg">
<path d="M0 2C0 0.895431 0.895431 0 2 0H418C419.105 0 420 0.895431 420 2V20H0V2Z" fill="#EEEEEE"/>
<path d="M178.052 14.1758C177.505 14.1758 177.03 14.0911 176.626 13.9219C176.226 13.7526 175.91 13.5166 175.679 13.2139C175.448 12.9111 175.317 12.5579 175.288 12.1543L175.283 12.0859H176.504L176.509 12.1348C176.528 12.3333 176.606 12.5059 176.743 12.6523C176.883 12.7988 177.069 12.9144 177.3 12.999C177.531 13.0804 177.795 13.1211 178.091 13.1211C178.374 13.1211 178.625 13.0771 178.843 12.9893C179.061 12.9014 179.232 12.7809 179.355 12.6279C179.479 12.4717 179.541 12.2926 179.541 12.0908V12.0859C179.541 11.832 179.442 11.6253 179.243 11.4658C179.045 11.3031 178.717 11.1729 178.262 11.0752L177.505 10.9189C176.782 10.766 176.257 10.5218 175.928 10.1865C175.602 9.84798 175.439 9.41667 175.439 8.89258V8.8877C175.439 8.46777 175.55 8.09993 175.771 7.78418C175.996 7.46842 176.304 7.22266 176.694 7.04688C177.088 6.86784 177.539 6.77832 178.047 6.77832C178.568 6.77832 179.019 6.86621 179.399 7.04199C179.78 7.21452 180.08 7.45052 180.298 7.75C180.516 8.04948 180.638 8.38802 180.664 8.76562L180.669 8.8291H179.468L179.458 8.77051C179.429 8.58496 179.352 8.42383 179.229 8.28711C179.108 8.14714 178.947 8.03646 178.745 7.95508C178.543 7.8737 178.307 7.83301 178.037 7.83301C177.78 7.83301 177.55 7.8737 177.349 7.95508C177.147 8.0332 176.987 8.14388 176.87 8.28711C176.756 8.43034 176.699 8.60286 176.699 8.80469V8.80957C176.699 9.05697 176.795 9.26204 176.987 9.4248C177.183 9.58757 177.5 9.71452 177.939 9.80566L178.696 9.9668C179.438 10.123 179.974 10.359 180.303 10.6748C180.635 10.9873 180.801 11.4105 180.801 11.9443V11.9492C180.801 12.4049 180.688 12.7988 180.464 13.1309C180.243 13.4629 179.925 13.7201 179.512 13.9023C179.102 14.0846 178.615 14.1758 178.052 14.1758ZM182.217 14V6.9541H183.477V14H182.217ZM186.968 14V8.01367H184.8V6.9541H190.396V8.01367H188.228V14H186.968ZM191.719 14V6.9541H196.279V8.01367H192.979V9.92285H196.099V10.9238H192.979V12.9404H196.279V14H191.719ZM201.138 11.6709V10.6553H203.013C203.465 10.6553 203.817 10.5397 204.067 10.3086C204.318 10.0742 204.443 9.74544 204.443 9.32227V9.3125C204.443 8.88607 204.318 8.55729 204.067 8.32617C203.817 8.09505 203.465 7.97949 203.013 7.97949H201.138V6.9541H203.32C203.799 6.9541 204.217 7.05176 204.575 7.24707C204.933 7.44238 205.213 7.71745 205.415 8.07227C205.617 8.42383 205.718 8.83561 205.718 9.30762V9.31738C205.718 9.78613 205.617 10.1979 205.415 10.5527C205.213 10.9043 204.933 11.1794 204.575 11.3779C204.217 11.5732 203.799 11.6709 203.32 11.6709H201.138ZM200.508 14V6.9541H201.768V14H200.508ZM207.109 14V6.9541H209.956C210.461 6.9541 210.894 7.04362 211.255 7.22266C211.616 7.40169 211.893 7.65397 212.085 7.97949C212.277 8.30501 212.373 8.69238 212.373 9.1416V9.15137C212.373 9.61686 212.256 10.0303 212.021 10.3916C211.79 10.7497 211.466 11.0036 211.05 11.1533L212.588 14H211.152L209.766 11.3486C209.759 11.3486 209.749 11.3486 209.736 11.3486C209.723 11.3486 209.712 11.3486 209.702 11.3486H208.369V14H207.109ZM208.369 10.3818H209.824C210.225 10.3818 210.535 10.276 210.757 10.0645C210.978 9.85286 211.089 9.55827 211.089 9.18066V9.1709C211.089 8.80306 210.973 8.51172 210.742 8.29688C210.514 8.07878 210.2 7.96973 209.8 7.96973H208.369V10.3818ZM213.906 14V6.9541H218.467V8.01367H215.166V9.92285H218.286V10.9238H215.166V12.9404H218.467V14H213.906ZM221.943 14L219.507 6.9541H220.894L222.637 12.5449H222.72L224.468 6.9541H225.854L223.413 14H221.943ZM227.07 14V6.9541H228.33V14H227.07ZM230.068 14V6.9541H234.629V8.01367H231.328V9.92285H234.448V10.9238H231.328V12.9404H234.629V14H230.068ZM237.642 14L235.752 6.9541H237.061L238.271 12.2422H238.34L239.731 6.9541H240.85L242.256 12.2422H242.324L243.53 6.9541H244.829L242.944 14H241.763L240.327 8.95605H240.254L238.828 14H237.642Z" fill="black"/>
</svg>
