<svg xmlns="http://www.w3.org/2000/svg" xmlns:xlink="http://www.w3.org/1999/xlink" viewBox="0 0 878 508"><defs><linearGradient id="linear-gradient" x1="374.3" x2="878.1" y1="305.4" y2="305.4" gradientUnits="userSpaceOnUse"><stop offset="0" stop-color="#fff"/><stop offset="1" stop-color="#50c8ec"/></linearGradient><linearGradient xlink:href="#linear-gradient" id="linear-gradient-2" x1="87.2" x2="533.1" y1="276.6" y2="276.6"/><linearGradient xlink:href="#linear-gradient" id="linear-gradient-3" x1="62" x2="507.9" y1="276.6" y2="276.6"/><style>.cls-14,.cls-7{stroke-miterlimit:10}.cls-4{fill:#67cce6}.cls-5{fill:#4687c7}.cls-6{fill:#4378a5}.cls-11,.cls-7{fill:#fff}.cls-7{stroke:#36434c}.cls-14,.cls-7{stroke-width:1.47px}.cls-14{fill:none;stroke:#004c75}.cls-10{fill:#004c75}.cls-12{fill:#fcb21f}.cls-14{stroke-dasharray:8.82}</style></defs><g id="Layer_2" data-name="Layer 2"><g id="Layer_1-2" data-name="Layer 1"><path d="M438 143c16-15 83-20 105-23 87-9 297-10 332 99 20 64-55 92-67 146-8 36 39 86 4 117-12 11-30 13-46 12-85-3-108-92-141-154-9-16-19-32-34-44-43-35-110-24-161-35-17-4-54-11-56-34-1-17 19-37 30-49a258 258 0 0 1 31-29" style="fill:url(#linear-gradient);stroke-miterlimit:10;stroke:#fff;stroke-width:.32px;opacity:.31"/><path d="M89 316c0-22-3-44-1-67 17-159 128-55 216-86 15-5 30-14 44-24 49-37 157-154 182-24 22 117-70 169-113 262-20 41-14 90-61 112-15 7-32 11-48 8-57-7-42-93-85-121-32-21-119-9-134-53" style="fill:url(#linear-gradient-2);stroke-miterlimit:10;stroke:#fff;stroke-width:.32px;opacity:.31"/><path d="M64 316c0-22-3-44-1-67 16-159 128-55 215-86 16-5 31-14 44-24 50-37 158-154 183-24 21 117-70 169-114 262-19 41-13 90-61 112-14 7-31 11-47 8-57-7-42-93-85-121-32-21-119-9-134-53" style="fill:url(#linear-gradient-3);stroke-miterlimit:10;stroke:#fff;stroke-width:.32px;opacity:.31"/><path d="M395 238c-1 1-6-2-7-2a27 27 0 0 1-16-18c-7-25 13-41 34-47a42 42 0 0 1 12-2c19 1 22 12 27 27 4 12 10 27 18 37 12 14 36 8 47 25 5 8 5 17 5 26 1 5 3 13 1 17-1 3-6 3-8 4a207 207 0 0 1-28 4c-11 2-23 5-33 2-13-4-24-22-27-35-2-8 2-20-3-27-5-9-15-5-20-11" class="cls-4"/><path d="m457 390-3 2c-2 1-6 1-7 3-3 5-2 17-3 23 0 1-1 7 1 7 3 1 4-6 4-7a98 98 0 0 1 9-22c1-1 5-6 1-6" class="cls-5"/><path d="M563 481c0-2-5 6-3 7l28 16c2 1 7 5 9 3s-4-6-6-8c-5-4-20-20-26-18M439 303l6-2a172 172 0 0 1 21-4c22-4 47-5 70-4 6 0 20 0 20 9 0 10-9 20-15 27-17 19-34 36-55 52a216 216 0 0 1-22 14c-1 1-5 4-7 3-8-6 0-13 4-17l14-15 22-22 12-13-14-2a156 156 0 0 1-44-13c-3-1-16-6-12-12" class="cls-6"/><path d="M412 313h-1a42 42 0 0 0 0 5v11c1 12 7 21 17 25 15 5 30 3 45 5 19 2 41 14 51 33 4 6 3 13 6 19 6 11 17 19 22 31s5 24 7 37c1 3 8 7 11 4 2-3 0-12 0-15a183 183 0 0 0-6-52c-10-38-32-58-61-80-12-9-24-17-37-23l-23-11c-2-2-6-5-10-5-8 1-14 11-20 16" class="cls-5"/><path d="m243 335 3 3 6 5c5 6 11 17 17 7 1-2-2-5-3-6-3-2-12-12-16-13-3-1-4 4-7 4" class="cls-7"/><path d="m123 226 1 1 3 3 8 8 24 23a1411 1411 0 0 0 89 81c2 0 5-3 6-4 5-6-1-10-5-14l-30-33-51-61-13-17c-1-2-2-6-4-6-3-1-6 3-8 5l-19 15" class="cls-6"/><path d="M450 222c19-18 61-52 72-4 15 62 50 54 50 54s35-6 39-73c4-53 47-108 63-126" style="stroke-dasharray:8.93 8.93;fill:none;stroke:#004c75;stroke-width:1.47px;stroke-miterlimit:10"/><path d="m677 70 3-4m-36-36 26 13 7 22 3-19 32 15 14-60-82 29z" style="fill:none;stroke:#004c75;stroke-width:1.47px;stroke-miterlimit:10"/><path d="m684 68 11-15-15-7 4 22z" class="cls-10"/><path d="m716 8-42 30 7 2 35-32z" class="cls-4"/><path d="m610 138-3 31s0 4 6 2l5 11s2 4 12 2l6 30 19-20-6-34-7-26Zm-358-7 9 25c3 8 1 17 1 17l-14 6s-1 7 13 15l-19 7s2-18-11-34" class="cls-7"/><path d="M544 151v2l1 4 1 12 3 13c0 1 0 4 2 5l3-1a25 25 0 0 1 6 0l9-1c2-2 0-8 0-10l-4-23c-1-2-1-7-4-8h-7l-8 1-3 2 1 4" class="cls-10"/><path d="M547 150v4l2 8 4 16 2 5h6l5-1c2-1 0-7 0-9l-4-21-2-7h-4l-2 1c-2 1-8 1-8 4" class="cls-11"/><path d="M770 100c-2 5-1 11-4 16-10 15-29 29-23 49 4 15 22 20 35 24 8 3 16 7 21-3 4-10 1-22 0-33-2-14 2-28-4-41-3-8-10-7-17-10-2-1-5-4-8-2" class="cls-12"/><path d="m757 77 1 4c0 2-5 4-4 7a89 89 0 0 0 6 21c1 3 5 0 7 1 3 2 6 9 9 9 4 0 9-8 13-6 6 3 2 21 6 27 1 2 10-9 11-10 3-3-1-13-1-15-4-14-16-34-27-42-4-3-21-4-21 3m32 241-9 13c-11 13-22 26-35 38l-26 19c-4 4-5 10-8 14a9 9 0 0 0-1 2h1l26-14c24-14 63-39 74-65a2 2 0 0 0 0-1c1-1-9-3-11-4s-10-5-11-4m-9-176-2 1a73 73 0 0 0-6 4l-19 16c-2 1-6 4-8 3-6-2-11-8-15-12-9-10-17-21-28-28a22 22 0 0 0-13-5l-5 1c-1 1 1 2 1 2l6 2c1 0 2 1 1 2l-4 2c-4 0-7-2-11-3-1-1-5-1-3 1l5 4a28 28 0 0 0 10 3c6 0 11-1 15 3l11 13 7 8 9 10c4 3 9 10 14 10 8 1 16-6 22-10l15-9c2 0 5-2 5-4l-2-4-4-9" class="cls-7"/><path d="M778 141a29 29 0 0 0 2 5l4 8c2 3 7-1 8 1 4 9-1 30-5 39-5 14-23 34-35 42-8 6-24 13-27 21-4 9 2 24 8 30 6 8 15 12 23 18 17 11 33 28 55 23 6-1 8-7 11-12 5-11 8-23 10-35a330 330 0 0 0-2-108c-2-10-8-18-9-28-2-6 4 0 7-2 2-2 1-12 0-14-7-14-21-4-30 0-2 1-4-1-6-1-4 1-11 8-12 12" class="cls-10"/><path d="m693 280-1 1-5 5-13 11a467 467 0 0 0-47 52 12 12 0 0 1 2 1c3 1 8 7 11 5 15-10 27-26 41-37 5-5 20-13 24-20 1-2-12-11-12-16" class="cls-7"/><path d="M665 251c15-8 34-13 50-18 5-2 14-7 19-5s6 9 7 13l7 31c1 4 4 11 0 14-13 9-31 12-45 17-4 1-12 6-16 5-3-1-5-9-6-11l-12-32c-1-2-6-10-4-13" style="fill:#b4c6d0"/><path d="M667 381c0-1 0 0 0 0l6 6c12 11 21 17 23 13 1-2-4-6-5-7-3-4-9-18-15-19-2 0-12 4-9 7m5 83c4 8 4 25 6 35 1 2 2 11 5 9 3-1 2-10 2-12 0-8 5-18 3-25-2-5-9-14-14-8" class="cls-6"/><path d="m482 182 2 30a46 46 0 0 0 2 9 8 8 0 0 0 1 4h8l19-2c2-1 6-1 6-4l-1-12-2-19a63 63 0 0 0-1-8l-1-3c-2-2-6-1-8-1a175 175 0 0 0-19 2c-2 1-7 0-6 3" class="cls-5"/><path d="M486 186a20 20 0 0 0 0 3l1 10 2 14 1 6h6l13-2 5-1v-3a482 482 0 0 0-2-26c0-1 0-4-2-5-3-2-7 0-11 0h-8c-1 1-5 1-5 3" class="cls-11"/><path d="M450 257h3a28 28 0 0 1 6 0c2 1 7 3 9 2l4-4 2-3 9-16 6-8c1-5-8-8-5-13 1-3 6-4 9-5l4 1c1 1-1 2-2 2-2 1-6 3-5 5 0 2 1 6 3 7a23 23 0 0 0 5 0l2 1-1 3-4 8-13 26c-1 3-3 9-6 11h-7l-16 1c-1 0-6 1-7-1s1-3 1-5l4-12" class="cls-7"/><path d="M201 447c-2 0-6 4-8 5-13 9-14 13-15 29 0 4-3 17 3 17 5 0 4-10 5-13 5-9 18-17 19-27 1-4 3-11-3-11m119-45a17 17 0 0 0-1 2l-2 4c-2 3-5 7-6 11a555 555 0 0 1 15 22c1 1 3 5 6 5 4-2 0-7 0-10-4-9-3-18-4-28 0-3-3-7-7-6" class="cls-5"/><path d="m298 288 2 2 3 3 12 8c8 7 17 10 27 14 3 1 8 3 9 7 0 5-7 13-10 16-8 12-16 24-20 37-2 9-9 26-1 34 2 2 6 6 9 5 5-1 8-6 12-9a103 103 0 0 0 21-28c8-15 13-31 18-47 2-7 5-15 3-22s-9-10-15-14c-13-10-27-20-43-26a178 178 0 0 1-23-13c-1-1-5-5-7-4-3 0-2 8-2 10-1 8-1 19 4 26" class="cls-10"/><path d="m257 260-1 4a32 32 0 0 0-2 11c1 9 6 15 9 22 3 9 4 19 6 28 2 6 8 21 4 27-10 12-26 26-38 37-13 12-25 22-32 39-3 9-14 32 1 36 22 5 39-15 52-29 12-12 22-25 32-39 6-7 13-14 16-24 4-16 0-44-1-61l-1-15v-12c0-7-1-29-6-35-2-2-6-3-9-4-4-2-7-3-11-1-7 4-12 11-18 16" class="cls-4"/><path d="m182 385 4 4c5 5 10 12 15 15 2 1 8-1 8-3 1-1-5-5-6-6-4-4-13-19-19-13l-3 3" class="cls-7"/><path d="m330 132-4-3c-2-2-6-4-7-8l1-5c2 0 6 4 7 6a283 283 0 0 1 21 21c1 0 8 7 6 9l-6-4-18-15" class="cls-12"/><path d="M166 86v1l2 2a89 89 0 0 0 4 9l8 14 5 6c2 1 4-1 5-1l10-7 5-3c1-3-1-6-3-8a91 91 0 0 1-5-11l-4-8c-1-2-2-6-5-6l-6 2a96 96 0 0 0-10 6 37 37 0 0 0-4 3l-2 1" class="cls-5"/><path d="m177 100-1-2-1-3-4-6-1-2 4-3a60 60 0 0 1 9-4l4-2c1-1 1 0 2 1a45 45 0 0 1 2 4l8 16 2 4 1 2-2 1-5 3-5 4-3 1-1-1a20 20 0 0 0-1-3 52 52 0 0 1-6-8l-2-2" class="cls-11"/><path d="M109 239c0 5 5 13 7 18 5 16 12 32 19 48l18 41a224 224 0 0 0 12 19c2 3 13 24 18 25 2 0 4-3 6-4l4-4-5-9-10-26c-9-22-21-44-28-67-3-9-10-42-16-48-4-4-21 3-25 7" class="cls-5"/><path d="M114 172h1a34 34 0 0 1 4 2l11 7 25 19a65 65 0 0 1 5 6l1 2-4 3-11 9-11 9c-3 1-4-5-4-7l-1-2c-3-10-5-21-9-31l-4-12-2-4v-1" class="cls-10"/><path d="M84 121c5 0 8-8 9-12l2-5 9 3 2 8 4 7c0 2-5 4-6 5-6 3-18 3-20-5m307 133c0-7 2-9 4-21 2-5 4-17 3-22l-4-2c-3-2-3-6-2-9 3-5 9 1 13 0 6-3 11-9 19-7s4 7 6 13l1 14c1 6-4 2-5 3-3 3-2 8-7 9-3 1-4-2-5 1-2 7 5 14 1 18l-13 1c-1 0-9 3-10 2m159-51-1-2-1-3-7-9c-2-4 1-6 2-10l1-10 2-6 1 4c1 4 1 9 3 12 2 4 8 0 11 0 3 1 2 3 0 4a19 19 0 0 1-2 2 11 11 0 0 0-4 3c-3 4 2 8 0 12 0 2-3 5-4 3M61 166l-1 5-2 11-4 35c-2 10-5 22-12 30a30 30 0 0 1-8 7l-5 2 1 2c4 1 9 0 13-2 2-2 4-5 7-5 2-1 3 1 4 2a7 7 0 0 0 4 1l2-1a1 1 0 0 0 0-2l-2-1a8 8 0 0 1-2-7c2-13 7-26 10-40a183 183 0 0 0 3-27c1-3 2-9 0-11s-5-1-8 0m80-86-1 2a50 50 0 0 0-3 7 21 21 0 0 0-1 5v4c-1 2-4 3-6 4-4 2-11 9-16 4s-4-14-3-21a55 55 0 0 1 2-7 35 35 0 0 1 2-7l7-8c8-4 11 6 15 11 1 1 4 3 4 6m-5 72h1l4 2a34 34 0 0 1 5 2c2 1 5 4 8 2l3-5 4-8 10-21 4-12c0-3 1-5 4-6a22 22 0 0 1 6-1l3-1v-2l-4-1a67 67 0 0 0-9-1l-5 1c-3 3-2 8-4 12l-11 20-5 10c-2 3-7 0-10 0-2 1-4 4-4 6a9 9 0 0 0 0 3m81 92-2 5-2 11-7 32c-3 16-2 31-7 46 0 2-4 13-3 15 2 1 5-10 6-11v-1c2 1-2 13 1 13s3-11 4-11 1 11 3 11 0-10 2-11c1 0 2 9 5 9l1-5-3-13c0-6 7 2 8-2 0-2-5-5-6-7-2-4-2-10-1-14 1-15 6-30 10-45l2-12c1-3-8-15-11-10m81-54h10c4-1 15 0 16-5 3-12 2-27 1-40l-2-12c0-4 7-12 11-10 2 1 9 6 9 9-1 2-4 3-4 5 1 1 4 0 4 2s-5 4-5 6c-2 7-1 16 0 23 0 7 3 25-1 31-1 2-5 3-8 3-5 1-21 5-26 1-3-2-2-8-4-12" class="cls-7"/><path d="m125 65 1 1 4 6a80 80 0 0 0 7 8l3 3 3-2c3-3 4-8 4-12a17 17 0 0 0-3-9c-1-3-3-7-7-9-7-5-15-5-24-3l-8 3c-7 5-13 12-18 18a57 57 0 0 1-8 7c-3 2-7 4-6 8l11 16a70 70 0 0 0 9 8 43 43 0 0 0 14 6c2 1 4 1 6-1s1-5 2-7l-2-18c0-8 6-16 11-22m622 22c5 8 16-6 18-7 3-1 12-8 16-4 7 10 13 23 17 34 2 4 2 11 5 15l11-1 5-1c6-10 9-35-1-42-8-5-18-2-25-7-7-4-11-17-21-18-14 0-32 20-25 31" class="cls-12"/><path d="M228 181h2l3 1c4 0 7-1 7-6l-2-9c-2-5-10-10-6-16 4-5 8 7 12 4 1-1 0-5-1-7-2-5-3-11 0-15 2-4 6 2 8 3 3 1 6-4 7-7 4-11-4-8-9-14-4-5-4-11-12-12-9-2-22 8-24 17-2 5 0 10-2 15-2 6-10 6-8 14 1 4 11 20 15 23l7 2c2 1 1 4 3 6m380-36c-11 0-12-20-9-25 7-11 21-3 32-2 7 1 17 1 21 8 5 7 3 23-6 28-7 3-16 2-18-5-1-3-1-9-5-10-6-2-8 1-10 4-1 1-3 3-5 2M368 270l2-2 3-4a46 46 0 0 1 14-11c14-7 39-10 53-5 2 1 13 4 14 6 0 3-5 11-5 17v6c-4 2-12 0-15 4s7 15 6 19c0 2-10 4-11 5l-13 8c-1 1-4 4-5 3-3-1-4-6-5-8-2-6-5-20-9-25-4-4-6 3-9 2l-15-10c-1-1-5-2-4-4" class="cls-10"/><path d="m60 167 3 1 6 2h2l1-6a107 107 0 0 1 2-15 27 27 0 0 1 1-5l2-1v3l1 8a79 79 0 0 0 4 20c1 2 1 5 3 7a333 333 0 0 1 26-10l5-3c1-2-1-5-1-7a75 75 0 0 1-4-14l1-7c1-1 5 1 6 2l11 8 4 4 2-2a69 69 0 0 1 6-8l3-2-3-3-8-7c-2-3-5-4-8-6l-6-4c-2-1-6-5-8-5l-5 4c-3 2-7 4-11 4s-7-3-8-6l-2-5a17 17 0 0 0-5 1c-12 4-15 16-18 27l-2 9c-1 5-3 11-1 16m176 36c-7 7-11 16-16 25-1 3-5 7-5 12-1 3 10 14 14 14 2 0 10-11 12-14l4-4 3 5c1 4 4 9 8 11 6 5 26 0 34-2 2 0 8 1 10-1s-1-9-1-10c-2-7-9-23-8-29 1-4 10-4 13-4l5-1c1-3-2-6-3-8-6-12-7-12-19-12-7 0-20-2-26 2-3 2-1 6-4 8l-20 9" class="cls-5"/><path d="M112 63h-3a10 10 0 0 0-6 4c-5 7-2 19 7 19 7 1 16-9 13-16a11 11 0 0 0-8-6 27 27 0 0 0-3 0" class="cls-10"/><path d="M112 69c-5 0-6 10-1 10s9-6 5-9h-4" class="cls-11"/><path d="m116 66 1-1 1-2 5-5 8-10c1 0 2-3 4-2l4 4-1 3-5 6-8 9c-1 0-2 3-4 3l-2-2-3-3" class="cls-10"/><path d="m165 114-1-1 2 1 6 6c1 0 2 2 3 1s-1-3-2-3l-7-8-2 3m77 80c-7 0-11 13-10 18 3 13 9 26 14 38 2 5 4 11 9 13 6 3 27-6 32-10 6-5 1-24-1-30-3-8-12-31-21-34-5-3-17 2-23 5" class="cls-12"/><path d="M212 417h-1l-4-3c-2-2-14-9-10-13 2-2 7-4 9-3 3 0 16 11 17 15 1 10-7 9-13 4m61-53-4-3-6-7c0-3 5-7 7-7s4 3 6 4c2 2 7 5 7 9-1 4-8 10-11 5" class="cls-5"/><path d="m427 261-1-1a5 5 0 0 0-4 0c-3 2-2 6-2 9l1 4h5v2a26 26 0 0 0 1 4v2a8 8 0 0 0 3 1l7 1h3a5 5 0 0 0 2-2 52 52 0 0 0 2-6 94 94 0 0 0 3-11l1-3v-1h-2a42 42 0 0 0-4-1 62 62 0 0 0-10-2l-4 1v3" class="cls-11"/><path d="M431 263c0 1 0 0 0 0a4 4 0 0 0-1 0h-3l-1 5a4 4 0 0 0 0 3h5a2 2 0 0 0 0-1v-3a19 19 0 0 0 0-3" class="cls-7"/><path d="M373 271v1l-1 3-1 11a197 197 0 0 0-3 27c0 4 1 8 6 9 4 1 8-5 10-7l19-29 7-5c2 0 5 0 6-2l2-3 3-2-1-2 2-3v-2c1-2 5-1 7-1 0 0 2-1 1-2l-6-1h-11l-7 6a106 106 0 0 0-20 23l-5 8-2 2 1-2 2-4 5-9 3-6-3-4-3-2-1-2c-2-1-8-8-10-3" class="cls-7"/><path d="m785 194 23-1h15c2 0 10 2 12 0 1-1 0-17-2-17-4-2-28 1-35 1h-10l-1 8c0 2-3 8-2 9" class="cls-11"/><path d="m808 167-1-1-2-1-5-3-2-1 1 3c1 2 7 6 4 9-4 4-12 4-17 5-2 0-4 1-2 3s4 1 6 1a32 32 0 0 0 11-2l4-2c6-2 12 0 18 0h28c6-1 15 0 15-7 0-5-2-10-5-14-6-8-15-14-24-20l-10-7s-2-2-3-1l-1 6v8l2 1 5 3a110 110 0 0 1 15 10 87 87 0 0 1 7 6l2 3h-4a173 173 0 0 0-22 2c-6 0-14 2-20-1" class="cls-7"/><path d="M567 345c-4-7-1-18 2-25 9-18 22-35 37-48 4-4 20-17 25-15 3 2 2 18 1 20 0 5 2 24-1 27l-26 20c-2 2-9 7-8 10 2 4 10 8 13 10 14 10 29 16 45 22 11 4 18 1 19 14v6c-1 3-22-3-26-3-23-3-49-7-68-22-4-4-15-13-13-19" class="cls-10"/><path d="m625 254-1 7a199 199 0 0 0-5 53 256 256 0 0 0 45 155c1 1 4 7 6 7s4-4 5-5c2-1 11-6 10-9-2-7-7-14-10-20-10-20-18-42-20-63-4-35 10-70 7-105 0-3-24-15-28-17-2-1-7-5-9-3" class="cls-4"/><path d="m720 284-1 11a4 4 0 0 1-1 1c-1 0-11 6-5 6 2-1 5-3 6-2 3 2 1 6 5 5 3 0 11-4 11-8 1-3-4-14-7-15-2-1-6 1-8 2" class="cls-7"/><path d="m548 201 1 1 2 5 4 14 9 17c4 10 8 21 20 21 13 0 22-12 30-20l8-8 3-2 1 7a122 122 0 0 1-1 14l-1 6 2 2 7 3 23 14 6 3 2 1 1-2a49 49 0 0 1 1-8c4-12 5-24 5-36a52 52 0 0 0 0-11v-3c2 0 4 2 5 3a63 63 0 0 0 8 4c5 3 10 5 14 9 10 8 13 22 17 34a56 56 0 0 1 2 11v6h3a64 64 0 0 0 9-1l3-1c1-2-1-5-1-7l-6-20c-2-7-3-15-6-21-7-15-19-25-32-34-6-6-14-11-23-13s-17 5-25 8c-5 2-11 3-16 6-6 3-12 9-18 14l-14 14-7 4c-3 0-6-5-7-7a191 191 0 0 1-15-24l-4-7-2-2-3 1a50 50 0 0 1-5 5m173 185c-2-2-2-7-5-7-2-1-15 18-16 21l-9 13c4 11 20-11 21-14" class="cls-5"/><path d="M51 281s7 73 85 100" class="cls-14"/><path d="M61 279s7 43 63 49m731-111c-3-15 49 119-60 225" class="cls-14"/><path d="m523 44-31 62 78-18-47-44zM113 398l24 39 12-30-36-9zM0 145l11 22 10-20-21-2z" style="opacity:.15;fill:#004c75"/><path d="M88 177v1l-1 2-3 7c-2 7-2 15 2 22l9 11a43 43 0 0 1 7 10l3 9 2 4 7-3 14-6 7-2 1-4a115 115 0 0 0-1-12 104 104 0 0 0-14-38l-5-7-2-3c-2-1-5 1-7 1a116 116 0 0 0-12 5l-6 3" class="cls-10"/></g></g></svg>