<svg width="24" height="24" viewBox="0 0 24 24" fill="none" xmlns="http://www.w3.org/2000/svg">
<circle cx="12" cy="12" r="12" fill="#17B212"/>
<path fill-rule="evenodd" clip-rule="evenodd" d="M17.9218 7.3085L9.85601 15.3743L6.89551 12.4138C6.86135 12.3796 6.82079 12.3525 6.77614 12.334C6.73149 12.3155 6.68363 12.3059 6.6353 12.3059C6.58696 12.3059 6.5391 12.3155 6.49445 12.334C6.4498 12.3525 6.40924 12.3796 6.37508 12.4138L5.50796 13.2809C5.43908 13.35 5.40039 13.4436 5.40039 13.5411C5.40039 13.6387 5.43908 13.7323 5.50796 13.8014L9.59968 17.8923C9.63384 17.9265 9.6744 17.9536 9.71905 17.9721C9.7637 17.9907 9.81156 18.0002 9.8599 18.0002C9.90823 18.0002 9.95609 17.9907 10.0007 17.9721C10.0454 17.9536 10.086 17.9265 10.1201 17.8923L19.3132 8.69916C19.3475 8.665 19.3746 8.62445 19.3931 8.5798C19.4116 8.53515 19.4211 8.48729 19.4211 8.43896C19.4211 8.39062 19.4116 8.34276 19.3931 8.29811C19.3746 8.25346 19.3475 8.21289 19.3132 8.17873L18.4461 7.31164C18.4121 7.27664 18.3715 7.24877 18.3266 7.22964C18.2817 7.21051 18.2334 7.20049 18.1846 7.2002C18.1358 7.19991 18.0874 7.20935 18.0423 7.22795C17.9972 7.24654 17.9562 7.27391 17.9218 7.3085Z" fill="white"/>
</svg>
