<svg width="30" height="30" viewBox="0 0 30 30" fill="none" xmlns="http://www.w3.org/2000/svg">
<path d="M0.416504 15C0.416504 11.1323 1.95296 7.42294 4.68786 4.68803C7.42277 1.95313 11.1321 0.416672 14.9998 0.416672C18.8676 0.416672 22.5769 1.95313 25.3118 4.68803C28.0467 7.42294 29.5832 11.1323 29.5832 15C29.5832 18.8677 28.0467 22.5771 25.3118 25.312C22.5769 28.0469 18.8676 29.5833 14.9998 29.5833C11.1321 29.5833 7.42277 28.0469 4.68786 25.312C1.95296 22.5771 0.416504 18.8677 0.416504 15ZM14.9998 2.91667C13.413 2.91667 11.8418 3.22922 10.3757 3.83646C8.90973 4.4437 7.57767 5.33376 6.45563 6.4558C5.33359 7.57784 4.44354 8.9099 3.83629 10.3759C3.22905 11.8419 2.9165 13.4132 2.9165 15C2.9165 16.5868 3.22905 18.1581 3.83629 19.6241C4.44354 21.0901 5.33359 22.4222 6.45563 23.5442C7.57767 24.6663 8.90973 25.5563 10.3757 26.1635C11.8418 26.7708 13.413 27.0833 14.9998 27.0833C18.2045 27.0833 21.278 25.8103 23.544 23.5442C25.8101 21.2781 27.0832 18.2047 27.0832 15C27.0832 11.7953 25.8101 8.72186 23.544 6.4558C21.278 4.18973 18.2045 2.91667 14.9998 2.91667ZM12.7698 11.045C12.2465 11.4117 12.0832 11.7983 12.0832 12.0833C12.0832 12.3683 12.2465 12.755 12.7698 13.1217C13.2898 13.485 14.0748 13.75 14.9998 13.75C16.3748 13.75 17.6748 14.1383 18.6632 14.83C19.6465 15.52 20.4165 16.5917 20.4165 17.9167C20.4165 19.2417 19.6482 20.3133 18.6632 21.0033C17.9798 21.48 17.1515 21.8133 16.2498 21.9733V22.5C16.2498 22.8315 16.1181 23.1495 15.8837 23.3839C15.6493 23.6183 15.3314 23.75 14.9998 23.75C14.6683 23.75 14.3504 23.6183 14.116 23.3839C13.8815 23.1495 13.7498 22.8315 13.7498 22.5V21.9733C12.8847 21.8283 12.0614 21.4973 11.3365 21.0033C10.3532 20.3133 9.58317 19.2417 9.58317 17.9167C9.58317 17.5852 9.71487 17.2672 9.94929 17.0328C10.1837 16.7984 10.5016 16.6667 10.8332 16.6667C11.1647 16.6667 11.4826 16.7984 11.7171 17.0328C11.9515 17.2672 12.0832 17.5852 12.0832 17.9167C12.0832 18.2017 12.2465 18.5883 12.7698 18.955C13.2898 19.3183 14.0748 19.5833 14.9998 19.5833C15.9248 19.5833 16.7098 19.3183 17.2298 18.955C17.7532 18.5883 17.9165 18.2017 17.9165 17.9167C17.9165 17.6317 17.7532 17.245 17.2298 16.8783C16.7098 16.515 15.9248 16.25 14.9998 16.25C13.6248 16.25 12.3248 15.8617 11.3365 15.17C10.3532 14.48 9.58317 13.4083 9.58317 12.0833C9.58317 10.7583 10.3515 9.68667 11.3365 8.99667C12.0614 8.50267 12.8847 8.17173 13.7498 8.02667V7.5C13.7498 7.16848 13.8815 6.85054 14.116 6.61612C14.3504 6.3817 14.6683 6.25 14.9998 6.25C15.3314 6.25 15.6493 6.3817 15.8837 6.61612C16.1181 6.85054 16.2498 7.16848 16.2498 7.5V8.02667C17.1498 8.18667 17.9815 8.52 18.6632 8.99667C19.6465 9.68667 20.4165 10.7583 20.4165 12.0833C20.4165 12.4149 20.2848 12.7328 20.0504 12.9672C19.816 13.2016 19.498 13.3333 19.1665 13.3333C18.835 13.3333 18.517 13.2016 18.2826 12.9672C18.0482 12.7328 17.9165 12.4149 17.9165 12.0833C17.9165 11.7983 17.7532 11.4117 17.2298 11.045C16.7098 10.6817 15.9248 10.4167 14.9998 10.4167C14.0748 10.4167 13.2898 10.6817 12.7698 11.045Z" fill="black"/>
</svg>
