<svg width="39" height="40" viewBox="0 0 39 40" fill="none" xmlns="http://www.w3.org/2000/svg">
<path d="M17.807 1.26002C19.0825 0.485753 20.6829 0.485752 21.9584 1.26002L34.4317 8.83184C35.6264 9.55713 36.356 10.8535 36.356 12.2511V27.7489C36.356 29.1465 35.6264 30.4429 34.4317 31.1682L21.9584 38.74C20.6829 39.5142 19.0825 39.5142 17.807 38.74L5.33373 31.1682C4.13895 30.4429 3.40939 29.1465 3.40939 27.7489V12.2511C3.40939 10.8535 4.13895 9.55713 5.33373 8.83184L17.807 1.26002Z" fill="#0076DF"/>
<path d="M17.8568 8.13502C19.1323 7.36075 20.7327 7.36075 22.0081 8.13502L28.8413 12.283C30.036 13.0083 30.7656 14.3046 30.7656 15.7023V24.3524C30.7656 25.7501 30.036 27.0464 28.8413 27.7717L22.0081 31.9197C20.7327 32.6939 19.1323 32.6939 17.8568 31.9197L11.0237 27.7717C9.8289 27.0464 9.09935 25.7501 9.09935 24.3524V15.7023C9.09935 14.3046 9.8289 13.0083 11.0237 12.283L17.8568 8.13502Z" fill="#0050C7"/>
</svg>
