<svg width="28" height="19" viewBox="0 0 28 19" fill="none"
  xmlns="http://www.w3.org/2000/svg">
  <path fill-rule="evenodd" clip-rule="evenodd" d="M19.8333 5.83333C20.2754 5.83333 20.6993 5.65774 21.0118 5.34518C21.3244 5.03262 21.5 4.60869 21.5 4.16667C21.5 3.72464 21.3244 3.30072 21.0118 2.98816C20.6993 2.6756 20.2754 2.5 19.8333 2.5C19.3913 2.5 18.9674 2.6756 18.6548 2.98816C18.3423 3.30072 18.1667 3.72464 18.1667 4.16667C18.1667 4.60869 18.3423 5.03262 18.6548 5.34518C18.9674 5.65774 19.3913 5.83333 19.8333 5.83333V5.83333ZM19.8333 8.33333C20.9384 8.33333 21.9982 7.89435 22.7796 7.11295C23.561 6.33154 24 5.27174 24 4.16667C24 3.0616 23.561 2.00179 22.7796 1.22039C21.9982 0.438987 20.9384 0 19.8333 0C18.7283 0 17.6685 0.438987 16.8871 1.22039C16.1057 2.00179 15.6667 3.0616 15.6667 4.16667C15.6667 5.27174 16.1057 6.33154 16.8871 7.11295C17.6685 7.89435 18.7283 8.33333 19.8333 8.33333V8.33333ZM16.0833 18.3333V15C16.0833 13.7844 15.6004 12.6186 14.7409 11.7591C13.8814 10.8996 12.7156 10.4167 11.5 10.4167H4.83333C3.61776 10.4167 2.45197 10.8996 1.59243 11.7591C0.732885 12.6186 0.25 13.7844 0.25 15V18.3333H2.75V15C2.75 13.85 3.68333 12.9167 4.83333 12.9167H11.5C12.65 12.9167 13.5833 13.85 13.5833 15V18.3333H16.0833ZM27.75 15V18.3333H25.25V15C25.25 13.85 24.3167 12.9167 23.1667 12.9167H19V10.4167H23.1667C24.3822 10.4167 25.548 10.8996 26.4076 11.7591C27.2671 12.6186 27.75 13.7844 27.75 15V15ZM9.83333 4.16667C9.83333 4.60869 9.65774 5.03262 9.34518 5.34518C9.03262 5.65774 8.60869 5.83333 8.16667 5.83333C7.72464 5.83333 7.30072 5.65774 6.98816 5.34518C6.67559 5.03262 6.5 4.60869 6.5 4.16667C6.5 3.72464 6.67559 3.30072 6.98816 2.98816C7.30072 2.6756 7.72464 2.5 8.16667 2.5C8.60869 2.5 9.03262 2.6756 9.34518 2.98816C9.65774 3.30072 9.83333 3.72464 9.83333 4.16667V4.16667ZM12.3333 4.16667C12.3333 5.27174 11.8943 6.33154 11.1129 7.11295C10.3315 7.89435 9.27174 8.33333 8.16667 8.33333C7.0616 8.33333 6.00179 7.89435 5.22039 7.11295C4.43899 6.33154 4 5.27174 4 4.16667C4 3.0616 4.43899 2.00179 5.22039 1.22039C6.00179 0.438987 7.0616 0 8.16667 0C9.27174 0 10.3315 0.438987 11.1129 1.22039C11.8943 2.00179 12.3333 3.0616 12.3333 4.16667V4.16667Z" fill="black"/>
</svg>
