<svg width="30" height="28" viewBox="0 0 30 28" fill="none"
  xmlns="http://www.w3.org/2000/svg">
  <path fill-rule="evenodd" clip-rule="evenodd" d="M3.33333 3.16663H26.6667C26.8877 3.16663 27.0996 3.25442 27.2559 3.4107C27.4122 3.56698 27.5 3.77895 27.5 3.99996V6.49996C27.5 6.72097 27.4122 6.93293 27.2559 7.08921C27.0996 7.24549 26.8877 7.33329 26.6667 7.33329H3.33333C3.11232 7.33329 2.90036 7.24549 2.74408 7.08921C2.5878 6.93293 2.5 6.72097 2.5 6.49996V3.99996C2.5 3.77895 2.5878 3.56698 2.74408 3.4107C2.90036 3.25442 3.11232 3.16663 3.33333 3.16663V3.16663ZM1.66667 9.38663C1.15995 9.09407 0.739164 8.67329 0.446603 8.16658C0.154043 7.65986 1.48641e-05 7.08507 0 6.49996V3.99996C0 3.1159 0.351189 2.26806 0.976311 1.64294C1.60143 1.01782 2.44928 0.666626 3.33333 0.666626H26.6667C27.5507 0.666626 28.3986 1.01782 29.0237 1.64294C29.6488 2.26806 30 3.1159 30 3.99996V6.49996C30 7.08507 29.846 7.65986 29.5534 8.16658C29.2608 8.67329 28.8401 9.09407 28.3333 9.38663V24C28.3333 24.884 27.9821 25.7319 27.357 26.357C26.7319 26.9821 25.8841 27.3333 25 27.3333H5C4.11594 27.3333 3.2681 26.9821 2.64298 26.357C2.01786 25.7319 1.66667 24.884 1.66667 24V9.38663ZM4.16667 9.83329V24C4.16667 24.221 4.25446 24.4329 4.41074 24.5892C4.56702 24.7455 4.77899 24.8333 5 24.8333H25C25.221 24.8333 25.433 24.7455 25.5893 24.5892C25.7455 24.4329 25.8333 24.221 25.8333 24V9.83329H4.16667Z" fill="black"/>
</svg>
