<svg width="30" height="23" viewBox="0 0 30 23" fill="none" xmlns="http://www.w3.org/2000/svg">
<path d="M0 3.24999C0 1.63999 1.30667 0.333328 2.91667 0.333328H20V4.18833L20.0833 4.23333L28.51 8.78333L29.1667 9.13666V14.9167C29.1667 15.6902 28.8594 16.4321 28.3124 16.9791C27.7654 17.526 27.0235 17.8333 26.25 17.8333H26.23C26.2882 18.4127 26.2242 18.9978 26.0424 19.5509C25.8605 20.1041 25.5647 20.613 25.1741 21.0448C24.7834 21.4766 24.3067 21.8217 23.7744 22.0579C23.2422 22.2941 22.6664 22.4161 22.0842 22.4161C21.5019 22.4161 20.9261 22.2941 20.3939 22.0579C19.8617 21.8217 19.3849 21.4766 18.9943 21.0448C18.6036 20.613 18.3078 20.1041 18.126 19.5509C17.9441 18.9978 17.8802 18.4127 17.9383 17.8333H11.2283C11.2865 18.4127 11.2226 18.9978 11.0407 19.5509C10.8588 20.1041 10.563 20.613 10.1724 21.0448C9.78178 21.4766 9.30499 21.8217 8.77278 22.0579C8.24058 22.2941 7.66477 22.4161 7.0825 22.4161C6.50023 22.4161 5.92442 22.2941 5.39222 22.0579C4.86001 21.8217 4.38322 21.4766 3.99259 21.0448C3.60197 20.613 3.30618 20.1041 3.12431 19.5509C2.94243 18.9978 2.87851 18.4127 2.93667 17.8333H0V3.24999ZM17.5 15.3333V2.83333H2.91667C2.80616 2.83333 2.70018 2.87723 2.62204 2.95537C2.5439 3.03351 2.5 3.13949 2.5 3.24999V15.3333H4.10833C4.4958 14.9371 4.95861 14.6224 5.46953 14.4077C5.98045 14.193 6.52915 14.0828 7.08333 14.0833C8.25 14.0833 9.30333 14.5617 10.0583 15.3333H17.5ZM25.0583 15.3333H26.25C26.3605 15.3333 26.4665 15.2894 26.5446 15.2113C26.6228 15.1331 26.6667 15.0272 26.6667 14.9167V10.6283L20 7.02833V14.6417C20.633 14.275 21.3518 14.0823 22.0833 14.0833C23.25 14.0833 24.3033 14.5617 25.0583 15.3333ZM5.47 17.8333C5.4071 18.0795 5.40122 18.3368 5.45281 18.5857C5.50439 18.8345 5.61208 19.0683 5.76766 19.2692C5.92325 19.4701 6.12263 19.6328 6.35063 19.745C6.57863 19.8572 6.82922 19.9159 7.08333 19.9167C7.39507 19.9167 7.70059 19.8294 7.96516 19.6645C8.22974 19.4997 8.44278 19.2639 8.58007 18.984C8.71737 18.7041 8.77341 18.3914 8.74184 18.0812C8.71027 17.7711 8.59235 17.476 8.40148 17.2295C8.21061 16.9831 7.95444 16.7951 7.66207 16.6869C7.3697 16.5787 7.05285 16.5547 6.74752 16.6176C6.44219 16.6805 6.16062 16.8277 5.93479 17.0426C5.70896 17.2576 5.54794 17.5315 5.47 17.8333ZM20.47 17.8333C20.4149 18.0455 20.4021 18.2665 20.4325 18.4836C20.4629 18.7007 20.5359 18.9097 20.6471 19.0986C20.7584 19.2875 20.9059 19.4526 21.0811 19.5844C21.2563 19.7162 21.4558 19.8121 21.6681 19.8667C21.8804 19.9213 22.1014 19.9334 22.3185 19.9025C22.5355 19.8715 22.7443 19.798 22.9329 19.6863C23.1215 19.5745 23.2862 19.4266 23.4175 19.2511C23.5489 19.0755 23.6443 18.8758 23.6983 18.6633C23.8084 18.235 23.7438 17.7805 23.5188 17.3998C23.2937 17.0191 22.9267 16.7434 22.4983 16.6333C22.07 16.5233 21.6155 16.5879 21.2348 16.8129C20.8541 17.0379 20.5784 17.405 20.4683 17.8333H20.47Z" fill="black"/>
</svg>
