<svg width="28" height="28" viewBox="0 0 28 28" fill="none" xmlns="http://www.w3.org/2000/svg">
<path d="M23.9998 3.16675H3.99984C3.77882 3.16675 3.56686 3.25455 3.41058 3.41083C3.2543 3.56711 3.1665 3.77907 3.1665 4.00008V9.00008H24.8332V4.00008C24.8332 3.77907 24.7454 3.56711 24.5891 3.41083C24.4328 3.25455 24.2209 3.16675 23.9998 3.16675ZM24.8332 11.5001H10.6665V24.8334H23.9998C24.2209 24.8334 24.4328 24.7456 24.5891 24.5893C24.7454 24.4331 24.8332 24.2211 24.8332 24.0001V11.5001ZM8.1665 11.5001H3.1665V24.0001C3.1665 24.2211 3.2543 24.4331 3.41058 24.5893C3.56686 24.7456 3.77882 24.8334 3.99984 24.8334H8.1665V11.5001ZM3.99984 0.666748H23.9998C24.8839 0.666748 25.7317 1.01794 26.3569 1.64306C26.982 2.26818 27.3332 3.11603 27.3332 4.00008V24.0001C27.3332 24.8841 26.982 25.732 26.3569 26.3571C25.7317 26.9822 24.8839 27.3334 23.9998 27.3334H3.99984C3.11578 27.3334 2.26794 26.9822 1.64281 26.3571C1.01769 25.732 0.666504 24.8841 0.666504 24.0001V4.00008C0.666504 3.11603 1.01769 2.26818 1.64281 1.64306C2.26794 1.01794 3.11578 0.666748 3.99984 0.666748V0.666748Z" fill="black"/>
</svg>
