<svg width="31" height="27" viewBox="0 0 31 27" fill="none" xmlns="http://www.w3.org/2000/svg">
<path fill-rule="evenodd" clip-rule="evenodd" d="M28.4167 12.3333H30.5V8.445L28.625 0.666672H2.375L0.5 8.445V12.3333H2.58333V26.9167H28.4167V12.3333ZM25.9167 12.3333H5.08333V24.4167H12.1667V15.6667H18.8333V24.4167H25.9167V12.3333ZM16.75 3.16667H20.195L21.005 8.56667L21.0517 9.83334H16.75V3.16667ZM10.805 3.16667H14.25V9.83334H9.94833L9.995 8.56667L10.805 3.16667ZM23.4967 8.33334L22.7233 3.16667H26.6567L28 8.74167V9.83334H23.5533L23.4967 8.33334ZM8.27667 3.16667H4.34333L3 8.74167V9.83334H7.44667L7.50333 8.33334L8.27667 3.16667Z" fill="black"/>
</svg>
