<svg xmlns="http://www.w3.org/2000/svg" fill="none" viewBox="0 0 374 365"><path fill="#6C53A3" d="M103.8 306.5h65.7V364H105a65.7 65.7 0 0 1-24.6-18.4 74.3 74.3 0 0 1 23.4-39v-.1Z"/><path fill="#7860A9" d="M107.6 311.3c-8.7 9-17.2 20-20.2 32.3 5.3 6.2 12 11 19.3 14.6h55.2v-46.9h-54.3Z"/><path fill="#9178B7" d="M92.5 330.9a81 81 0 0 0-5.1 12.7 58 58 0 0 0 19.2 14.5h29.5v-25a524 524 0 0 1-43.7-2.3Z"/><path fill="#60459B" d="M103.5 351.8c6.8 2.3 10 6.6 11 12.2H90.8c1.6-4.8 6-10.7 12.7-12.2Z"/><path fill="#6C53A3" d="M103.4 354.4c-3.7 1-6.9 3.8-8.9 7.2h9v-7.2h-.1Z"/><path fill="#60459B" d="M127 350.4c9 2.5 13.4 8.5 14.5 13.6H110a23 23 0 0 1 17-13.6Z"/><path fill="#6C53A3" d="M126.8 352.9a21 21 0 0 0-12.9 8.7h13v-8.7h-.1Zm121.5-46.4h-65.7V364h64.5a65.8 65.8 0 0 0 24.7-18.4 74.4 74.4 0 0 0-23.5-39v-.1Z"/><path fill="#7860A9" d="M244.6 311.3c8.7 9 17.3 20 20.2 32.3-5.3 6.2-12 11-19.3 14.6h-55.2v-46.9h54.3Z"/><path fill="#9178B7" d="M259.7 330.9a83 83 0 0 1 5 12.7 58 58 0 0 1-19.2 14.5H216v-25a524.2 524.2 0 0 0 43.7-2.3Z"/><path fill="#60459B" d="M248.7 351.8c-6.8 2.3-10 6.6-11 12.2h23.7c-1.6-4.8-6-10.7-12.7-12.2Z"/><path fill="#6C53A3" d="M248.8 354.4c3.7 1 6.8 3.8 8.8 7.2h-8.9v-7.2h.1Z"/><path fill="#60459B" d="M225.3 350.4c-9.1 2.5-13.6 8.5-14.7 13.6h31.7a23 23 0 0 0-17-13.6Z"/><path fill="#6C53A3" d="M225.4 352.9c5 .9 10 4.4 12.9 8.7h-13v-8.7h.1Z"/><path fill="#60459B" d="M.4 324.2C.8 334.7 3 342.9 7.8 348c7.2-.6 13.3-8.7 16-15.5-4.1-7.3-12.3-10.6-23.4-8.3Z"/><path fill="#6C53A3" d="M4 327.1c.2 6.2 1.9 12.4 5.2 17l2.8-16.5a22.4 22.4 0 0 0-8-.5Z"/><path fill="#60459B" d="M18.6 329.8c.7 9.4 2 17.7 7.8 26.1 10.6-2.3 19-8.2 22.4-17.6-5.2-11.9-17.6-13.5-30.2-8.5Z"/><path fill="#6C53A3" d="m28 352 7-21c-4-.8-8.4-.2-12.7 1.2a43 43 0 0 0 5.6 19.7Z"/><path fill="#60459B" d="M53.4 337.5c1.8 10.7 12 16 17 15.6 2.3-3.9 4.6-9 4.6-15l-4.3-3.8c-6.8-1.2-14-.7-17.4 3.2h.1Z"/><path fill="#6C53A3" d="M68.6 349.6c2-3 3.3-7.6 3.5-12l-7.2-1.1 3.7 13.1Z"/><path fill="#6C53A3" d="M75 194v144c-24.9 3.1-53.9 2.1-74.6-13.9a240.8 240.8 0 0 1 4-39c4.5-22.5 13-43.1 27.8-60 13-15 26-22.1 42.8-31Z"/><path fill="#9178B7" d="M7.5 320.8c13 10 44.1 13.1 60.5 11v-126c-42.3 22.4-59 63.9-60.6 115Z"/><path fill="#A58DC2" d="M7.5 320.8A68 68 0 0 0 36.9 331c1.8-32 1.5-80.3-5.6-93.1-15.8 22.2-22.8 50.7-23.8 83Z"/><path fill="#9178B7" d="M36.9 299.4a9.9 9.9 0 1 1 0 19.8 9.9 9.9 0 1 1 0-19.8Z"/><path fill="#6C53A3" d="M60.5 81.8c-2.8-18.7.3-28.4 4.2-45.5 11.8 10 19.5 17 34 24.3a147 147 0 0 1 18.5-51.2l5.6-9.4C144 16 162 28.8 176 50c14-21.2 32-34 53.3-50l5.5 9.4a147 147 0 0 1 18.6 51.3c14.5-7.3 22.1-14.5 34-24.3 3.8 17 7 26.7 4.1 45.5l26.2 7.2a9237.4 9237.4 0 0 1-17.1 195.1l-2.9 28.4c-.3 2.6-3.6 7.5-17.6 7.7a1579.4 1579.4 0 0 1-208.3 0c-14-.2-17.3-5-17.7-7.7a4944.9 4944.9 0 0 1-4-40.7c-5.8-61-11.4-121.8-16-182.8l26.2-7.2h.1Z"/><path fill="#9178B7" d="M125.6 14.4A134.2 134.2 0 0 0 107 74.8 129.6 129.6 0 0 1 70.6 54 77 77 0 0 0 72 89c-9.6 2.3-18.5 4.6-27.4 7.2C49.4 159 53.9 221.8 60 284.4l2.6 25.8c2.5 1.4 7.7 1.4 9.9 1.5a1562.2 1562.2 0 0 0 207.1 0c2.2-.1 7.4-.1 9.9-1.5l2.6-25.8c6-62.7 10.6-125.5 15.4-188.2a494 494 0 0 0-27.4-7.1 77 77 0 0 0 1.3-35.1 129 129 0 0 1-36.2 20.8 133.3 133.3 0 0 0-18.8-60.4c-23 17.4-38 30-50.4 55.2-12.4-25.2-27.4-37.8-50.5-55.2h.1Z"/><path fill="#A58DC2" d="M125.6 14.4c1.8 28 8.8 58.9 22 71.8-17.7-2-27-4-40.7-11.4A129.6 129.6 0 0 1 70.6 54c6.2 18.4 12 31.5 24.2 44.3A32.8 32.8 0 0 1 72 89.1c-9.6 2.2-18.5 4.5-27.4 7C49.4 159 53.9 221.9 60 284.5l2.6 25.8c2.5 1.4 7.7 1.4 9.9 1.5 34.3 2.3 69 3.5 103.6 3.5v-37.5c-53.4 4.2-102.3-80-46.1-135.3l-11.2 6.2c-1.4-9 1.4-20 5-29C131.3 102 150.7 89 176.2 86V69.5c-12.5-25.2-27.4-37.8-50.5-55.2Z"/><path fill="#7860A9" d="M257.3 98.3c12-12.8 18-26 24.1-44.3a77 77 0 0 1-1.3 35c-6.6 5.7-12.5 9-22.8 9.3ZM237 93.1a10.8 10.8 0 0 1 0 21.7 10.8 10.8 0 0 1-10.8-10.9c0-6 4.9-10.8 10.8-10.8Zm39.5 24.4a7.5 7.5 0 1 1 0 15 7.5 7.5 0 0 1 0-15Zm-71.9-31.3c13.2-13 20.2-43.9 21.9-71.8a134 134 0 0 1 18.8 60.4 95 95 0 0 1-40.7 11.4Z"/><path fill="#9178B7" d="M78 108.8a17.8 17.8 0 1 1 0 35.6 17.8 17.8 0 0 1-17.8-17.8c0-9.8 8-17.8 17.8-17.8Zm-11.4 54.6a7.1 7.1 0 0 1 0 14.2 7.1 7.1 0 0 1-7.2-7.1 7 7 0 0 1 7.2-7.1Z"/><path fill="#D3E8EF" d="M177.2 118.5a76.6 76.6 0 1 1 0 153.2 76.6 76.6 0 0 1 0-153.2Z"/><path fill="#fff" d="M102.6 177.7a76.7 76.7 0 0 1 58.7-57.5c31.6-2.4 57.1 19.7 57.1 49.8 0 30.3-26 57.2-58 60-31.9 2.9-57.8-19.4-57.8-49.7v-2.7Z"/><path fill="#EA5064" d="M200.8 165.8a43.2 43.2 0 1 1 0 86.3 43.2 43.2 0 0 1-43.2-43.2 43.2 43.2 0 0 1 43.2-43.1Z"/><path fill="#EB6377" d="M200.8 165.8a43 43 0 0 1 17.6 3.7v.5c0 29.6-24.6 55.8-55.5 59.8a43 43 0 0 1-5.4-21 43.2 43.2 0 0 1 43.2-43.1Z"/><path fill="#232323" d="M200.8 180.9a28 28 0 1 1 0 56.1 28 28 0 0 1 0-56.1Z"/><path fill="#333332" d="M200.8 180.9c5.6 0 11 1.7 15.4 4.6a64 64 0 0 1-37.9 40.3 28 28 0 0 1 22.5-45Z"/><path fill="#fff" d="M170.2 176.6a17.7 17.7 0 1 1 0 35.3 17.7 17.7 0 0 1 0-35.3Z"/><path fill="#6C53A3" d="M87.1 230.2c21.8-12 54.6 9 52.2 43a99.7 99.7 0 0 1-52.2-43Z"/><path fill="#A58DC2" d="M87.1 230.2c19.8.4 41.7 11.6 52.2 43-25-2.8-48-21.8-52.2-43Z"/><path fill="#7860A9" d="M97.4 258.6c3-1 16.5-.7 17.6.8 1.4 1.8-2.3 11-6 17-5.1-4-9.2-9.5-11.6-17.8Z"/><path fill="#fff" d="M93.4 255.3c3-1 16.6-.7 17.7.8 1.3 1.8-2.4 11-6.2 17-5-4-9-9.5-11.5-17.8Z"/><path fill="#6C53A3" d="M97.5 250.6c1 19.3 26 38 50 31 1.3 5.5-2.6 8.9-6.4 9.7A50 50 0 0 1 91.5 262c-2-4.8.3-10.8 6-11.4Zm-4.1 36.2A34 34 0 0 0 119 305c-14.7 6.6-27.7-2.2-25.7-18.3Z"/><path fill="#9178B7" d="M103.3 289.5c11.7 6.6 23 8.7 36 7.5-9.5 6.3-28 7-36-7.5Z"/><path fill="#60459B" d="M203.7 96.8c-23.8-41-86.1-17.2-79.8 28.9 15.6-25.8 45.7-34.2 79.8-29Z"/><path fill="#6C53A3" d="M203.7 96.8c-13.4-23.2-41.7-24.7-60.5-12a17 17 0 0 0 4.4 12.5 63.4 63.4 0 0 1 56.1-.5Zm124.1 156c24.9 0 45.4 20 45.4 44.9 0 25-20.4 45-45.4 45-24.8 0-45.3-20-45.3-45s20.4-45 45.3-45Z"/><path fill="#9178B7" d="M327.8 259.3a38.6 38.6 0 0 1 38.8 38.3 38.5 38.5 0 0 1-38.8 38.4 38.5 38.5 0 0 1-38.7-38.4 38.5 38.5 0 0 1 38.7-38.3Z"/><path fill="#A58DC2" d="M327.8 259.3a38.8 38.8 0 0 1 34.7 21.3c1.4 20-23 34.7-39.2 27.8a38.4 38.4 0 0 1-20.3-33.7c0-2.4.2-4.7.7-7a38.8 38.8 0 0 1 24-8.4h.1Z"/><path fill="#2C313A" d="M312 291.7c-1.8-5.5 18.8-12.4 20.7-6.9l20.4 61.2c1.8 5.5-18.8 12.4-20.7 6.9l-20.3-61.2Z"/><path fill="#60459B" d="M341.6 285.5a48 48 0 0 0-19.6 19c7 8.4 16 13 26 11.8 8.1-10.2 3.9-21.9-6.5-30.8Z"/><path fill="#6C53A3" d="M347.9 299.5a30.3 30.3 0 0 0-6.2-10c-6.2 4-11.3 8.2-15.2 14.5 4.3.4 11-.7 21.4-4.6Z"/><path fill="#60459B" d="M349.4 310a49 49 0 0 0-19.6 19c7 8.4 16 13 26 11.8 8.1-10.2 3.8-21.9-6.5-30.8Z"/><path fill="#6C53A3" d="M355.7 323a30.2 30.2 0 0 0-6.2-10c-6.2 4-11.3 8.3-15.2 14.5 4.3.5 11-.7 21.4-4.6Z"/><path fill="#60459B" d="M307.2 312.4a40.1 40.1 0 0 1 22.8-.6c1 9-1.5 17.2-8 22.4-10.8-1-15.4-10.4-14.7-21.7Z"/><path fill="#6C53A3" d="M312 323.3c-1.5-2.7-2.2-6-2.4-9.5a37 37 0 0 1 17.5-.6 44.4 44.4 0 0 1-15.1 10.1Z"/><path fill="#3A404D" d="M291.8 147a74.3 74.3 0 0 0-69.9 78.2 74.3 74.3 0 1 0 70-78.3Z"/><path fill="#D3E8EF" d="M292.4 156a65 65 0 1 0 7.4 130 65 65 0 0 0-7.4-130Z"/><path fill="#fff" d="M345.5 253.2a59 59 0 0 0-33.6-89l-6 67a208 208 0 0 1 39.7 22Zm-54-89.9a56.5 56.5 0 0 0-51 72.4 65.7 65.7 0 0 1 61.5-72h.3c-3.5-.4-7.2-.6-10.8-.4Z"/><path fill="#989898" d="M240.3 254.7a69.4 69.4 0 0 0 4 5.7l19-26.6 44.3 18.4 25.6-52.9 25.7 5a70.3 70.3 0 0 0-2.3-7.1l-27-5.2-25.2 51.9-43.2-18-20.8 28.8Z"/><path fill="#3BB984" d="M261.6 216.4a13.4 13.4 0 0 1 14.1 12.6 13.4 13.4 0 0 1-12.6 14.2 13.4 13.4 0 0 1-14.1-12.6 13.4 13.4 0 0 1 12.6-14.2Z"/><path fill="#EA5064" d="M330.7 182.3a13.4 13.4 0 0 1 14.1 12.6 13.4 13.4 0 0 1-12.6 14 13.4 13.4 0 0 1-14.1-12.5 13.4 13.4 0 0 1 12.6-14.1Z"/><path fill="#F6893F" d="M305.3 234.7a13.4 13.4 0 1 1-12.7 14.1 13.4 13.4 0 0 1 12.6-14.1Z"/></svg>