<svg clip-rule="evenodd" fill-rule="evenodd" stroke-linejoin="round" stroke-miterlimit="1.41" viewBox="0 0 73 56" xmlns="http://www.w3.org/2000/svg"><g fill-rule="nonzero"><path d="m36.1 47.86c19.92 0 36.1 1.73 36.1 3.9 0 2.15-16.18 3.88-36.1 3.88-19.93 0-36.1-1.73-36.1-3.89s16.17-3.9 36.1-3.9" fill-opacity=".15"/><path d="m57.8 16.92c.47-.28.56-2.02.61-2.53.14-1.17 1.6-1.69 2.53-1.08 1.64 1.17 2.49 3.42 2.72 5.34.24 1.97.05 4.6-1.36 6.15-1.5 1.68-5.3 2.2-7.55 1.96-.6-.04-1.17-.18-1.73-.28l-1.08-9.65 1.17.23c1.18.23 3.57.47 4.65-.14z" fill="#996"/><path d="m61.46 15.04a3.84 3.84 0 0 0 -.99-.98c-.37-.28-1.08-.05-1.12.42l-.05.33c.7-.23 1.5-.05 2.16.23m1.31 6.61c.28-1.5.14-3.23-.38-4.73a3.28 3.28 0 0 0 -1.45-1.13c-.89-.37-1.36-.23-1.78.15-.05.37-.14.65-.23.93 2.43.8 3.47 3.14 3.84 4.83zm-7.13-3.46c-.84 0-1.73-.1-2.62-.29l.84 7.79c1.13.23 2.44.23 3.61.09.85-3 0-6.52-1.87-7.64zm2.63-.52c-.33.19-.8.33-1.36.42 1.69 1.78 2.2 5.02 1.6 7.55 1.4-.28 2.57-.8 3.18-1.45.14-.14.23-.33.38-.47 0-2.68-1.08-5.53-3.66-6.1-.05.05-.05.05-.1.05z" fill="#c0c0a0"/><path d="m57.8 22.73a9.84 9.84 0 0 1 -3.23.24 6.6 6.6 0 0 1 -1.04-.2l-.56-4.82c.9.19 1.78.28 2.63.28 1.22.75 2.01 2.53 2.15 4.5zm3.42-6.8.14.85c.1.56.1 1.22.05 1.87a5.5 5.5 0 0 0 -2.48-1.78c.09-.28.18-.56.23-.93.37-.33.89-.52 1.78-.15l.28.15m-.7-1.83c.14.23.23.47.33.7a3.05 3.05 0 0 0 -1.6-.05l.05-.32c.05-.47.75-.7 1.13-.43l.09.05zm-2.25 3.56c-.33.19-.8.33-1.36.42a7.5 7.5 0 0 1 1.78 4.36 3.67 3.67 0 0 0 1.64-1.03c.38-.38-.6-3.52-1.97-3.8-.04.05-.04.05-.1.05" fill="#fbfac4"/><path d="m13.83 16.92c-.47-.28-.56-2.02-.61-2.53-.14-1.17-1.6-1.69-2.53-1.08-1.64 1.17-2.49 3.42-2.72 5.34-.24 1.97-.05 4.6 1.36 6.15 1.5 1.68 5.3 2.2 7.54 1.96.61-.04 1.18-.18 1.74-.28l1.08-9.65-1.18.23c-1.17.23-3.56.47-4.64-.14z" fill="#996"/><path d="m10.17 15.04c.28-.37.61-.75.99-.98.37-.28 1.07-.05 1.12.42l.05.33c-.7-.23-1.5-.05-2.16.23m-1.31 6.61a9.62 9.62 0 0 1 .37-4.73c.38-.47.75-.84 1.46-1.13.89-.37 1.36-.23 1.78.15.05.37.14.65.23.93-2.44.8-3.47 3.14-3.84 4.83zm7.13-3.46c.84 0 1.73-.1 2.62-.29l-.84 7.79c-1.13.23-2.44.23-3.61.09-.85-3 0-6.52 1.87-7.64zm-2.63-.52c.33.19.8.33 1.36.42-1.69 1.78-2.2 5.02-1.6 7.55-1.4-.28-2.57-.8-3.18-1.45-.14-.14-.24-.33-.38-.47 0-2.68 1.08-5.53 3.66-6.1.05.05.05.05.1.05z" fill="#c0c0a0"/><path d="m13.83 22.73c1.12.28 2.34.33 3.23.24.38-.05.7-.1 1.03-.2l.57-4.82c-.9.19-1.78.28-2.63.28-1.22.75-2.01 2.53-2.16 4.5zm-3.42-6.8-.14.85c-.1.56-.1 1.22-.05 1.87.6-.75 1.4-1.4 2.48-1.78-.09-.28-.18-.56-.23-.93-.38-.33-.9-.52-1.78-.15l-.28.15m.7-1.83c-.14.23-.23.47-.33.7a3.05 3.05 0 0 1 1.6-.05l-.05-.32c-.05-.47-.75-.7-1.13-.43l-.1.05v.05zm2.25 3.56c.33.19.8.33 1.36.42a7.49 7.49 0 0 0 -1.78 4.36 3.67 3.67 0 0 1 -1.64-1.03c-.38-.38.6-3.52 1.97-3.8.04.05.04.05.09.05" fill="#fbfac4"/><path d="m19.03 15.04c-1.64-.14-3.23.2-4.83.43l1.4-1.36a19.79 19.79 0 0 1 4.93-3.33 24.12 24.12 0 0 1 8.49-2.58c-2.07-.89-4.41-1.31-6.61-1.83 8.48-1.78 19.36-2.44 27.14 4.17 4.45 3.8 6.9 10.83 6.9 17.2 0 24.06-40.98 24.06-40.98 0 0-3.23.8-6.32 2.3-9.13-.57.14-1.08.33-1.65.56l-2.48 1.03 1.78-2.01a14.47 14.47 0 0 1 3.7-3.05z" fill="#8ed41e"/><path d="m37.4 7.64c4 .47 7.88 1.78 11.12 4.54 3.94 3.33 6.05 9.52 6.05 15.1 0 10.22-8.44 15.52-17.16 15.8v-35.44z" fill="#70a91b"/><path d="m22.31 12.84c3.1-2.06 8.16-2.72 14.26-2.39a10.03 10.03 0 0 0 -3.52-2.77c2.77-.09 4.97.52 10.45 2.4a26.48 26.48 0 0 0 -15.98-3.43c1.97.57 3.84 1.46 5.58 2.63-5.58-.61-12 2.06-14.58 4.26a8.97 8.97 0 0 1 4.78.85c-2.25.8-3.7 1.5-5.11 2.86 2.44-1.22 4.36-2.25 7.45-2.9-1.22-.43-1.87-1.18-3.33-1.5" fill="#a1e141"/><path d="m35.9 7.17c5.63 0 10.18 4.4 10.18 9.89 0 5.44-4.55 9.9-10.17 9.9a10.01 10.01 0 0 1 -10.17-9.9c0-5.44 4.54-9.9 10.17-9.9" fill="#70a91b"/><path d="m19.78 26.3c.33-.61 31.18-.85 31.79 0 1.07 1.4.46 2.76 0 3.93h-31.79c-.28-1.26-.75-2.62 0-3.93" fill="#70a91b"/><path d="m20.2 27.19c.33-.8 30.38-1.13 30.99 0 1.03 1.92.42 3.8 0 5.39h-30.99c-.28-1.74-.7-3.57 0-5.4" fill="#4b7113"/><path d="m45.19 6.75c-.42-8.02-11.2-8.86-14.02-2.58 4.97-2.72 10.04-1.74 14.02 2.58" fill="#70a91b"/><path d="m39.19.09c-3.14-.47-6.56.9-7.97 4.03 1.88-1.03 3.8-1.5 5.63-1.5.37-.7 1.26-2.06 2.39-2.53z" fill="#85c51f"/><path d="m35.9 6.14c5.07 0 9.15 4.08 9.15 9.14s-4.08 9.14-9.14 9.14-9.14-4.08-9.14-9.14 4.08-9.14 9.14-9.14" fill="#d3e8ef"/><path d="m30.14 8.48c3.05-2.53 7.32-2.53 9.47.1 2.16 2.57 1.4 6.75-1.64 9.32-3.05 2.54-7.31 2.54-9.47-.09-2.15-2.58-1.4-6.75 1.64-9.33" fill="#fff"/><path d="m36.14 12.19c3.56 0 6.42 2.67 6.42 6 0 3.32-2.86 6-6.42 6s-6.42-2.68-6.42-6c0-3.33 2.86-6 6.42-6" fill="#0d82df"/><path d="m36.14 12.19c1.74 0 3.33.65 4.46 1.68a8.5 8.5 0 0 1 -2.63 4.03c-2.53 2.11-5.9 2.44-8.2 1.04-.05-.24-.05-.47-.05-.75 0-3.33 2.86-6 6.42-6" fill="#0399ed"/><path d="m36.14 14.34c2.25 0 4.13 1.74 4.13 3.85 0 2.1-1.83 3.84-4.13 3.84-2.25 0-4.12-1.73-4.12-3.84s1.82-3.85 4.12-3.85" fill="#232323"/><path d="m36.14 14.34c1.46 0 2.72.7 3.47 1.74a7.37 7.37 0 0 1 -1.64 1.78 7.9 7.9 0 0 1 -5.58 1.87 3.63 3.63 0 0 1 -.37-1.6c0-2.1 1.82-3.84 4.12-3.84z" fill="#323232"/><path d="m32.53 12.51c1.69 0 3.05 1.27 3.05 2.86 0 1.6-1.36 2.86-3.05 2.86s-3.04-1.26-3.04-2.86 1.36-2.86 3.04-2.86" fill="#fff"/><path d="m14.58 29.44c14.16-2.11 28.36-1.93 42.52 0 1.03 7.4.47 14.44 0 21.51-14.16.57-28.36.66-42.52 0a87 87 0 0 1 0-21.51" fill="#9caeb3"/><path d="m18.66 49.5c11.48.42 22.92.38 34.4 0-4.12-2.34-8.24-4.6-12.89-5.86a33.7 33.7 0 0 1 -4.68 1.74c-.24.04-.24.04-.47 0a39.38 39.38 0 0 1 -3.9-1.5 50.27 50.27 0 0 0 -12.51 5.67zm-2.72-17.63a79.2 79.2 0 0 0 .1 17.07 56.98 56.98 0 0 1 13.16-6.1c-5.34-2.8-9.09-6.84-13.26-10.97m38.63-1.12a150.5 150.5 0 0 0 -37.6 0c5.16 5.76 10.83 10.5 18.38 12.98 8.01-2.3 13.54-7.3 19.22-12.98m1.07 18.19c.38-5.67.75-11.35.14-17.02-4.21 4.17-8.71 8.16-13.97 10.92a69.01 69.01 0 0 1 13.88 6.1z" fill="#d3e8ef"/><path d="m18.66 49.5c5.53.19 11.06.28 16.64.28v-4.4c-.05 0-.1 0-.24-.05a38.83 38.83 0 0 1 -3.89-1.5 50.3 50.3 0 0 0 -12.51 5.67m-2.72-17.63a79.2 79.2 0 0 0 .1 17.07 56.98 56.98 0 0 1 13.16-6.1c-5.34-2.8-9.09-6.84-13.26-10.97m19.36-2.3c-6.14 0-12.24.38-18.33 1.18 5.11 5.77 10.83 10.45 18.33 12.98z" fill="#fff"/><path d="m27.33 32.95c-.05.19-.14.38-.23.57-.1.28-.29.56-.52.74-.56.43-1.27.29-1.88.05-1.36-.56-2.3-1.92-2.86-3.23a5.94 5.94 0 0 1 -.32-4.22c9.47-.52 19.17-.61 28.36-.05v.05h.14c.14 1.6 0 2.25-.38 3.56-.42 1.5-1.3 3.33-2.8 4.03-.57.28-1.23.42-1.74.05a2.28 2.28 0 0 1 -.57-.75c-.32-.52-.42-1.27-.51-1.83-.19.38-.42.61-.8.7a23.22 23.22 0 0 1 -3.84.38c-.99 0-2.07-.1-3-.38-.14.57-.38 1.08-.94 1.27-.6.19-1.36.28-2.02.33-.7.04-1.4.1-2.06.1a8.6 8.6 0 0 1 -3.28-.52 1.26 1.26 0 0 1 -.75-.8z" fill="#996"/><path d="m43.22 26.53c.38 2.1.28 4.83-.33 4.97-.93.23-4.54.6-6.33-.05-.47-.89-.47-3.14-.42-4.97 2.44 0 4.88 0 7.08.05m-15.14.42c-.33.99-.66 2.11-.98 3.47-.2.85-.33 1.69-.47 2.3-.2.84-.61.98-1.41.65-2.06-.89-3.14-4.35-3.05-6.47 1.4-.09 3.52-.18 5.9-.28 2.3-.04 4.88-.09 7.46-.09.24 2.58.24 5.67-.33 6.33-.98.33-4.82.8-6.7-.05-.84-.37-.52-3.51-.47-5.81zm15.52-.42c.28 1.12.6 2.3.93 3.8.19.93.29 1.83.42 2.43.2.94.57 1.08 1.32.7 1.83-.93 2.86-4.4 2.81-6.7-1.36-.09-3.28-.18-5.48-.23" fill="#c0c0a0"/><path d="m36.14 27.8c2.2 0 4.41 0 6.42.04.33 1.17.33 3.28-1.07 3.8-1.5.14-3.66.19-4.93-.28-.32-.66-.42-2.11-.42-3.56m-8.1.14c2-.05 4.3-.1 6.6-.1.24 1.69.66 5.07-1.45 5.25-1.55.14-3.47.14-4.69-.37-.7-.33-.6-2.67-.51-4.74zm-5.77.28c.98-.1 2.3-.14 3.84-.19.19 0 .56 4.64.56 4.64-.19.84-.6.99-1.4.66-1.65-.7-2.68-3.05-2.96-5.07zm22.69 4.54c.18.94.56 1.08 1.3.7 1.5-.74 2.45-3.18 2.73-5.29-.9-.1-1.97-.14-3.24-.19-.75.57-.89 4.46-.8 4.78" fill="#fbfac4"/><path d="m32.11 27.89c.1 1.83 0 3.66-.23 3.8-.47.28-2.2.65-3.05-.05-.33-.23-.28-2.02-.23-3.7 1.12-.05 2.3-.05 3.56-.1zm7.88-.05c.04 1.36-.05 2.63-.24 2.72-.42.24-2.06.52-2.9-.05-.29-.18-.29-1.45-.24-2.71h3.39v.04zm-14.82.24c-.04.51-.04 1.12-.04 1.73v1.88c0 .7-.2.84-.57.51-.75-.56-1.4-2.34-1.68-3.98.65-.05 1.45-.1 2.3-.14m23.24.04a26.6 26.6 0 0 0 -2.1-.09c0 .52.04 1.08.04 1.69v2.01c0 .75.14.9.52.57.65-.61 1.26-2.4 1.54-4.18" fill="#fff"/><path d="m17.4 49.88c-.52 2.34-2.87 3.89-5.21 3.8-3.24-.15-8.25-3.71-8.16-7.23.05-1.97 1.5-3.75 3-4.87 1.45-1.13 3.9-2.3 5.77-1.78 1.87.51 3.18 3.09 3.8 4.78.56 1.45 1.12 3.75.74 5.3h.05z" fill="#85c51f"/><path d="m16.6 49.64c.04-.28.09-.56.09-.89-.61-2.58-2.06-5.53-3.7-6-2.54-.75-7.65 2.62-7.37 6.1 1.41 2.15 4.41 3.93 6.57 4.02 1.97.1 3.98-1.21 4.4-3.18v-.05z" fill="#70a91b"/><path d="m14.25 47.02c.66-1.32-.42-3.61-2.06-3.43-1.74.24-5.49 2.82-5.49 4.83 0 1.27 1.74 2.16 3.56 1.64 1.36-.37 3.47-1.97 3.99-3.04m1.45 3.28c.33-.8-.14-2.2-1.07-2.07-.99.2-3.33 1.88-3.24 2.82.05.75 1.36 1.4 2.4 1.03a3.97 3.97 0 0 0 1.91-1.78" fill="#5d8d17"/><g fill="#2c440c"><path d="m11.67 40.92c.05.85-1.6 1.6-2.25.99-.56-1.08-.42-2.4.05-2.68.51-.28 1.78.24 2.2 1.7m-3.19 1.54c.19.94-1.07 1.73-1.68 1.31-.8-.8-1.08-2.2-.7-2.53.37-.33 1.73.19 2.38 1.22m-2.38 2.34c.28.61-.34 1.46-1.04 1.4-.75-.55-1.45-1.87-1.17-2.2.28-.37 1.55 0 2.2.8m12.01-8.71c.37-.71-.66-1.18-1.5-1.5-.85-.29-1.27-.29-1.6.41-.38.7-.56 1.79.33 2.07.84.28 2.44-.28 2.81-.99h-.05z"/><path d="m18.84 33.47c.1.8-1.03 1.22-1.96 1.4-.9.2-1.27.1-1.36-.7-.1-.8.14-2.06 1.07-2.25.9-.19 2.16.75 2.25 1.55"/><path d="m19.03 30.84c.1.75-1.03 1.13-1.97 1.32-.89.18-1.26.09-1.36-.7-.1-.76.14-1.93 1.04-2.12.89-.18 2.15.7 2.25 1.46zm-7.36-1.74c.14.62 1.31.48 2.2.3.9-.24 1.22-.43 1.04-1.04-.14-.61-.7-1.45-1.6-1.22-.89.23-1.78 1.36-1.64 2.02z"/></g><path d="m10.88 36.56.28.8-.61-.47a2.9 2.9 0 0 1 -.7-.94c.04.38.09.61.18.94-.89-1.45-1.69-3.05-1.17-5.16.47-1.92 2.39-2.81 3.75-3.18a7.18 7.18 0 0 1 2.62-.29c.52.05 1.41.2 1.79.66.37.47.56 1.45.65 2.11.14 1.03.1 2.11-.04 3.14a6.76 6.76 0 0 1 -.9 2.58c-.37.56-.8.98-1.35 1.22-.66.28-1.32.33-2.02.19a4.86 4.86 0 0 1 -2.53-1.55z" fill="#85c51f"/><path d="m16.55 29.58c.56.65.84 3.42.18 5.44a3.73 3.73 0 0 1 -3.33-.84c.05.27.15.46.24.6-.56-.23-1.03-.94-1.36-1.73.05.65.14.94.24 1.31-.7-.23-1.27-1.03-1.7-1.87-.37-.75-.32-1.83.34-2.3 1.73-1.27 4.68-1.36 5.34-.56z" fill="#a1e141"/><path d="m54.28 49.88c.52 2.34 2.86 3.89 5.2 3.8 3.24-.15 8.26-3.71 8.16-7.23-.04-1.97-1.5-3.75-3-4.87-1.45-1.13-3.89-2.3-5.76-1.78-1.88.51-3.19 3.09-3.8 4.78-.56 1.45-1.12 3.75-.75 5.3z" fill="#85c51f"/><path d="m55.04 49.64c-.05-.28-.1-.56-.1-.89.61-2.58 2.06-5.53 3.7-6 2.54-.75 7.64 2.62 7.36 6.1-1.4 2.15-4.4 3.93-6.56 4.02-1.97.1-3.98-1.21-4.4-3.18z" fill="#70a91b"/><path d="m57.43 47.02c-.66-1.32.42-3.61 2.06-3.43 1.73.24 5.48 2.82 5.48 4.83 0 1.27-1.73 2.16-3.56 1.64-1.36-.37-3.47-1.97-3.98-3.04m-1.46 3.28c-.33-.8.14-2.2 1.08-2.07.98.2 3.33 1.88 3.23 2.82-.04.75-1.35 1.4-2.39 1.03a3.96 3.96 0 0 1 -1.92-1.78" fill="#5d8d17"/><g fill="#2c440c"><path d="m59.96 40.92c-.05.85 1.6 1.6 2.25.99.56-1.08.42-2.4-.05-2.68-.52-.28-1.78.24-2.2 1.7m3.18 1.54c-.18.94 1.08 1.73 1.7 1.31.79-.8 1.07-2.2.7-2.53-.38-.33-1.74.19-2.4 1.22m2.4 2.34c-.29.61.32 1.46 1.03 1.4.75-.55 1.45-1.87 1.17-2.2-.28-.37-1.55 0-2.2.8m-12.01-8.71c-.37-.71.66-1.18 1.5-1.5.85-.29 1.27-.29 1.6.41.37.7.56 1.79-.33 2.07-.84.28-2.44-.28-2.81-.99h.04z"/><path d="m52.83 33.47c-.1.8 1.03 1.22 1.97 1.4.9.2 1.27.1 1.36-.7.1-.8-.14-2.06-1.08-2.25-.89-.19-2.15.75-2.25 1.55"/><path d="m52.6 30.84c-.1.75 1.03 1.13 1.96 1.32.9.18 1.27.09 1.36-.7.1-.76-.14-1.93-1.03-2.12-.89-.18-2.15.7-2.25 1.46zm7.4-1.74c-.14.62-1.31.48-2.2.3-.89-.24-1.22-.43-1.03-1.04.14-.61.7-1.45 1.6-1.22.88.23 1.77 1.36 1.63 2.02z"/></g><path d="m60.75 36.56-.28.8.61-.47c.28-.23.52-.56.7-.94-.04.38-.09.61-.18.94.89-1.45 1.69-3.05 1.17-5.16-.47-1.92-2.4-2.81-3.75-3.18a7.18 7.18 0 0 0 -2.62-.29c-.52.05-1.41.2-1.79.66a5.07 5.07 0 0 0 -.65 2.11 11.8 11.8 0 0 0 .04 3.14c.14.94.42 1.83.9 2.58.37.56.8.98 1.35 1.22.66.28 1.32.33 2.02.19a4.86 4.86 0 0 0 2.53-1.55z" fill="#85c51f"/><path d="m55.08 29.58c-.56.65-.84 3.42-.19 5.44.2.04.43.09.66.09 1.03.1 2.02-.37 2.67-.94a1.5 1.5 0 0 1 -.23.61c.56-.23 1.03-.94 1.36-1.73-.05.65-.14.94-.24 1.31.7-.23 1.27-1.03 1.7-1.87.37-.75.32-1.83-.34-2.3-1.73-1.27-4.69-1.36-5.34-.56z" fill="#a1e141"/></g></svg>