<svg enable-background="new 0 0 32.13 28.567" viewBox="0 0 32.13 28.567" xmlns="http://www.w3.org/2000/svg"><path d="m31.846 27.284c0 .552-.448 1-1 1h-29.562c-.552 0-1-.448-1-1v-26c0-.552.448-1 1-1h29.563c.552 0 1 .448 1 1v26z" fill="none" stroke="#293f54" stroke-miterlimit="10" stroke-width=".5669"/><path d="m.096 7.221h31.688" fill="none" stroke="#293f54" stroke-miterlimit="10" stroke-width=".5669"/><circle cx="2.846" cy="3.846" fill="#00b1cc" r=".813"/><circle cx="6.846" cy="3.846" fill="#00b1cc" r=".813"/><circle cx="10.846" cy="3.846" fill="#00b1cc" r=".813"/><circle cx="16.221" cy="3.846" fill="#293f54" r=".5"/><circle cx="18.746" cy="3.846" fill="#293f54" r=".5"/><circle cx="21.271" cy="3.846" fill="#293f54" r=".5"/><circle cx="23.796" cy="3.846" fill="#293f54" r=".5"/><circle cx="26.321" cy="3.846" fill="#293f54" r=".5"/><circle cx="28.846" cy="3.846" fill="#293f54" r=".5"/><path d="m29.39 24.74c0 .782-.635 1.417-1.418 1.417h-17.452c-.783 0-1.418-.635-1.418-1.417v-9.582c0-.782.635-1.417 1.418-1.417h17.452c.783 0 1.418.635 1.418 1.417z" style="fill:none;stroke:#293f54;stroke-width:.4544;stroke-linecap:round;stroke-linejoin:round;stroke-miterlimit:10"/><path d="m28.244 23.866c0 .64-.563 1.159-1.257 1.159h-15.482c-.695 0-1.257-.519-1.257-1.159v-7.834c0-.64.563-1.159 1.257-1.159h15.481c.695 0 1.257.519 1.257 1.159v7.834z" fill="#ffc500"/><text transform="translate(11.6846 23.1992)"><tspan fill="#293f54" font-family="'Montserrat-Bold'" font-size="3.8272" x="0" y="0">c</tspan><tspan fill="#293f54" font-family="'Montserrat-Bold'" font-size="3.8272" x="2.782" y="0">ard</tspan></text><path d="m29.39 24.74c0 .782-.635 1.417-1.418 1.417h-17.452c-.783 0-1.418-.635-1.418-1.417v-9.582c0-.782.635-1.417 1.418-1.417h17.452c.783 0 1.418.635 1.418 1.417z" style="fill:none;stroke:#293f54;stroke-width:.4544;stroke-linecap:round;stroke-linejoin:round;stroke-miterlimit:10"/><path d="m28.244 23.866c0 .64-.563 1.159-1.257 1.159h-15.482c-.695 0-1.257-.519-1.257-1.159v-7.834c0-.64.563-1.159 1.257-1.159h15.481c.695 0 1.257.519 1.257 1.159v7.834z" fill="#00b1cc"/><text fill="#293f54" font-family="'Montserrat-Bold'" font-size="3.8272" transform="translate(11.6846 19.9492)">gift</text><path d="m24.59 22.001h.59v1.206h.511c-.026-.09-.04-.194-.04-.311 0-.294.089-.547.267-.76.178-.212.417-.319.719-.319s.551.11.748.33c.196.22.295.491.295.815 0 .414-.153.759-.459 1.035l-.498-.358c.026-.026.058-.062.096-.105.038-.044.088-.124.15-.24.063-.117.094-.233.094-.35s-.035-.22-.105-.311c-.07-.09-.173-.135-.31-.135s-.243.049-.317.146-.111.224-.111.378.055.333.166.538l-.306.284h-1.49z" fill="#fff"/><path d="m27.679 20.1c0 .422-.144.738-.431.948-.287.209-.67.314-1.149.314s-.862-.105-1.149-.314c-.287-.21-.431-.526-.431-.948s.144-.739.431-.948c.287-.21.67-.315 1.149-.315s.863.105 1.149.315c.288.209.431.526.431.948zm-2.316.45c.186.096.433.145.738.145s.552-.048.738-.145c.187-.096.28-.246.28-.45s-.093-.354-.28-.45c-.186-.096-.433-.145-.738-.145s-.552.048-.738.145c-.187.096-.28.246-.28.45s.094.354.28.45z" fill="#fff"/><path d="m25.983 18.391h-.367v-.424c-.333-.087-.598-.254-.798-.5-.199-.246-.299-.545-.299-.898 0-.437.176-.812.529-1.123l.507.389c-.259.213-.389.463-.389.751 0 .327.15.552.45.677v-1.018h.367v1.097c.029.003.073.004.131.004s.101-.001.126-.004v-1.097h.367v.997c.137-.07.242-.166.314-.286.073-.121.109-.254.109-.4 0-.289-.115-.524-.345-.708l.446-.402c.184.157.32.338.411.544.09.205.136.41.136.614 0 .329-.097.616-.291.861-.193.245-.454.412-.78.502v.424h-.367v-.367c-.026.003-.068.004-.126.004s-.102-.001-.131-.004z" fill="#fff"/><path d="m23.134 21.49c0 .782-.635 1.417-1.418 1.417h-17.452c-.783 0-1.418-.635-1.418-1.417v-9.582c0-.782.635-1.417 1.418-1.417h17.452c.783 0 1.418.635 1.418 1.417z" style="fill:none;stroke:#293f54;stroke-width:.4544;stroke-linecap:round;stroke-linejoin:round;stroke-miterlimit:10"/><path d="m21.988 20.616c0 .64-.563 1.159-1.257 1.159h-15.481c-.695 0-1.257-.519-1.257-1.159v-7.834c0-.64.563-1.159 1.257-1.159h15.481c.695 0 1.257.519 1.257 1.159z" fill="#ffc500"/><text transform="translate(5.4287 19.9492)"><tspan fill="#293f54" font-family="'Montserrat-Bold'" font-size="3.8272" x="0" y="0">c</tspan><tspan fill="#293f54" font-family="'Montserrat-Bold'" font-size="3.8272" x="2.782" y="0">ard</tspan></text><path d="m23.134 21.49c0 .782-.635 1.417-1.418 1.417h-17.452c-.783 0-1.418-.635-1.418-1.417v-9.582c0-.782.635-1.417 1.418-1.417h17.452c.783 0 1.418.635 1.418 1.417z" style="fill:#fff;stroke:#293f54;stroke-width:.4544;stroke-linecap:round;stroke-linejoin:round;stroke-miterlimit:10"/><path d="m21.988 20.616c0 .64-.563 1.159-1.257 1.159h-15.481c-.695 0-1.257-.519-1.257-1.159v-7.834c0-.64.563-1.159 1.257-1.159h15.481c.695 0 1.257.519 1.257 1.159z" fill="#ffc500"/><g fill="#293f54"><path d="m7.496 15.337h.601v.949c-.265.296-.633.444-1.102.444-.393 0-.723-.13-.989-.391s-.4-.589-.4-.985c0-.397.136-.728.407-.993.272-.266.6-.398.984-.398s.717.126 1 .379l-.31.448c-.12-.104-.23-.177-.331-.216-.101-.04-.21-.06-.328-.06-.227 0-.418.078-.574.232s-.233.357-.233.61c0 .252.074.455.224.606s.327.228.534.228.379-.04.517-.119z"/><path d="m8.628 14.024h.597v2.675h-.597z"/><path d="m11.721 14.024v.524h-1.24v.578h1.179v.524h-1.179v1.049h-.597v-2.675z"/><path d="m13.359 14.541v2.159h-.597v-2.159h-.758v-.517h2.113v.517z"/><path d="m6.986 19.421c.293 0 .533-.116.72-.348l.383.394c-.304.342-.662.513-1.074.513s-.751-.13-1.018-.391-.4-.589-.4-.985c0-.397.136-.728.408-.993.271-.266.604-.398.997-.398.439 0 .807.167 1.103.501l-.371.421c-.189-.235-.424-.352-.705-.352-.225 0-.417.073-.576.22-.16.147-.239.345-.239.593 0 .249.075.449.226.599.15.151.332.226.546.226z"/><path d="m10.446 19.949-.249-.578h-1.121l-.249.578h-.635l1.156-2.675h.578l1.156 2.675zm-.807-1.879-.337.777h.67z"/><path d="m13.561 18.162c0 .428-.169.705-.509.83l.677.957h-.735l-.593-.854h-.413v.854h-.597v-2.675h1.014c.416 0 .712.07.89.21.178.141.266.367.266.678zm-.719.317c.074-.066.111-.171.111-.316 0-.144-.038-.243-.115-.296s-.21-.081-.402-.081h-.448v.792h.436c.204.001.344-.032.418-.099z"/><path d="m16.217 17.624c.255.233.382.558.382.974s-.124.745-.373.987c-.249.243-.628.364-1.139.364h-.915v-2.675h.945c.479 0 .845.117 1.1.35zm-.438 1.59c.147-.138.22-.338.22-.601s-.073-.465-.22-.606c-.146-.142-.372-.212-.675-.212h-.333v1.626h.379c.272 0 .482-.069.629-.207z"/></g><path d="m18.915 20.634h-.581v-1.87h.472l.712.625c.041-.245.144-.434.308-.568s.354-.201.57-.201c.32 0 .571.109.753.326s.273.495.273.833-.12.68-.358 1.027l-.542-.28c.204-.289.306-.546.306-.773 0-.137-.034-.25-.101-.338s-.164-.133-.291-.133-.228.051-.302.153-.111.243-.111.424c0 .096.028.231.083.406h-.502l-.69-.585v.954z" fill="#fff"/><path d="m21.423 16.872c0 .422-.144.738-.431.948-.287.209-.67.314-1.149.314s-.862-.105-1.149-.314c-.287-.21-.431-.526-.431-.948s.144-.739.431-.948c.287-.21.67-.315 1.149-.315s.863.105 1.149.315c.288.209.431.526.431.948zm-2.316.45c.186.096.433.145.738.145s.552-.048.738-.145c.187-.096.28-.246.28-.45s-.093-.354-.28-.45c-.186-.096-.433-.145-.738-.145s-.552.048-.738.145c-.187.096-.28.246-.28.45.001.204.094.354.28.45z" fill="#fff"/><path d="m19.728 15.163h-.367v-.424c-.333-.087-.598-.254-.798-.5-.199-.246-.299-.545-.299-.898 0-.437.176-.812.529-1.123l.507.389c-.259.213-.389.463-.389.751 0 .327.15.552.45.677v-1.018h.367v1.097c.029.003.073.004.131.004s.101-.001.126-.004v-1.097h.367v.997c.137-.07.242-.166.314-.286.073-.121.109-.254.109-.4 0-.289-.115-.524-.345-.708l.446-.402c.184.157.32.338.411.544.09.205.136.41.136.614 0 .329-.097.616-.291.861-.193.245-.454.412-.78.502v.424h-.367v-.367c-.026.003-.068.004-.126.004s-.102-.001-.131-.004z" fill="#fff"/></svg>