<svg width="40" height="40" viewBox="0 0 40 40" fill="none" xmlns="http://www.w3.org/2000/svg">
<circle cx="20" cy="20" r="19.5" stroke="#17B212"/>
<path fill-rule="evenodd" clip-rule="evenodd" d="M29.869 12.1805L16.426 25.6235L11.4919 20.6894C11.4349 20.6323 11.3673 20.5871 11.2929 20.5563C11.2185 20.5254 11.1387 20.5095 11.0582 20.5095C10.9776 20.5095 10.8978 20.5254 10.8234 20.5563C10.749 20.5871 10.6814 20.6323 10.6245 20.6894L9.17929 22.1346C9.06447 22.2497 9 22.4056 9 22.5682C9 22.7308 9.06447 22.8868 9.17929 23.0019L15.9988 29.8202C16.0557 29.8772 16.1233 29.9224 16.1978 29.9532C16.2722 29.9841 16.3519 30 16.4325 30C16.5131 30 16.5928 29.9841 16.6673 29.9532C16.7417 29.9224 16.8093 29.8772 16.8662 29.8202L32.1881 14.4983C32.2451 14.4413 32.2903 14.3738 32.3212 14.2993C32.352 14.2249 32.3679 14.1452 32.3679 14.0646C32.3679 13.984 32.352 13.9043 32.3212 13.8299C32.2903 13.7554 32.2451 13.6878 32.1881 13.6309L30.7429 12.1857C30.6862 12.1274 30.6184 12.081 30.5436 12.0491C30.4688 12.0172 30.3884 12.0005 30.3071 12C30.2257 11.9995 30.1451 12.0153 30.0699 12.0463C29.9947 12.0772 29.9264 12.1229 29.869 12.1805Z" fill="#17B212"/>
</svg>
