<svg width="144" height="60" viewBox="0 0 144 60" fill="none" xmlns="http://www.w3.org/2000/svg">
<path d="M135.026 30.0669L67.2333 30.0669" stroke="#E6E6E6" stroke-width="2" stroke-linecap="round" stroke-dasharray="4 4"/>
<path d="M67.2333 17.3557V24.7705" stroke="#E6E6E6" stroke-width="2" stroke-linecap="round" stroke-dasharray="4 4"/>
<path d="M63.5259 17.3555H56.1111" stroke="#E6E6E6" stroke-width="2" stroke-linecap="round" stroke-dasharray="4 4"/>
<path d="M63.5259 41.7188H56.1111" stroke="#E6E6E6" stroke-width="2" stroke-linecap="round" stroke-dasharray="4 4"/>
<path d="M67.2333 34.3039V41.7188" stroke="#E6E6E6" stroke-width="2" stroke-linecap="round" stroke-dasharray="4 4"/>
<path d="M91.7584 14.9492C92.6487 14.4678 93.7217 14.4678 94.612 14.9492L99.9433 17.8317L105.105 21.0074C105.967 21.5378 106.504 22.467 106.532 23.4788L106.701 29.537L106.532 35.5952C106.504 36.607 105.967 37.5362 105.105 38.0666L99.9433 41.2423L94.612 44.1248C93.7217 44.6062 92.6487 44.6062 91.7584 44.1248L86.4271 41.2423L81.2652 38.0666C80.4031 37.5362 79.8666 36.607 79.8384 35.5952L79.669 29.537L79.8384 23.4788C79.8666 22.467 80.4031 21.5378 81.2652 21.0074L86.4271 17.8317L91.7584 14.9492Z" fill="#E6E6E6"/>
<path d="M126.714 14.9492C127.604 14.4678 128.677 14.4678 129.568 14.9492L134.899 17.8317L140.061 21.0074C140.923 21.5378 141.459 22.467 141.488 23.4788L141.657 29.537L141.488 35.5952C141.459 36.607 140.923 37.5362 140.061 38.0666L134.899 41.2423L129.568 44.1248C128.677 44.6062 127.604 44.6062 126.714 44.1248L121.383 41.2423L116.221 38.0666C115.359 37.5362 114.822 36.607 114.794 35.5952L114.625 29.537L114.794 23.4788C114.822 22.467 115.359 21.5378 116.221 21.0074L121.383 17.8317L126.714 14.9492Z" fill="#E6E6E6"/>
<ellipse cx="93.1852" cy="29.5371" rx="10.063" ry="10.063" fill="#346BD5"/>
<ellipse cx="128.141" cy="29.5371" rx="10.063" ry="10.063" fill="#346BD5"/>
<path d="M90.1817 28.8298V27.4351H96.1897V28.8298H90.1817ZM90.1817 31.7187V30.3239H96.1897V31.7187H90.1817Z" fill="white"/>
<path d="M127.814 35.4594V23.9038H128.554V35.4594H127.814ZM129.949 27.6007C129.907 27.2065 129.729 26.8995 129.416 26.6799C129.106 26.4602 128.703 26.3503 128.207 26.3503C127.858 26.3503 127.558 26.403 127.308 26.5083C127.059 26.6136 126.868 26.7566 126.735 26.9371C126.603 27.1177 126.535 27.3238 126.532 27.5555C126.532 27.7481 126.576 27.9152 126.663 28.0566C126.753 28.198 126.875 28.3184 127.029 28.4177C127.182 28.514 127.352 28.5952 127.539 28.6614C127.725 28.7277 127.913 28.7833 128.103 28.8285L128.97 29.0451C129.319 29.1264 129.654 29.2362 129.976 29.3746C130.301 29.5131 130.592 29.6876 130.847 29.8983C131.106 30.1089 131.311 30.3632 131.461 30.6611C131.612 30.959 131.687 31.3081 131.687 31.7083C131.687 32.25 131.548 32.727 131.272 33.1392C130.995 33.5485 130.595 33.869 130.071 34.1007C129.55 34.3294 128.92 34.4437 128.18 34.4437C127.46 34.4437 126.836 34.3324 126.306 34.1097C125.78 33.887 125.367 33.562 125.07 33.1347C124.775 32.7074 124.615 32.1868 124.591 31.5729H126.239C126.263 31.8949 126.362 32.1627 126.537 32.3764C126.711 32.59 126.938 32.7495 127.218 32.8549C127.501 32.9602 127.817 33.0128 128.166 33.0128C128.53 33.0128 128.849 32.9587 129.123 32.8503C129.4 32.739 129.617 32.5855 129.773 32.3899C129.929 32.1913 130.009 31.9596 130.012 31.6948C130.009 31.454 129.939 31.2554 129.8 31.0989C129.662 30.9395 129.468 30.8071 129.218 30.7017C128.971 30.5934 128.682 30.4971 128.351 30.4128L127.299 30.142C126.538 29.9464 125.936 29.65 125.494 29.2528C125.054 28.8525 124.835 28.3214 124.835 27.6594C124.835 27.1147 124.982 26.6377 125.277 26.2285C125.575 25.8192 125.98 25.5017 126.491 25.276C127.003 25.0473 127.582 24.933 128.229 24.933C128.885 24.933 129.46 25.0473 129.954 25.276C130.45 25.5017 130.84 25.8162 131.123 26.2194C131.406 26.6197 131.551 27.0801 131.561 27.6007H129.949Z" fill="white"/>
<rect x="1" y="11.5" width="53.0222" height="13.8296" rx="1.5" fill="#E6E6E6" stroke="#346BD5" stroke-dasharray="2 2"/>
<rect x="1" y="34.8037" width="53.0222" height="13.8296" rx="1.5" fill="#E6E6E6" stroke="#346BD5" stroke-dasharray="2 2"/>
</svg>
