<svg width="115" height="60" viewBox="0 0 115 60" fill="none" xmlns="http://www.w3.org/2000/svg">
<path d="M48.6167 1.40898C48.8252 0.630823 49.6251 0.169028 50.4032 0.377536L76.7042 7.42487C77.4824 7.63337 77.9442 8.43322 77.7357 9.21138C77.5272 9.98954 76.7273 10.4513 75.9492 10.2428L49.6482 3.1955C48.87 2.98699 48.4082 2.18714 48.6167 1.40898Z" fill="#346BD5"/>
<path d="M38.0453 40.8606C38.2538 40.0825 39.0537 39.6207 39.8318 39.8292L66.1328 46.8765C66.911 47.085 67.3728 47.8849 67.1643 48.663C66.9558 49.4412 66.1559 49.903 65.3778 49.6945L39.0768 42.6472C38.2986 42.4387 37.8368 41.6388 38.0453 40.8606Z" fill="#346BD5"/>
<path fill-rule="evenodd" clip-rule="evenodd" d="M51.5604 1.69429C52.0792 1.8333 52.387 2.36653 52.248 2.88531C51.3563 6.21308 50.7515 8.51036 50.9294 10.8827C51.1043 13.2136 52.051 15.7193 54.5334 19.3448L53.731 19.8942L54.5334 19.3448C55.3834 20.5863 55.9923 21.5957 56.3316 22.441C56.6729 23.2913 56.804 24.1316 56.4626 24.9243C56.1383 25.6775 55.4747 26.168 54.8069 26.5557C54.2839 26.8594 53.627 27.17 52.9054 27.5112C52.6963 27.6101 52.4818 27.7115 52.2635 27.8161L52.2302 27.8321L52.1958 27.8454C44.2564 30.9335 42.4299 37.6881 41.9534 41.2739C41.8826 41.8063 41.3937 42.1805 40.8613 42.1098C40.3289 42.039 39.9547 41.5501 40.0254 41.0177C40.5387 37.1553 42.5664 29.5218 51.4561 26.0463C51.6956 25.9317 51.9204 25.8253 52.1318 25.7253C52.8323 25.3938 53.3849 25.1324 53.8304 24.8737C54.4231 24.5296 54.6119 24.3046 54.6763 24.1551C54.7236 24.0452 54.7796 23.7957 54.5267 23.1655C54.2716 22.5301 53.7669 21.668 52.9286 20.4436C50.3458 16.6714 49.2005 13.8344 48.99 11.0282C48.7849 8.29426 49.4834 5.68798 50.3404 2.49005C50.35 2.45408 50.3597 2.41803 50.3694 2.38191C50.5084 1.86314 51.0416 1.55528 51.5604 1.69429Z" fill="#346BD5"/>
<path fill-rule="evenodd" clip-rule="evenodd" d="M75.1166 8.0064C74.5978 7.86739 74.0646 8.17526 73.9256 8.69403C73.0339 12.0218 72.4091 14.3137 71.0688 16.2793C69.752 18.2105 67.6792 19.9071 63.7166 21.8057L64.1368 22.6827L63.7166 21.8057C62.3597 22.4559 61.3277 23.0256 60.6113 23.5879C59.8905 24.1537 59.3569 24.8159 59.2561 25.6731C59.1604 26.4875 59.4899 27.244 59.8743 27.9137C60.1754 28.4383 60.589 29.0357 61.0434 29.6921C61.175 29.8822 61.31 30.0773 61.4468 30.277L61.4676 30.3075L61.4907 30.3362C66.8224 36.9803 65.0269 43.7432 63.6467 47.0868C63.4418 47.5833 63.6781 48.1518 64.1746 48.3568C64.671 48.5617 65.2396 48.3254 65.4445 47.8289C66.9312 44.2274 68.9919 36.6027 63.0309 29.148C62.8808 28.9291 62.7393 28.7245 62.6063 28.5322C62.1653 27.8948 61.8175 27.3921 61.561 26.9454C61.2198 26.351 61.1688 26.0617 61.1877 25.9001C61.2017 25.7813 61.2779 25.5372 61.8122 25.1178C62.3507 24.6951 63.2188 24.2009 64.557 23.5597C68.6799 21.5842 71.0903 19.7 72.6757 17.375C74.2203 15.1099 74.9185 12.5035 75.7753 9.30554C75.7849 9.26957 75.7946 9.23352 75.8042 9.1974C75.9432 8.67863 75.6354 8.1454 75.1166 8.0064Z" fill="#346BD5"/>
<path d="M44.5623 39.0831C45.5353 35.4517 49.2679 33.2966 52.8993 34.2696L57.596 35.5281C61.2274 36.5011 63.3824 40.2338 62.4094 43.8652L44.5623 39.0831Z" fill="#404040"/>
<path d="M58.2925 29.1709C58.084 29.949 57.2841 30.4108 56.506 30.2023C55.7278 29.9938 55.266 29.194 55.4745 28.4158C55.683 27.6377 56.4829 27.1759 57.261 27.3844C58.0392 27.5929 58.501 28.3927 58.2925 29.1709Z" fill="#404040"/>
<path d="M0.666748 52.7065C0.666748 51.3638 1.75521 50.2754 3.09789 50.2754H114.444V55.1377H3.09789C1.75521 55.1377 0.666748 54.0492 0.666748 52.7065Z" fill="#CCCCCC"/>
<rect x="4.08411" y="54.665" width="109.86" height="4.83474" stroke="#CCCCCC"/>
<path fill-rule="evenodd" clip-rule="evenodd" d="M102.289 17.2119H114.444V49.303H85.2705V39.0922H90.4063C90.453 38.9505 90.5004 38.8055 90.5489 38.6573L90.5491 38.6566L90.5491 38.6566C90.7578 38.0183 90.985 37.323 91.2509 36.5996C90.8819 36.4615 90.6192 36.1057 90.6192 35.6886C90.6192 35.1515 91.0546 34.7161 91.5917 34.7161C91.7316 34.7161 91.8646 34.7457 91.9848 34.7988C92.3086 34.0877 92.6817 33.3726 93.1209 32.6781C92.7918 32.5223 92.5642 32.1871 92.5642 31.7988C92.5642 31.2617 92.9995 30.8263 93.5366 30.8263C93.8172 30.8263 94.0701 30.9452 94.2476 31.1353C94.7052 30.5925 95.2165 30.0748 95.7907 29.5925C95.6005 29.415 95.4815 29.1621 95.4815 28.8814C95.4815 28.3443 95.9169 27.9089 96.454 27.9089C96.8481 27.9089 97.1875 28.1434 97.3402 28.4804C97.9929 28.0826 98.7096 27.7252 99.4983 27.4171C99.4175 27.2754 99.3714 27.1113 99.3714 26.9365C99.3714 26.3994 99.8067 25.964 100.344 25.964C100.846 25.964 101.26 26.3449 101.311 26.8337C101.627 26.7518 101.953 26.6768 102.289 26.6092V17.2119ZM104.233 19.1568V28.2537L103.413 28.3833C99.0618 29.0702 96.6187 31.0263 95.0646 33.265C93.7447 35.1663 93.0534 37.2706 92.4252 39.1829L92.4252 39.183C92.2905 39.593 92.1587 39.9943 92.0242 40.3827L91.7977 41.0371H87.2154V47.3581H112.499V19.1568H104.233Z" fill="#CCCCCC"/>
</svg>
