<svg width="86" height="60" viewBox="0 0 86 60" fill="none" xmlns="http://www.w3.org/2000/svg">
<g clip-path="url(#clip0_2688_33184)">
<path d="M17.8808 19.8846C17.9368 18.7925 18.0192 17.7072 18.296 16.6384C18.4838 15.9226 18.6881 15.2134 18.8825 14.4976C19.0176 13.9949 19.1857 13.5055 19.3504 13.0127C19.502 12.5532 19.6832 12.1038 19.8579 11.6543C20.0424 11.1715 20.2434 10.6921 20.4214 10.206C20.507 9.97962 20.4477 9.91303 20.2006 9.8864C19.5646 9.81648 18.9254 9.87974 18.2894 9.80982C18.0422 9.78318 17.8874 9.93967 17.7918 10.1428C17.4261 10.9352 17.0636 11.7276 16.711 12.5233C16.4276 13.1625 16.1475 13.7984 15.8905 14.451C15.6137 15.1568 15.3336 15.8627 15.0667 16.5752C14.8789 17.0746 14.7372 17.5873 14.5164 18.0734C14.4077 18.3164 14.4209 18.5928 14.3253 18.8392C14.0749 19.4817 13.9892 20.1676 13.8508 20.8368C13.7223 21.4461 13.6926 22.072 13.775 22.6979C13.8112 22.9809 13.9562 23.2207 14.1045 23.4537C14.289 23.7467 14.2297 24.0364 13.9002 24.1562C13.3466 24.3593 12.7831 24.3726 12.2394 24.1063C11.7254 23.8566 11.4486 23.4237 11.3366 22.8644C11.1982 22.1786 11.241 21.4994 11.3432 20.8168C11.6035 19.0855 12.0747 17.4075 12.6513 15.7595C12.7634 15.4398 12.8655 15.1169 13.0039 14.8073C13.1193 14.5509 13.0863 14.3112 12.8886 14.0981C11.5903 12.6997 10.2393 11.3613 8.69054 10.246C8.47306 10.0895 8.2424 9.95298 7.98538 9.86309C7.57018 9.7166 7.45815 9.5468 7.46144 9.10732C7.46144 8.79768 7.43838 8.49138 7.59654 8.19506C7.8997 7.6224 8.38409 7.46259 8.98711 7.47258C9.84385 7.4859 10.7006 7.47924 11.5573 7.44594C12.3844 7.41598 13.2115 7.30611 14.0419 7.30278C14.6449 7.30278 15.2479 7.25617 15.851 7.21288C16.0091 7.2029 16.1245 7.13298 16.2002 6.99647C16.2398 6.92323 16.276 6.84998 16.309 6.7734C16.566 6.19742 17.1657 6.03428 17.6798 6.39718C17.9137 6.56032 18.0983 6.77673 18.2927 6.98316C18.4278 7.12632 18.5761 7.18292 18.7672 7.17959C19.5646 7.1696 20.3555 7.11633 21.1496 7.04309C21.9701 6.96651 22.7906 6.89992 23.6045 6.79005C24.1746 6.71347 24.7347 6.57031 25.2883 6.40717C25.7167 6.28065 26.0858 6.05425 26.3988 5.72131C26.6954 5.40169 27.104 5.5049 27.249 5.92108C27.2819 6.01763 27.3083 6.12084 27.3478 6.21739C27.6312 6.87661 27.562 7.51253 27.2292 8.13846C27.1336 8.31825 27.0183 8.4714 26.8568 8.59792C26.0726 9.22051 25.1598 9.48021 24.191 9.59674C23.8846 9.63336 23.5748 9.64335 23.275 9.72658C23.1168 9.76987 23.0246 9.86975 22.9685 10.0296C22.7247 10.7387 22.4281 11.4246 22.1447 12.1138C21.8778 12.7663 21.6142 13.4222 21.3572 14.0781C21.1694 14.5609 20.9354 15.027 20.8497 15.5464C20.8399 15.613 20.7838 15.6895 20.8497 15.7395C20.9058 15.7794 20.9585 15.7029 21.0145 15.6829C21.1463 15.6296 21.2353 15.5297 21.3209 15.4165C21.7889 14.774 22.2831 14.1514 22.9455 13.6919C23.2585 13.4755 23.5781 13.2757 23.9703 13.2324C24.8138 13.1392 25.9111 14.0248 25.5157 15.0836C25.1763 15.9992 24.8138 16.9048 24.4678 17.817C24.1976 18.5295 23.9637 19.252 23.7429 19.9845C23.7165 20.071 23.7034 20.1609 23.6968 20.2508C23.6902 20.3307 23.6671 20.4273 23.7594 20.4739C23.8418 20.5138 23.9208 20.4672 23.99 20.424C24.1779 20.3108 24.3064 20.1343 24.4283 19.9612C24.8039 19.4385 25.1532 18.8991 25.4729 18.3397C25.6838 17.9735 25.7628 17.5474 25.8881 17.1445C26.1451 16.3121 26.524 15.5397 27.0183 14.8272C27.4005 14.2745 27.8388 13.7818 28.3858 13.3723C29.5885 12.47 30.9264 13.0227 31.5887 14.0182C31.7139 14.208 31.8194 14.4111 31.8688 14.6375C31.9215 14.8805 32.0665 15.057 32.2609 15.2035C32.5015 15.3866 32.742 15.5664 32.9364 15.8061C33.1704 16.0991 33.233 16.402 33.0781 16.7516C32.8376 17.2943 32.6168 17.847 32.4125 18.4063C32.2016 18.9823 32.1357 19.5916 31.9479 20.1709C31.9149 20.2775 31.8688 20.4473 32.0171 20.5005C32.1588 20.5505 32.3038 20.4739 32.396 20.3507C32.5081 20.2042 32.6135 20.0444 32.7058 19.8846C33.1671 19.0889 33.635 18.2965 34.0832 17.4941C34.1952 17.291 34.2578 17.0579 34.3336 16.8349C34.6829 15.8327 35.1014 14.8605 35.5429 13.8983C35.6714 13.622 35.8065 13.3523 35.9944 13.1059C36.1789 12.8596 36.426 12.7963 36.6896 12.8928C37.3322 13.1259 37.843 13.5254 38.1 14.1946C38.1922 14.4344 38.2483 14.451 38.4493 14.2879C38.8117 13.9949 39.1083 13.6253 39.5202 13.3823C40.2583 12.9461 40.9239 12.9461 41.527 13.4588C41.8697 13.7485 42.0377 14.1347 41.952 14.6075C41.8334 15.2567 41.5237 15.8327 41.2699 16.432C40.8547 17.4142 40.4132 18.383 40.1166 19.4118C40.0277 19.7181 39.8662 19.9978 39.8234 20.3207C39.8102 20.4273 39.7838 20.5405 39.8728 20.6137C39.9716 20.697 40.0639 20.6037 40.1529 20.5605C40.2484 20.5138 40.3209 20.4406 40.3835 20.3574C40.8086 19.798 41.2271 19.2287 41.606 18.6327C41.8631 18.2299 42.0278 17.7937 42.0575 17.311C42.0674 17.1545 42.0937 16.9913 42.1366 16.8415C42.3277 16.2056 42.4661 15.553 42.6275 14.9105C42.7594 14.3944 42.9834 13.9116 43.079 13.3856C43.135 13.0726 43.2866 12.783 43.3953 12.4867C43.883 11.1549 44.3905 9.82647 45.0825 8.5846C45.2011 8.37485 45.3329 8.16842 45.5009 7.99529C45.7316 7.75558 45.9656 7.72894 46.2094 7.95201C46.6839 8.38483 46.964 8.93419 46.964 9.58009C46.964 9.9996 46.7366 10.3758 46.5818 10.7587C46.2786 11.5111 45.9161 12.2336 45.669 13.0094C45.5668 13.3257 45.3625 13.602 45.3131 13.9383C45.2999 14.0348 45.2011 14.1613 45.323 14.2179C45.4383 14.2712 45.5668 14.2013 45.6492 14.1014C45.758 13.9649 45.8997 13.865 46.0183 13.7418C46.2984 13.4622 46.6114 13.2291 46.9508 13.026C47.9031 12.46 48.8785 13.1259 49.0235 14.0382C49.1718 14.9704 48.8192 15.7262 48.2524 16.4054C47.623 17.1578 46.8618 17.7405 45.9326 18.0801C45.7514 18.1466 45.5668 18.1966 45.3823 18.2465C45.2406 18.2831 45.1846 18.3664 45.1846 18.5162C45.1846 18.8292 45.2999 19.1188 45.412 19.3952C45.669 20.0511 45.903 20.7203 46.3313 21.2963C46.7762 21.8922 47.3001 22.3883 47.9558 22.7412C48.1272 22.8344 48.3183 22.8677 48.5127 22.8644C48.6841 22.8644 48.8554 22.8711 49.0202 22.9343C49.3135 23.0475 49.409 23.3705 49.1817 23.5836C48.6445 24.083 48.0778 24.5524 47.31 24.639C46.6938 24.7089 46.1666 24.4892 45.6921 24.1063C45.6558 24.0763 45.6196 24.0364 45.6064 23.9931C45.5042 23.6601 45.2538 23.4204 45.0825 23.1308C44.7463 22.5614 44.5058 21.9522 44.2949 21.3262C44.1664 20.9467 44.0346 20.5704 43.972 20.1709C43.9489 20.0244 43.9028 19.8347 43.7051 19.8613C43.5205 19.8846 43.5041 20.0677 43.4975 20.2242C43.4777 20.6537 43.4975 21.0832 43.6095 21.5027C43.6523 21.6658 43.6721 21.829 43.6622 21.9954C43.6523 22.2052 43.5403 22.3417 43.3657 22.4349C43.2009 22.5215 43.0922 22.4083 42.9834 22.3184C42.8154 22.1852 42.6506 22.0487 42.4859 21.9122C42.2354 21.7024 42.041 21.4594 41.9949 21.1231C41.9949 21.1098 41.9883 21.0965 41.985 21.0832C41.9389 20.95 41.9356 20.7769 41.7609 20.7402C41.583 20.7003 41.4874 20.8401 41.3952 20.96C41.1151 21.3229 40.7987 21.6492 40.4428 21.9355C40.2715 22.0753 40.087 22.1919 39.8926 22.3017C39.1709 22.7046 38.5745 22.4649 38.0637 21.8523C37.7639 21.4927 37.7408 21.0665 37.7309 20.637C37.7144 19.9512 37.8034 19.2853 37.9879 18.6094C38.1758 17.9202 38.4493 17.261 38.5975 16.5618C38.614 16.4853 38.6667 16.3854 38.5844 16.3321C38.5053 16.2822 38.4295 16.3654 38.3636 16.4054C38.2746 16.4586 38.1988 16.5352 38.1428 16.6218C37.6189 17.4342 37.062 18.2299 36.5776 19.0689C36.0504 19.9845 35.5825 20.9367 35.1837 21.9189C35.0421 22.2684 34.7224 22.3783 34.4061 22.1786C34.0963 21.9854 33.892 21.7058 33.7833 21.3529C33.7503 21.2463 33.7734 21.0865 33.6317 21.0599C33.4768 21.0299 33.3582 21.1398 33.2693 21.2563C33.0814 21.4927 32.8804 21.7258 32.7157 21.9821C32.0599 22.9943 30.6397 22.638 30.1388 21.8656C30.0268 21.6925 29.9115 21.5193 29.8324 21.3262C29.7401 21.0998 29.6841 21.0865 29.4831 21.2397C29.1371 21.5027 28.8504 21.8356 28.488 22.0753C28.109 22.325 27.7334 22.5581 27.2424 22.5548C26.6525 22.5481 26.2341 22.2751 25.9243 21.8057C25.7727 21.5759 25.6376 21.3329 25.5454 21.0699C25.4795 20.8768 25.3081 20.8235 25.1401 20.9433C25.0676 20.9933 25.0115 21.0699 24.9555 21.1364C24.7315 21.4061 24.514 21.6858 24.28 21.9488C23.6671 22.6413 22.4512 22.5481 21.9141 21.7923C21.5055 21.2164 21.5384 20.5638 21.5483 19.9146C21.5516 19.6515 21.5879 19.3885 21.6175 19.1288C21.6439 18.8791 21.6966 18.6361 21.7955 18.4063C21.8778 18.2132 21.9273 18.0135 21.9536 17.807C21.9866 17.5573 22.0393 17.3143 22.1678 17.0946C22.1975 17.0413 22.2205 16.9814 22.2304 16.9181C22.2502 16.8049 22.2469 16.6717 22.1579 16.6085C22.0591 16.5385 21.9932 16.6717 21.924 16.725C21.6307 16.9514 21.4956 17.2943 21.3045 17.5973C20.7476 18.4796 20.2731 19.4118 19.7623 20.3241C19.6075 20.5971 19.5745 20.8967 19.591 21.2064C19.6108 21.5526 19.6437 21.8955 19.6602 22.2418C19.68 22.658 19.3669 22.7346 19.1033 22.5981C18.4904 22.2784 18.0686 21.8023 17.9632 21.0898C17.9039 20.6936 17.8478 20.2941 17.8643 19.8879L17.8808 19.8846ZM30.5211 15.29C30.5211 15.2134 30.531 15.1369 30.5211 15.0603C30.4947 14.9038 30.409 14.7939 30.2575 14.744C30.1158 14.6974 29.984 14.7174 29.8785 14.8272C29.8192 14.8872 29.7665 14.9504 29.7138 15.0103C29.2656 15.5064 29.0514 16.139 28.745 16.715C28.3825 17.3975 28.109 18.1233 27.8586 18.8558C27.674 19.3985 27.4302 19.9146 27.3215 20.4839C27.2786 20.7003 27.3281 20.9267 27.4664 21.0066C27.6312 21.1032 27.8091 21.0632 27.9805 20.8867C28.6857 20.1709 29.4271 19.4884 29.9971 18.6494C30.096 18.5029 30.1949 18.3631 30.1981 18.1799C30.2014 17.9669 30.1982 17.7504 30.1916 17.534C30.185 17.2544 30.2047 16.9814 30.2937 16.715C30.4486 16.2522 30.4618 15.7628 30.5244 15.2867L30.5211 15.29ZM12.3614 9.56011C11.9099 9.56011 11.4552 9.56011 11.0038 9.56011C10.8785 9.56011 10.7336 9.55345 10.6841 9.68996C10.6413 9.80649 10.7632 9.88639 10.8324 9.9663C11.5409 10.792 12.2362 11.631 12.882 12.51C12.9842 12.6498 13.0896 12.7896 13.2148 12.9062C13.4488 13.1259 13.6267 13.0826 13.7486 12.7896C13.9431 12.3335 14.1506 11.8774 14.3187 11.4113C14.4835 10.9618 14.7174 10.5456 14.8327 10.0762C14.925 9.70661 14.8591 9.61338 14.4769 9.60007C13.7717 9.57343 13.0665 9.55013 12.3614 9.56011ZM47.0167 14.9271C47.0233 14.8672 47.0101 14.8372 46.9772 14.8206C46.9113 14.7906 46.8586 14.8272 46.8058 14.8639C46.3577 15.1602 46.0381 15.5897 45.6822 15.9825C45.6064 16.0658 45.5833 16.1423 45.6756 16.2322C45.7711 16.3255 45.8469 16.2555 45.9062 16.1989C46.2918 15.8527 46.6543 15.4865 46.9508 15.0603C46.9805 15.017 47.0002 14.9604 47.0134 14.9304L47.0167 14.9271Z" fill="#346BD5"/>
<path d="M60.0592 18.9328C60.1251 18.0272 60.1712 17.1216 60.5402 16.2692C60.6918 15.9197 60.8599 15.7998 61.2355 15.8298C61.2685 15.8298 61.3047 15.8331 61.3377 15.8364C61.7199 15.8497 61.7595 15.8131 61.8188 15.4402C61.9506 14.6378 62.2834 13.9353 62.8666 13.3693C63.5751 12.6768 64.4286 12.4071 65.3973 12.5636C65.9641 12.6568 66.4386 12.9632 66.8044 13.406C67.7171 14.5213 67.9445 15.7998 67.6315 17.1948C67.5787 17.4245 67.4964 17.6476 67.4832 17.884C67.4799 17.9639 67.4601 18.0605 67.559 18.1004C67.6414 18.1337 67.704 18.0738 67.7567 18.0205C67.8391 17.9373 67.9214 17.854 67.9939 17.7608C68.2213 17.4545 68.4553 17.1582 68.7189 16.8819C68.9001 16.6888 69.0056 16.4524 69.0945 16.1993C69.2659 15.7032 69.4043 15.1972 69.6316 14.7177C69.7931 14.3748 69.915 14.0119 70.06 13.659C70.2841 13.1096 70.7026 13.0497 71.1738 13.376C71.411 13.5391 71.6252 13.7356 71.8394 13.932C72.1755 14.2383 72.1953 14.6279 72.0569 15.0207C71.9185 15.4103 71.7372 15.7865 71.5659 16.166C71.1046 17.1915 70.7487 18.2536 70.4818 19.3456C70.4422 19.5054 70.4324 19.6752 70.4159 19.8384C70.406 19.9482 70.3961 20.0748 70.5147 20.1347C70.6334 20.1946 70.7553 20.1713 70.8673 20.0981C71.187 19.8883 71.4605 19.6319 71.6681 19.3057C72.0997 18.6298 72.5281 17.9506 72.8774 17.2281C73.1608 16.6421 73.4343 16.0528 73.6781 15.4502C73.9121 14.8742 74.1856 14.3149 74.3998 13.7289C74.5513 13.3161 74.9599 13.1463 75.3619 13.3094C75.7969 13.4859 76.1824 13.7256 76.4296 14.1517C76.5482 14.3515 76.5779 14.5546 76.479 14.7644C76.2945 15.1572 76.0836 15.5401 75.9155 15.943C75.5827 16.7487 75.2466 17.5511 75.0423 18.4034C74.9105 18.9627 74.7194 19.5054 74.6667 20.0814C74.6568 20.1813 74.6041 20.3045 74.7062 20.3711C74.8182 20.4476 74.9336 20.3744 75.0291 20.3078C75.1445 20.2279 75.2334 20.1247 75.3158 20.0115C75.9056 19.2357 76.4329 18.4167 76.9601 17.5977C77.2402 17.1649 77.5796 16.7853 77.9783 16.4624C78.0277 16.4224 78.0772 16.3858 78.1332 16.3625C78.2419 16.3159 78.3638 16.2859 78.466 16.3725C78.5583 16.449 78.5319 16.5622 78.5088 16.6654C78.466 16.8619 78.3968 17.0517 78.3144 17.2348C77.8663 18.2269 77.3588 19.1858 76.769 20.0981C76.2945 20.8339 75.7277 21.4964 75.0127 22.0091C74.6436 22.2722 74.2317 22.4453 73.7572 22.3354C73.1608 22.1956 72.8741 21.7461 72.6665 21.2201C72.6105 21.0736 72.5874 20.9104 72.5314 20.7639C72.4523 20.5509 72.2941 20.5142 72.1393 20.684C71.9712 20.8672 71.8229 21.0669 71.6681 21.26C71.3616 21.6396 70.9728 21.9059 70.5378 22.1057C70.149 22.2855 69.7536 22.2455 69.3878 22.0358C68.5805 21.573 68.1192 20.8938 68.1257 19.9283C68.1257 19.8051 68.1884 19.6386 68.0434 19.5687C67.8885 19.4954 67.7732 19.6253 67.6611 19.7118C67.3217 19.9715 66.9757 20.2113 66.5506 20.3211C66.287 20.391 66.0893 20.5808 65.9081 20.7872C65.4171 21.3399 64.8701 21.8227 64.1682 22.0824C62.9622 22.5285 61.5189 22.2988 60.7017 21.1668C60.359 20.6907 60.1547 20.1447 60.0954 19.552C60.0756 19.3456 60.0361 19.1392 60.0493 18.9294L60.0592 18.9328ZM65.7433 15.4436C65.7433 15.357 65.7565 15.1905 65.7433 15.0241C65.6774 14.3149 65.1304 13.9753 64.4813 14.2317C63.9738 14.4347 63.7234 14.8576 63.5389 15.3437C63.2654 16.0595 63.3774 16.7953 63.4499 17.5178C63.5092 18.1271 63.8091 18.6231 64.3594 18.9428C64.6658 19.1225 64.8899 19.0859 64.9986 18.7463C65.1008 18.43 65.2556 18.1304 65.3413 17.8207C65.5522 17.0716 65.7895 16.3192 65.7433 15.4402V15.4436ZM63.0841 20.5842C63.2983 20.5775 63.4762 20.5375 63.6542 20.4809C63.8651 20.4177 63.8783 20.3578 63.7135 20.2179C63.3214 19.885 62.9325 19.5454 62.6063 19.1425C62.5668 19.0959 62.5174 19.056 62.4712 19.016C62.3724 18.9328 62.3131 18.9228 62.29 19.0826C62.2274 19.5054 62.3262 19.8883 62.5338 20.2545C62.6656 20.4809 62.8666 20.5708 63.0841 20.5842Z" fill="#346BD5"/>
<path d="M51.4521 25.9911C51.4521 25.8379 51.4521 25.6848 51.4521 25.535C51.4521 25.4118 51.5082 25.3618 51.6268 25.3618C51.9003 25.3652 52.1771 25.3652 52.4506 25.3652C52.5956 25.3652 52.7043 25.4351 52.7636 25.5616C52.846 25.7347 52.9778 25.7381 53.103 25.6482C53.4853 25.3685 53.8576 25.0822 54.1575 24.6993C54.6715 24.0367 55.1329 23.3409 55.5085 22.5918C55.5711 22.4686 55.6238 22.3387 55.6733 22.2122C55.7029 22.1356 55.7392 22.0524 55.6502 21.9858C55.5678 21.9259 55.4756 21.8993 55.38 21.9492C55.3075 21.9891 55.2383 22.0358 55.1724 22.0824C54.5595 22.5285 53.5314 22.3287 53.1426 21.7461C52.8164 21.26 52.6186 20.7506 52.6022 20.1613C52.5824 19.4954 52.7109 18.8562 52.8691 18.2136C53.2711 16.5622 53.9104 15.0041 54.5793 13.4559C54.8363 12.8599 55.2548 12.7833 55.7326 13.2228C55.9006 13.376 56.0555 13.5458 56.2433 13.6723C56.6783 13.9653 56.6981 14.4447 56.5465 14.8376C56.4048 15.1972 56.2005 15.5301 56.0423 15.883C55.8842 16.2426 55.7556 16.6155 55.5975 16.9751C55.2284 17.8141 55.0241 18.7097 54.7572 19.582C54.6748 19.8517 54.6254 20.1347 54.632 20.421C54.6386 20.6674 54.744 20.724 54.945 20.5908C55.3108 20.3477 55.6008 20.0215 55.8677 19.6785C56.4476 18.9361 56.9452 18.1404 57.3999 17.3147C57.5911 16.9684 57.6405 16.5789 57.7393 16.206C57.9041 15.5967 58.0458 14.9841 58.1842 14.3681C58.2402 14.1184 58.2369 13.8587 58.2995 13.609C58.4379 13.0564 58.8004 12.8732 59.3243 13.0697C59.6275 13.1829 59.8845 13.3627 60.1185 13.5824C60.3953 13.8454 60.4513 14.1717 60.3524 14.5346C60.1283 15.357 59.9405 16.186 59.6967 17.005C59.4858 17.7142 59.3078 18.4333 59.097 19.1458C58.8333 20.0348 58.5862 20.9304 58.2567 21.796C58.0754 22.2688 57.914 22.7449 57.6932 23.2044C57.5812 23.4408 57.5021 23.6938 57.423 23.9435C57.2484 24.4995 56.988 24.9956 56.5893 25.4317C56.2302 25.8213 55.9599 26.2874 55.5711 26.657C55.2449 26.9666 54.8594 27.1997 54.52 27.4893C54.3519 27.6325 54.0982 27.5892 53.8873 27.6425C53.4227 27.7523 52.9613 27.6724 52.533 27.5226C52.2133 27.4127 51.9332 27.1697 51.6597 26.9566C51.5049 26.8368 51.462 26.627 51.4587 26.4272C51.4554 26.2807 51.4587 26.1376 51.4587 25.9911H51.4521Z" fill="#346BD5"/>
</g>
<path d="M8.35725 30.6714L5.61536 29.5386V53.3288L8.35725 54.4617L11.0991 53.3288L13.6301 54.4617L16.4775 53.3288L19.0084 54.4617L21.7503 53.3288L24.2813 54.4617L27.0232 53.3288L29.7651 54.4617L32.2961 53.3288L35.0379 54.4617L37.6744 53.3288L40.3108 54.4617L42.9472 53.3288L45.6891 54.4617L48.3256 53.3288L51.0675 54.4617L53.7039 53.3288L56.3403 54.4617L58.9768 53.3288L61.7186 54.4617L64.3551 53.3288L66.9915 54.4617L69.7334 53.3288L72.3698 54.4617L75.0063 53.3288L77.6427 54.4617L80.3846 53.3288V29.5386L77.6427 30.6714L75.0063 29.5386L72.3698 30.6714L69.7334 29.5386L66.9915 30.6714L64.3551 29.5386L61.7186 30.6714L58.9768 29.5386L56.3403 30.6714L53.7039 29.5386L51.0675 30.6714L48.3256 29.5386L45.6891 30.6714L42.9472 29.5386L40.3108 30.6714L37.6744 29.5386L35.0379 30.6714L32.2961 29.5386L29.7651 30.6714L27.0232 29.5386L24.2813 30.6714L21.7503 29.5386L19.0084 30.6714L16.4775 29.5386L13.6301 30.6714L11.0991 29.5386L8.35725 30.6714Z" fill="#F3F3F3"/>
<path fill-rule="evenodd" clip-rule="evenodd" d="M31.7297 41.2102V41.6157C31.7297 41.9237 31.7948 42.2078 31.9249 42.4682C32.0551 42.726 32.2454 42.9325 32.4957 43.0878C32.7461 43.2455 33.0552 43.3243 33.4232 43.3243C33.7862 43.3243 34.0942 43.2455 34.347 43.0878C34.5999 42.9325 34.7914 42.726 34.9215 42.4682C35.0517 42.2078 35.1168 41.9237 35.1168 41.6157V41.2102C35.1168 40.8998 35.0517 40.6156 34.9215 40.3578C34.7939 40.0974 34.6036 39.8896 34.3508 39.7344C34.1004 39.5792 33.7912 39.5016 33.4232 39.5016C33.0602 39.5016 32.7523 39.5805 32.4995 39.7382C32.2491 39.8934 32.0576 40.1012 31.9249 40.3615C31.7948 40.6194 31.7297 40.9023 31.7297 41.2102ZM32.8224 41.6157V41.2102C32.8224 41.0274 32.8662 40.8572 32.9539 40.6995C33.0415 40.5418 33.1979 40.4629 33.4232 40.4629C33.6586 40.4629 33.8163 40.5418 33.8964 40.6995C33.9765 40.8572 34.0166 41.0274 34.0166 41.2102V41.6157C34.0166 41.7985 33.974 41.9675 33.8889 42.1227C33.8063 42.2779 33.6511 42.3555 33.4232 42.3555C33.1954 42.3555 33.0377 42.2766 32.9501 42.1189C32.865 41.9612 32.8224 41.7935 32.8224 41.6157ZM27.783 36.8092V37.2147C27.783 37.5226 27.8469 37.8055 27.9745 38.0634C28.1047 38.3187 28.295 38.5253 28.5453 38.683C28.7982 38.8382 29.1073 38.9158 29.4728 38.9158C29.8383 38.9158 30.1463 38.8394 30.3966 38.6867C30.6495 38.5315 30.841 38.325 30.9711 38.0671C31.1038 37.8093 31.1702 37.5252 31.1702 37.2147V36.8092C31.1702 36.4987 31.1051 36.2146 30.9749 35.9568C30.8447 35.6964 30.6545 35.4886 30.4041 35.3334C30.1538 35.1782 29.8434 35.1006 29.4728 35.1006C29.1149 35.1006 28.8094 35.1782 28.5566 35.3334C28.3062 35.4886 28.1147 35.6964 27.9821 35.9568C27.8494 36.2146 27.783 36.4987 27.783 36.8092ZM28.8833 37.2147V36.8092C28.8833 36.6314 28.9258 36.4624 29.011 36.3022C29.0961 36.142 29.25 36.0619 29.4728 36.0619C29.7107 36.0619 29.8696 36.1408 29.9497 36.2985C30.0299 36.4562 30.0699 36.6264 30.0699 36.8092V37.2147C30.0699 37.3975 30.0274 37.5665 29.9422 37.7217C29.8596 37.8769 29.7032 37.9545 29.4728 37.9545C29.2525 37.9545 29.0986 37.8769 29.011 37.7217C28.9258 37.5665 28.8833 37.3975 28.8833 37.2147ZM33.5659 35.3672L28.2787 43.0577H29.2626L34.5498 35.3672H33.5659ZM47.659 37.002C47.6361 36.7704 47.5375 36.5904 47.3633 36.4622C47.1891 36.3339 46.9526 36.2698 46.654 36.2698C46.4511 36.2698 46.2797 36.2985 46.14 36.3559C46.0002 36.4115 45.893 36.489 45.8184 36.5885C45.7456 36.6881 45.7092 36.801 45.7092 36.9274C45.7054 37.0327 45.7274 37.1246 45.7753 37.2031C45.8251 37.2815 45.893 37.3495 45.9792 37.4069C46.0653 37.4625 46.1649 37.5113 46.2778 37.5534C46.3908 37.5936 46.5114 37.628 46.6396 37.6568L47.168 37.7831C47.4245 37.8405 47.66 37.9171 47.8744 38.0128C48.0888 38.1086 48.2745 38.2263 48.4315 38.366C48.5885 38.5058 48.71 38.6704 48.7962 38.86C48.8843 39.0495 48.9292 39.2668 48.9312 39.5118C48.9292 39.8717 48.8373 40.1837 48.6555 40.4479C48.4755 40.7102 48.2152 40.9141 47.8744 41.0596C47.5356 41.2032 47.1268 41.2749 46.6483 41.2749C46.1735 41.2749 45.76 41.2022 45.4077 41.0567C45.0574 40.9112 44.7836 40.6958 44.5865 40.4106C44.3912 40.1234 44.2888 39.7683 44.2792 39.3452H45.4824C45.4958 39.5424 45.5523 39.7071 45.6518 39.8392C45.7533 39.9693 45.8882 40.0679 46.0567 40.1349C46.2271 40.2 46.4195 40.2326 46.6339 40.2326C46.8445 40.2326 47.0273 40.2019 47.1824 40.1407C47.3393 40.0794 47.4609 39.9942 47.5471 39.8851C47.6332 39.776 47.6763 39.6506 47.6763 39.5089C47.6763 39.3768 47.637 39.2658 47.5585 39.1758C47.482 39.0858 47.369 39.0093 47.2197 38.9461C47.0723 38.8829 46.8914 38.8255 46.677 38.7738L46.0366 38.613C45.5408 38.4924 45.1493 38.3038 44.8621 38.0473C44.575 37.7908 44.4324 37.4452 44.4343 37.0107C44.4324 36.6546 44.5271 36.3435 44.7186 36.0774C44.9119 35.8113 45.177 35.6036 45.514 35.4543C45.8509 35.3049 46.2338 35.2303 46.6626 35.2303C47.0991 35.2303 47.48 35.3049 47.8055 35.4543C48.1329 35.6036 48.3875 35.8113 48.5693 36.0774C48.7512 36.3435 48.845 36.6517 48.8507 37.002H47.659ZM37.1486 41.1917H39.2333C39.8306 41.1917 40.3437 41.0739 40.7725 40.8385C41.2032 40.603 41.5335 40.2651 41.7632 39.8248C41.9948 39.3845 42.1106 38.858 42.1106 38.2454C42.1106 37.6347 41.9948 37.1102 41.7632 36.6718C41.5335 36.2334 41.2051 35.8974 40.7782 35.6639C40.3513 35.4284 39.8421 35.3107 39.2506 35.3107H37.1486V41.1917ZM39.1816 40.1263H38.392V36.376H39.1845C39.5521 36.376 39.8612 36.4411 40.112 36.5713C40.3628 36.7015 40.5514 36.9044 40.6777 37.1801C40.806 37.4558 40.8701 37.8109 40.8701 38.2454C40.8701 38.6838 40.806 39.0418 40.6777 39.3194C40.5514 39.5951 40.3619 39.799 40.1092 39.931C39.8584 40.0612 39.5492 40.1263 39.1816 40.1263ZM43.8604 41.1917V35.3107H42.617V41.1917H43.8604ZM53.284 37.3696H54.5417C54.5015 37.0288 54.4097 36.7264 54.2661 36.4622C54.1244 36.198 53.9406 35.975 53.7147 35.7931C53.4888 35.6093 53.2294 35.4696 52.9365 35.3739C52.6455 35.2781 52.3297 35.2303 51.9889 35.2303C51.472 35.2303 51.0068 35.349 50.5933 35.5864C50.1798 35.8218 49.8525 36.1645 49.6113 36.6144C49.37 37.0643 49.2494 37.6099 49.2494 38.2512C49.2494 38.8906 49.3681 39.4352 49.6055 39.8851C49.8448 40.335 50.1703 40.6786 50.5818 40.916C50.9954 41.1534 51.4644 41.2721 51.9889 41.2721C52.3661 41.2721 52.7039 41.2156 53.0026 41.1026C53.3031 40.9878 53.5616 40.8327 53.7779 40.6375C53.9961 40.4403 54.1694 40.2172 54.2977 39.9684C54.4278 39.7176 54.5092 39.4572 54.5417 39.1873L53.284 39.1816C53.2553 39.3385 53.2036 39.4783 53.1289 39.6008C53.0562 39.7233 52.9643 39.8277 52.8533 39.9138C52.7422 39.9981 52.6149 40.0622 52.4713 40.1062C52.3297 40.1502 52.1756 40.1723 52.009 40.1723C51.7123 40.1723 51.451 40.0995 51.2251 39.954C50.9992 39.8085 50.8231 39.5932 50.6967 39.3079C50.5723 39.0227 50.5101 38.6704 50.5101 38.2512C50.5101 37.8434 50.5723 37.4969 50.6967 37.2117C50.8211 36.9245 50.9963 36.7063 51.2222 36.5569C51.4481 36.4057 51.7132 36.3301 52.0176 36.3301C52.1861 36.3301 52.3421 36.354 52.4857 36.4019C52.6312 36.4497 52.7595 36.5187 52.8705 36.6086C52.9815 36.6986 53.0725 36.8077 53.1433 36.936C53.2141 37.0623 53.261 37.2069 53.284 37.3696ZM60.423 38.2512C60.423 38.8925 60.3014 39.4381 60.0583 39.888C59.8171 40.3379 59.4878 40.6815 59.0705 40.9189C58.6551 41.1543 58.1879 41.2721 57.6691 41.2721C57.1465 41.2721 56.6775 41.1534 56.2621 40.916C55.8467 40.6786 55.5183 40.335 55.2771 39.8851C55.0359 39.4352 54.9153 38.8906 54.9153 38.2512C54.9153 37.6099 55.0359 37.0643 55.2771 36.6144C55.5183 36.1645 55.8467 35.8218 56.2621 35.5864C56.6775 35.349 57.1465 35.2303 57.6691 35.2303C58.1879 35.2303 58.6551 35.349 59.0705 35.5864C59.4878 35.8218 59.8171 36.1645 60.0583 36.6144C60.3014 37.0643 60.423 37.6099 60.423 38.2512ZM59.1624 38.2512C59.1624 37.8358 59.1001 37.4854 58.9757 37.2002C58.8532 36.9149 58.6799 36.6986 58.456 36.5512C58.232 36.4038 57.9697 36.3301 57.6691 36.3301C57.3686 36.3301 57.1063 36.4038 56.8823 36.5512C56.6584 36.6986 56.4841 36.9149 56.3597 37.2002C56.2372 37.4854 56.1759 37.8358 56.1759 38.2512C56.1759 38.6666 56.2372 39.0169 56.3597 39.3022C56.4841 39.5874 56.6584 39.8037 56.8823 39.9511C57.1063 40.0986 57.3686 40.1723 57.6691 40.1723C57.9697 40.1723 58.232 40.0986 58.456 39.9511C58.6799 39.8037 58.8532 39.5874 58.9757 39.3022C59.1001 39.0169 59.1624 38.6666 59.1624 38.2512ZM65.8053 35.3107H64.5619V39.0236C64.5619 39.2476 64.5121 39.4467 64.4126 39.6209C64.3149 39.7951 64.1762 39.932 63.9962 40.0316C63.8182 40.1311 63.6085 40.1809 63.3673 40.1809C63.128 40.1809 62.9184 40.1311 62.7384 40.0316C62.5585 39.932 62.4187 39.7951 62.3192 39.6209C62.2216 39.4467 62.1727 39.2476 62.1727 39.0236V35.3107H60.9294V39.1299C60.9294 39.5587 61.0308 39.9339 61.2337 40.2555C61.4367 40.5772 61.721 40.8279 62.0866 41.0079C62.4522 41.1859 62.8792 41.2749 63.3673 41.2749C63.8536 41.2749 64.2795 41.1859 64.6452 41.0079C65.0108 40.8279 65.2951 40.5772 65.498 40.2555C65.7029 39.9339 65.8053 39.5587 65.8053 39.1299V35.3107ZM71.3326 41.1917H70.2586L67.7001 37.4902H67.657V41.1917H66.4136V35.3107H67.5048L70.0433 39.0093H70.095V35.3107H71.3326V41.1917ZM71.7212 35.3107V36.3358H73.5217V41.1917H74.7508V36.3358H76.5512V35.3107H71.7212ZM19.5433 47.5389C20.2919 48.0461 21.1855 48.3017 22.224 48.3057C23.2625 48.3057 24.154 48.0521 24.8987 47.545C25.6433 47.0378 26.2149 46.3032 26.6134 45.3412C27.0159 44.3792 27.2171 43.22 27.2171 41.8635C27.2212 40.5151 27.0219 39.3679 26.6194 38.422C26.2169 37.4721 25.6413 36.7476 24.8926 36.2485C24.148 35.7494 23.2584 35.4998 22.224 35.4998C21.1895 35.4998 20.298 35.7494 19.5493 36.2485C18.8047 36.7436 18.2311 37.4661 17.8286 38.416C17.4301 39.3659 17.2308 40.5151 17.2308 41.8635C17.2268 43.216 17.424 44.3732 17.8225 45.3352C18.225 46.2972 18.7986 47.0318 19.5433 47.5389ZM23.9206 45.0695C23.4979 45.782 22.9324 46.1382 22.224 46.1382C21.753 46.1382 21.3425 45.9812 20.9923 45.6672C20.6421 45.3493 20.3704 44.8743 20.1772 44.2424C19.988 43.6064 19.8934 42.8134 19.8934 41.8635C19.8975 40.4587 20.1108 39.4042 20.5334 38.6998C20.9561 37.9954 21.5196 37.6432 22.224 37.6432C22.6949 37.6432 23.1035 37.8002 23.4496 38.1141C23.7998 38.4281 24.0695 38.897 24.2587 39.5209C24.4519 40.1448 24.5485 40.9257 24.5485 41.8635C24.5525 43.2884 24.3432 44.3571 23.9206 45.0695ZM15.8883 48.034V35.6689H13.431L10.3699 37.607V39.9254L13.2015 38.1503H13.274V48.034H15.8883ZM47.6838 47.1363C47.9212 46.6845 48.0399 46.1418 48.0399 45.5081C48.0399 44.8745 47.9212 44.3327 47.6838 43.8828C47.4484 43.431 47.1267 43.0855 46.719 42.8462C46.3131 42.6069 45.8527 42.4872 45.3377 42.4872C44.8228 42.4872 44.3614 42.6069 43.9536 42.8462C43.5478 43.0855 43.2262 43.431 42.9888 43.8828C42.7533 44.3327 42.6356 44.8745 42.6356 45.5081C42.6356 46.1399 42.7533 46.6816 42.9888 47.1334C43.2262 47.5833 43.5478 47.9289 43.9536 48.1701C44.3614 48.4094 44.8228 48.529 45.3377 48.529C45.8527 48.529 46.3131 48.4094 46.719 48.1701C47.1267 47.9308 47.4484 47.5862 47.6838 47.1363ZM46.7592 44.3796C46.8989 44.6859 46.9688 45.0621 46.9688 45.5081C46.9688 45.9542 46.8989 46.3313 46.7592 46.6395C46.6213 46.9458 46.4299 47.1784 46.1849 47.3373C45.9398 47.4943 45.6574 47.5728 45.3377 47.5728C45.018 47.5728 44.7357 47.4943 44.4906 47.3373C44.2456 47.1784 44.0532 46.9458 43.9134 46.6395C43.7756 46.3313 43.7067 45.9542 43.7067 45.5081C43.7067 45.0621 43.7756 44.6859 43.9134 44.3796C44.0532 44.0714 44.2456 43.8388 44.4906 43.6818C44.7357 43.5229 45.018 43.4435 45.3377 43.4435C45.6574 43.4435 45.9398 43.5229 46.1849 43.6818C46.4299 43.8388 46.6213 44.0714 46.7592 44.3796ZM39.5666 47.1966L38.036 42.5676H36.8673L38.9377 48.4486H40.2529L42.3262 42.5676H41.1546L39.6269 47.1966H39.5666ZM52.7543 42.5676H53.8197V46.4098C53.8197 46.831 53.7201 47.2014 53.521 47.5211C53.3238 47.8408 53.0462 48.0906 52.6883 48.2706C52.3303 48.4486 51.912 48.5376 51.4334 48.5376C50.9529 48.5376 50.5336 48.4486 50.1756 48.2706C49.8176 48.0906 49.5401 47.8408 49.3429 47.5211C49.1457 47.2014 49.0471 46.831 49.0471 46.4098V42.5676H50.1125V46.3208C50.1125 46.5658 50.1661 46.7841 50.2733 46.9755C50.3824 47.1669 50.5355 47.3172 50.7327 47.4263C50.9299 47.5335 51.1635 47.5871 51.4334 47.5871C51.7033 47.5871 51.9369 47.5335 52.134 47.4263C52.3331 47.3172 52.4863 47.1669 52.5935 46.9755C52.7007 46.7841 52.7543 46.5658 52.7543 46.3208V42.5676ZM58.9375 44.5519H60.0115C59.9675 44.2245 59.8736 43.9335 59.7301 43.6789C59.5884 43.4224 59.4075 43.2061 59.1873 43.03C58.9672 42.8519 58.7164 42.717 58.435 42.6251C58.1536 42.5332 57.8492 42.4872 57.5218 42.4872C57.0088 42.4872 56.5493 42.6069 56.1435 42.8462C55.7376 43.0855 55.417 43.431 55.1815 43.8828C54.946 44.3327 54.8283 44.8745 54.8283 45.5081C54.8283 46.1399 54.9451 46.6816 55.1786 47.1334C55.4122 47.5852 55.7319 47.9308 56.1377 48.1701C56.5436 48.4094 57.0049 48.529 57.5218 48.529C57.8722 48.529 58.1909 48.4773 58.4781 48.374C58.7652 48.2687 59.016 48.1232 59.2304 47.9375C59.4448 47.7499 59.6181 47.5335 59.7502 47.2885C59.8842 47.0435 59.9713 46.7812 60.0115 46.5017L58.9375 46.4959C58.905 46.6682 58.8456 46.8214 58.7595 46.9554C58.6752 47.0894 58.5709 47.2024 58.4465 47.2942C58.324 47.3861 58.1852 47.456 58.0301 47.5039C57.8769 47.5498 57.7123 47.5728 57.5362 47.5728C57.2184 47.5728 56.936 47.4953 56.6891 47.3402C56.444 47.1832 56.2507 46.9516 56.109 46.6453C55.9693 46.3371 55.8994 45.958 55.8994 45.5081C55.8994 45.0659 55.9693 44.6916 56.109 44.3853C56.2488 44.0771 56.4421 43.8436 56.6891 43.6847C56.936 43.5239 57.2194 43.4435 57.5391 43.4435C57.719 43.4435 57.8865 43.4684 58.0416 43.5181C58.1986 43.566 58.3383 43.6378 58.4608 43.7335C58.5834 43.8292 58.6858 43.946 58.7681 44.0838C58.8504 44.2197 58.9069 44.3758 58.9375 44.5519ZM60.9871 42.5676H62.0525V45.0573H64.7776V42.5676H65.8458V48.4486H64.7776V45.9503H62.0525V48.4486H60.9871V42.5676ZM70.8294 42.5676H67.0045V48.4486H70.8524V47.5556H68.0698V45.9503H70.6313V45.0573H68.0698V43.4607H70.8294V42.5676ZM71.9163 42.5676H74.1217C74.5735 42.5676 74.9525 42.6461 75.2588 42.8031C75.567 42.9601 75.7996 43.1802 75.9566 43.4636C76.1155 43.745 76.195 44.0733 76.195 44.4485C76.195 44.8256 76.1145 45.153 75.9537 45.4306C75.7948 45.7063 75.5603 45.9197 75.2502 46.071C75.2139 46.0884 75.1766 46.1049 75.1383 46.1204L76.4103 48.4486H75.2215L74.0657 46.2949H72.9817V48.4486H71.9163V42.5676ZM73.9637 45.4105H72.9817V43.4578H73.958C74.2241 43.4578 74.4414 43.4971 74.6098 43.5756C74.7783 43.6521 74.9037 43.7651 74.986 43.9144C75.0683 44.0618 75.1095 44.2398 75.1095 44.4485C75.1095 44.6572 75.0683 44.8333 74.986 44.9769C74.9056 45.1185 74.7812 45.2267 74.6127 45.3014C74.4443 45.3741 74.2279 45.4105 73.9637 45.4105Z" fill="#346BD5"/>
<path fill-rule="evenodd" clip-rule="evenodd" d="M1.21637 59.8599L1.92355 58.1546L2.85661 58.1538V60H1.92306C1.67273 60 1.43405 59.9502 1.21637 59.8599ZM83.1433 60V58.1538H84.0769L84.7836 59.8599C84.5659 59.9502 84.3272 60 84.0769 60H83.1433ZM85.9231 2.78462H84.0769V1.84615L85.783 1.13947C85.8732 1.35714 85.9231 1.59583 85.9231 1.84615V2.78462ZM2.85662 0H1.92306C1.67274 0 1.43405 0.0498206 1.21637 0.140087L1.92355 1.84543L1.92233 1.84665L0.216991 1.13947C0.126725 1.35714 0.0769043 1.59583 0.0769043 1.84615V2.78462H1.92306L1.92355 1.84543L2.85662 1.84615V0ZM0.216991 58.8605L1.92233 58.1534L1.92355 58.1546L1.92306 57.2154H0.0769043V58.1538C0.0769043 58.4042 0.126725 58.6429 0.216991 58.8605ZM0.0769043 55.3385H1.92306V53.4615H0.0769043V55.3385ZM0.0769043 51.5846H1.92306V49.7077H0.0769043V51.5846ZM0.0769043 47.8308H1.92306V45.9538H0.0769043V47.8308ZM0.0769043 44.0769H1.92306V42.2H0.0769043V44.0769ZM0.0769043 40.3231H1.92306V38.4462H0.0769043V40.3231ZM0.0769043 36.5692H1.92306V34.6923H0.0769043V36.5692ZM0.0769043 32.8154H1.92306V30.9385H0.0769043V32.8154ZM0.0769043 29.0615H1.92306V27.1846H0.0769043V29.0615ZM0.0769043 25.3077H1.92306V23.4308H0.0769043V25.3077ZM0.0769043 21.5539H1.92306V19.6769H0.0769043V21.5539ZM0.0769043 17.8H1.92306V15.9231H0.0769043V17.8ZM0.0769043 14.0462H1.92306V12.1692H0.0769043V14.0462ZM0.0769043 10.2923H1.92306V8.4154H0.0769043V10.2923ZM0.0769043 6.53847H1.92306V4.66155H0.0769043V6.53847ZM4.72376 0V1.84615H6.59089V0H4.72376ZM8.45802 0V1.84615H10.3252V0H8.45802ZM12.1923 0V1.84615H14.0594V0H12.1923ZM15.9266 0V1.84615H17.7937V0H15.9266ZM19.6608 0V1.84615H21.528V0H19.6608ZM23.3951 0V1.84615H25.2622V0H23.3951ZM27.1294 0V1.84615H28.9965V0H27.1294ZM30.8636 0V1.84615H32.7308V0H30.8636ZM34.5979 0V1.84615H36.465V0H34.5979ZM38.3322 0V1.84615H40.1993V0H38.3322ZM42.0664 0V1.84615H43.9336V0H42.0664ZM45.8007 0V1.84615H47.6678V0H45.8007ZM49.535 0V1.84615H51.4021V0H49.535ZM53.2692 0V1.84615H55.1364V0H53.2692ZM57.0035 0V1.84615H58.8706V0H57.0035ZM60.7378 0V1.84615H62.6049V0H60.7378ZM64.472 0V1.84615H66.3392V0H64.472ZM68.2063 0V1.84615H70.0734V0H68.2063ZM71.9406 0V1.84615H73.8077V0H71.9406ZM75.6748 0V1.84615H77.542V0H75.6748ZM79.4091 0V1.84615H81.2762V0H79.4091ZM83.1434 0V1.84615H84.0769L84.7836 0.140087C84.5659 0.0498206 84.3272 0 84.0769 0H83.1434ZM85.9231 4.66154H84.0769V6.53846H85.9231V4.66154ZM85.9231 8.41538H84.0769V10.2923H85.9231V8.41538ZM85.9231 12.1692H84.0769V14.0462H85.9231V12.1692ZM85.9231 15.9231H84.0769V17.8H85.9231V15.9231ZM85.9231 19.6769H84.0769V21.5538H85.9231V19.6769ZM85.9231 23.4308H84.0769V25.3077H85.9231V23.4308ZM85.9231 27.1846H84.0769V29.0615H85.9231V27.1846ZM85.9231 30.9385H84.0769V32.8154H85.9231V30.9385ZM85.9231 34.6923H84.0769V36.5692H85.9231V34.6923ZM85.9231 38.4461H84.0769V40.3231H85.9231V38.4461ZM85.9231 42.2H84.0769V44.0769H85.9231V42.2ZM85.9231 45.9538H84.0769V47.8308H85.9231V45.9538ZM85.9231 49.7077H84.0769V51.5846H85.9231V49.7077ZM85.9231 53.4615H84.0769V55.3385H85.9231V53.4615ZM85.9231 57.2154H84.0769V58.1538L85.783 58.8605C85.8732 58.6429 85.9231 58.4042 85.9231 58.1538V57.2154ZM81.2762 60V58.1538H79.4091V60H81.2762ZM77.5419 60V58.1538H75.6748V60H77.5419ZM73.8077 60V58.1538H71.9405V60H73.8077ZM70.0734 60V58.1538H68.2063V60H70.0734ZM66.3391 60V58.1538H64.472V60H66.3391ZM62.6049 60V58.1538H60.7377V60H62.6049ZM58.8706 60V58.1538H57.0035V60H58.8706ZM55.1363 60V58.1538H53.2692V60H55.1363ZM51.4021 60V58.1538H49.5349V60H51.4021ZM47.6678 60V58.1538H45.8007V60H47.6678ZM43.9335 60V58.1538H42.0664V60H43.9335ZM40.1993 60V58.1538H38.3321V60H40.1993ZM36.465 60V58.1538H34.5979V60H36.465ZM32.7307 60V58.1538H30.8636V60H32.7307ZM28.9965 60V58.1538H27.1293V60H28.9965ZM25.2622 60V58.1538H23.3951V60H25.2622ZM21.5279 60V58.1538H19.6608V60H21.5279ZM17.7937 60V58.1538H15.9265V60H17.7937ZM14.0594 60V58.1538H12.1923V60H14.0594ZM10.3251 60V58.1538H8.458V60H10.3251ZM6.59087 60V58.1538H4.72374V60H6.59087Z" fill="#E6E6E6"/>
<defs>
<clipPath id="clip0_2688_33184">
<rect width="71.0769" height="22.1538" fill="white" transform="translate(7.46155 5.53857)"/>
</clipPath>
</defs>
</svg>
