<svg fill="none" viewBox="0 0 258 258" xmlns="http://www.w3.org/2000/svg" xmlns:xlink="http://www.w3.org/1999/xlink"><clipPath id="a"><path d="m0 0h258v258h-258z"/></clipPath><g clip-path="url(#a)"><path d="m0 0h258v258h-258z" fill="#f2eff8"/><path d="m473.616 242.393c-187.531-139.112-521.7457-10.202-572.8063 11.128l-71.4847 12.057-151.325-77.903 48.275-259.675 846.677 14.8386c29.399 146.2219 50.69 410.8434-99.336 299.5544z" fill="#fff"/><path d="m516.537 189.11c-167.755-102.4766-564.7505-34.035-742.279 12.995l-35.258-296.105 801.661 14.8517c61.856 132.1179 143.631 370.7343-24.124 268.2583z" fill="#7a5cbd"/><path d="m57.1335 113.123 27.4095 59.498 164.457-59.498z" fill="#639"/><path d="m49.1116 121.813 34.0947 50.808 165.7937-59.498z" fill="#f68909"/><path d="m49.1114 121.813-40.1114 58.162 240-66.852z" fill="#ffd66d"/><path d="m57.1335 113.123 29.4151-40.1118 162.4514 40.1118z" fill="#d1b3ee"/></g></svg>