<svg fill="none" viewBox="0 0 50 49" xmlns="http://www.w3.org/2000/svg"><path d="m25.3349 8.17236c2.7604 0 5.3383.54717 7.7339 1.63878 2.3955 1.09436 4.4862 2.58066 6.2665 4.45626 1.7831 1.8784 3.1823 4.0643 4.1977 6.5551 1.0154 2.4909 1.5244 5.1178 1.5244 7.8781 0 2.7604-.509 5.3383-1.5244 7.7339-1.0181 2.3955-2.4146 4.4835-4.1977 6.2692-1.783 1.7831-3.871 3.1796-6.2665 4.195-2.3956 1.0181-4.9763 1.5244-7.7339 1.5244-2.7603 0-5.3873-.5063-7.8781-1.5244-2.4935-1.0154-4.6768-2.4146-6.5551-4.195-1.87834-1.783-3.36195-3.8737-4.45628-6.2692-1.09161-2.3956-1.63878-4.9735-1.63878-7.7339 0-2.7603.54717-5.3845 1.63878-7.8781 1.09161-2.4908 2.57794-4.6767 4.45628-6.5551 1.8783-1.8783 4.0643-3.3646 6.5551-4.45626 2.4936-1.09433 5.1178-1.63878 7.8781-1.63878zm0 10.23284c-1.3801 0-2.6923.2777-3.939.8357-1.2468.5554-2.3384 1.304-3.2776 2.2431-.9392.9392-1.6878 2.0308-2.2431 3.2776s-.833 2.5589-.833 3.939c0 1.3802.2777 2.695.833 3.9418s1.3012 2.3275 2.2431 3.2476c.9392.9229 2.0308 1.6606 3.2776 2.2159 1.2467.5553 2.5589.8357 3.939.8357 1.3802 0 2.646-.2776 3.7948-.8357 1.1515-.5526 2.1478-1.293 2.989-2.2159.8439-.9174 1.4945-2.0008 1.9546-3.2476.46-1.2468.6914-2.5589.6914-3.9418 0-1.3774-.2314-2.6895-.6914-3.939-.4601-1.2468-1.1134-2.3384-1.9546-3.2776-.8439-.9364-1.8375-1.6877-2.989-2.2431-1.1488-.5553-2.4146-.8357-3.7948-.8357z" fill="#000"/><g fill="#7ac143"><path d="m47.3679.838367c-.9229-.588-12.1275 11.580333-22.2896 22.991933-2.4445-.1552-4.7122 1.4618-5.2811 3.9254-.6316 2.744 1.078 5.4771 3.822 6.1087 2.7413.6315 5.4744-1.0808 6.1059-3.8193.2532-1.0998.1171-2.186-.294-3.1469 9.1358-12.1438 18.8678-25.47183 17.9368-26.059833z"/><path d="m31.0095 27.0482c.3539 1.1161.4246 2.3356.1089 3.547-.8902 3.4218-4.3855 5.4744-7.8074 4.5842-3.4218-.8901-5.4744-4.3882-4.5842-7.8073.6588-2.5317 2.7467-4.3066 5.1749-4.7013l1.3448-1.4101c-3.5634-.1552-6.8763 2.1805-7.81 5.7738-1.0753 4.1351 1.4046 8.3573 5.5397 9.4353 4.135 1.0752 8.3572-1.4047 9.4325-5.537.4519-1.7341.2477-3.4736-.4138-4.998z"/></g></svg>