<svg fill="none" height="29" viewBox="0 0 116 29" width="116" xmlns="http://www.w3.org/2000/svg"><path d="m43.4149 6.63284h-6.3977c-.2118.00004-.4166.07552-.5776.21283-.1609.13731-.2675.32744-.3004.53617l-2.588 16.36696c-.0118.0759-.0071.1535.014.2274.021.0739.0578.1424.1079.2007.0501.0584.1123.1052.1823.1373.0699.0321.146.0487.223.0486h3.0541c.2117 0 .4166-.0755.5775-.2128.161-.1373.2675-.3274.3005-.5362l.7016-4.415c.0329-.2085.1393-.3985.3001-.5358.1607-.1373.3653-.2129.5769-.2132h2.0257c4.2096 0 6.6462-2.035 7.2817-6.067.1776-.7043.1965-1.4392.0554-2.1518-.141-.71254-.4386-1.38505-.8713-1.96916-.9091-1.066-2.5218-1.63-4.6637-1.63zm.7377 5.97796c-.3498 2.29-2.1048 2.29-3.7997 2.29h-.9653l.6776-4.277c.0198-.125.0837-.239.1801-.3213.0965-.0823.2192-.1275.3461-.1277h.442c1.1557 0 2.2452 0 2.8065.657.1794.2557.3003.5476.354.855.0537.3075.0389.6229-.0433.924zm18.3862-.074h-3.064c-.1269.0002-.2496.0454-.3461.1277-.0964.0823-.1603.1963-.1801.3213l-.1353.855-.2145-.31c-.6635-.96-2.1419-1.281-3.6183-1.281-1.6897.0357-3.3102.6761-4.5659 1.8046-1.2558 1.1284-2.0632 2.6696-2.2748 4.3424-.1619.8192-.1437 1.6637.0534 2.4751.1971.8115.5684 1.5706 1.0882 2.2249.4847.5319 1.0834.9479 1.7515 1.2171.668.2692 1.3884.3847 2.1073.3379.7885.0079 1.5705-.143 2.2992-.4437s1.3891-.745 1.9416-1.3063l-.1363.849c-.0122.076-.0077.1537.0131.2278.0209.0741.0576.1428.1076.2013.05.0586.1122.1056.1822.1379s.1462.049.2233.049h2.7593c.2118 0 .4166-.0755.5776-.2128s.2675-.3274.3004-.5362l1.6559-10.462c.0121-.0758.0077-.1533-.0131-.2272s-.0574-.1424-.1074-.2008c-.0499-.0584-.112-.1053-.1819-.1374s-.1459-.0487-.2229-.0486zm-4.2708 5.947c-.1193.8239-.5368 1.5758-1.1737 2.1135-.6369.5378-1.4491.8243-2.2832.8055-.3832.0399-.7703-.0138-1.128-.1566s-.6752-.3703-.925-.6629-.4245-.6414-.509-1.0165c-.0845-.375-.0762-.7649.0242-1.136.1165-.8226.5291-1.5749 1.1608-2.1162.6318-.5414 1.4393-.8349 2.272-.8258.381-.0201.7618.0441 1.115.1881.3531.1441.67.3643.9277.6449.2386.3015.4085.6511.498 1.0246.0894.3735.0964.762.0202 1.1384zm20.5873-5.949h-3.074c-.1453.0001-.2883.0356-.4167.1034s-.2382.1659-.32.2856l-4.2458 6.24-1.8041-6c-.0552-.1829-.1679-.3433-.3215-.4573s-.34-.1756-.5315-.1757h-3.0259c-.0841.0008-.1668.0214-.2414.0601-.0745.0387-.1389.0944-.1878.1627-.0488.0682-.0808.1471-.0933.23s-.0052.1677.0213.2472l3.3908 9.929-3.1883 4.49c-.0567.0797-.0903.1733-.0972.2707-.0068.0974.0133.1948.0582.2815.0449.0868.1129.1595.1965.2103.0836.0507.1796.0776.2775.0775h3.075c.1436.0002.2851-.0344.4124-.1007.1272-.0664.2365-.1626.3183-.2803l10.2315-14.736c.0555-.0798.0879-.1732.094-.2701.006-.0968-.0147-.1935-.0598-.2795-.0451-.0861-.113-.1581-.1962-.2084s-.1787-.0769-.276-.077z" fill="#253b80"/><path d="m89.2509 6.63286h-6.4037c-.2116.00028-.4162.07587-.577.21316-.1607.13729-.2671.32729-.3.53584l-2.583 16.36704c-.012.0758-.0074.1534.0135.2273s.0577.1424.1077.2007c.05.0584.1121.1053.1821.1374.0699.0321.146.0486.2229.0486h3.2836c.1481-.0004.2913-.0535.4037-.1497s.1868-.2293.2097-.3753l.7347-4.64c.0329-.2086.1393-.3986.3001-.5359.1607-.1373.3653-.2129.5769-.2131h2.0246c4.2157 0 6.6463-2.035 7.2828-6.067.1776-.7045.1965-1.4394.0553-2.152-.1413-.71263-.4392-1.3851-.8722-1.96904-.9081-1.066-2.5198-1.63-4.6617-1.63zm.7377 5.97804c-.3488 2.29-2.1049 2.29-3.7997 2.29h-.9643l.6786-4.277c.0194-.1251.083-.2391.1793-.3215.0964-.0824.219-.1276.3459-.1275h.442c1.1547 0 2.2452 0 2.8065.657.1795.2555.3005.5474.3544.8548.0538.3075.0393.623-.0427.9242zm18.3854-.074h-3.062c-.127-.0005-.25.0445-.347.1269-.096.0824-.16.1967-.179.3221l-.136.855-.215-.31c-.664-.96-2.141-1.281-3.618-1.281-1.6891.0356-3.3094.6761-4.565 1.8046-1.2556 1.1284-2.0628 2.6696-2.2743 4.3424-.1618.8191-.1437 1.6635.0532 2.4749.197.8114.568 1.5706 1.0875 2.2251.4848.5317 1.0835.9476 1.7515 1.2168.6681.2692 1.3884.3848 2.1073.3382.7885.0079 1.5708-.1431 2.2988-.4438.729-.3007 1.389-.7449 1.942-1.3062l-.136.849c-.013.076-.008.1538.013.228.021.0741.058.1428.108.2014s.112.1056.182.1378.147.0489.224.0488h2.758c.212-.0003.416-.0759.577-.2132s.267-.3273.3-.5358l1.663-10.467c.012-.076.007-.1536-.014-.2275s-.058-.1424-.109-.2007c-.05-.0583-.112-.1051-.182-.1372s-.146-.0487-.223-.0486zm-4.271 5.947c-.119.824-.536 1.5761-1.173 2.114-.637.5378-1.45.8242-2.284.805-.383.0398-.7702-.0139-1.1279-.1567s-.6752-.3703-.925-.6629c-.2499-.2926-.4246-.6414-.509-1.0164-.0845-.3751-.0762-.7649.0241-1.136.117-.8225.5298-1.5745 1.1614-2.1158s1.4394-.835 2.2714-.8262c.381-.0202.762.044 1.115.1881.353.144.67.3642.928.6449.239.3007.41.6501.499 1.0236.09.3735.097.762.02 1.1384zm7.882-11.40004-2.626 16.66704c-.012.0758-.007.1534.014.2273.02.0739.057.1424.107.2007.05.0584.112.1053.182.1374s.146.0486.223.0486h2.64c.212.0003.417-.075.578-.2124s.268-.3277.3-.5366l2.59-16.36904c.012-.0759.008-.1535-.013-.22745-.021-.07396-.058-.14252-.108-.20096s-.112-.10538-.182-.13759c-.07-.03222-.146-.04893-.223-.049h-2.952c-.127.00036-.249.04585-.346.12831-.096.08247-.16.19652-.18.32169z" fill="#179bd7"/><path d="m6.79683 27.5451.48912-3.081-1.0895-.025h-5.203957l3.616307-22.73404c.01083-.06976.04646-.13332.10038-.17903.05393-.04572.12254-.07056.1933-.06996h8.77512c2.9127 0 4.9234.6 5.9728 1.787.4637.50298.7929 1.11449.9572 1.778.1612.80919.1636 1.6419.007 2.45199l-.011.071v.628l.4921.276c.3753.18839.7129.44358.9963.75301.4366.51033.7171 1.13513.8078 1.80003.1136.8694.0746 1.7519-.1152 2.608-.1859 1.0386-.5504 2.0373-1.0775 2.952-.4323.73-1.0126 1.3618-1.7039 1.855-.6986.4793-1.4792.8271-2.3033 1.026-.9403.2295-1.9057.34-2.8736.329h-.6826c-.4885.0007-.9612.1732-1.3351.487-.3712.3151-.6178.7519-.6956 1.232l-.0511.277-.864 5.43-.039.2c-.0024.0442-.0218.0857-.0542.116-.0256.0205-.0573.0318-.0902.032z" fill="#253b80"/><path d="m21.561 7.49023c-.0261.16734-.0562.33834-.0902.513-1.1577 5.92797-5.1118 7.97497-10.1724 7.97497h-2.57394c-.29858-.0001-.58734.1064-.81403.3003-.22668.1939-.37631.4623-.42181.7567l-1.31802 8.34-.36985 2.365c-.01493.0939-.00929.1898.01654.2812.02583.0915.07122.1762.13306.2485.06183.0722.13863.1302.22511.17.08647.0398.18056.0604.27578.0603h4.56146c.2614-.0006.514-.0939.7128-.2631.1988-.1693.3309-.4035.3727-.6609l.0451-.231.86-5.443.0551-.3c.0414-.2577.1733-.4924.3722-.662.1988-.1697.4517-.2632.7133-.264h.6776c4.4241 0 7.8871-1.792 8.8994-6.978.423-2.166.2005-3.97497-.9151-5.24697-.3546-.39341-.7782-.71906-1.2498-.961z" fill="#179bd7"/><path d="m20.3495 7.11502c-.3696-.10658-.7455-.18974-1.1256-.249-.7508-.11505-1.5096-.17023-2.2692-.165h-6.8778c-.26181-.00023-.51506.093-.71396.26283-.1989.16984-.33034.40507-.37054.66317l-1.46336 9.24598-.0421.27c.04549-.2944.19512-.5628.42181-.7567.22668-.1939.51545-.3004.81403-.3003h2.57492c5.0566 0 9.0157-2.049 10.1724-7.97498.0351-.175.0631-.346.0902-.513-.3053-.15961-.6235-.29341-.9512-.4-.0862-.02866-.1727-.05566-.2596-.081z" fill="#222d65"/><path d="m8.99365 7.63801c.04075-.25726.17256-.49143.37153-.66004s.45191-.26048.71292-.25896h6.8778c.7596-.00517 1.5184.04967 2.2693.164.4695.07306.9326.18238 1.3851.327.3276.10708.6457.24087.9512.4.2218-.86729.2294-1.77529.0222-2.64614-.2073-.87085-.6231-1.67856-1.2119-2.35386-1.309-1.478-3.6704-2.110004-6.6934-2.110004h-8.77415c-.29812-.000941-.5868.104297-.81409.296781-.22728.192484-.37826.459573-.42576.753223l-3.6553972 22.96099c-.01666956.1064-.00997695.2152.0196152.3188.0295922.1036.081378.1995.151779.2812.070907.0822.158738.1481.257504.1933s.206144.0687.314811.0687h5.412438l1.36012-8.553 1.46337-9.18399z" fill="#253b80"/></svg>