<svg fill="none" height="31" viewBox="0 0 120 31" width="120" xmlns="http://www.w3.org/2000/svg"><g fill="#1b1d1d"><path d="m42.9327 25.8935c-.818.0009-1.6338-.0853-2.4346-.2573-.7632-.1568-1.4934-.4525-2.1564-.8733-.6393-.4143-1.1775-.9754-1.5728-1.6395-.4127-.6836-.5618-1.7297-.5691-1.7747-.044-.2708.0313-.5478.2054-.7552.1742-.2075.4289-.3238.6946-.3172h2.1819c.5381.012.9921.4171 1.0818.9653.0128.0301.0509.1089.1455.278.1441.2626.3428.489.5818.6629.2558.1811.5409.3134.8418.3906.3358.088.6809.1321 1.0273.1315.2667-.0023.5323-.0331.7928-.092.2543-.0554.4993-.149.7273-.278.2048-.1166.3818-.2789.5182-.4751.1359-.2107.2028-.4608.1909-.7137 0-.1728 0-.6967-.9691-1.0742-.7419-.2873-2.4383-.7043-2.4546-.708-.3946-.0958-1.0364-.2573-1.4273-.3569-.0164 0-.4091-.1051-.9419-.2835-.5266-.1706-1.0274-.4172-1.4873-.7325-.4447-.3027-.8177-.7052-1.0909-1.1775-.2902-.5336-.4348-1.1385-.4182-1.7503 0-.9785.1818-1.7973.5673-2.4415.3658-.6224.8781-1.1392 1.4891-1.5024.6299-.3715 1.3169-.6288 2.031-.7606.7478-.1428 1.5068-.2144 2.2673-.2141.757-.0013 1.5123.0755 2.2546.2291.7063.1405 1.3833.4081 2 .7907.5954.3802 1.1006.8936 1.4782 1.5024.2737.4891.4655 1.0225.5673 1.5776.056.2679-.0104.5476-.1801.7584-.1696.2108-.4237.3293-.689.3214h-2.1819c-.5508-.0145-1.03-.3935-1.1873-.939-.0881-.2701-.2693-.4974-.5091-.6385-.5148-.2609-1.083-.3898-1.6564-.3756-.2248.0008-.4494.0146-.6727.0413-.2096.0204-.415.0736-.6091.1577-.1605.0732-.3024.1838-.4146.3231-.1108.1511-.165.3385-.1527.5277-.0086.2512.0978.492.2873.6498.2643.2211.5674.3875.8927.4902.4465.1524.9012.2778 1.3619.3756.5036.1089 1.0418.231 1.6.3643.5611.1311 1.1152.2922 1.66.4827.5308.1819 1.0326.4439 1.4892.7775.4421.3253.81.7464 1.0782 1.2338.2908.5618.4337 1.1925.4145 1.8292.068 1.6831-.747 3.2735-2.1327 4.1618-.653.4215-1.3763.7138-2.1328.862-.786.1627-1.5857.2451-2.3873.246z"/><path d="m61.3241 25.5369c-.5563 0-1.0073-.4658-1.0073-1.0404v-6.6389c0-.4113-.0291-1.078-.0655-1.4855-.0309-.3493-.1672-1.3522-.4327-1.7841-.3091-.5033-.86-.7512-1.6855-.7512-.9636 0-1.6364.2779-2.0509.8488-.3455.4752-.5346 1.7992-.5782 2.2706-.0382.4094-.0691 1.0742-.0691 1.4836v6.0473c0 .5746-.451 1.0404-1.0073 1.0404h-2.3637c-.5559-.001-1.0063-.4662-1.0073-1.0404v-18.40474c.001-.57418.4514-1.0394 1.0073-1.04043h2.3637c.5563 0 1.0073.46582 1.0073 1.04043v6.03784l.0455-.0582c.029-.0375.7018-.9089 1.5054-1.3146.7237-.3815 1.5223-.587 2.3346-.601 1.0582 0 1.9455.154 2.6328.4564.6549.2713 1.2292.7155 1.6655 1.2883.4198.5882.7091 1.2647.8473 1.9813.1053.5724.1727 1.1516.2018 1.7335.0182.4206.0345 1.1043.0345 1.5249v7.36c-.001.575-.4525 1.0405-1.0091 1.0405z"/><g clip-rule="evenodd" fill-rule="evenodd"><path d="m66.8848 7.83835c0 .57461.451 1.04043 1.0073 1.04043l2.3728-.00563c.5559-.00104 1.0063-.46625 1.0073-1.04043v-1.75033c-.0005-.27742-.108-.5432-.2988-.73848s-.449-.30395-.7176-.30195h-2.3637c-.5563 0-1.0073.46581-1.0073 1.04043zm.0002 16.65815c0 .5746.4509 1.0404 1.0073 1.0404l2.3727-.0056c.5559-.0011 1.0063-.4663 1.0073-1.0405v-12.9114c-.0004-.2775-.108-.5432-.2987-.7385-.1908-.1953-.4491-.304-.7177-.302h-2.3636c-.5564 0-1.0073.4659-1.0073 1.0405z"/><path d="m73.4551 29.5411c0 .5749.4507 1.0413 1.0073 1.0423l2.3636.0075c.5567-.001 1.0073-.4674 1.0073-1.0423v-5.3937l.06.0695c.3996.4499.8722.8242 1.3964 1.1062.7851.3812 1.6435.5738 2.511.5634.9746.0214 1.9399-.1995 2.8146-.6442.7843-.4158 1.4703-1.0051 2.0091-1.7259.5435-.7379.9486-1.5742 1.1946-2.4659.2605-.9327.3915-1.8989.3891-2.8696.0028-1.0202-.1281-2.036-.3891-3.0199-.2388-.93-.648-1.804-1.2055-2.5748-.5535-.7427-1.2579-1.3511-2.0637-1.7822-.9206-.4688-1.9375-.7001-2.9637-.6742-.8618-.0072-1.7143.1853-2.4946.5634-.5403.3015-1.0193.7076-1.4109 1.1963l-.0291.0375v-.3549c0-.5746-.451-1.0404-1.0073-1.0404h-2.1818c-.5559.001-1.0063.4662-1.0073 1.0404zm5.863-15.4732c.4363-.2562.933-.3817 1.4345-.3625.4933-.0172.9813.1084 1.4091.3625.3849.2455.7107.5781.9528.9728.261.4291.4457.9029.5454 1.3991.1134.54.1707 1.0908.171 1.6433.0005.5525-.0525 1.1036-.1582 1.6452-.0865.4852-.2611.9491-.5146 1.3672-.2369.3842-.5576.7058-.9364.939-1.3221.708-2.9468.3084-3.8182-.939-.2548-.4204-.434-.8848-.5291-1.371-.1131-.5393-.1698-1.0896-.1691-1.6414-.0009-.5623.0515-1.1234.1564-1.6752.0895-.4893.2645-.9576.5164-1.3822.2381-.3895.5597-.7172.94-.9578z"/><path d="m89.2871 29.541c0 .575.4507 1.0413 1.0073 1.0424l2.371.0075c.5566-.0011 1.0073-.4674 1.0073-1.0423v-5.3938l.06.0695c.3991.4504.8717.8248 1.3963 1.1062.7845.3812 1.6423.5738 2.5092.5634.9784.0203 1.9472-.2039 2.8238-.6535.781-.4165 1.464-1.0058 2-1.726.544-.7374.949-1.5739 1.194-2.4658.261-.9327.392-1.8989.39-2.8697.002-1.02-.128-2.0357-.388-3.0198-.241-.927-.651-1.7977-1.209-2.5654-.552-.7432-1.256-1.3516-2.062-1.7823-.9205-.4683-1.9373-.6996-2.9634-.6742-.8624-.0072-1.7154.1854-2.4964.5634-.5415.3013-1.0217.7075-1.4145 1.1963l-.0291.0376v-.355c-.001-.5742-.4514-1.0394-1.0073-1.0404h-2.1819c-.5563 0-1.0073.4658-1.0073 1.0404zm5.8611-15.4732c.437-.2561.9343-.3816 1.4364-.3624.4951-.0199.9858.1037 1.4164.3568.3818.2487.7043.5832.9436.9785.2611.4291.4458.9029.5455 1.3991.1128.54.1695 1.0909.1691 1.6433.0002.5523-.0522 1.1034-.1564 1.6451-.087.4853-.2623.9492-.5163 1.3672-.8195 1.3164-2.5008 1.7264-3.8037.9278-.3828-.2269-.7076-.545-.9473-.9278-.2548-.4203-.4341-.8848-.5291-1.3709-.1138-.5392-.1711-1.0895-.1709-1.6414-.0013-.5625.0517-1.1236.1581-1.6752.0884-.4896.2635-.9582.5164-1.3823.2372-.3895.5583-.7173.9382-.9578z"/><path d="m109.417 25.3493c.983.3758 2.024.5605 3.071.5446 1.052.0152 2.097-.1694 3.084-.5446.893-.3482 1.704-.8907 2.376-1.5907.67-.7095 1.187-1.5559 1.52-2.4847.365-1.0326.545-2.1253.531-3.2246.015-1.1038-.164-2.2012-.527-3.2396-.655-1.8886-2.079-3.3853-3.896-4.0941-1.988-.75362-4.171-.75362-6.159 0-1.811.7161-3.229 2.2126-3.883 4.0979-.365 1.038-.545 2.1355-.531 3.2396-.015 1.0993.165 2.192.531 3.2246.333.9288.851 1.7752 1.52 2.4846.669.697 1.475 1.2381 2.363 1.587zm.646-10.335c.514-.8656 1.446-1.3704 2.427-1.3146v.0056c.521-.0195 1.037.1056 1.495.3625.39.2334.719.5599.962.9522.252.4256.427.8953.516 1.386.104.5424.157 1.094.156 1.647.001.548-.051 1.0947-.156 1.632-.092.4899-.268.959-.518 1.386-.238.3909-.566.7139-.957.939-.461.2505-.977.3723-1.498.3531-.515.0198-1.026-.1013-1.482-.3512-.386-.231-.711-.5575-.945-.9503-.25-.427-.426-.8962-.518-1.386-.105-.5372-.157-1.084-.157-1.632 0-.553.053-1.1046.157-1.647.088-.4899.264-.9585.518-1.3823z"/><path d="m29.8177 6.82606c.8651.69547 1.5394 1.61211 1.9564 2.65929.3818.93495.5462 1.94925.48 2.96165-.069.9612-.3663 1.89-.8655 2.7044-.5295.8489-1.2532 1.55-2.1073 2.0414-.4793.2546-.9722.4809-1.4764.678-.4691.2028-.9254.4282-1.3782.6667-1.0491.5465-2.0545 1.1568-3.0491 1.7916-1.0855.693-2.1509 1.4142-3.2055 2.1654-.7691.5427-3.3946 4.4979-4.7019 6.5111 5.9779-.259 11.0365-4.6457 12.3184-10.6822l.1709-.0751c.0919-.0411.1849-.0801.2805-.1202.031-.013.0624-.0261.094-.0395.3916-.1539.773-.3339 1.1419-.539.0836-.0488.1618-.0995.2418-.1521-.902 7.1705-6.5092 12.729-13.4824 13.3655-6.97317.6365-13.43719-3.8201-15.542752-10.716-2.105568-6.8959.713562-14.37655 6.778632-17.98735 6.06502-3.6108 13.74502-2.380672 18.46642 2.95786h-.1818c-.3958 0-.791.03265-1.1818.09766-.281.045-.5591.10772-.8328.1878-3.8286-3.56046-9.3153-4.488856-14.04368-2.37629-4.72836 2.11257-7.83052 6.87835-7.94022 12.19842 1.56002-.5108 4.26915-1.4348 4.5837-1.7691.67092-.7137 1.34184-1.433 1.97094-2.1842.19305-.2185.37107-.4507.53273-.6948.04956-.081.09041-.1672.12182-.2573.09867-.26603.23802-.51395.41273-.73435-.08844-.22164-.15957-.45024-.21272-.6836-.08412-.17158-.14529-.35417-.18183-.54275-.112-.4804-.15186-.97572-.11818-1.46862.02909-.40003.14728-1.01414.65092-1.01414.16776.02611.3255.09881.45637.21034.51112.34452.98422.74567 1.41092 1.19631h.0473l1.6109-.18781c.6668-.10125 1.3413-.13709 2.0146-.10705.2939.02841.5836.09142.8636.18781.291.09765.5855.18029.8837.2479.5676.13005 1.1477.19305 1.7291.1878 1.1169-.02296 2.2087-.34663 3.1673-.93902.1268-.05679.2537-.1145.3806-.17226.1879-.08549.3761-.17111.5649-.25405.6389-.29532 1.3106-.5079 2-.6329.6652-.11189 1.3427-.12265 2.011-.03192 1.149.15532 2.2385.61894 3.16 1.34467zm-14.2206 4.65734c.4741.2996 1.0759.2767 1.5273-.0582.4291-.3438.5913-.9362.4-1.46113-.2005-.54142-.6989-.90316-1.26-.9146-.509-.01228-.9759.28192-1.2.74876.0238-.07064.0336-.09866.0335-.09867-.0001-.00003-.0283.08-.065.16932.0099-.02396.0204-.04752.0315-.07065-.0089.02649-.0197.05898-.0328.09823-.1053.31724-.0598.19244-.0031.03666l.0031-.00849c-.0204.05677-.0362.11517-.0472.17467-.0899.5475.153 1.0962.6127 1.3841z"/></g></g></svg>