<svg fill="none" height="32" viewBox="0 0 1036 304" xmlns="http://www.w3.org/2000/svg"><path clip-rule="evenodd" d="m30 0c-17 0-30 13-30 30v244c0 17 13 30 30 30h976c17 0 30-13 30-30v-244c0-17-13-30-30-30zm187 98c0-14-3-24-9-35l-54 11c4 7 6 16 6 29 0 23-17 58-30 79l-14-115-60 6 28 162h67c30-39 66-95 66-137zm106 16c0 16-27 21-38 21 1-19 16-32 27-32 6 0 11 4 11 11zm-15 78c-14 0-24-7-24-27 31 0 86-13 86-56 0-26-19-45-53-45-61 0-91 53-91 104 0 39 18 70 69 70 21 0 42-4 55-11l7-48c-19 9-33 13-49 13zm231-70 2-21c0-22-10-37-40-37-22 0-37 8-49 16l-1-13h-50l-26 168h58l18-118c5-3 12-6 20-6 6 0 10 2 10 9l-1 9v3l-16 103h57zm227-58c-22 0-37 6-54 18-6-10-18-18-36-18-21 0-36 8-48 17l-1-14h-50l-26 168h58l18-118c5-3 13-6 20-6 6 0 10 2 10 10v6l-1 3-16 105h58l18-118c5-3 12-6 20-6 5 0 10 2 10 10l-1 6v3l-17 105h58l18-113 2-21c0-22-11-37-40-37zm141 44c10 0 13 9 13 23 0 21-5 63-26 63-10 0-15-9-15-25 0-21 5-61 28-61zm6-44c-64 0-92 49-92 102 0 41 16 73 65 73 66 0 94-54 94-107 0-39-18-68-67-68z" fill="#3d95ce" fill-rule="evenodd"/></svg>