<svg viewBox="0 0 32.129 28.566" xmlns="http://www.w3.org/2000/svg" xmlns:xlink="http://www.w3.org/1999/xlink"><defs><path id="a" d="m6.002 13.053.644 1.306 1.443.2-1.043 1.018.246 1.436-1.3-.677-1.3.677.246-1.436-1.043-1.018 1.442-.2z"/><path id="b" d="m19.246 12.69.45 1.263 1.2-.575-.575 1.2 1.263.45-1.263.45.575 1.2-1.2-.575-.45 1.263-.45-1.263-1.2.575.575-1.2-1.263-.45 1.263-.45-.575-1.2 1.2.575z"/></defs><g fill="none" stroke="#293f54" stroke-miterlimit="10" stroke-width=".567"><path d="m31.846 27.283a1 1 0 0 1 -1 1h-29.563a1 1 0 0 1 -1-1v-26a1 1 0 0 1 1-1h29.563a1 1 0 0 1 1 1z"/><path d="m.096 7.22h31.687"/></g><g fill="#00b1cc"><circle cx="2.846" cy="3.846" r=".813"/><circle cx="6.846" cy="3.846" r=".813"/><circle cx="10.846" cy="3.846" r=".813"/></g><g fill="#293f54"><circle cx="16.221" cy="3.846" r=".5"/><circle cx="18.746" cy="3.846" r=".5"/><circle cx="21.271" cy="3.846" r=".5"/><circle cx="23.797" cy="3.846" r=".5"/><circle cx="26.321" cy="3.846" r=".5"/><circle cx="28.846" cy="3.846" r=".5"/></g><g fill="#99e0eb"><use xlink:href="#a"/><use xlink:href="#b"/><use xlink:href="#b" y="6.17"/></g><path d="m12.9 12.515.45 1.262 1.2-.575-.576 1.2 1.263.45-1.263.45.576 1.2-1.2-.576-.45 1.263-.45-1.263-1.2.576.575-1.2-1.262-.45 1.262-.45-.575-1.2 1.2.575z" fill="#ffc500"/><g fill="#99e0eb"><use xlink:href="#a" y="6.169"/><use x="6.888" xlink:href="#a" y="6.169"/><use x="19.382" xlink:href="#a" y="-.123"/><path d="m25.82 18.86.45 1.263 1.21-.575-.575 1.2 1.263.45-1.263.45.575 1.2-1.21-.575-.45 1.263-.45-1.263-1.2.575.575-1.2-1.262-.45 1.262-.45-.575-1.2 1.2.575z"/></g><g fill="#fff" stroke="#293f54" stroke-linejoin="round" stroke-width=".454"><circle cx="22.06" cy="17.141" r="5.482"/><g stroke-linecap="round" stroke-miterlimit="10"><path d="m27.147 21.203 2.002 2c.282.283.282.742 0 1.025s-.743.283-1.027 0l-2-2"/><path d="m24.334 23.193c1.755-.633 3.146-2.023 3.78-3.778"/></g></g><path d="m22.06 13.758.694 1.95 1.87-.89-.89 1.87 1.952.695-1.952.694.89 1.87-1.87-.888-.694 1.95-.695-1.95-1.87.888.89-1.87-1.95-.694 1.95-.695-.89-1.87 1.87.89z" fill="#ffc500"/></svg>