<svg xmlns="http://www.w3.org/2000/svg" xmlns:xlink="http://www.w3.org/1999/xlink" viewBox="0 0 32.129 28.566"><g fill="none" stroke="#293f54" stroke-width=".567" stroke-miterlimit="10"><path d="M31.846 27.283a1 1 0 0 1-1 1H1.283a1 1 0 0 1-1-1v-26a1 1 0 0 1 1-1h29.563a1 1 0 0 1 1 1v26z"/><path d="M.096 7.22h31.687"/></g><g fill="#00b1cc"><circle cx="2.846" cy="3.846" r=".813"/><circle cx="6.846" cy="3.846" r=".813"/><circle cx="10.846" cy="3.846" r=".813"/></g><g fill="#293f54"><circle cx="16.221" cy="3.846" r=".5"/><circle cx="18.746" cy="3.846" r=".5"/><circle cx="21.271" cy="3.846" r=".5"/><circle cx="23.797" cy="3.846" r=".5"/><circle cx="26.321" cy="3.846" r=".5"/><circle cx="28.846" cy="3.846" r=".5"/></g><g fill="#99e0eb"><use xlink:href="#B"/><use xlink:href="#C"/><use xlink:href="#C" y="6.17"/></g><path fill="#ffc500" d="M12.9 12.515l.45 1.262 1.2-.575-.576 1.2 1.263.45-1.263.45.576 1.2-1.2-.576-.45 1.263-.45-1.263-1.2.576.575-1.2-1.262-.45 1.262-.45-.575-1.2 1.2.575z"/><g fill="#99e0eb"><use xlink:href="#B" y="6.169"/><use xlink:href="#B" x="6.888" y="6.169"/><use xlink:href="#B" x="19.382" y="-0.123"/><path d="M25.82 18.86l.45 1.263 1.21-.575-.575 1.2 1.263.45-1.263.45.575 1.2-1.21-.575-.45 1.263-.45-1.263-1.2.575.575-1.2-1.262-.45 1.262-.45-.575-1.2 1.2.575z"/></g><g stroke="#293f54" fill="#fff" stroke-width=".454" stroke-linejoin="round"><circle cx="22.06" cy="17.141" r="5.482"/><g stroke-miterlimit="10" stroke-linecap="round"><path d="M27.147 21.203l2.002 2c.282.283.282.742 0 1.025s-.743.283-1.027 0l-2-2"/><path d="M24.334 23.193c1.755-.633 3.146-2.023 3.78-3.778"/></g></g><path fill="#ffc500" d="M22.06 13.758l.694 1.95 1.87-.89-.89 1.87 1.952.695-1.952.694.89 1.87-1.87-.888-.694 1.95-.695-1.95-1.87.888.89-1.87-1.95-.694 1.95-.695-.89-1.87 1.87.89z"/><defs ><path id="B" d="M6.002 13.053l.644 1.306 1.443.2-1.043 1.018.246 1.436-1.3-.677-1.3.677.246-1.436-1.043-1.018 1.442-.2z"/><path id="C" d="M19.246 12.69l.45 1.263 1.2-.575-.575 1.2 1.263.45-1.263.45.575 1.2-1.2-.575-.45 1.263-.45-1.263-1.2.575.575-1.2-1.263-.45 1.263-.45-.575-1.2 1.2.575z"/></defs></svg>