<svg viewBox="0 0 32.129 28.567" xmlns="http://www.w3.org/2000/svg" xmlns:xlink="http://www.w3.org/1999/xlink"><defs><path id="a" d="m22.504 19.5c0 .102-.082.184-.184.184h-11.733c-.102 0-.184-.082-.184-.184s.082-.183.184-.183h11.733c.102 0 .184.082.184.183z"/></defs><g fill="none" stroke="#293f54" stroke-miterlimit="10" stroke-width=".567"><path d="m31.846 27.284a1 1 0 0 1 -1 1h-29.563a1 1 0 0 1 -1-1v-26a1 1 0 0 1 1-1h29.563a1 1 0 0 1 1 1z"/><path d="m.096 7.22h31.687"/></g><g fill="#00b1cc"><circle cx="2.846" cy="3.846" r=".813"/><circle cx="6.846" cy="3.846" r=".813"/><circle cx="10.846" cy="3.846" r=".813"/></g><g fill="#293f54"><circle cx="16.221" cy="3.846" r=".5"/><circle cx="18.746" cy="3.846" r=".5"/><circle cx="21.271" cy="3.846" r=".5"/><circle cx="23.797" cy="3.846" r=".5"/><circle cx="26.321" cy="3.846" r=".5"/><circle cx="28.846" cy="3.846" r=".5"/></g><path d="m26.17 23.287c0 .552-.402 1-.9 1h-17.867c-.497 0-.9-.448-.9-1v-10.355c0-.552.402-1 .9-1h17.867c.497 0 .9.448.9 1z" fill="#fff" stroke="#ffc500" stroke-linejoin="round" stroke-miterlimit="10" stroke-width=".454"/><path d="m24.737 22.124c0 .428-.34.775-.756.775h-15.054c-.418 0-.757-.347-.757-.775v-8.028c0-.428.34-.775.757-.775h15.055c.417 0 .756.347.756.775v8.028z" fill="#ffc500"/><g fill="#293f54"><path d="m12.015 16.537c0 .364-.273.6-.7.6h-.33v.45h-.38v-1.634h.708c.436-.001.7.226.7.593zm-.384 0c0-.18-.116-.285-.348-.285h-.308v.567h.308c.232 0 .348-.105.348-.282zm1.696 1.04-.315-.455h-.348v.455h-.38v-1.634h.708c.437 0 .7.227.7.593a.53.53 0 0 1 -.337.516l.367.525h-.406zm-.355-1.327h-.308v.57h.308c.23 0 .348-.107.348-.285s-.117-.285-.348-.285zm2.298 1.023v.304h-1.266v-1.634h1.235v.304h-.86v.354h.76v.294h-.76v.378h.9zm1.8.304v-.98l-.48.808h-.17l-.48-.787v.96h-.355v-1.634h.313l.6 1.016.603-1.016h.3l.005 1.634h-.356zm.747-1.635h.38v1.634h-.38zm.753.915v-.915h.378v.9c0 .3.136.44.364.44s.364-.128.364-.44v-.9h.374v.915c0 .48-.275.747-.74.747s-.74-.266-.74-.747zm3.343.72-.002-.98-.48.808h-.17l-.48-.787v.96h-.355v-1.634h.313l.6 1.016.603-1.016h.3l.005 1.634h-.347z"/><use xlink:href="#a"/><use xlink:href="#a" y="1.308"/></g></svg>