<svg width="124" height="109" viewBox="0 0 124 109" fill="none" xmlns="http://www.w3.org/2000/svg">
<rect width="195" height="32" transform="translate(21.4447 -41.1465) rotate(40)" fill="#FFD300"/>
<path d="M64.8052 14.6454C65.687 15.3853 66.1893 16.2046 66.3123 17.1033C66.4353 18.002 66.1587 18.8543 65.4824 19.6602C64.699 20.5938 63.7931 21.0779 62.7647 21.1124C61.7436 21.1463 60.6944 20.7113 59.6172 19.8074C58.6397 18.9871 58.0039 18.1851 57.7098 17.4012L58.7794 16.1264C58.9486 16.5811 59.2008 17.0341 59.536 17.4854C59.8713 17.9367 60.2184 18.313 60.5775 18.6143C61.2119 19.1466 61.8135 19.41 62.3823 19.4046C62.9512 19.3992 63.465 19.1232 63.9236 18.5766C64.8007 17.5313 64.573 16.4495 63.2404 15.3313C63.0529 15.174 62.8047 14.9998 62.496 14.8087C62.1905 14.6136 61.914 14.4529 61.6664 14.3267L61.3493 13.4284L65.27 9.43649L69.8184 13.253L68.7688 14.5038L65.4593 11.7268L63.4439 13.7276C63.6036 13.8208 63.7966 13.9351 64.0229 14.0706C64.2532 14.2094 64.5139 14.401 64.8052 14.6454ZM73.8558 24.0959C72.5803 25.616 71.3875 26.5393 70.2774 26.8656C69.1712 27.1953 68.1155 26.9383 67.11 26.0946C66.1365 25.2777 65.7181 24.2774 65.8549 23.0935C65.9916 21.9096 66.6776 20.5815 67.913 19.1093C69.2086 17.5652 70.4061 16.6324 71.5055 16.3107C72.6123 15.9883 73.6664 16.2473 74.6678 17.0876C75.6453 17.9078 76.064 18.9119 75.924 20.0998C75.7839 21.2876 75.0945 22.6197 73.8558 24.0959ZM69.3373 20.3045C68.3363 21.4974 67.7433 22.4514 67.5581 23.1663C67.3769 23.8845 67.5557 24.4697 68.0943 24.9216C68.6329 25.3736 69.2435 25.444 69.9261 25.1329C70.6127 24.8251 71.4498 24.0828 72.4374 22.9058C73.4217 21.7328 74.0074 20.7795 74.1946 20.0459C74.3892 19.3117 74.2171 18.7186 73.6785 18.2666C73.1399 17.8146 72.531 17.7422 71.8517 18.0493C71.1765 18.3598 70.3383 19.1115 69.3373 20.3045ZM77.5296 24.1904C77.0307 24.7849 76.717 25.2763 76.5883 25.6647C76.4596 26.053 76.5269 26.3576 76.7902 26.5786C77.3169 27.0205 78.074 26.653 79.0616 25.476C80.0493 24.299 80.2797 23.4895 79.7531 23.0476C79.4898 22.8267 79.178 22.8133 78.818 23.0074C78.4579 23.2016 78.0284 23.5959 77.5296 24.1904ZM80.2327 26.4382C79.4627 27.3559 78.718 27.9072 77.9985 28.0921C77.2863 28.2765 76.609 28.0991 75.9667 27.5601C75.3602 27.0512 75.0886 26.4188 75.1519 25.6628C75.2225 24.9061 75.6294 24.0849 76.3726 23.1992C77.9025 21.3758 79.3039 20.9982 80.5767 22.0661C81.2031 22.5917 81.4846 23.2325 81.4214 23.9886C81.3655 24.7439 80.9693 25.5605 80.2327 26.4382ZM80.2943 32.4662C79.7955 33.0607 79.48 33.5541 79.348 33.9464C79.2199 34.3421 79.2876 34.6504 79.5509 34.8714C80.0736 35.31 80.8321 34.9368 81.8264 33.7518C82.8073 32.5828 83.0364 31.779 82.5138 31.3404C82.2504 31.1195 81.9384 31.1024 81.5777 31.2892C81.2209 31.4794 80.7931 31.8717 80.2943 32.4662ZM82.9874 34.726C82.2174 35.6437 81.4743 36.193 80.7582 36.3739C80.042 36.5549 79.3667 36.3792 78.7324 35.8469C78.1259 35.338 77.8526 34.7076 77.9125 33.9556C77.9758 33.1996 78.3807 32.3767 79.1273 31.487C80.6572 29.6636 82.0606 29.2876 83.3373 30.3589C83.9518 30.8745 84.231 31.51 84.1751 32.2653C84.1232 33.024 83.7273 33.8443 82.9874 34.726ZM86.3422 27.1182L74.1468 31.7952L72.9857 30.8209L85.1812 26.1439L86.3422 27.1182ZM97.0746 43.5584C95.8794 44.9828 94.5933 45.7903 93.2162 45.981C91.8432 46.1751 90.5043 45.7248 89.1996 44.63C87.879 43.5219 87.1917 42.2788 87.1377 40.9009C87.091 39.5224 87.6736 38.1109 88.8856 36.6666C90.0975 35.2223 91.3833 34.4111 92.743 34.233C94.1066 34.0582 95.4488 34.5249 96.7694 35.633C98.0701 36.7244 98.7457 37.9611 98.7964 39.343C98.8471 40.7249 98.2731 42.1301 97.0746 43.5584ZM90.3956 37.9541C89.4917 39.0314 89.0229 40.0317 88.9891 40.9552C88.9586 41.8747 89.3703 42.6927 90.2241 43.4091C91.0739 44.1222 91.9453 44.3842 92.8382 44.1952C93.7351 44.0095 94.6405 43.3721 95.5545 42.2829C96.455 41.2096 96.9226 40.2149 96.957 39.2988C96.9955 38.386 96.5898 37.573 95.7399 36.8599C94.8821 36.1401 94.0011 35.8734 93.0969 36.0597C92.1966 36.2494 91.2962 36.8808 90.3956 37.9541ZM96.6912 50.7122L95.2728 49.522L102.615 40.7724L107.552 44.9153L106.538 46.1243L103.019 43.1715L100.724 45.9065L104.021 48.6735L103.002 49.8884L99.7043 47.1214L96.6912 50.7122ZM103.215 56.1859L101.796 54.9958L109.138 46.2461L114.075 50.3891L113.061 51.598L109.542 48.6452L107.247 51.3802L110.545 54.1472L109.525 55.3621L106.228 52.5951L103.215 56.1859Z" fill="black"/>
</svg>
