<svg width="200" height="200" viewBox="0 0 200 200" fill="none" xmlns="http://www.w3.org/2000/svg">
<path d="M78.5 156.25C91.625 155.142 104.778 154.461 117.958 154.208C119.878 154.17 122.273 154.458 122.935 156.253C123.338 157.35 122.88 158.598 123.165 159.73C123.68 161.768 126.185 162.465 128.278 162.68C143.848 164.268 160.293 159.125 174.863 164.838C176.278 165.393 177.81 166.228 178.178 167.7C178.773 170.11 175.953 171.87 173.588 172.625C157.423 177.798 140.023 176.493 123.055 176.108C107.625 175.759 92.1875 176.214 76.805 177.473C75.41 177.588 73.625 177.473 73.14 176.165C72.5 174.435 74.8775 173.085 75.3 171.29C75.6575 169.79 74.4625 168.253 73.0175 167.685C71.5725 167.118 69.9625 167.265 68.4175 167.415C57.6125 168.478 46.745 169.368 35.9175 168.698C30.6675 168.375 25.0725 167.505 21.2925 163.865C21.9875 162.365 23.9475 162.023 25.605 161.89C44.08 160.413 60.4525 157.693 78.925 156.215L78.5 156.25Z" fill="#03243B"/>
<path d="M50.7749 61.275C50.7477 61.2709 50.7228 61.2572 50.7048 61.2363C50.6868 61.2155 50.6769 61.1888 50.6769 61.1612C50.6769 61.1337 50.6868 61.107 50.7048 61.0861C50.7228 61.0653 50.7477 61.0515 50.7749 61.0475C50.8022 61.0515 50.8271 61.0653 50.8451 61.0861C50.8631 61.107 50.873 61.1337 50.873 61.1612C50.873 61.1888 50.8631 61.2155 50.8451 61.2363C50.8271 61.2572 50.8022 61.2709 50.7749 61.275Z" fill="#03243B"/>
<path d="M80.825 50.3525C80.825 50.3525 83.48 58.0225 84.3825 59.8525C87.6675 66.525 89.03 69.7225 95.0425 72.7125C98.91 74.635 99.305 74.81 102.475 73.11C105.025 71.75 106.25 67.705 106.75 67.75C106.89 67.7625 106.837 67.9125 106.837 67.9425C106.807 68.325 106.16 70.1625 106.625 70.045C106.625 70.045 107.162 69.545 107.575 67.975C107.845 66.9575 107.992 66.77 108.187 66.8675C108.482 67.015 108.295 68.5875 108.2 68.8275C108.132 69.0515 108.082 69.2806 108.05 69.5125C108.107 69.4875 108.482 69.54 108.972 68.22C109.267 67.4275 109.497 66.4 109.722 66.585C110.062 66.86 109.167 69.27 109.472 69.405C109.777 69.54 110.577 67.55 110.912 67.125C111.047 66.9525 111.495 67.3325 110.995 68.6C110.722 69.3 110.335 69.955 109.995 70.6175C109.94 70.7275 109.66 71.225 109.745 71.3675C110.092 71.9125 111.79 70.775 112.06 71.3675C112.22 71.7175 110.667 72.1475 108.242 74.785C106.32 76.7125 103.08 79.0025 99.595 79.23C95.025 79.5275 86.8875 76.98 79.29 63.7525C77.355 60.3625 74.385 51.87 80.825 50.3525Z" fill="white"/>
<path d="M98.9151 79.635C99.1651 79.635 99.4151 79.635 99.6351 79.6125C103.953 79.33 107.53 76.055 108.525 75.0575C109.464 74.0206 110.521 73.0976 111.675 72.3075C112.223 71.925 112.615 71.6475 112.425 71.2175C112.153 70.62 111.425 70.8275 110.83 70.9925C110.617 71.0596 110.399 71.1098 110.178 71.1425C110.208 71.075 110.253 70.98 110.32 70.8525L110.348 70.795C110.45 70.59 110.558 70.385 110.665 70.18C110.921 69.7151 111.151 69.236 111.353 68.745C111.803 67.6025 111.603 66.9825 111.245 66.7825C111.145 66.7211 111.026 66.6989 110.911 66.7201C110.795 66.7414 110.692 66.8046 110.62 66.8975C110.414 67.2036 110.233 67.5254 110.078 67.86C110.065 67.8875 110.05 67.9125 110.035 67.94C110.228 67.0475 110.285 66.5525 109.975 66.3C109.918 66.2512 109.849 66.2176 109.775 66.2023C109.701 66.187 109.625 66.1906 109.553 66.2125C109.218 66.3125 109.085 66.7125 108.843 67.4625C108.811 67.5675 108.776 67.675 108.738 67.785C108.763 67.25 108.7 66.7025 108.368 66.535C108.296 66.4972 108.217 66.4761 108.136 66.473C108.055 66.47 107.974 66.4852 107.9 66.5175C107.628 66.64 107.47 66.95 107.235 67.8275C107.229 67.7118 107.181 67.6021 107.1 67.5192C107.019 67.4363 106.911 67.3859 106.795 67.3775C106.36 67.335 106.123 67.78 105.59 68.755C104.898 70.025 103.84 71.945 102.303 72.775C99.2826 74.395 99.0526 74.275 95.2176 72.3725C89.5801 69.57 88.0976 66.5525 85.1451 60.5375L84.7276 59.685C83.8451 57.8975 81.2151 50.305 81.1876 50.2275L81.0751 49.905L80.7426 49.9825C78.9376 50.41 77.6926 51.3875 77.0401 52.8925C75.5401 56.35 77.6551 61.6425 78.9826 63.9475C86.9276 77.79 95.1226 79.635 98.9151 79.635ZM111.295 71.635L111.24 71.6725C110.05 72.4928 108.959 73.4492 107.99 74.5225C107.055 75.46 103.65 78.58 99.6001 78.845C96.3501 79.055 87.9351 77.99 79.6476 63.5575C78.1801 61.0025 76.4626 56.1325 77.7426 53.18C78.2551 52 79.2126 51.1975 80.5951 50.795C81.1201 52.295 83.2501 58.3725 84.0551 60.0075L84.4726 60.86C87.5001 67.025 89.0201 70.1225 94.8876 73.04C96.7901 73.985 97.9401 74.5575 99.0051 74.635C100.07 74.7125 101.005 74.3275 102.668 73.43C104.33 72.5325 105.418 70.6575 106.148 69.315C106.058 69.815 106.075 70.0925 106.263 70.28C106.323 70.3413 106.399 70.3852 106.482 70.4072C106.565 70.4292 106.652 70.4284 106.735 70.405C106.985 70.3425 107.565 69.5575 107.96 68.065C107.947 68.2768 107.914 68.4868 107.863 68.6925C107.785 68.885 107.553 69.5375 107.793 69.78L107.968 69.9575L108.175 69.8775C108.425 69.825 108.72 69.665 109.058 69.015C109.015 69.3975 109.073 69.6375 109.325 69.7525C109.825 69.985 110.178 69.3325 110.733 68.2525C110.71 68.32 110.685 68.3925 110.655 68.47C110.461 68.933 110.242 69.3853 110 69.825C109.89 70.035 109.78 70.245 109.675 70.455L109.653 70.5C109.443 70.9025 109.27 71.29 109.45 71.5725C109.773 72.0725 110.45 71.8875 111.04 71.72L111.295 71.635ZM107.958 69.135L107.918 69.15L107.958 69.135Z" fill="#03243B"/>
<path d="M137.5 157.67C139.25 159.19 140.118 161.392 141.968 162.872C142.395 163.212 142.793 163.58 143.238 163.897C143.32 163.955 143.705 164.077 143.705 164.21C143.705 165.21 142.135 166.52 141.39 166.995C141.118 167.167 140.535 167.455 140.23 167.195C139.6 166.652 139.23 165.82 138.76 165.145C138.103 164.212 137.1 163.43 136.22 162.717C135.678 162.277 135.1 161.905 134.528 161.512C134.348 161.39 134.01 161.225 133.925 161.012C133.725 160.477 134.13 160.165 134.425 159.807C134.97 159.187 135.601 158.646 136.298 158.202C136.645 157.975 137.175 157.38 137.5 157.67Z" fill="white"/>
<path d="M140.553 167.677C140.928 167.65 141.289 167.524 141.6 167.312C142.293 166.872 144.1 165.455 144.1 164.21C144.1 163.87 143.76 163.71 143.538 163.615L143.458 163.58C143.208 163.395 142.958 163.185 142.685 162.962C142.53 162.832 142.378 162.712 142.22 162.577C141.298 161.827 140.638 160.92 139.94 159.95C139.315 159.011 138.579 158.15 137.75 157.385C137.25 156.952 136.67 157.425 136.323 157.707C136.243 157.772 136.168 157.835 136.103 157.877C135.377 158.341 134.721 158.904 134.153 159.55L134.02 159.7C133.725 160.02 133.323 160.462 133.573 161.135C133.711 161.403 133.932 161.62 134.203 161.752L134.315 161.825L134.675 162.075C135.133 162.387 135.568 162.68 135.985 163.017L136.135 163.14C136.945 163.795 137.863 164.535 138.453 165.37C138.598 165.575 138.733 165.797 138.873 166.03C139.165 166.572 139.541 167.065 139.988 167.49C140.147 167.62 140.348 167.686 140.553 167.677ZM143.32 164.355C143.173 165.072 142.013 166.155 141.193 166.675C140.825 166.91 140.535 166.95 140.485 166.907C140.101 166.534 139.777 166.103 139.525 165.63C139.383 165.395 139.238 165.152 139.078 164.927C138.425 164.005 137.465 163.23 136.618 162.545L136.465 162.422C136.025 162.065 135.555 161.747 135.103 161.44L134.748 161.19L134.605 161.1C134.486 161.034 134.378 160.949 134.285 160.85C134.21 160.645 134.285 160.527 134.583 160.195C134.635 160.14 134.685 160.085 134.733 160.027C135.254 159.433 135.859 158.917 136.528 158.495C136.61 158.437 136.705 158.362 136.805 158.28C136.948 158.151 137.107 158.042 137.28 157.957C138.051 158.682 138.735 159.494 139.318 160.377C140.015 161.347 140.735 162.35 141.74 163.152C141.893 163.275 142.043 163.402 142.19 163.525C142.455 163.75 142.73 163.98 143.025 164.19C143.086 164.229 143.151 164.262 143.218 164.29L143.32 164.355Z" fill="#03243B"/>
<path d="M139 165.312C138.055 165.397 138.39 166.29 138.697 166.882C139.197 167.847 140.402 170.382 141.697 170.345C144.927 170.275 151.697 163.8 152.357 162.717C153.05 161.56 154.277 159.44 153.415 158.042C153.04 157.432 152.537 157.825 152.107 158.137C151.122 158.855 150.405 159.755 149.317 160.387C148.23 161.02 146.712 161.662 145.412 161.78C144.412 161.867 143.317 161.515 142.382 161.99C141.915 162.227 142.345 162.875 142.435 163.222C142.544 163.74 142.443 164.279 142.155 164.722C141.25 166.05 140.16 165.207 139 165.312Z" fill="#03243B"/>
<path d="M141.692 170.725H141.722C145.132 170.648 152.027 164.028 152.697 162.91C153.367 161.793 154.75 159.473 153.75 157.843C153.684 157.722 153.594 157.616 153.484 157.533C153.375 157.45 153.249 157.391 153.115 157.36C152.665 157.273 152.255 157.57 151.927 157.807L151.895 157.833C151.49 158.138 151.101 158.465 150.73 158.813C150.246 159.285 149.713 159.704 149.14 160.063C147.89 160.813 146.475 161.312 145.39 161.402C145.057 161.422 144.722 161.417 144.39 161.387C143.672 161.342 142.927 161.295 142.227 161.652C141.527 162.01 141.855 162.732 141.997 163.087C142.03 163.163 142.058 163.239 142.082 163.318C142.165 163.728 142.085 164.154 141.86 164.508C141.36 165.225 140.86 165.143 140.11 165.02C139.735 164.941 139.35 164.911 138.967 164.932C138.796 164.933 138.627 164.978 138.478 165.063C138.328 165.148 138.203 165.27 138.115 165.417C137.837 165.917 138.115 166.595 138.365 167.055L138.475 167.268C139.1 168.48 140.25 170.725 141.692 170.725ZM152.942 158.1H152.962C153 158.1 153.052 158.158 153.1 158.238C153.865 159.488 152.585 161.61 152.04 162.52C151.435 163.52 144.722 169.897 141.697 169.965H141.682C140.707 169.965 139.572 167.755 139.145 166.923L139.032 166.705C138.68 166.025 138.76 165.815 138.782 165.78C138.805 165.745 138.905 165.7 139.032 165.688C139.352 165.673 139.672 165.699 139.985 165.765C140.75 165.892 141.7 166.05 142.47 164.94C142.644 164.676 142.763 164.379 142.821 164.068C142.878 163.756 142.873 163.437 142.805 163.128C142.774 163.018 142.736 162.91 142.69 162.805C142.615 162.654 142.569 162.49 142.555 162.322C143.077 162.072 143.687 162.103 144.332 162.143C144.704 162.171 145.078 162.171 145.45 162.143C146.642 162.038 148.162 161.498 149.515 160.703C150.139 160.323 150.72 159.878 151.25 159.375C151.6 159.045 151.968 158.734 152.352 158.445L152.385 158.42C152.549 158.275 152.741 158.166 152.95 158.1H152.942Z" fill="#03243B"/>
<path d="M140.708 169.013C140.808 169.013 140.983 168.918 141.415 168.688C141.685 168.543 141.99 168.378 142.105 168.335L142.64 168.135C143.498 167.834 144.338 167.484 145.155 167.085C147.115 166.059 148.951 164.812 150.628 163.368C151.335 162.78 152.988 161.195 153.078 159.16C153.079 159.11 153.061 159.061 153.027 159.024C152.992 158.987 152.945 158.965 152.895 158.963C152.87 158.962 152.845 158.966 152.822 158.974C152.799 158.983 152.778 158.996 152.759 159.013C152.741 159.03 152.727 159.05 152.716 159.073C152.706 159.096 152.701 159.12 152.7 159.145C152.615 161.028 151.053 162.523 150.385 163.078C148.73 164.504 146.917 165.736 144.983 166.75C144.179 167.141 143.353 167.485 142.51 167.78L141.973 167.98C141.833 168.033 141.53 168.195 141.235 168.353C141.078 168.438 140.875 168.548 140.765 168.603C140.74 168.601 140.714 168.604 140.69 168.612C140.666 168.62 140.644 168.633 140.625 168.65C140.583 168.681 140.555 168.727 140.547 168.778C140.538 168.83 140.55 168.882 140.58 168.925C140.62 168.98 140.65 169.013 140.708 169.013Z" fill="#66A8F7"/>
<path d="M63.6176 152.473C63.7726 152.95 61.6726 155.222 61.4676 156.355C61.2001 157.815 60.4876 159.088 60.0576 159.195C59.6926 159.288 58.7676 157.732 58.5751 157.492C58.3826 157.252 57.9801 157.057 57.9001 156.775C57.7251 156.165 58.3651 155.215 58.7226 154.712C59.4726 153.667 59.9926 151.588 60.5601 151.163C61.2101 150.675 63.4251 151.875 63.6176 152.473Z" fill="white"/>
<path d="M60.0174 159.58C60.0621 159.579 60.1065 159.573 60.1499 159.562C60.8724 159.38 61.5899 157.792 61.8399 156.422C61.9324 155.922 62.5549 155.01 63.0574 154.285C63.7874 153.23 64.1049 152.745 63.9774 152.355C63.7799 151.74 62.5749 151.065 61.7824 150.812C61.1349 150.607 60.6474 150.622 60.3324 150.86C59.9499 151.147 59.6674 151.825 59.3074 152.682C59.0722 153.315 58.7731 153.921 58.4149 154.492C57.8949 155.22 57.3274 156.147 57.5349 156.88C57.6394 157.144 57.8216 157.37 58.0574 157.527C58.1367 157.588 58.2111 157.655 58.2799 157.727C58.3174 157.777 58.3849 157.88 58.4749 158.012C59.1824 159.067 59.5999 159.58 60.0174 159.58ZM63.2499 152.555C63.0223 153.013 62.7519 153.448 62.4424 153.855C61.8449 154.722 61.2274 155.617 61.1049 156.287C60.8549 157.615 60.2899 158.565 60.0299 158.787C59.6869 158.418 59.3797 158.017 59.1124 157.59C59.0074 157.432 58.9324 157.32 58.8799 157.255C58.7803 157.139 58.6688 157.035 58.5474 156.942C58.4574 156.87 58.2974 156.732 58.2724 156.67C58.2124 156.455 58.2949 155.977 59.0424 154.932C59.4342 154.315 59.7602 153.658 60.0149 152.972C60.2649 152.375 60.5774 151.627 60.7949 151.472C60.8474 151.435 61.0599 151.395 61.4924 151.52C62.2849 151.75 63.0949 152.317 63.2499 152.555Z" fill="#03243B"/>
<path d="M58.7225 154.712C58.9725 154.402 57.7 154.332 56.86 155.352C56.02 156.372 55.7225 157.495 56.2125 158.677C56.7025 159.86 61.2125 164.905 61.2125 164.905C61.2125 164.905 62.2775 165.222 64.6425 165.175C66.3925 165.14 67.7575 165 67.7575 165C67.7575 165 68.09 164.087 67.8525 163.897C66.92 163.147 66.1875 163.32 64.025 161.762C63.525 161.402 62.6225 159.42 61.4625 156.355C61.1 155.4 60.4325 158.105 60.1325 158.045C59 157.792 58.5 154.967 58.7225 154.712Z" fill="#03243B"/>
<path d="M64.1824 165.56H64.6549C66.4049 165.522 67.7874 165.382 67.7999 165.38L68.0374 165.355L68.1174 165.132C68.3124 164.6 68.4649 163.902 68.0924 163.605C67.6984 163.307 67.263 163.068 66.7999 162.895C65.8912 162.527 65.0341 162.043 64.2499 161.455C64.0649 161.322 63.4574 160.545 61.8174 156.22C61.6799 155.857 61.4574 155.775 61.2949 155.772H61.2824C60.8349 155.772 60.5999 156.317 60.2824 157.072C60.2149 157.232 60.1224 157.447 60.0474 157.592C59.9044 157.481 59.784 157.344 59.6924 157.187C59.2986 156.486 59.0832 155.699 59.0649 154.895C59.1052 154.835 59.1308 154.765 59.1395 154.693C59.1481 154.621 59.1397 154.548 59.1149 154.48C59.0766 154.387 59.0133 154.307 58.9321 154.248C58.8509 154.19 58.7549 154.155 58.6549 154.147C58.2199 154.072 57.2674 154.27 56.5749 155.112C55.5999 156.297 55.3549 157.58 55.8724 158.822C56.3899 160.065 60.4774 164.637 60.9424 165.157L60.9999 165.25L61.1024 165.28C61.1524 165.28 62.1124 165.56 64.1824 165.56ZM67.4774 164.645C67.0099 164.687 65.9249 164.77 64.6399 164.797C63.5621 164.846 62.4823 164.769 61.4224 164.567C60.1249 163.112 56.9399 159.437 56.5624 158.532C56.1499 157.532 56.3424 156.575 57.1524 155.592C57.4398 155.231 57.8482 154.985 58.3024 154.9C58.2624 155.58 58.6174 156.65 58.6199 156.67C58.8699 157.375 59.3074 158.25 60.0549 158.42C60.4799 158.512 60.6649 158.085 60.9699 157.377C61.0374 157.222 61.1374 156.992 61.2199 156.802C62.8149 160.97 63.4349 161.802 63.7999 162.075C64.631 162.693 65.5385 163.202 66.4999 163.587C66.8768 163.727 67.2333 163.916 67.5599 164.15C67.5544 164.318 67.5267 164.484 67.4774 164.645Z" fill="#03243B"/>
<path d="M63.6749 162.918C63.7627 162.913 63.8482 162.888 63.9249 162.845C64.3153 162.721 64.6767 162.52 64.9874 162.253C64.9874 162.253 65.2624 161.973 65.2524 161.753C65.2505 161.717 65.2408 161.681 65.2239 161.649C65.2071 161.617 65.1836 161.59 65.1549 161.568C64.9824 161.44 64.7274 161.53 64.5399 161.595L64.4549 161.623C64.32 161.661 64.1873 161.707 64.0574 161.76C63.7344 161.904 63.3897 161.993 63.0374 162.023C63.0899 161.978 63.1499 161.933 63.1849 161.905L63.2649 161.84C63.3774 161.75 63.4899 161.665 63.6049 161.59C63.7949 161.445 63.9949 161.298 64.1799 161.125C64.2199 161.085 64.5724 160.745 64.3649 160.508C64.2099 160.333 63.9049 160.41 63.4649 160.595L63.3474 160.64C62.4424 160.973 62.1449 160.965 62.0499 160.938C62.1015 160.86 62.1619 160.789 62.2299 160.725C62.5122 160.439 62.8183 160.177 63.1449 159.943L63.2024 159.91C63.4749 159.755 63.6399 159.648 63.6399 159.483C63.6384 159.444 63.6276 159.407 63.6085 159.374C63.5893 159.341 63.5623 159.313 63.5299 159.293C63.4074 159.228 63.2949 159.293 63.2049 159.368L63.1574 159.4L63.0299 159.468C62.9474 159.51 62.8674 159.553 62.7799 159.588C62.3569 159.759 61.9038 159.844 61.4474 159.838C61.397 159.838 61.3487 159.858 61.3131 159.893C61.2774 159.929 61.2574 159.977 61.2574 160.028C61.2574 160.052 61.2623 160.077 61.2719 160.1C61.2815 160.123 61.2955 160.144 61.3132 160.161C61.3309 160.178 61.3519 160.192 61.3749 160.201C61.3979 160.211 61.4226 160.215 61.4474 160.215C61.7356 160.217 62.0231 160.188 62.3049 160.128C62.1949 160.225 62.0849 160.333 61.9724 160.443C61.8599 160.553 61.5149 160.898 61.7224 161.148C61.9899 161.483 62.7224 161.27 63.4899 160.99L63.5624 160.963L63.6224 160.94C63.7315 160.892 63.8434 160.85 63.9574 160.815L63.9324 160.843C63.7599 161 63.5774 161.138 63.3849 161.285C63.2699 161.373 63.1524 161.463 63.0374 161.555L62.9624 161.613C62.7699 161.76 62.5724 161.913 62.5824 162.113C62.5864 162.156 62.6007 162.198 62.6242 162.234C62.6477 162.271 62.6797 162.301 62.7174 162.323C63.0874 162.545 63.7174 162.323 64.1999 162.125C64.3399 162.073 64.4724 162.025 64.5624 162L64.6749 161.965L64.7874 161.928L64.7374 161.985C64.4661 162.213 64.1514 162.383 63.8124 162.485L63.7674 162.505H63.7474C63.7165 162.486 63.6811 162.476 63.6449 162.475C63.5945 162.475 63.5462 162.495 63.5106 162.531C63.4749 162.566 63.4549 162.615 63.4549 162.665C63.4549 162.706 63.4649 162.746 63.484 162.783C63.5032 162.819 63.531 162.85 63.5649 162.873C63.5974 162.896 63.6352 162.912 63.6749 162.918Z" fill="#66A8F7"/>
<path d="M66.595 164.833C66.6405 164.832 66.6843 164.815 66.7184 164.785C66.7524 164.754 66.7745 164.713 66.7805 164.668C66.7866 164.623 66.7762 164.577 66.7514 164.539C66.7265 164.501 66.6888 164.473 66.645 164.46C65.9898 164.302 65.3189 164.218 64.645 164.21C64.101 164.199 63.5587 164.147 63.0225 164.055C62.92 164.033 62.7925 164.018 62.6575 164.003C62.3855 163.992 62.1181 163.929 61.87 163.818C61.5538 163.561 61.273 163.263 61.035 162.933C60.92 162.788 60.8075 162.648 60.705 162.533C60.1675 161.925 59.645 161.26 59.1425 160.618C58.4592 159.712 57.7256 158.846 56.945 158.023C56.9276 158.005 56.9069 157.991 56.8841 157.981C56.8613 157.972 56.8369 157.967 56.8121 157.967C56.7874 157.967 56.7629 157.971 56.74 157.981C56.7171 157.99 56.6963 158.004 56.6788 158.021C56.6612 158.039 56.6472 158.059 56.6377 158.082C56.6281 158.105 56.6231 158.129 56.623 158.154C56.6229 158.179 56.6276 158.203 56.637 158.226C56.6463 158.249 56.6601 158.27 56.6775 158.288C57.4469 159.102 58.1706 159.958 58.845 160.853C59.345 161.498 59.875 162.168 60.4225 162.783C60.52 162.895 60.6275 163.033 60.74 163.168C60.9994 163.53 61.3082 163.854 61.6575 164.13C61.9534 164.283 62.2796 164.368 62.6125 164.38C62.7375 164.395 62.8625 164.41 62.9475 164.428C63.5024 164.526 64.0641 164.58 64.6275 164.59C65.2757 164.595 65.9214 164.672 66.5525 164.82C66.5661 164.826 66.5804 164.83 66.595 164.833Z" fill="#66A8F7"/>
<path d="M43.75 65.3025C43.9825 66.85 48.3175 66.1275 48.4525 65.0875C48.5025 64.715 48.355 62.7775 47.5125 62.7725C46 62.7625 43.75 65.3025 43.75 65.3025Z" fill="#03243B"/>
<path d="M45.575 66.575H45.6325C46.85 66.5625 48.7125 66.095 48.8375 65.1375C48.885 64.7775 48.7975 63.3875 48.25 62.7475C48.1625 62.6391 48.0522 62.5513 47.9268 62.4903C47.8015 62.4294 47.6643 62.3969 47.525 62.395C45.8875 62.395 43.7275 64.78 43.4875 65.0525L43.37 65.185L43.395 65.36C43.5 66.1325 44.3 66.575 45.575 66.575ZM47.515 63.15C47.5375 63.15 47.59 63.15 47.6775 63.245C48.0125 63.6275 48.125 64.745 48.0875 65.0375C48.0575 65.265 46.99 65.8025 45.625 65.8175C45.0375 65.8175 44.375 65.7125 44.19 65.395C44.8875 64.645 46.5 63.15 47.515 63.15Z" fill="#03243B"/>
<path d="M67 96.3725C74.925 101.542 89.3575 95.16 91.5925 91.6425C93.8275 88.125 86.5225 72.1425 78.755 77.24C70.9875 82.3375 63.09 93.8175 67 96.3725Z" fill="#03243B"/>
<path d="M74.4275 98.7C76.1871 98.6862 77.9402 98.4859 79.6575 98.1025C85.5975 96.815 90.6575 93.8525 91.925 91.8525C93.4875 89.39 90.8925 82.1025 87.1375 78.405C84.345 75.655 81.2975 75.13 78.5575 76.9325C72.01 81.235 65.5875 89.785 65.595 94.1825C65.595 95.325 66.005 96.1675 66.805 96.6825C69.12 98.2 71.8375 98.7 74.4275 98.7ZM81.88 76.6225C83.77 76.6225 85.4125 77.76 86.6075 78.9375C90.3575 82.6275 92.56 89.4375 91.285 91.4375C90.0875 93.325 85.0625 96.155 79.4975 97.3625C73.125 98.745 69.3025 97.415 67.22 96.0575C66.6375 95.6775 66.355 95.0575 66.3525 94.18C66.3525 90.06 72.715 81.68 78.975 77.5575C79.8287 76.9635 80.8402 76.638 81.88 76.6225Z" fill="#03243B"/>
<path d="M95.16 79.5451C96.755 80.0601 96.6225 82.2776 96.91 83.6851C97.0322 84.3049 97.1041 84.9336 97.125 85.5651C97.2425 88.9301 95.965 92.0326 95.31 95.3151C93.95 102.115 91.08 108.725 88.4075 115.153C79.13 137.475 65.4425 154.523 65.4425 154.523C61.625 154.055 60.1625 153.305 59.0275 151.858C58.9325 151.735 64.3575 136.888 66.15 131.873C67.745 127.405 67.5925 128.285 68.9325 123.728C71.97 113.4 74.85 103.018 77.7975 92.7001C78.6625 89.6726 79.4075 86.6401 80.5475 83.7626C80.9425 82.7776 81.3325 74.6126 82.26 73.9176C84.8725 71.9576 88.78 76.8201 91.6925 76.0926C92.81 75.8126 94.1 79.2001 95.16 79.5451Z" fill="#03243B"/>
<path d="M65.6001 154.92L65.7326 154.757C65.8676 154.585 79.5601 137.41 88.7501 115.295L89.3251 113.917C91.8251 107.93 94.4051 101.74 95.6751 95.3875C95.8801 94.37 96.1476 93.35 96.4076 92.3625C96.9851 90.1775 97.5801 87.9175 97.5001 85.5525C97.478 84.9008 97.4027 84.2519 97.2751 83.6125C97.2201 83.33 97.1801 83.0075 97.1376 82.6675C96.9701 81.33 96.7651 79.6675 95.2751 79.185C94.9301 79.0725 94.3951 78.2925 93.9651 77.665C93.2001 76.555 92.4826 75.505 91.6051 75.7225C90.4301 76.0175 88.9551 75.2225 87.5276 74.4725C85.6276 73.455 83.6601 72.4025 82.0276 73.62C81.4126 74.0825 81.0976 76.105 80.6276 80.4625C80.4751 81.865 80.3176 83.315 80.1926 83.6275C79.2776 85.915 78.6051 88.3375 77.9576 90.68C77.7801 91.32 77.6026 91.9625 77.4176 92.6025C76.4426 96.0225 75.4709 99.4475 74.5026 102.877C72.5776 109.685 70.5851 116.725 68.5551 123.627C67.6501 126.697 67.4276 127.292 66.8876 128.727C66.6251 129.43 66.2951 130.305 65.7776 131.755C65.2601 133.205 64.4726 135.38 63.5901 137.82C62.4801 140.887 61.2226 144.365 60.2601 147.07C58.5401 151.885 58.5401 151.885 58.7151 152.107C60.0051 153.752 61.6876 154.46 65.3801 154.912L65.6001 154.92ZM91.8501 76.4525C92.2251 76.4525 92.9001 77.435 93.3501 78.095C93.9226 78.9275 94.4626 79.7125 95.0526 79.905C96.0826 80.2375 96.2426 81.52 96.3951 82.7625C96.4401 83.115 96.4801 83.45 96.5426 83.7625C96.6614 84.3617 96.7316 84.9695 96.7526 85.58C96.8301 87.83 96.2751 89.94 95.6876 92.1725C95.4226 93.1725 95.1526 94.2025 94.9376 95.24C93.6876 101.52 91.1126 107.675 88.6301 113.627L88.0551 115.007C79.3876 135.862 66.7001 152.305 65.2751 154.12C61.6876 153.66 60.3976 152.927 59.4351 151.762C59.7826 150.597 62.3876 143.4 64.3151 138.07C65.1976 135.63 65.9951 133.42 66.5026 132C67.0101 130.58 67.3451 129.687 67.6101 128.985C68.1551 127.532 68.3826 126.932 69.2926 123.835C71.3251 116.927 73.3176 109.885 75.2426 103.085C76.2126 99.6566 77.1851 96.2325 78.1601 92.8125C78.3426 92.17 78.5201 91.5275 78.7001 90.885C79.3426 88.5625 80.0076 86.16 80.9076 83.9125C81.0651 83.52 81.1876 82.435 81.3926 80.5475C81.6151 78.48 82.0326 74.6325 82.4951 74.2275C83.7326 73.3 85.4026 74.195 87.1726 75.1425C88.7276 75.975 90.3326 76.835 91.7926 76.47L91.8501 76.4525Z" fill="#03243B"/>
<path d="M62.7501 148.973C62.7783 148.972 62.806 148.964 62.8298 148.949C62.8537 148.934 62.8729 148.913 62.8851 148.888C64.0276 146.603 65.1551 144.388 66.2426 142.248C73.4126 128.15 79.6026 115.975 82.4376 98.965C82.4409 98.9455 82.4403 98.9255 82.4359 98.9062C82.4314 98.8869 82.4232 98.8686 82.4117 98.8525C82.4002 98.8364 82.3857 98.8227 82.3689 98.8122C82.3521 98.8017 82.3334 98.7946 82.3139 98.7913C82.2943 98.788 82.2743 98.7886 82.255 98.793C82.2357 98.7975 82.2175 98.8057 82.2014 98.8172C82.1852 98.8286 82.1715 98.8432 82.161 98.86C82.1505 98.8768 82.1434 98.8955 82.1401 98.915C79.3126 115.88 73.1401 128.035 65.9726 142.11C64.8751 144.25 63.7501 146.468 62.6051 148.75C62.5961 148.768 62.5906 148.787 62.5891 148.807C62.5876 148.827 62.5901 148.847 62.5964 148.867C62.6026 148.886 62.6126 148.903 62.6257 148.918C62.6388 148.934 62.6547 148.946 62.6726 148.955C62.6966 148.967 62.7232 148.973 62.7501 148.973Z" fill="white"/>
<path d="M96.9999 88.095C97.0199 88.095 97.0397 88.091 97.0582 88.0833C97.0767 88.0756 97.0934 88.0642 97.1074 88.05C97.1217 88.0362 97.1331 88.0197 97.1408 88.0014C97.1486 87.9832 97.1526 87.9635 97.1526 87.9437C97.1526 87.9239 97.1486 87.9042 97.1408 87.886C97.1331 87.8677 97.1217 87.8512 97.1074 87.8375C96.8224 87.5525 96.6599 87.0725 96.5149 86.65C96.4774 86.54 96.4399 86.4324 96.4024 86.3324C96.2974 86.0549 96.1874 85.7775 96.0749 85.4999C95.7554 84.7801 95.5043 84.0318 95.3249 83.2649C95.2749 83.0149 95.2299 82.7649 95.1849 82.5149C95.1399 82.2649 95.0874 81.9874 95.0349 81.7249L94.9724 81.3649C94.8899 80.8649 94.8849 80.8449 94.7424 80.8649C94.7039 80.8698 94.6686 80.8884 94.6428 80.9174C94.6171 80.9464 94.6027 80.9837 94.6024 81.0224C94.6023 81.0442 94.6074 81.0656 94.6174 81.0849C94.6174 81.1474 94.6549 81.3025 94.6749 81.4225C94.6949 81.5425 94.7224 81.72 94.7374 81.79C94.7891 82.0516 94.8391 82.3141 94.8874 82.5774C94.9324 82.8274 94.9774 83.0774 95.0274 83.3274C95.2122 84.1125 95.4682 84.879 95.7924 85.6175C95.9049 85.8925 96.0149 86.1675 96.1174 86.44C96.1549 86.54 96.1899 86.6425 96.2274 86.7525C96.3824 87.205 96.5599 87.7199 96.8924 88.0524C96.9066 88.0663 96.9234 88.0772 96.9419 88.0845C96.9603 88.0918 96.9801 88.0953 96.9999 88.095Z" fill="white"/>
<path d="M79.415 74.655C79.695 74.6225 85.7225 82.2325 86.2375 82.8925C87.5075 84.53 88.72 86.1875 90.04 87.8025C94.1075 92.7725 98.04 97.8675 102.252 102.713C106.152 107.213 109.49 112.055 113.115 116.765C117.115 121.968 136.015 150.25 138.09 153.708C138.39 154.208 140 156.923 139.87 157.458C139.72 158.058 138.807 158.498 138.395 158.808C136.442 160.275 134.395 161.753 132.445 163.225C131.542 163.895 122.055 153.75 119.75 151.25C115.945 147.155 112.365 142.898 108.702 138.67C102.48 131.49 91.075 117.513 82.2875 106.338C76.1025 98.4825 71.22 92 70.3425 90.25C69.8275 89.22 66.64 84.2025 67.2525 82.975C67.905 81.6725 69.1775 79.5475 70.365 78.9525C73.8675 77.21 75.5375 75.0875 79.415 74.655Z" fill="#03243B"/>
<path d="M132.337 163.655C132.461 163.653 132.58 163.605 132.67 163.52C133.647 162.788 134.642 162.053 135.637 161.32C136.632 160.588 137.637 159.84 138.622 159.103C138.71 159.038 138.822 158.965 138.945 158.888C139.445 158.56 140.082 158.153 140.235 157.543C140.28 157.37 140.41 156.845 138.415 153.513C136.452 150.243 117.415 121.748 113.415 116.535C112.25 115.033 111.112 113.5 110 112C107.64 108.823 105.197 105.538 102.532 102.463C99.7174 99.2126 96.9699 95.7951 94.3149 92.4901C93.0124 90.8701 91.6674 89.1951 90.3299 87.5601C89.4749 86.515 88.6499 85.4301 87.8524 84.3826C87.4149 83.8076 86.9749 83.2301 86.5299 82.6576C86.3099 82.3751 84.6924 80.3276 83.0299 78.2726C79.7549 74.2326 79.6399 74.2475 79.3724 74.2725C76.6974 74.5725 74.9974 75.6725 73.1974 76.84C72.2326 77.4901 71.2309 78.0836 70.1974 78.6176C68.7299 79.3501 67.3124 82.01 66.9149 82.81C66.4274 83.785 67.5274 86.0751 69.4649 89.4551C69.7149 89.8901 69.9099 90.2326 70.0049 90.4201C71.0949 92.6026 77.9774 101.475 81.9824 106.568C90.9299 117.948 102.29 131.855 108.41 138.915C109.257 139.893 110.101 140.873 110.942 141.853C113.692 145.048 116.535 148.353 119.465 151.505C120.915 153.07 123.742 156.083 126.355 158.688C130.57 162.893 131.817 163.655 132.337 163.655ZM79.3149 75.0476C80.1374 75.8201 84.9799 81.8951 85.9374 83.1251C86.3824 83.6951 86.8174 84.2701 87.2549 84.8426C88.0549 85.8976 88.8849 86.9876 89.7549 88.0426C91.0899 89.6726 92.4349 91.3475 93.7374 92.965C96.3974 96.2775 99.1499 99.7026 101.972 102.965C104.62 106.015 107.052 109.29 109.405 112.465C110.515 113.965 111.655 115.503 112.822 117.01C116.822 122.21 135.822 150.65 137.772 153.915C138.925 155.838 139.522 157.12 139.505 157.393C139.43 157.69 138.915 158.023 138.54 158.265C138.402 158.353 138.275 158.435 138.177 158.515C137.197 159.25 136.197 159.99 135.195 160.728C134.192 161.465 133.25 162.165 132.292 162.883C131.53 162.69 127.9 159.498 120.027 151.013C117.107 147.87 114.277 144.57 111.527 141.38C110.682 140.403 109.84 139.42 108.992 138.443C102.88 131.39 91.5274 117.495 82.5874 106.123C75.7024 97.3726 71.4774 91.6776 70.6924 90.1051C70.5874 89.8976 70.3874 89.5451 70.1324 89.1051C69.4049 87.8376 67.1974 83.9826 67.6024 83.1726C68.3349 81.7076 69.5449 79.8201 70.5449 79.3201C71.6052 78.7736 72.6328 78.1659 73.6224 77.5001C75.3749 76.3376 76.9024 75.3476 79.3149 75.0476Z" fill="#03243B"/>
<path d="M95.3526 94.5325C95.3871 94.5333 95.4208 94.5218 95.4476 94.5C95.4632 94.4876 95.4761 94.4722 95.4857 94.4548C95.4952 94.4374 95.5012 94.4182 95.5033 94.3984C95.5054 94.3787 95.5035 94.3587 95.4978 94.3396C95.4921 94.3206 95.4827 94.3028 95.4701 94.2875L94.1301 92.62C92.8326 91.005 91.4901 89.335 90.1576 87.705C89.3001 86.6575 88.4751 85.5725 87.6776 84.5225C87.2401 83.9475 86.8026 83.3725 86.3576 82.8C86.3325 82.7689 86.2964 82.7487 86.2569 82.7436C86.2173 82.7385 86.1772 82.7488 86.1451 82.7725C86.1292 82.7845 86.1158 82.7996 86.1058 82.8168C86.0958 82.8341 86.0893 82.8532 86.0867 82.8729C86.0841 82.8927 86.0856 82.9128 86.0909 82.9321C86.0962 82.9513 86.1053 82.9693 86.1176 82.985C86.5626 83.5575 86.9976 84.1325 87.4351 84.705C88.2351 85.7575 89.0626 86.845 89.9351 87.8975C91.2651 89.525 92.6076 91.195 93.9051 92.81L95.2451 94.4775C95.2585 94.4933 95.2749 94.5062 95.2934 94.5157C95.3118 94.5251 95.3319 94.5308 95.3526 94.5325Z" fill="white"/>
<path d="M133.365 160.915C133.396 160.914 133.426 160.905 133.452 160.888C133.485 160.864 133.506 160.828 133.513 160.788C133.519 160.749 133.51 160.708 133.487 160.675C130.057 155.873 126.18 151.283 122.427 146.843C119.58 143.473 116.635 139.985 113.91 136.433C110.032 131.383 106.275 126.11 102.642 121.01C100.317 117.76 97.9149 114.375 95.5024 111.093L94.5974 109.86C91.4524 105.58 88.2024 101.155 84.9474 96.86C84.5299 96.3075 81.4474 92.825 81.3174 92.6775C81.2896 92.6526 81.2536 92.6386 81.2163 92.6384C81.1789 92.6382 81.1428 92.6517 81.1147 92.6764C81.0867 92.7011 81.0686 92.7352 81.0641 92.7722C81.0595 92.8093 81.0687 92.8468 81.0899 92.8776C81.1224 92.9151 84.2949 96.5001 84.7049 97.0426C87.9549 101.343 91.2049 105.765 94.3524 110.043L95.2499 111.273C97.6624 114.555 100.065 117.925 102.387 121.188C106.022 126.288 109.78 131.563 113.662 136.618C116.392 140.175 119.34 143.665 122.19 147.038C125.94 151.473 129.81 156.06 133.232 160.853C133.248 160.873 133.268 160.889 133.291 160.9C133.314 160.911 133.339 160.916 133.365 160.915Z" fill="white"/>
<path d="M76.295 93.7824C76.5675 93.7824 76.8075 93.3099 77.28 91.8324C77.315 91.7199 77.3425 91.6374 77.3575 91.5974C78.08 89.6699 78.2825 87.7524 78.495 85.7249C78.5275 85.4199 78.56 85.1174 78.595 84.8124C78.6691 84.1959 78.71 83.5759 78.7175 82.9549V81.3924C78.7203 81.371 78.7184 81.3491 78.7121 81.3284C78.7058 81.3077 78.6951 81.2885 78.6808 81.2723C78.6665 81.256 78.6488 81.2429 78.6291 81.234C78.6093 81.2251 78.5879 81.2205 78.5663 81.2205C78.5446 81.2205 78.5232 81.2251 78.5034 81.234C78.4837 81.2429 78.466 81.256 78.4517 81.2723C78.4374 81.2885 78.4267 81.3077 78.4204 81.3284C78.4141 81.3491 78.4122 81.371 78.415 81.3924V82.9549C78.4073 83.5642 78.3665 84.1726 78.2925 84.7774C78.2608 85.0841 78.2283 85.3891 78.195 85.6924C77.9825 87.6924 77.7825 89.5999 77.0725 91.4924C77.0575 91.5349 77.03 91.6224 76.9925 91.7424C76.843 92.2462 76.661 92.7398 76.4475 93.2199C76.4873 92.612 76.5853 92.0092 76.74 91.4199C76.8456 90.9819 76.9291 90.5389 76.99 90.0924C77.3 87.6199 77.3 85.2749 77.3 82.7899V82.6499C77.3 82.6095 77.2839 82.5707 77.2553 82.5421C77.2267 82.5135 77.1879 82.4974 77.1475 82.4974C77.1071 82.4974 77.0683 82.5135 77.0397 82.5421C77.0111 82.5707 76.995 82.6095 76.995 82.6499V82.7899C76.995 85.2649 76.995 87.5999 76.69 90.0549C76.635 90.4824 76.535 90.9249 76.44 91.3524C76.267 91.9976 76.1664 92.66 76.14 93.3274C76.1356 93.3571 76.1289 93.3863 76.12 93.4149C76.0992 93.4624 76.0899 93.5141 76.0929 93.5658C76.096 93.6175 76.1113 93.6678 76.1375 93.7124C76.1561 93.736 76.1802 93.7547 76.2076 93.7669C76.235 93.7791 76.265 93.7844 76.295 93.7824Z" fill="white"/>
<path d="M145.128 163.322H145.18C145.43 163.297 145.465 162.94 145.483 162.727C145.5 162.546 145.5 162.364 145.483 162.182C145.602 162.353 145.732 162.516 145.873 162.67C145.968 162.795 146.153 163.037 146.358 162.92C146.635 162.752 146.593 162.26 146.41 161.42L146.523 161.598C146.66 161.813 146.8 162.035 146.95 162.242C147.07 162.407 147.2 162.57 147.375 162.587C147.414 162.592 147.454 162.587 147.492 162.575C147.529 162.562 147.564 162.542 147.593 162.515C147.938 162.2 147.718 161.62 147.523 161.107C147.468 160.96 147.405 160.8 147.368 160.66C147.545 160.833 147.698 161.029 147.823 161.242C147.883 161.489 147.924 161.74 147.945 161.992V162.04C147.948 162.065 147.955 162.089 147.967 162.111C147.979 162.133 147.995 162.152 148.015 162.167C148.034 162.183 148.057 162.194 148.081 162.2C148.105 162.207 148.13 162.208 148.155 162.205C148.205 162.199 148.25 162.173 148.281 162.134C148.312 162.095 148.326 162.045 148.32 161.995V161.947C148.304 161.653 148.251 161.361 148.16 161.08C148.014 160.829 147.835 160.6 147.628 160.398L147.5 160.25C147.451 160.199 147.39 160.161 147.322 160.139C147.254 160.117 147.182 160.112 147.113 160.125C147.071 160.137 147.033 160.16 147.004 160.192C146.974 160.225 146.955 160.265 146.948 160.307C146.948 160.63 147.022 160.948 147.165 161.238C147.293 161.573 147.445 161.987 147.375 162.167C147.333 162.123 147.295 162.075 147.26 162.025C147.108 161.817 146.97 161.6 146.838 161.39C146.745 161.245 146.653 161.1 146.56 160.96L146.518 160.89C146.378 160.64 146.268 160.485 146.125 160.477C146.096 160.478 146.068 160.484 146.042 160.496C146.016 160.507 145.992 160.524 145.973 160.545C145.918 160.607 145.883 160.647 145.973 161.227C145.973 161.275 145.998 161.352 146.018 161.452C146.103 161.78 146.153 162.115 146.168 162.452L146.14 162.417C145.818 162.06 145.549 161.659 145.34 161.225L145.325 161.197C145.308 161.01 145.28 160.865 145.143 160.81C145.1 160.793 145.054 160.79 145.01 160.799C144.965 160.808 144.925 160.83 144.893 160.863C144.778 160.968 144.828 161.087 144.948 161.307C144.951 161.375 144.959 161.443 144.97 161.51L144.983 161.577C145.073 161.931 145.108 162.296 145.085 162.66V162.695C145.08 162.773 145.07 162.851 145.055 162.928C144.89 162.835 144.753 162.38 144.665 162.095C144.621 161.875 144.536 161.666 144.415 161.477C144.38 161.449 144.336 161.434 144.291 161.435C144.245 161.436 144.202 161.453 144.168 161.483C144.134 161.513 144.113 161.554 144.106 161.599C144.1 161.644 144.111 161.689 144.135 161.727C144.214 161.877 144.274 162.036 144.313 162.2C144.475 162.705 144.663 163.322 145.128 163.322Z" fill="#66A8F7"/>
<path d="M83.3725 50.4525C83.1225 51.4825 81.4625 52.3275 80.56 52.9275C80.2875 53.11 79.4275 53.6525 79.4275 54.01C79.4275 54.53 82.6775 58.4925 83.9125 59.735C88.005 63.825 90.9125 67.86 94.3025 72.605C99.0525 79.26 97.605 84.895 97.145 85.395C97.145 85.395 97.0975 84.75 96.445 83.61C94.075 79.77 83.7675 79.085 76.445 83.1825C69.1225 87.28 65.25 94.3825 67 96.3725C67 96.3725 62.6525 93.795 58.67 82.1925C54.39 69.7175 47.3125 65.0175 47.3125 65.0175C47.3125 65.0175 46.25 62 43.75 65.3025C43.1301 60.975 43.0351 52.4725 47.9601 47.0525C52.8851 41.6325 58.6051 44.37 63.8951 44.37C65.3951 44.37 65.9901 43.355 66.8951 42.3075C67.7551 41.3075 69.5225 40.1775 70.8125 39.935C74.9501 39.16 79.7425 44.185 81.59 47.515C82.085 48.4 83.6225 49.44 83.3725 50.4525Z" fill="#66A8F7"/>
<path d="M67.0001 96.75C67.0732 96.7504 67.1449 96.7295 67.2063 96.6899C67.2678 96.6503 67.3165 96.5937 67.3464 96.527C67.3763 96.4603 67.3862 96.3863 67.3749 96.314C67.3636 96.2418 67.3315 96.1744 67.2826 96.12C66.9751 95.7725 66.8826 95.1825 67.0126 94.4125C67.5126 91.4525 71.0501 86.625 76.6176 83.51C83.8676 79.45 93.9126 80.2475 96.1176 83.805C96.4322 84.3001 96.6518 84.8495 96.7651 85.425C96.7713 85.4982 96.7987 85.5679 96.8439 85.6257C96.8892 85.6835 96.9503 85.7269 97.0198 85.7505C97.0893 85.7741 97.1642 85.7769 97.2353 85.7587C97.3064 85.7404 97.3706 85.7017 97.4201 85.6475C98.0551 84.9575 99.3751 79.075 94.6051 72.385C90.8801 67.1525 88.1401 63.4275 84.1751 59.465C82.9251 58.215 80.0751 54.69 79.8101 54.01C79.8651 53.915 80.0601 53.71 80.7026 53.2825L80.7651 53.24L81.2876 52.9075C82.2676 52.2975 83.4876 51.54 83.7351 50.54C83.9476 49.6775 83.2351 48.8975 82.6226 48.2075C82.3594 47.9385 82.1241 47.6437 81.9201 47.3275C79.9201 43.725 74.9801 38.765 70.7401 39.5575C69.2726 39.8325 67.4501 41.0575 66.6051 42.0575C66.4751 42.2075 66.3551 42.3575 66.2351 42.5025C65.5301 43.365 65.0201 44.0025 63.9001 44.0025C62.5676 43.9707 61.2384 43.8564 59.9201 43.66C55.7876 43.135 51.5126 42.5925 47.6851 46.8075C45.4626 49.2525 44.0251 52.5275 43.4076 56.5425C42.9771 59.4686 42.9678 62.4413 43.3801 65.37C43.3904 65.4443 43.4226 65.5139 43.4726 65.5698C43.5226 65.6257 43.5881 65.6655 43.6608 65.684C43.7335 65.7025 43.8101 65.6989 43.8808 65.6737C43.9514 65.6485 44.013 65.6028 44.0576 65.5425C44.8076 64.56 45.4701 64.0825 45.9951 64.16C46.5201 64.2375 46.8726 64.91 46.9626 65.16C46.9909 65.2364 47.0425 65.302 47.1101 65.3475C47.1801 65.3925 54.1376 70.135 58.3201 82.3275C60.3926 88.3675 62.5701 91.94 64.0351 93.875C65.6451 96.005 66.7676 96.6825 66.8151 96.7125C66.8726 96.7405 66.9362 96.7534 67.0001 96.75ZM87.4051 80.02C83.5083 80.0161 79.6729 80.99 76.2501 82.8525C70.4776 86.0825 66.7976 91.155 66.2676 94.2875C66.2147 94.592 66.1937 94.9012 66.2051 95.21C64.7051 93.7425 61.7776 90.0725 59.0326 82.07C54.9801 70.2625 48.5326 65.41 47.6226 64.77C47.4776 64.4375 47.0051 63.5375 46.1076 63.4C45.4501 63.2975 44.7476 63.635 44.0151 64.4C42.8126 54.1925 46.9226 48.7525 48.2401 47.3C51.8051 43.38 55.6976 43.8725 59.8201 44.3975C61.1699 44.597 62.5309 44.7122 63.8951 44.7425C65.3726 44.7425 66.0726 43.8875 66.8151 42.9925C66.9326 42.85 67.0501 42.705 67.1751 42.56C68.0351 41.56 69.7301 40.53 70.8751 40.31C73.0601 39.9 75.3101 41.265 76.8151 42.485C78.5933 43.9432 80.0955 45.7087 81.2501 47.6975C81.4804 48.0652 81.7494 48.4072 82.0526 48.7175C82.5526 49.265 83.1101 49.8875 82.9926 50.36C82.8176 51.0625 81.6976 51.76 80.8801 52.2675C80.6851 52.39 80.5001 52.5175 80.3376 52.6125L80.2776 52.6525C79.5126 53.1525 79.0276 53.5625 79.0276 54.01C79.0276 54.8275 82.8601 59.2375 83.6226 60.01C87.5676 63.925 90.2901 67.625 94.0001 72.825C97.6326 77.9225 97.5376 82.31 97.1701 84.19C97.0676 83.9625 96.9401 83.7075 96.7776 83.4225C95.4526 81.2825 91.7501 80.0225 87.4176 80.0225L87.4051 80.02Z" fill="#03243B"/>
<path d="M65.8601 42.5C66.3505 42.9901 66.805 43.5148 67.2201 44.07C68.3401 45.6075 68.8726 48.4 66.2701 48.82C64.6376 49.0925 62.4401 47.78 61.4226 46.6075C60.7292 45.8295 60.257 44.8799 60.0551 43.8575C59.9651 43.47 59.1601 41.9425 59.5051 41.6325C60.5351 40.7075 63.1101 41.8825 64.3526 42.0025C64.8726 42.045 65.4751 42.095 65.8601 42.5Z" fill="white"/>
<path d="M65.8099 49.25C65.9849 49.2506 66.1596 49.2372 66.3324 49.21C67.5824 49 68.1074 48.31 68.3324 47.7675C68.8324 46.5175 68.2724 44.8675 67.5299 43.85C67.1051 43.2797 66.6397 42.7408 66.1374 42.2375C65.6674 41.755 64.9874 41.6875 64.4424 41.635H64.3949C63.9572 41.5688 63.5245 41.4728 63.0999 41.3475C61.7124 40.9825 60.1374 40.57 59.2574 41.3625C58.8424 41.735 59.0999 42.475 59.5074 43.48C59.5755 43.6343 59.6355 43.792 59.6874 43.9525C59.902 45.0388 60.4036 46.0479 61.1399 46.875C62.0274 47.885 64.0324 49.25 65.8099 49.25ZM60.6624 41.66C61.4261 41.7097 62.1813 41.849 62.9124 42.075C63.3752 42.2115 63.8473 42.3143 64.3249 42.3825H64.3724C64.8399 42.43 65.3224 42.4775 65.5999 42.76C66.0767 43.2369 66.5187 43.7473 66.9224 44.2875C67.5649 45.17 68.0174 46.5375 67.6374 47.4725C67.4199 48.005 66.9424 48.335 66.2199 48.455C64.6849 48.705 62.6199 47.4075 61.7199 46.3675C61.067 45.6318 60.6225 44.7351 60.4324 43.77C60.3747 43.5685 60.3029 43.3713 60.2174 43.18C60.0849 42.86 59.7849 42.125 59.8074 41.88C60.0591 41.7106 60.3596 41.6289 60.6624 41.6475V41.66Z" fill="#03243B"/>
<path d="M64.8825 45.53C65.2626 45.5446 65.6413 45.4763 65.9924 45.33C66.3886 45.1028 66.6988 44.7513 66.8749 44.33C66.888 44.2949 66.8877 44.2562 66.8741 44.2214C66.8605 44.1865 66.8346 44.1579 66.8012 44.1409C66.7679 44.1239 66.7295 44.1198 66.6933 44.1293C66.6571 44.1388 66.6256 44.1613 66.6049 44.1925C66.4547 44.5522 66.1914 44.8531 65.8549 45.05C65.1499 45.3825 63.45 45.2775 61.38 44.26C61.3623 44.251 61.3429 44.2456 61.3231 44.2441C61.3033 44.2426 61.2834 44.2451 61.2646 44.2514C61.2458 44.2577 61.2283 44.2676 61.2134 44.2807C61.1984 44.2938 61.1862 44.3096 61.1775 44.3275C61.1685 44.3455 61.1632 44.3651 61.1619 44.3852C61.1606 44.4053 61.1632 44.4255 61.1697 44.4446C61.1762 44.4636 61.1865 44.4812 61.1998 44.4963C61.2131 44.5114 61.2293 44.5237 61.2474 44.5325C62.6974 45.25 63.9625 45.53 64.8825 45.53Z" fill="#DD7A64"/>
<path d="M94.3024 72.985C94.3719 72.9851 94.4401 72.966 94.4994 72.9299C94.5588 72.8938 94.607 72.842 94.6388 72.7802C94.6706 72.7184 94.6847 72.6491 94.6796 72.5798C94.6745 72.5105 94.6504 72.4439 94.6099 72.3875C90.8849 67.1549 88.1449 63.4299 84.1799 59.4674C82.9474 58.2324 80.1499 54.5349 79.7599 53.8274L79.6999 53.72C79.2224 52.86 77.9499 50.5725 77.5124 47.8925C77.5044 47.8432 77.4867 47.796 77.4605 47.7536C77.4342 47.7112 77.3998 47.6744 77.3593 47.6452C77.3188 47.6161 77.2729 47.5952 77.2244 47.5838C77.1758 47.5724 77.1254 47.5707 77.0762 47.5787C77.0269 47.5867 76.9798 47.6044 76.9373 47.6307C76.8949 47.657 76.8581 47.6913 76.829 47.7318C76.7998 47.7724 76.779 47.8182 76.7675 47.8668C76.7561 47.9154 76.7544 47.9657 76.7624 48.0149C77.2274 50.8249 78.5399 53.195 79.0349 54.0875L79.0924 54.1924C79.5549 55.0274 82.4174 58.775 83.6424 60.0025C87.5674 63.925 90.2899 67.625 93.9999 72.825C94.0339 72.8739 94.0791 72.9139 94.1317 72.9417C94.1844 72.9696 94.2429 72.9844 94.3024 72.985Z" fill="#03243B"/>
<path d="M43.7499 65.6825C43.8183 65.6826 43.8854 65.6641 43.944 65.6288C44.0026 65.5936 44.0505 65.543 44.0824 65.4825C44.2549 65.165 44.8949 64.5775 45.2574 64.2825C45.7078 63.9047 46.2138 63.5986 46.7574 63.375C48.9249 62.6075 51.8924 63.1425 52.4299 63.6C52.4883 63.6504 52.5608 63.6818 52.6375 63.6898C52.7143 63.6978 52.7917 63.6821 52.8592 63.6448C52.9268 63.6074 52.9813 63.5503 53.0154 63.4811C53.0495 63.4118 53.0615 63.3338 53.0499 63.2575C52.726 60.8224 52.6423 58.3614 52.7999 55.91C52.7996 55.8153 52.7637 55.7242 52.6994 55.6547C52.635 55.5852 52.5469 55.5424 52.4525 55.5349C52.3581 55.5273 52.2643 55.5555 52.1897 55.6139C52.1152 55.6723 52.0653 55.7565 52.0499 55.85C51.9021 58.1187 51.9573 60.3961 52.2149 62.655C50.8874 62.18 48.3749 62 46.5099 62.655C45.8744 62.9052 45.2834 63.2564 44.7599 63.695C44.6599 63.775 43.7049 64.5625 43.4049 65.115C43.3812 65.1586 43.3663 65.2065 43.3611 65.2559C43.356 65.3053 43.3606 65.3553 43.3748 65.4029C43.3889 65.4505 43.4124 65.4948 43.4437 65.5334C43.475 65.5719 43.5137 65.6039 43.5574 65.6275C43.6151 65.6636 43.6818 65.6827 43.7499 65.6825Z" fill="#03243B"/>
<path d="M73.575 65.8225L107.25 71.12C107.644 71.182 108.047 71.1517 108.427 71.0315C108.807 70.9113 109.154 70.7046 109.44 70.4275L111.145 68.78L116.793 18.695C116.816 18.5489 116.81 18.3997 116.775 18.2559C116.741 18.112 116.678 17.9764 116.591 17.8568C116.504 17.7372 116.394 17.636 116.268 17.5589C116.141 17.4818 116.001 17.4304 115.855 17.4075L82.0325 12.085C81.7385 12.039 81.4382 12.1117 81.1977 12.287C80.9572 12.4623 80.7962 12.726 80.75 13.02L72.6425 64.535C72.5964 64.8293 72.6686 65.1299 72.8433 65.3711C73.018 65.6123 73.2811 65.7746 73.575 65.8225Z" fill="#03243B"/>
<path d="M74.2775 64.6925L107.048 69.85C107.755 69.96 108.476 69.7848 109.054 69.3629C109.632 68.941 110.019 68.307 110.13 67.6L117.69 19.565C117.743 19.225 117.208 16.48 116.868 16.4275L84 11.25L81.75 13.2725L73.75 63.9825C73.7376 64.0638 73.7415 64.1468 73.7613 64.2266C73.7812 64.3064 73.8167 64.3815 73.8657 64.4475C73.9148 64.5135 73.9764 64.5691 74.0471 64.6112C74.1178 64.6533 74.1961 64.6809 74.2775 64.6925Z" fill="white"/>
<path d="M107.47 69.92C108.12 69.916 108.748 69.6817 109.242 69.2589C109.736 68.836 110.064 68.2518 110.168 67.61L117.728 19.57C117.698 18.9991 117.609 18.4327 117.463 17.88C117.31 17.22 117.085 16.4225 116.875 16.38L83.9825 11.2125L83.97 11.225L81.705 13.25L73.7225 63.975C73.6973 64.1468 73.7405 64.3217 73.8429 64.462C73.9453 64.6023 74.0987 64.6967 74.27 64.725L107.04 69.8875C107.182 69.9094 107.326 69.9203 107.47 69.92ZM84 11.295L116.863 16.465C116.958 16.48 117.15 16.865 117.39 17.8975C117.531 18.4412 117.619 18.9971 117.653 19.5575L110.093 67.6C109.982 68.2961 109.6 68.9198 109.03 69.3346C108.46 69.7493 107.749 69.9212 107.053 69.8125L74.2825 64.655C74.1299 64.6304 73.9932 64.5464 73.9023 64.4213C73.8114 64.2963 73.7738 64.1403 73.7975 63.9875L81.775 13.2975L84 11.295Z" fill="white"/>
<path d="M84.7194 10.1356L118.543 15.4565C119.157 15.5531 119.577 16.1289 119.48 16.7427L111.376 68.2591C111.279 68.8729 110.703 69.2922 110.09 69.1956L76.2657 63.8747C75.6519 63.7782 75.2326 63.2024 75.3291 62.5886L83.4333 11.0721C83.5298 10.4584 84.1056 10.0391 84.7194 10.1356Z" fill="#66A8F7"/>
<path d="M110.25 69.5799C110.609 69.5806 110.955 69.4529 111.228 69.2199C111.5 68.9869 111.68 68.6641 111.735 68.3099L119.843 16.8099C119.874 16.6149 119.866 16.4155 119.82 16.2234C119.775 16.0312 119.691 15.85 119.575 15.6902C119.459 15.5304 119.312 15.3951 119.144 15.2921C118.975 15.1891 118.788 15.1204 118.593 15.0899L84.7801 9.74994C84.585 9.71861 84.3857 9.72612 84.1935 9.77204C84.0014 9.81797 83.8202 9.9014 83.6604 10.0175C83.5005 10.1337 83.3652 10.2803 83.2622 10.4489C83.1592 10.6175 83.0905 10.8047 83.0601 10.9999L74.9526 62.5149C74.9213 62.71 74.9288 62.9093 74.9747 63.1015C75.0206 63.2937 75.104 63.4749 75.2202 63.6347C75.3363 63.7945 75.4829 63.9298 75.6515 64.0328C75.8201 64.1358 76.0074 64.2045 76.2026 64.2349L110.025 69.5624C110.1 69.5739 110.175 69.5798 110.25 69.5799ZM84.5451 10.4999C84.5842 10.4963 84.6235 10.4963 84.6626 10.4999L118.485 15.8249C118.68 15.8569 118.855 15.9647 118.971 16.1248C119.087 16.2849 119.135 16.4845 119.105 16.6799L111 68.1924C110.969 68.3876 110.862 68.5625 110.702 68.6791C110.542 68.7956 110.343 68.8445 110.148 68.8149L76.3226 63.4999L76.2626 63.8749L76.3226 63.4999C76.1274 63.4686 75.9525 63.3614 75.836 63.2017C75.7194 63.0421 75.6706 62.8429 75.7001 62.6474L83.8076 11.1224C83.8376 10.9485 83.928 10.7907 84.0629 10.6768C84.1978 10.5629 84.3686 10.5003 84.5451 10.4999Z" fill="#03243B"/>
<path d="M109.647 68.25C109.738 68.2503 109.825 68.2182 109.893 68.1594C109.962 68.1006 110.007 68.0192 110.02 67.93L118.097 16.62C118.113 16.5205 118.088 16.4189 118.029 16.3376C117.97 16.2562 117.881 16.2018 117.781 16.1862C117.682 16.1706 117.58 16.1952 117.499 16.2545C117.418 16.3138 117.363 16.403 117.347 16.5025L109.27 67.82C109.255 67.919 109.279 68.0201 109.338 68.1011C109.397 68.1821 109.486 68.2365 109.585 68.2525C109.606 68.2543 109.627 68.2534 109.647 68.25Z" fill="#66A8F7"/>
<path d="M112.592 20.525C112.687 20.5247 112.778 20.4888 112.848 20.4245C112.917 20.3601 112.96 20.272 112.968 20.1776C112.975 20.0833 112.947 19.9895 112.889 19.9149C112.83 19.8403 112.746 19.7904 112.652 19.775L90.52 16.2925C90.4205 16.277 90.3189 16.3015 90.2376 16.3608C90.1563 16.4201 90.1018 16.5093 90.0862 16.6088C90.0706 16.7082 90.0952 16.8098 90.1545 16.8912C90.2138 16.9725 90.303 17.027 90.4025 17.0425L112.535 20.5275L112.592 20.525Z" fill="#66A8F7"/>
<path d="M112.053 25.195C112.146 25.1904 112.234 25.1514 112.3 25.0854C112.367 25.0195 112.406 24.9313 112.411 24.838C112.416 24.7447 112.386 24.6528 112.327 24.5802C112.269 24.5076 112.185 24.4594 112.093 24.445L99.8876 23.1375C99.8371 23.1298 99.7857 23.1324 99.7364 23.1452C99.687 23.158 99.6407 23.1806 99.6004 23.2117C99.56 23.2429 99.5263 23.2819 99.5014 23.3264C99.4765 23.3709 99.4609 23.4199 99.4555 23.4706C99.4501 23.5213 99.455 23.5726 99.47 23.6214C99.4849 23.6701 99.5096 23.7153 99.5425 23.7543C99.5754 23.7932 99.6158 23.8251 99.6614 23.848C99.7069 23.8709 99.7567 23.8843 99.8076 23.8875L112 25.1925L112.053 25.195Z" fill="#66A8F7"/>
<path d="M76.8199 56.015L107.337 71.1875C107.694 71.3657 108.087 71.4585 108.486 71.4585C108.885 71.4585 109.278 71.3657 109.635 71.1875L111.75 70.1275L132.202 24.0575C132.333 23.7919 132.354 23.4856 132.26 23.2048C132.167 22.924 131.966 22.6914 131.702 22.5575L101.045 7.30746C100.779 7.17674 100.473 7.15591 100.192 7.2495C99.9115 7.3431 99.6789 7.54356 99.5449 7.80746L76.3124 54.5C76.246 54.6327 76.2064 54.7773 76.1959 54.9253C76.1855 55.0734 76.2044 55.2221 76.2515 55.3629C76.2987 55.5036 76.3732 55.6337 76.4707 55.7456C76.5682 55.8575 76.6869 55.949 76.8199 56.015Z" fill="#03243B"/>
<path d="M77.8275 55.1475L107.532 69.9175C108.173 70.2356 108.914 70.2863 109.592 70.0584C110.269 69.8306 110.829 69.3429 111.147 68.7025L132.797 25.155C132.95 24.85 133.262 22.07 132.955 21.905L103.157 7.10254L100.407 8.35254L77.555 54.315C77.5179 54.3875 77.4956 54.4667 77.4893 54.5478C77.483 54.629 77.4927 54.7106 77.5181 54.788C77.5434 54.8653 77.5838 54.9369 77.6369 54.9986C77.69 55.0604 77.7547 55.111 77.8275 55.1475Z" fill="white"/>
<path d="M108.727 70.2351C109.237 70.2359 109.736 70.0946 110.17 69.8269C110.603 69.5592 110.953 69.1759 111.18 68.7201L132.832 25.1726C132.977 24.8801 133.312 22.0526 132.972 21.8826L103.16 7.06006L100.372 8.32756L77.5225 54.2901C77.4839 54.3675 77.461 54.4518 77.4551 54.5381C77.4492 54.6244 77.4604 54.7111 77.488 54.7931C77.5157 54.875 77.5592 54.9508 77.6162 55.0159C77.6731 55.081 77.7424 55.1343 77.82 55.1726L107.515 69.9501C107.891 70.1382 108.307 70.2358 108.727 70.2351ZM103.157 7.14506L132.94 21.9501C133.025 21.9926 133.095 22.4176 133.012 23.4751C132.983 24.0369 132.9 24.5945 132.762 25.1401L111.112 68.6851C110.798 69.3158 110.247 69.7962 109.579 70.0207C108.911 70.2452 108.181 70.1955 107.55 69.8826L77.845 55.1151C77.7067 55.0458 77.6014 54.9246 77.5522 54.778C77.503 54.6313 77.5139 54.4712 77.5825 54.3326L100.427 8.38506L103.157 7.14506Z" fill="white"/>
<path d="M104.19 6.23542L134.849 21.4811C135.405 21.7578 135.632 22.4331 135.355 22.9894L112.135 69.6846C111.858 70.2409 111.183 70.4676 110.627 70.191L79.9682 54.9452C79.4118 54.6686 79.1851 53.9933 79.4618 53.437L102.682 6.74183C102.959 6.1855 103.634 5.95877 104.19 6.23542Z" fill="#66A8F7"/>
<path d="M111.128 70.695C111.408 70.6963 111.683 70.6189 111.922 70.4718C112.16 70.3246 112.353 70.1136 112.478 69.8625L135.693 23.1675C135.781 22.9907 135.834 22.7981 135.848 22.6008C135.862 22.4034 135.836 22.2053 135.774 22.0178C135.711 21.8303 135.611 21.6571 135.481 21.5082C135.351 21.3592 135.192 21.2375 135.015 21.15L104.358 5.90002C104.181 5.81137 103.988 5.75858 103.791 5.74468C103.593 5.73077 103.395 5.75603 103.208 5.819C103.02 5.88197 102.847 5.98141 102.698 6.11159C102.549 6.24176 102.427 6.40011 102.34 6.57752L79.125 53.28C79.0368 53.4567 78.9843 53.6491 78.9706 53.8462C78.9569 54.0432 78.9822 54.241 79.0452 54.4283C79.1081 54.6155 79.2074 54.7884 79.3374 54.9372C79.4674 55.0859 79.6254 55.2075 79.8025 55.295L110.46 70.545C110.668 70.6463 110.896 70.6976 111.128 70.695ZM103.688 6.50002C103.803 6.49994 103.917 6.52646 104.02 6.57752L134.678 21.8275C134.854 21.9161 134.989 22.0709 135.052 22.2581C135.115 22.4454 135.102 22.65 135.015 22.8275L111.8 69.525C111.711 69.7012 111.556 69.8353 111.369 69.898C111.182 69.9607 110.977 69.947 110.8 69.86L80.1425 54.61C79.9648 54.5222 79.8291 54.3676 79.765 54.18C79.7026 53.9922 79.717 53.7873 79.805 53.61L103.018 6.92252C103.061 6.83428 103.122 6.75552 103.196 6.69075C103.27 6.62598 103.357 6.57646 103.45 6.54502C103.526 6.51765 103.606 6.50246 103.688 6.50002Z" fill="#03243B"/>
<path d="M110.605 69.1975C110.676 69.1978 110.745 69.1783 110.805 69.1412C110.865 69.1041 110.914 69.0508 110.945 68.9875L134.07 22.4725C134.092 22.428 134.105 22.3796 134.109 22.33C134.112 22.2804 134.106 22.2307 134.09 22.1835C134.074 22.1364 134.049 22.0929 134.017 22.0554C133.984 22.0179 133.944 21.9872 133.9 21.965C133.855 21.9428 133.807 21.9297 133.757 21.9262C133.708 21.9228 133.658 21.9291 133.611 21.9449C133.564 21.9607 133.52 21.9856 133.483 22.0182C133.445 22.0508 133.415 22.0905 133.392 22.135L110.267 68.6525C110.224 68.7414 110.218 68.8438 110.249 68.9375C110.281 69.0311 110.349 69.1084 110.437 69.1525C110.489 69.1809 110.546 69.1964 110.605 69.1975Z" fill="#66A8F7"/>
<path d="M127.75 24.5575C127.821 24.5578 127.89 24.5383 127.95 24.5012C128.01 24.4641 128.059 24.4108 128.09 24.3475C128.131 24.2583 128.137 24.1566 128.105 24.0635C128.073 23.9704 128.007 23.893 127.92 23.8475L107.857 13.875C107.768 13.8303 107.664 13.823 107.569 13.8549C107.473 13.8868 107.395 13.9552 107.35 14.045C107.305 14.1349 107.298 14.2388 107.33 14.334C107.362 14.4292 107.43 14.5078 107.52 14.5525L127.582 24.5275C127.635 24.5497 127.693 24.56 127.75 24.5575Z" fill="#66A8F7"/>
<path d="M125.84 28.85C125.928 28.8512 126.013 28.8219 126.081 28.7672C126.149 28.7126 126.197 28.6358 126.215 28.5502C126.233 28.4646 126.22 28.3754 126.18 28.2978C126.139 28.2202 126.073 28.1591 125.993 28.125L114.743 23.2075C114.652 23.1757 114.553 23.1794 114.465 23.2177C114.377 23.2561 114.307 23.3264 114.268 23.4144C114.23 23.5024 114.226 23.6016 114.258 23.6922C114.29 23.7827 114.355 23.8579 114.44 23.9025L125.69 28.8175C125.737 28.8386 125.788 28.8497 125.84 28.85Z" fill="#66A8F7"/>
<path d="M74.2699 28.13L70.6249 66.985L73.8424 69.675L133.532 72C133.874 72.0383 134.216 71.9411 134.486 71.7292C134.757 71.5174 134.933 71.208 134.977 70.8675L138.5 33.25C138.51 33.0819 138.487 32.9135 138.431 32.7545C138.375 32.5956 138.288 32.4494 138.175 32.3244C138.062 32.1994 137.926 32.0981 137.773 32.0266C137.621 31.955 137.456 31.9145 137.287 31.9075L75.7149 27C75.3741 26.9617 75.0318 27.0586 74.7616 27.2699C74.4914 27.4812 74.3149 27.79 74.2699 28.13Z" fill="#03243B"/>
<path d="M75.6624 28.8124L72.2499 65.2499C72.0975 66.8849 70.6224 68.1049 72.3824 68.2499L129.807 72.8174C130.212 72.8499 133.415 72.0449 133.45 71.6674L136.872 35.1099L136.997 33.7699C137.004 33.6663 136.989 33.5624 136.954 33.4645C136.92 33.3666 136.866 33.2766 136.796 33.1997C136.726 33.1229 136.642 33.0608 136.547 33.017C136.453 32.9733 136.351 32.9488 136.247 32.9449L76.4574 28.1949C76.2706 28.1743 76.0831 28.2272 75.9347 28.3425C75.7863 28.4577 75.6886 28.6263 75.6624 28.8124Z" fill="white"/>
<path d="M74.0276 30.7125L70.5001 68.33C70.49 68.4982 70.5135 68.6666 70.5692 68.8255C70.6249 68.9845 70.7118 69.1307 70.8247 69.2557C70.9375 69.3807 71.0742 69.4819 71.2267 69.5535C71.3791 69.6251 71.5443 69.6655 71.7126 69.6725L133.29 74.57C133.631 74.6077 133.974 74.5103 134.245 74.2987C134.515 74.087 134.692 73.778 134.738 73.4375L138.265 35.82C138.275 35.6519 138.25 35.4835 138.194 35.3247C138.138 35.1659 138.051 35.0198 137.938 34.895C137.825 34.7701 137.688 34.6689 137.536 34.5972C137.384 34.5256 137.218 34.4849 137.05 34.4775L75.4726 29.58C75.1316 29.5431 74.7897 29.6408 74.5197 29.8524C74.2498 30.064 74.0732 30.3726 74.0276 30.7125Z" fill="#03243B"/>
<path d="M133.405 74.9525C133.822 74.9618 134.228 74.8157 134.543 74.5427C134.859 74.2697 135.062 73.8891 135.113 73.475L138.64 35.855C138.659 35.6486 138.637 35.4405 138.574 35.2429C138.512 35.0454 138.41 34.8625 138.275 34.705C138.125 34.5306 137.943 34.3874 137.738 34.2836C137.533 34.1798 137.309 34.1174 137.08 34.1L75.5 29.2025C75.0598 29.1579 74.6196 29.2872 74.2735 29.5628C73.9274 29.8384 73.7027 30.2385 73.6475 30.6775L70.12 68.295C70.1017 68.5013 70.1246 68.7092 70.1873 68.9066C70.2499 69.104 70.3511 69.287 70.485 69.445C70.6347 69.6194 70.8173 69.7625 71.0224 69.8663C71.2274 69.9701 71.4509 70.0325 71.68 70.05L133.25 74.9475L133.405 74.9525ZM75.3575 29.9525H75.4425L137.02 34.855C137.281 34.8744 137.525 34.9956 137.698 35.1925C137.767 35.2735 137.82 35.3677 137.852 35.4695C137.885 35.5713 137.897 35.6785 137.888 35.785L134.36 73.4025C134.324 73.6438 134.195 73.8616 134.001 74.0092C133.807 74.1568 133.562 74.2225 133.32 74.1925L71.75 69.295C71.6208 69.2861 71.4946 69.2517 71.3787 69.1938C71.2629 69.1359 71.1597 69.0555 71.075 68.9575C71.0054 68.8764 70.9527 68.7822 70.9201 68.6805C70.8874 68.5787 70.8755 68.4714 70.885 68.365L74.405 30.75C74.4365 30.5228 74.5516 30.3154 74.7277 30.1684C74.9038 30.0214 75.1283 29.9453 75.3575 29.955V29.9525Z" fill="#03243B"/>
<path d="M133.355 73C133.448 72.9936 133.535 72.9532 133.6 72.8865C133.665 72.8198 133.703 72.7314 133.706 72.6384C133.71 72.5454 133.679 72.4543 133.62 72.3826C133.561 72.3109 133.477 72.2637 133.385 72.25L72.0425 67.3725C71.9928 67.368 71.9427 67.3735 71.8952 67.3887C71.8477 67.4038 71.8037 67.4283 71.7657 67.4606C71.7278 67.493 71.6967 67.5326 71.6742 67.5771C71.6518 67.6217 71.6384 67.6702 71.6349 67.72C71.6273 67.82 71.6596 67.919 71.7247 67.9953C71.7898 68.0717 71.8825 68.1192 71.9824 68.1275L133.325 73H133.355Z" fill="#66A8F7"/>
<path d="M118.638 66.84C118.729 66.8368 118.816 66.8006 118.883 66.7381C118.949 66.6756 118.991 66.591 119 66.5L120.5 50.71C120.508 50.6591 120.506 50.6071 120.493 50.5571C120.481 50.5071 120.458 50.4602 120.426 50.4194C120.395 50.3786 120.355 50.3446 120.31 50.3197C120.265 50.2947 120.215 50.2793 120.164 50.2743C120.112 50.2694 120.061 50.275 120.011 50.2908C119.962 50.3067 119.917 50.3324 119.878 50.3664C119.84 50.4005 119.808 50.4421 119.786 50.4887C119.764 50.5353 119.752 50.586 119.75 50.6375L118.25 66.425C118.245 66.4745 118.25 66.5243 118.265 66.5718C118.279 66.6193 118.303 66.6635 118.335 66.7018C118.366 66.7402 118.405 66.7719 118.449 66.7952C118.493 66.8184 118.541 66.8328 118.59 66.8375L118.638 66.84Z" fill="#66A8F7"/>
<path d="M128.698 67.64C128.792 67.6398 128.883 67.6042 128.952 67.5404C129.022 67.4765 129.064 67.389 129.073 67.295L131.38 42.68C131.385 42.6305 131.38 42.5803 131.366 42.5327C131.351 42.485 131.327 42.4408 131.295 42.4025C131.232 42.3269 131.143 42.2785 131.045 42.2675L127.2 41.9625C127.101 41.9549 127.003 41.9866 126.927 42.0507C126.852 42.1148 126.804 42.2062 126.795 42.305L124.485 66.92C124.477 67.0204 124.508 67.1201 124.573 67.1975C124.635 67.2732 124.725 67.3216 124.823 67.3325L128.665 67.6375L128.698 67.64ZM130.593 43L128.355 66.86L125.265 66.61L127.5 42.75L130.593 43Z" fill="#66A8F7"/>
<path d="M50.8649 54.195L71.3849 88.6275C71.6113 89.0076 71.9229 89.3299 72.2951 89.5689C72.6674 89.808 73.0901 89.9573 73.5299 90.005L76.1424 90.2925L120.945 60.75C121.229 60.5801 121.434 60.3043 121.515 59.9832C121.596 59.6621 121.547 59.322 121.377 59.0375L100.77 24.455C100.6 24.1704 100.325 23.9646 100.004 23.8831C99.6826 23.8015 99.3422 23.8508 99.0574 24.02L51.3074 52.48C51.1655 52.5633 51.0415 52.6739 50.9424 52.8052C50.8433 52.9366 50.7711 53.0863 50.73 53.2456C50.6889 53.4049 50.6797 53.5708 50.7028 53.7338C50.726 53.8967 50.7811 54.0534 50.8649 54.195Z" fill="#03243B"/>
<path d="M104.347 25.3631L124.953 59.9441C125.307 60.5372 125.112 61.3044 124.519 61.6578L76.7628 90.1152C76.1697 90.4686 75.4025 90.2743 75.0491 89.6813L54.4428 55.1003C54.0894 54.5072 54.2837 53.74 54.8768 53.3866L102.633 24.9292C103.227 24.5758 103.994 24.7701 104.347 25.3631Z" fill="white"/>
<path d="M76.1249 90.6725C76.4173 90.6726 76.7043 90.5931 76.9549 90.4425L124.705 61.9825C125.075 61.7615 125.343 61.4025 125.449 60.9844C125.555 60.5662 125.49 60.1231 125.27 59.7525L104.662 25.1675C104.441 24.7968 104.082 24.5292 103.663 24.4232C103.244 24.3173 102.801 24.3818 102.43 24.6025L54.6799 53.0625C54.31 53.2839 54.0428 53.6428 53.9369 54.0608C53.831 54.4787 53.895 54.9216 54.1149 55.2925L74.7249 89.8775C74.8338 90.0623 74.9783 90.2237 75.1499 90.3525C75.3215 90.4812 75.517 90.5746 75.7249 90.6275C75.856 90.6583 75.9903 90.6734 76.1249 90.6725ZM103.27 25.13C103.421 25.1298 103.57 25.1689 103.701 25.2434C103.833 25.3179 103.942 25.4252 104.02 25.555L124.627 60.14C124.745 60.3382 124.78 60.5752 124.723 60.7988C124.666 61.0225 124.523 61.2144 124.325 61.3325L76.5749 89.7925C76.4766 89.8509 76.3676 89.8894 76.2544 89.9057C76.1411 89.922 76.0258 89.9158 75.9149 89.8875C75.8036 89.862 75.6986 89.8147 75.6058 89.7482C75.5131 89.6816 75.4346 89.5972 75.3749 89.5L54.7674 54.915C54.6492 54.717 54.6144 54.4802 54.6706 54.2566C54.7269 54.033 54.8696 53.8409 55.0674 53.7225L102.825 25.25C102.96 25.1711 103.114 25.1297 103.27 25.13Z" fill="#03243B"/>
<path d="M52.3275 54L72.3274 87.57C72.7353 88.25 73.3959 88.7409 74.1646 88.9353C74.9334 89.1297 75.7478 89.0118 76.43 88.6075L120.837 62.135C121.165 61.94 123.127 59.535 122.932 59.21L102.87 25.5425L99.5425 25.0425L52.5675 53.0425C52.4878 53.0886 52.4181 53.1502 52.3627 53.2237C52.3073 53.2972 52.2672 53.3811 52.2448 53.4704C52.2224 53.5597 52.2182 53.6526 52.2324 53.7436C52.2466 53.8346 52.2789 53.9217 52.3275 54Z" fill="white"/>
<path d="M115.667 44.3625L104.345 25.3625C104.175 25.0778 103.9 24.8721 103.579 24.7906C103.258 24.709 102.917 24.7582 102.632 24.9275L54.8825 53.3875C74.195 41.875 95.25 24.9475 115.667 44.3625Z" fill="#DCE2EA"/>
<path d="M77.485 87.79C77.5527 87.7898 77.6191 87.7717 77.6775 87.7376L122.362 61.1075C122.405 61.0821 122.442 61.0485 122.472 61.0087C122.502 60.9688 122.523 60.9235 122.536 60.8753C122.548 60.8272 122.55 60.7771 122.543 60.7279C122.536 60.6787 122.519 60.6315 122.494 60.5888C122.468 60.5461 122.435 60.5089 122.395 60.4792C122.355 60.4495 122.31 60.4279 122.262 60.4157C122.213 60.4035 122.163 60.401 122.114 60.4081C122.065 60.4153 122.018 60.4321 121.975 60.4575L77.29 87.085C77.2192 87.128 77.1643 87.1928 77.1337 87.2698C77.1032 87.3467 77.0986 87.4315 77.1207 87.5114C77.1427 87.5912 77.1903 87.6616 77.256 87.7119C77.3218 87.7622 77.4022 87.7896 77.485 87.79Z" fill="#66A8F7"/>
<path d="M74.315 76.9576C74.3835 76.9573 74.4507 76.9392 74.51 76.9051C74.5528 76.8796 74.5902 76.8459 74.6199 76.8059C74.6497 76.7659 74.6712 76.7205 74.6833 76.6721C74.6954 76.6238 74.6978 76.5735 74.6904 76.5243C74.6829 76.475 74.6658 76.4277 74.64 76.3851L65.1125 60.3851C65.0871 60.3424 65.0535 60.3051 65.0136 60.2754C64.9738 60.2457 64.9285 60.2242 64.8803 60.212C64.8321 60.1998 64.782 60.1972 64.7329 60.2044C64.6837 60.2116 64.6364 60.2284 64.5938 60.2538C64.5511 60.2793 64.5138 60.3129 64.4841 60.3527C64.4544 60.3925 64.4329 60.4378 64.4207 60.486C64.4085 60.5342 64.4059 60.5843 64.4131 60.6334C64.4203 60.6826 64.4371 60.7299 64.4625 60.7726L74 76.7726C74.0327 76.8274 74.0788 76.8731 74.1338 76.9054C74.1889 76.9377 74.2512 76.9557 74.315 76.9576Z" fill="#66A8F7"/>
<path d="M79.56 77.0899C79.6278 77.0903 79.6943 77.0721 79.7525 77.0374L82.855 75.1899C82.9415 75.1385 83.0039 75.0548 83.0288 74.9573C83.0536 74.8598 83.0388 74.7565 82.9875 74.6699L70.25 53.3149C70.1977 53.2296 70.1144 53.1677 70.0175 53.1424C69.9692 53.1299 69.9189 53.1272 69.8695 53.1345C69.8201 53.1418 69.7727 53.159 69.73 53.1849L66.6275 55.0324C66.5847 55.0579 66.5473 55.0916 66.5176 55.1316C66.4879 55.1716 66.4663 55.217 66.4542 55.2654C66.4422 55.3137 66.4398 55.364 66.4472 55.4132C66.4546 55.4625 66.4717 55.5098 66.4975 55.5524L79.2225 76.9049C79.255 76.9622 79.3023 77.0097 79.3595 77.0422C79.4168 77.0748 79.4817 77.0913 79.5475 77.0899H79.56ZM82.1425 74.7324L79.69 76.1924L67.3525 55.4999L69.805 54.0374L82.1425 74.7324Z" fill="#66A8F7"/>
<path d="M93.7676 64.28C96.4444 64.2806 99.0207 63.2607 100.972 61.4282C102.923 59.5956 104.102 57.0882 104.269 54.4167C104.436 51.7451 103.579 49.1103 101.871 47.049C100.164 44.9876 97.7343 43.6547 95.0783 43.3217C92.4223 42.9888 89.7393 43.6808 87.5757 45.2569C85.4121 46.8329 83.9307 49.1745 83.4331 51.8046C82.9356 54.4347 83.4593 57.1556 84.8977 59.4131C86.3361 61.6706 88.581 63.2948 91.1751 63.955C92.0225 64.1703 92.8933 64.2795 93.7676 64.28ZM93.7326 44.0525C94.5437 44.0531 95.3516 44.1547 96.1376 44.355C98.3197 44.9081 100.242 46.2006 101.578 48.0124C102.914 49.8242 103.581 52.0431 103.464 54.2912C103.347 56.5392 102.455 58.6772 100.938 60.341C99.4221 62.0047 97.3759 63.0912 95.1483 63.4154C92.9207 63.7395 90.6496 63.2813 88.722 62.1187C86.7944 60.9562 85.3295 59.1612 84.5769 57.0396C83.8244 54.9181 83.8307 52.6013 84.5948 50.4839C85.359 48.3665 86.8337 46.5795 88.7676 45.4275C90.2678 44.5286 91.9837 44.0534 93.7326 44.0525Z" fill="#66A8F7"/>
<path d="M76.1249 90.6725C76.4173 90.6726 76.7043 90.5931 76.9549 90.4425L124.705 61.9825C125.075 61.7615 125.343 61.4025 125.449 60.9844C125.555 60.5662 125.49 60.1231 125.27 59.7525L104.662 25.1675C104.441 24.7968 104.082 24.5292 103.663 24.4232C103.244 24.3173 102.801 24.3818 102.43 24.6025L54.6799 53.0625C54.31 53.2839 54.0428 53.6428 53.9369 54.0608C53.831 54.4787 53.895 54.9216 54.1149 55.2925L74.7249 89.8775C74.8338 90.0623 74.9783 90.2237 75.1499 90.3525C75.3215 90.4812 75.517 90.5746 75.7249 90.6275C75.856 90.6583 75.9903 90.6734 76.1249 90.6725ZM103.27 25.13C103.421 25.1298 103.57 25.1689 103.701 25.2434C103.833 25.3179 103.942 25.4252 104.02 25.555L124.627 60.14C124.745 60.3382 124.78 60.5752 124.723 60.7988C124.666 61.0225 124.523 61.2144 124.325 61.3325L76.5749 89.7925C76.4766 89.8509 76.3676 89.8894 76.2544 89.9057C76.1411 89.922 76.0258 89.9158 75.9149 89.8875C75.8036 89.862 75.6986 89.8147 75.6058 89.7482C75.5131 89.6816 75.4346 89.5972 75.3749 89.5L54.7674 54.915C54.6492 54.717 54.6144 54.4802 54.6706 54.2566C54.7269 54.033 54.8696 53.8409 55.0674 53.7225L102.825 25.25C102.96 25.1711 103.114 25.1297 103.27 25.13Z" fill="#03243B"/>
<path d="M60.015 31.39C61.1625 31.115 62.44 31.64 63.3975 32.2225C64.24 32.7375 65.8375 33.08 66.28 34.8825C66.99 37.7725 67.67 37.3625 67.9175 38.8825C68.0725 39.82 67.445 44.285 65.9175 44.9175C64.39 45.55 62.7375 45.4175 59.6275 42.94C58.4131 41.9666 57.3565 40.8113 56.495 39.515C55.745 38.3875 55.495 36.265 55.9275 34.94C56.245 33.985 57.22 33.2225 57.9925 32.645C58.765 32.0675 59.065 31.6175 60.015 31.39Z" fill="white"/>
<path d="M64.3974 45.6175C64.9668 45.612 65.5294 45.493 66.0524 45.2675C67.9024 44.5175 68.4399 39.71 68.3024 38.82C68.2245 38.2827 68.0159 37.7728 67.6949 37.335C67.4024 36.8925 67.0374 36.335 66.6574 34.7925C66.2649 33.195 65.0624 32.6175 64.1824 32.1975C63.9674 32.095 63.7649 31.9975 63.6049 31.9C62.6649 31.3225 61.2624 30.7025 59.9374 31.0225C59.3139 31.1739 58.7413 31.4869 58.2774 31.93C58.1199 32.06 57.9599 32.195 57.7649 32.34C56.8399 33.035 55.9074 33.7975 55.5674 34.8225C55.0849 36.2675 55.3674 38.5125 56.1799 39.725C57.0653 41.0491 58.1488 42.2296 59.3924 43.225C61.6124 45 63.1374 45.6175 64.3974 45.6175ZM60.6724 31.6925C61.6424 31.6925 62.6399 32.1925 63.1999 32.545C63.3949 32.6625 63.6124 32.7675 63.8449 32.88C64.6699 33.275 65.5949 33.7225 65.9124 34.9725C66.3249 36.6475 66.7299 37.26 67.0524 37.7525C67.3182 38.0998 67.4904 38.5096 67.5524 38.9425C67.7124 39.9125 67.0174 44.055 65.7699 44.5675C64.3899 45.135 62.8574 45.025 59.8624 42.645C58.6784 41.6946 57.6472 40.5682 56.8049 39.305C56.1299 38.305 55.8799 36.2725 56.2824 35.055C56.5549 34.24 57.3874 33.555 58.2149 32.9425C58.4249 32.785 58.6024 32.6375 58.7574 32.5075C59.1332 32.1413 59.6002 31.8823 60.1099 31.7575C60.2942 31.714 60.483 31.6922 60.6724 31.6925Z" fill="#03243B"/>
<path d="M58.5175 35.865C58.7425 35.5125 58.5425 35.7975 59.3425 35.9875C59.7537 36.0721 60.1761 36.0881 60.5925 36.035C62.485 35.835 64.425 34.935 65.5625 33.2675C67.3125 30.7 67.3525 27.4875 65.3125 25.1875C64.6125 24.3975 63.6375 23.4625 62.6225 23.2125C62.3466 23.1465 62.0656 23.1038 61.7825 23.085C61.6603 23.0737 61.5373 23.0737 61.415 23.085C61.3225 23.375 62.0375 24.1025 61.8125 24.46C61.725 24.595 60.85 24.095 60.8125 24.3475C60.7475 24.685 61.395 25.6725 61.0625 26.015C61.0175 26.06 60.3425 25.66 60.2825 25.625C59.7275 25.29 58.7675 24.7125 58.1725 25.2525C57.0611 26.2802 56.3195 27.6457 56.0625 29.1375C55.9917 29.7339 55.9658 30.3347 55.985 30.935C55.985 30.9875 56.03 31.435 55.97 31.47C55.805 31.5875 54.1325 31.1425 53.1575 32.57C52.2975 33.82 52.6075 35.875 53.125 37.32C53.875 39.37 55.6125 41.1375 57.255 42.4025C57.8925 42.9025 59.675 43.0775 59.73 42.985C59.785 42.8925 57.93 40.9175 57.85 39.985C57.7625 38.965 58.8025 39.14 59.2725 39.5975C59.37 39.69 59.5925 39.925 59.655 39.695C59.835 39.0275 59.2475 38.555 58.905 38.075C58.295 37.225 57.9775 36.7075 58.5175 35.865Z" fill="#03243B"/>
<path d="M59.5725 43.3801C59.6336 43.3809 59.6946 43.3767 59.755 43.3676C59.8141 43.3593 59.8706 43.3382 59.9207 43.3058C59.9708 43.2734 60.0132 43.2305 60.045 43.1801C60.215 42.9151 60.0775 42.7426 59.5675 42.0976C59.11 41.5226 58.2625 40.4501 58.22 39.9526C58.22 39.8726 58.22 39.6776 58.2975 39.6351C58.4251 39.6144 58.5557 39.6247 58.6784 39.6652C58.8011 39.7057 58.9123 39.7751 59.0025 39.8676C59.1425 40.0051 59.3775 40.2351 59.675 40.1551C59.7576 40.1294 59.8321 40.0827 59.8913 40.0196C59.9504 39.9565 59.9922 39.8791 60.0125 39.7951C60.205 39.0801 59.7775 38.5626 59.435 38.1451C59.355 38.0476 59.275 37.9526 59.2075 37.8551C58.615 37.0226 58.4725 36.7101 58.765 36.1876C58.9252 36.261 59.0929 36.3172 59.265 36.3551C59.7139 36.4477 60.1749 36.4671 60.63 36.4126C62.85 36.1776 64.7625 35.1076 65.88 33.4801C67.8075 30.6551 67.7 27.3026 65.6075 24.9376C64.555 23.7476 63.6075 23.0651 62.7225 22.8451C62.4253 22.773 62.1226 22.7262 61.8175 22.7051C61.4725 22.6826 61.1475 22.6576 61.0675 22.9851C60.9825 23.2476 61.1325 23.5276 61.2925 23.8251C61.3175 23.8676 61.3475 23.9251 61.3775 23.9851C61.2668 23.9318 61.146 23.9028 61.0232 23.8998C60.9003 23.8967 60.7782 23.9198 60.665 23.9676C60.6085 24.0004 60.5598 24.0452 60.5223 24.0987C60.4847 24.1522 60.4592 24.2132 60.4475 24.2776C60.4342 24.5606 60.4918 24.8424 60.615 25.0976C60.6475 25.1826 60.695 25.3126 60.7325 25.4376L60.4975 25.3026C59.8825 24.9301 58.7475 24.2401 57.935 24.9726C56.7582 26.0587 55.974 27.5039 55.705 29.0826C55.6365 29.6331 55.6097 30.188 55.625 30.7426V30.9351C55.6232 30.9659 55.6232 30.9967 55.625 31.0276C55.625 31.0576 55.625 31.0851 55.625 31.1126C55.0175 31.1126 53.7025 31.1126 52.8525 32.3626C51.6925 34.0576 52.5 36.6826 52.775 37.4476C53.595 39.7126 55.5425 41.5551 57.025 42.6976C57.6125 43.1576 59 43.3801 59.5725 43.3801ZM58.415 38.8551C58.2623 38.854 58.1113 38.8864 57.9725 38.9501C57.7575 39.0526 57.4075 39.3251 57.4725 40.0176C57.5375 40.7101 58.2225 41.6051 58.9725 42.5676C58.45 42.4876 57.775 42.3176 57.4725 42.0976C56.0625 41.0126 54.2225 39.2801 53.4725 37.1851C52.9725 35.7876 52.7025 33.8951 53.4725 32.7851C54.115 31.8451 55.115 31.8601 55.655 31.8701C55.8384 31.9006 56.0267 31.8689 56.19 31.7801C56.4125 31.6226 56.3925 31.3376 56.37 30.9801V30.7301C56.3568 30.2139 56.3819 29.6975 56.445 29.1851C56.6867 27.7761 57.3903 26.4876 58.445 25.5226C58.8325 25.1701 59.66 25.6701 60.105 25.9401C60.855 26.4051 61.125 26.5026 61.355 26.2676C61.7125 25.8876 61.5 25.3001 61.33 24.8276C61.32 24.8026 61.31 24.7751 61.3 24.7451C61.61 24.8476 61.96 24.9551 62.15 24.6526C62.4 24.2676 62.15 23.8276 61.97 23.4701C62.1655 23.4895 62.3593 23.5229 62.55 23.5701C63.275 23.7501 64.115 24.3751 65.05 25.4301C66.905 27.5251 66.99 30.5151 65.265 33.0451C64.295 34.4676 62.5375 35.4401 60.5675 35.6501C60.1977 35.6956 59.8231 35.6821 59.4575 35.6101C59.2866 35.5761 59.1237 35.5099 58.9775 35.4151C58.9251 35.373 58.8643 35.3426 58.7992 35.3258C58.7342 35.309 58.6663 35.3062 58.6 35.3176C58.5203 35.3405 58.4466 35.3806 58.384 35.435C58.3214 35.4894 58.2714 35.5568 58.2375 35.6326L58.545 35.8551L58.225 35.6526C57.5275 36.7451 58.0575 37.4926 58.6175 38.2851C58.695 38.3951 58.785 38.5051 58.8675 38.6176C58.9897 38.757 59.1009 38.9058 59.2 39.0626C58.9606 38.9269 58.6902 38.8555 58.415 38.8551Z" fill="#03243B"/>
<path d="M58.1401 34.81C58.1558 34.8126 58.1719 34.8126 58.1876 34.81C58.2255 34.7974 58.2569 34.7704 58.2752 34.7349C58.2934 34.6994 58.297 34.6581 58.2851 34.62C57.9917 33.8548 57.5633 33.1486 57.0201 32.535C56.8851 32.3675 56.7526 32.2 56.6201 32.035C56.6083 32.0186 56.5934 32.0046 56.5762 31.994C56.559 31.9833 56.5398 31.9762 56.5199 31.9729C56.4999 31.9697 56.4795 31.9704 56.4598 31.9751C56.4401 31.9797 56.4215 31.9882 56.4051 32C56.3887 32.0118 56.3748 32.0267 56.3641 32.0439C56.3535 32.0611 56.3463 32.0803 56.3431 32.1002C56.3398 32.1202 56.3405 32.1406 56.3452 32.1603C56.3498 32.18 56.3583 32.1986 56.3701 32.215C56.5026 32.3925 56.6401 32.565 56.7751 32.735C57.2751 33.3525 57.7276 33.9375 57.9901 34.735C58.0048 34.761 58.0269 34.782 58.0537 34.7954C58.0804 34.8088 58.1105 34.8138 58.1401 34.81Z" fill="white"/>
<path d="M99.335 79.7175C103.408 79.7175 106.53 77.0575 108.525 75.0575C109.464 74.0205 110.521 73.0975 111.675 72.3075C112.243 71.91 112.615 71.6475 112.425 71.2175C112.363 71.0872 112.263 70.979 112.138 70.9075C112.013 70.836 111.869 70.8046 111.725 70.8175C111.421 70.8379 111.12 70.8967 110.83 70.9925C110.618 71.0606 110.401 71.1107 110.18 71.1425C110.222 71.0434 110.268 70.9466 110.32 70.8525L110.348 70.795C110.45 70.59 110.558 70.385 110.665 70.18C110.921 69.715 111.151 69.2359 111.353 68.745C111.768 67.695 111.588 67.1825 111.445 66.9725C111.396 66.8974 111.329 66.8354 111.251 66.7918C111.173 66.7483 111.085 66.7245 110.995 66.7225C110.923 66.7223 110.851 66.7387 110.786 66.7703C110.721 66.802 110.665 66.848 110.62 66.905C110.414 67.211 110.233 67.5329 110.078 67.8675C110.065 67.895 110.05 67.92 110.035 67.9475C110.228 67.055 110.285 66.56 109.975 66.3075C109.893 66.2387 109.79 66.2007 109.683 66.2C109.255 66.2 109.1 66.6775 108.843 67.47C108.811 67.575 108.776 67.6825 108.738 67.7925C108.763 67.2575 108.7 66.71 108.368 66.5425C108.29 66.5024 108.205 66.481 108.118 66.48C107.645 66.48 107.46 67.015 107.24 67.835C107.234 67.7192 107.186 67.6095 107.105 67.5266C107.024 67.4437 106.916 67.3934 106.8 67.385H106.75C106.278 67.385 106.103 67.9175 105.683 69.2C105.16 70.7875 104.373 73.185 102.958 74.285C101.543 75.385 98.2725 77.4325 97.43 77.93L97.18 78.08L97.265 78.365C97.35 78.645 97.5275 79.3225 97.53 79.33L97.5925 79.58L97.8425 79.62C98.3386 79.6993 98.8401 79.7394 99.3425 79.74L99.335 79.7175Z" fill="white"/>
<path d="M109.675 66.5701C109.465 66.5701 109.247 67.4976 108.977 68.2251C108.477 69.5451 108.112 69.4926 108.055 69.5176C108.088 69.2857 108.139 69.0567 108.207 68.8326C108.302 68.5826 108.49 67.0201 108.195 66.8726C108.169 66.8581 108.14 66.8504 108.11 66.8501C107.955 66.8501 107.812 67.1151 107.582 67.9801C107.17 69.5426 106.635 70.0476 106.632 70.0501H106.592C106.207 70.0501 106.815 68.3001 106.842 67.9426C106.842 67.9126 106.895 67.7626 106.755 67.7501C106.205 67.7501 105.545 72.7501 103.195 74.5701C101.782 75.6676 98.5175 77.7151 97.6275 78.2401C97.715 78.5301 97.895 79.2176 97.895 79.2176C98.3735 79.2954 98.8576 79.3347 99.3425 79.3351C103.45 79.3351 106.54 76.5151 108.265 74.7851C110.69 72.1476 112.242 71.7176 112.082 71.3676C112.049 71.3048 111.997 71.2539 111.933 71.2217C111.87 71.1895 111.798 71.1776 111.727 71.1876C111.287 71.1876 110.575 71.5151 110.125 71.5151C110.057 71.5234 109.988 71.5136 109.926 71.4869C109.863 71.4601 109.808 71.4172 109.767 71.3626C109.677 71.2251 109.957 70.7276 110.017 70.6126C110.347 69.9501 110.735 69.2951 111.017 68.5951C111.442 67.5176 111.182 67.0801 111.017 67.0801C111.002 67.0804 110.988 67.0842 110.974 67.0912C110.961 67.0981 110.949 67.108 110.94 67.1201C110.615 67.5301 109.847 69.4076 109.53 69.4076C109.52 69.4098 109.51 69.4098 109.5 69.4076C109.205 69.2726 110.1 66.8626 109.75 66.5876C109.734 66.5744 109.713 66.5673 109.692 66.5676L109.675 66.5701ZM109.692 65.8176C109.887 65.8172 110.075 65.8844 110.225 66.0076C110.377 66.1281 110.486 66.2948 110.535 66.4826C110.674 66.3885 110.837 66.3381 111.005 66.3376C111.153 66.3414 111.298 66.3809 111.428 66.4527C111.558 66.5245 111.668 66.6265 111.75 66.7501C111.977 67.0826 112.152 67.7201 111.697 68.8751C111.491 69.3789 111.255 69.8706 110.992 70.3476L110.872 70.5776C111.146 70.4904 111.43 70.4408 111.717 70.4301C111.934 70.4168 112.15 70.4692 112.336 70.5802C112.522 70.6912 112.671 70.8558 112.762 71.0526C113.087 71.7676 112.452 72.2151 111.89 72.6076C110.761 73.3789 109.727 74.281 108.81 75.2951V75.3076C106.767 77.3551 103.56 80.0776 99.3525 80.0776C98.8275 80.0782 98.3032 80.0364 97.785 79.9526L97.2975 79.8751L97.1725 79.3976C97.1725 79.3976 96.995 78.7201 96.9225 78.4451L96.7525 77.8776L97.2525 77.5776C98.0625 77.1001 101.355 75.0376 102.74 73.9601C104.065 72.9301 104.83 70.5976 105.337 69.0551C105.79 67.6726 106.017 66.9801 106.765 66.9801H106.835C106.921 66.9871 107.005 67.0065 107.085 67.0376C107.28 66.5076 107.565 66.0726 108.127 66.0726C108.274 66.0732 108.419 66.1083 108.55 66.1751C108.664 66.235 108.762 66.3206 108.837 66.4251C109.027 66.0476 109.275 65.8051 109.695 65.8051L109.692 65.8176Z" fill="#03243B"/>
<path d="M65.4299 87.555C68.4124 87.555 71.2899 86.805 73.5324 85.4425C75.9074 84 77.2549 82.1925 78.1774 79.1925C78.2099 79.0825 78.9899 76.505 78.2124 75.555C78.1718 75.5019 78.1196 75.4588 78.0598 75.4289C78.0001 75.3991 77.9343 75.3832 77.8674 75.3825C77.7612 75.3882 77.6596 75.4277 77.5773 75.4951C77.495 75.5625 77.4364 75.6545 77.4099 75.7575C77.3725 75.8437 77.3407 75.9322 77.3149 76.0225C77.3149 75.5475 77.3149 75.285 77.3149 75.185V75.1125C77.2799 74.7475 77.2174 74.065 76.6999 74.0375H76.6749C76.57 74.0375 76.4673 74.0674 76.3788 74.1236C76.2902 74.1798 76.2195 74.2601 76.1749 74.355C76.167 74.2927 76.1553 74.2309 76.1399 74.17L76.1249 74.1025C76.0499 73.7775 75.8949 73.1025 75.3574 73.1025H75.2649C75.0024 73.1475 74.8374 73.3525 74.7249 73.675C74.5599 73.355 74.3349 73.11 74.0299 73.11C73.8878 73.1117 73.7508 73.163 73.6424 73.255C73.3624 73.4875 73.3924 73.9175 73.4374 74.375C73.4374 74.4125 73.4374 74.445 73.4374 74.4675C73.4608 74.9384 73.4399 75.4105 73.3749 75.8775C73.3499 76.1275 73.3224 76.3975 73.3074 76.6625V76.735C73.3074 76.8775 73.2949 76.985 73.2874 77.0525C73.11 76.914 72.9429 76.7627 72.7874 76.6C72.4224 76.2325 72.0774 75.8825 71.6749 75.8825C71.5355 75.883 71.3999 75.9277 71.2874 76.01C70.6749 76.4575 71.0174 77.335 71.3199 78.11C71.4677 78.4165 71.5648 78.7449 71.6074 79.0825C71.4024 80.6 70.0524 81.52 67.5899 81.8175C67.1841 81.8643 66.7759 81.8876 66.3674 81.8875C63.5949 81.8875 60.7924 80.92 59.2249 79.425C56.7749 77.0875 54.8349 72.2175 53.5924 68.76C53.3424 68.0775 52.9274 66.445 52.5924 65.1325C52.2424 63.765 52.0924 63.1925 52.0124 63.02L51.9749 62.9375L51.9024 62.88C51.5224 62.585 50.9024 62.4425 49.9999 62.4425C48.6624 62.4425 47.0149 62.775 46.4699 63.005C45.8332 63.3104 45.2532 63.7221 44.7549 64.2225L44.5949 64.385L44.6649 64.605C44.6774 64.6425 45.8974 68.355 46.6649 70.465C47.0072 71.3368 47.4194 72.1796 47.8974 72.985C48.4197 73.843 48.8496 74.7539 49.1799 75.7025C49.1988 75.8431 49.1807 75.9861 49.1274 76.1175C49.0446 76.3234 49.0144 76.5467 49.0397 76.7672C49.065 76.9876 49.145 77.1983 49.2724 77.38C49.5224 77.7125 49.9324 77.7775 50.2374 77.825C50.3074 77.825 50.4074 77.8525 50.4624 77.8675C50.7814 78.3346 51.0719 78.8205 51.3324 79.3225C51.676 79.9983 52.081 80.641 52.5424 81.2425C53.4264 82.2599 54.3949 83.2008 55.4374 84.055L55.6874 84.265C58.0774 86.355 61.6324 87.555 65.4299 87.555Z" fill="white"/>
<path d="M50 62.8175C48.8514 62.8275 47.7107 63.0078 46.615 63.3525C46.0258 63.6391 45.4884 64.0219 45.025 64.485C45.025 64.485 46.2475 68.2 47.025 70.335C47.6675 72.1225 49.025 73.8175 49.5475 75.585C49.6975 76.085 49.16 76.565 49.5825 77.1475C49.845 77.5075 50.5825 77.385 50.74 77.59C51.51 78.645 51.99 79.955 52.84 80.9925C53.72 82.07 54.885 83.0575 55.935 83.97C58.3825 86.1 61.915 87.17 65.435 87.17C68.26 87.17 71.08 86.485 73.34 85.1125C75.81 83.6125 77 81.735 77.82 79.0625C78.04 78.35 78.4575 76.4275 77.925 75.7775C77.9198 75.768 77.9122 75.76 77.903 75.7543C77.8938 75.7486 77.8833 75.7454 77.8725 75.745C77.8125 75.745 77.77 75.8775 77.76 75.8975C77.6075 76.2175 77.305 77.8725 76.9875 77.8725C76.9718 77.8717 76.9563 77.8677 76.9422 77.8609C76.928 77.854 76.9153 77.8444 76.905 77.8325C76.905 77.8325 76.97 75.4975 76.935 75.2125C76.915 75.0525 76.885 74.41 76.6675 74.3975C76.3425 74.3975 76.1675 75.7475 76.1375 76C76.0858 76.2289 76.0173 76.4537 75.9325 76.6725C75.8925 76.625 75.875 74.64 75.77 74.2525C75.725 74.0825 75.6225 73.465 75.3525 73.465H75.3225C74.8925 73.535 74.86 75.53 74.7525 75.875C74.7525 75.905 74.7375 75.9175 74.7325 75.9175C74.7275 75.9175 74.7725 75.3825 74.75 75.185C74.7275 74.9875 74.4575 73.475 74.025 73.475C73.9699 73.4775 73.9176 73.4997 73.8775 73.5375C73.7075 73.675 73.805 74.2425 73.82 74.425C73.8825 75.175 73.73 75.925 73.69 76.675C73.69 76.795 73.69 77.37 73.5375 77.445C73.4956 77.4688 73.4481 77.4809 73.4 77.48C72.9 77.48 72.1775 76.255 71.6825 76.255C71.6233 76.2543 71.5654 76.2727 71.5175 76.3075C70.8875 76.7675 72.08 78.4325 71.99 79.125C71.7025 81.265 69.47 81.965 67.6425 82.185C67.2217 82.2338 66.7985 82.258 66.375 82.2575C63.7775 82.2575 60.7575 81.3975 58.97 79.6925C56.41 77.2475 54.425 72.165 53.2425 68.88C52.8 67.645 51.845 63.535 51.6775 63.1725C51.3375 62.9225 50.7125 62.8125 50.0075 62.8125L50 62.8175ZM50.0075 62.0625C51.0075 62.0625 51.6925 62.23 52.14 62.5775L52.2875 62.6925L52.365 62.86C52.4575 63.0625 52.5875 63.5575 52.965 65.0325C53.3 66.3375 53.715 67.9625 53.965 68.63C55.1975 72.0525 57.11 76.865 59.5025 79.15C61.0025 80.58 63.705 81.505 66.385 81.505C66.7785 81.506 67.1717 81.4834 67.5625 81.4375C69.8125 81.165 71.0625 80.36 71.2475 79.0425C71.1908 78.769 71.1071 78.5019 70.9975 78.245C70.68 77.4325 70.2475 76.32 71.095 75.7C71.2722 75.5711 71.4858 75.5019 71.705 75.5025C72.22 75.5025 72.6125 75.8575 72.9875 76.23C73 76.0975 73.0125 75.965 73.0275 75.835C73.0887 75.392 73.1088 74.9442 73.0875 74.4975C73.0875 74.4775 73.0875 74.45 73.0875 74.4175C73.0375 73.99 72.965 73.3425 73.425 72.9625C73.6009 72.8127 73.8239 72.7295 74.055 72.7275C74.2995 72.7241 74.5362 72.8134 74.7175 72.9775C74.8538 72.8438 75.0287 72.7563 75.2175 72.7275C75.2686 72.7183 75.3205 72.7141 75.3725 72.715C76.0175 72.715 76.2925 73.2675 76.425 73.685C76.5105 73.6613 76.5988 73.6495 76.6875 73.65H76.7325C77.545 73.6925 77.6575 74.5875 77.7 75.02C77.7646 75.0037 77.8309 74.9954 77.8975 74.995C78.0209 74.9953 78.1426 75.0235 78.2534 75.0776C78.3643 75.1318 78.4614 75.2104 78.5375 75.3075C79.4075 76.3725 78.7175 78.8075 78.57 79.2925C77.6175 82.3925 76.2225 84.27 73.7575 85.7675C71.4575 87.165 68.5075 87.935 65.46 87.935C61.5725 87.935 57.925 86.7 55.46 84.5475L55.21 84.3375C54.1456 83.4689 53.1555 82.5131 52.25 81.48C51.7737 80.8605 51.3552 80.1985 51 79.5025C50.7722 79.0583 50.5219 78.6261 50.25 78.2075H50.19C49.86 78.155 49.31 78.07 48.975 77.61C48.8155 77.3819 48.7138 77.1185 48.6785 76.8424C48.6432 76.5664 48.6755 76.2859 48.7725 76.025C48.7931 75.9526 48.8097 75.8792 48.8225 75.805C48.499 74.8878 48.0801 74.0071 47.5725 73.1775C47.0873 72.3542 46.6693 71.493 46.3225 70.6025C45.56 68.4825 44.3375 64.7675 44.3225 64.73L44.18 64.2925L44.5025 63.9625C45.0356 63.4267 45.6572 62.9869 46.34 62.6625C46.93 62.4125 48.6125 62.0725 50.0175 62.0725L50.0075 62.0625Z" fill="#03243B"/>
</svg>
