<svg width="144" height="57" viewBox="0 0 144 57" fill="none" xmlns="http://www.w3.org/2000/svg">
<path d="M60.996 38.5484V17.3937H69.0943C70.6231 17.3937 71.8936 17.6347 72.9059 18.1168C73.9251 18.5919 74.686 19.2427 75.1887 20.069C75.6983 20.8954 75.9531 21.8319 75.9531 22.8787C75.9531 23.7394 75.7878 24.4763 75.4573 25.0892C75.1267 25.6952 74.6826 26.1875 74.1248 26.5663C73.567 26.945 72.9438 27.217 72.2551 27.3823V27.5889C73.0058 27.6302 73.7254 27.8609 74.414 28.281C75.1095 28.6941 75.6776 29.2795 76.1184 30.037C76.5591 30.7945 76.7794 31.7103 76.7794 32.7846C76.7794 33.8795 76.5143 34.8643 75.9841 35.7388C75.4538 36.6065 74.655 37.2917 73.5876 37.7944C72.5203 38.2971 71.1774 38.5484 69.5592 38.5484H60.996ZM64.8283 35.3463H68.9497C70.3408 35.3463 71.3427 35.0812 71.9556 34.5509C72.5754 34.0138 72.8852 33.3252 72.8852 32.4851C72.8852 31.8584 72.7303 31.2937 72.4204 30.791C72.1105 30.2814 71.6698 29.882 71.0982 29.5928C70.5267 29.2967 69.8449 29.1486 69.053 29.1486H64.8283V35.3463ZM64.8283 26.3907H68.6192C69.2803 26.3907 69.8759 26.2702 70.4062 26.0291C70.9364 25.7812 71.353 25.4335 71.656 24.9859C71.9659 24.5314 72.1209 23.9942 72.1209 23.3745C72.1209 22.555 71.8316 21.8801 71.2532 21.3499C70.6816 20.8197 69.8312 20.5545 68.7018 20.5545H64.8283V26.3907Z" fill="#346BD5"/>
<path d="M99.0162 27.9711C99.0162 30.2505 98.5892 32.2027 97.7353 33.8279C96.8883 35.4462 95.7314 36.6857 94.2646 37.5465C92.8047 38.4073 91.1486 38.8377 89.2962 38.8377C87.4438 38.8377 85.7842 38.4073 84.3174 37.5465C82.8575 36.6788 81.7006 35.4358 80.8467 33.8176C79.9997 32.1924 79.5762 30.2436 79.5762 27.9711C79.5762 25.6917 79.9997 23.7429 80.8467 22.1246C81.7006 20.4994 82.8575 19.2565 84.3174 18.3957C85.7842 17.5349 87.4438 17.1045 89.2962 17.1045C91.1486 17.1045 92.8047 17.5349 94.2646 18.3957C95.7314 19.2565 96.8883 20.4994 97.7353 22.1246C98.5892 23.7429 99.0162 25.6917 99.0162 27.9711ZM95.1633 27.9711C95.1633 26.3666 94.912 25.0134 94.4093 23.9116C93.9134 22.8029 93.2248 21.9662 92.3434 21.4015C91.4619 20.83 90.4462 20.5442 89.2962 20.5442C88.1462 20.5442 87.1304 20.83 86.249 21.4015C85.3675 21.9662 84.6755 22.8029 84.1728 23.9116C83.6769 25.0134 83.429 26.3666 83.429 27.9711C83.429 29.5756 83.6769 30.9322 84.1728 32.0409C84.6755 33.1427 85.3675 33.9794 86.249 34.5509C87.1304 35.1156 88.1462 35.398 89.2962 35.398C90.4462 35.398 91.4619 35.1156 92.3434 34.5509C93.2248 33.9794 93.9134 33.1427 94.4093 32.0409C94.912 30.9322 95.1633 29.5756 95.1633 27.9711Z" fill="#346BD5"/>
<path d="M116.811 24.1492C116.639 23.5914 116.402 23.0921 116.099 22.6514C115.802 22.2038 115.444 21.8216 115.024 21.5048C114.611 21.1881 114.136 20.9505 113.599 20.7921C113.062 20.6268 112.476 20.5442 111.843 20.5442C110.707 20.5442 109.694 20.83 108.806 21.4015C107.918 21.9731 107.219 22.8132 106.709 23.9219C106.206 25.0237 105.955 26.3666 105.955 27.9504C105.955 29.548 106.206 30.9012 106.709 32.0099C107.212 33.1186 107.911 33.9622 108.806 34.5406C109.701 35.1122 110.741 35.398 111.925 35.398C113 35.398 113.929 35.1914 114.714 34.7782C115.506 34.365 116.116 33.7797 116.543 33.0222C116.97 32.2578 117.183 31.3626 117.183 30.3365L118.051 30.4708H112.308V27.4753H120.891V30.0163C120.891 31.8274 120.506 33.394 119.735 34.7162C118.963 36.0384 117.903 37.0576 116.553 37.7737C115.203 38.483 113.654 38.8377 111.905 38.8377C109.956 38.8377 108.245 38.4004 106.771 37.5258C105.304 36.6444 104.158 35.3945 103.331 33.7762C102.512 32.1511 102.102 30.2229 102.102 27.9917C102.102 26.2839 102.343 24.7586 102.825 23.4158C103.314 22.073 103.996 20.9333 104.87 19.9967C105.745 19.0533 106.771 18.3371 107.949 17.8482C109.126 17.3524 110.407 17.1045 111.791 17.1045C112.962 17.1045 114.053 17.2767 115.066 17.621C116.078 17.9584 116.977 18.4404 117.762 19.0671C118.554 19.6937 119.204 20.4375 119.714 21.2983C120.223 22.159 120.557 23.1094 120.716 24.1492H116.811Z" fill="#346BD5"/>
<path d="M143.5 27.9711C143.5 30.2505 143.073 32.2027 142.219 33.8279C141.372 35.4462 140.215 36.6857 138.748 37.5465C137.289 38.4073 135.632 38.8377 133.78 38.8377C131.928 38.8377 130.268 38.4073 128.801 37.5465C127.341 36.6788 126.184 35.4358 125.331 33.8176C124.483 32.1924 124.06 30.2436 124.06 27.9711C124.06 25.6917 124.483 23.7429 125.331 22.1246C126.184 20.4994 127.341 19.2565 128.801 18.3957C130.268 17.5349 131.928 17.1045 133.78 17.1045C135.632 17.1045 137.289 17.5349 138.748 18.3957C140.215 19.2565 141.372 20.4994 142.219 22.1246C143.073 23.7429 143.5 25.6917 143.5 27.9711ZM139.647 27.9711C139.647 26.3666 139.396 25.0134 138.893 23.9116C138.397 22.8029 137.709 21.9662 136.827 21.4015C135.946 20.83 134.93 20.5442 133.78 20.5442C132.63 20.5442 131.614 20.83 130.733 21.4015C129.851 21.9662 129.159 22.8029 128.657 23.9116C128.161 25.0134 127.913 26.3666 127.913 27.9711C127.913 29.5756 128.161 30.9322 128.657 32.0409C129.159 33.1427 129.851 33.9794 130.733 34.5509C131.614 35.1156 132.63 35.398 133.78 35.398C134.93 35.398 135.946 35.1156 136.827 34.5509C137.709 33.9794 138.397 33.1427 138.893 32.0409C139.396 30.9322 139.647 29.5756 139.647 27.9711Z" fill="#346BD5"/>
<path d="M29.9242 0L0.5 10.0167L9.26465 35.6846L39.9409 24.4158L44.3232 15.0251L40.567 4.38232L29.9242 0Z" fill="#346BD5"/>
<path fill-rule="evenodd" clip-rule="evenodd" d="M0.5 45.0755L31.1763 56.3443L40.567 51.962L44.3232 41.3192L39.9409 31.9285L9.26465 20.6597L0.5 45.0755ZM3.00357 43.8234L31.0578 53.8209L38.3308 50.5885L41.8184 41.3192L38.3308 33.6182L10.5161 24.416L3.00357 43.8234Z" fill="#346BD5"/>
<path fill-rule="evenodd" clip-rule="evenodd" d="M33.9742 48.2056C36.9237 48.2056 39.3148 45.8146 39.3148 42.865C39.3148 39.9155 36.9237 37.5244 33.9742 37.5244C31.0246 37.5244 28.6335 39.9155 28.6335 42.865C28.6335 45.8146 31.0246 48.2056 33.9742 48.2056ZM33.9742 46.6797C36.081 46.6797 37.7889 44.9718 37.7889 42.865C37.7889 40.7582 36.081 39.0503 33.9742 39.0503C31.8674 39.0503 30.1595 40.7582 30.1595 42.865C30.1595 44.9718 31.8674 46.6797 33.9742 46.6797Z" fill="#346BD5"/>
</svg>
