<svg width="75" height="60" viewBox="0 0 75 60" fill="none" xmlns="http://www.w3.org/2000/svg">
<g clip-path="url(#clip0_2688_33118)">
<path d="M74.849 5.625V0H45.0426C42.9818 0 41.3168 1.67578 41.3168 3.75V43.6641L1.01985 54.5391C0.519198 54.668 0.228119 55.1836 0.356194 55.6875L1.32258 59.3086C1.45065 59.8125 1.96295 60.1055 2.4636 59.9766L48.8266 47.4609C49.141 54.4336 54.8112 60 61.8087 60C69.0158 60 74.849 54.1289 74.849 46.875C74.849 39.6211 69.0158 33.75 61.8087 33.75C56.6159 33.75 52.1682 36.832 50.0724 41.25H46.9055V5.625H74.849ZM61.8087 39.375C65.9187 39.375 69.2603 42.7383 69.2603 46.875C69.2603 51.0117 65.9187 54.375 61.8087 54.375C57.6987 54.375 54.3571 51.0117 54.3571 46.875C54.3571 42.7383 57.6987 39.375 61.8087 39.375ZM6.17777 44.0156C6.44556 45.0117 7.47016 45.6094 8.45982 45.3398L33.6556 38.543C34.6453 38.2734 35.2391 37.2422 34.9713 36.2461L29.1846 14.5078C28.9168 13.5117 27.8922 12.9141 26.9026 13.1836L17.9141 15.6211L14.6667 16.5L12.6667 17L10.7186 17.5547L1.71844 19.9805C0.728775 20.25 0.134974 21.2812 0.402767 22.2773L6.17777 44.0156Z" fill="#346BD5"/>
<path d="M74.849 5.625V0H45.0426C42.9818 0 41.3168 1.67578 41.3168 3.75V43.6641L1.01985 54.5391C0.519198 54.668 0.228119 55.1836 0.356194 55.6875L1.32258 59.3086C1.45065 59.8125 1.96295 60.1055 2.4636 59.9766L48.8266 47.4609C49.141 54.4336 54.8112 60 61.8087 60C69.0158 60 74.849 54.1289 74.849 46.875C74.849 39.6211 69.0158 33.75 61.8087 33.75C56.6159 33.75 52.1682 36.832 50.0724 41.25H46.9055V5.625H74.849ZM61.8087 39.375C65.9187 39.375 69.2603 42.7383 69.2603 46.875C69.2603 51.0117 65.9187 54.375 61.8087 54.375C57.6987 54.375 54.3571 51.0117 54.3571 46.875C54.3571 42.7383 57.6987 39.375 61.8087 39.375Z" fill="#CCCCCC"/>
</g>
<defs>
<clipPath id="clip0_2688_33118">
<rect width="74.5161" height="60" fill="white" transform="translate(0.333374)"/>
</clipPath>
</defs>
</svg>
