<svg width="106" height="60" viewBox="0 0 106 60" fill="none" xmlns="http://www.w3.org/2000/svg">
<g clip-path="url(#clip0_2688_33099)">
<path d="M77.0269 12.36L73.9881 13.3632C74.3807 12.0846 74.408 10.6607 73.9459 9.26112C72.8202 5.85117 69.3213 3.92784 66.1433 4.97695C62.8725 6.05669 61.6265 8.64608 60.1218 15.1796C55.0231 10.826 52.4803 9.48736 49.2095 10.5671C46.0316 11.6162 44.3654 15.2447 45.491 18.6546C45.9531 20.0542 46.8227 21.182 47.8993 21.9756L44.8605 22.9788C42.8115 23.6552 41.6978 25.8664 42.3743 27.9155L44.8247 35.3385C45.0494 36.019 45.7899 36.3919 46.4703 36.1673L47.7075 35.7589L51.3832 46.8934C52.0596 48.9424 54.2709 50.0561 56.32 49.3796L83.5377 40.3946C85.5867 39.7181 86.7004 37.5069 86.0239 35.4578L82.3482 24.3233L83.5854 23.9149C84.2658 23.6902 84.6388 22.9497 84.4142 22.2693L81.9637 14.8463C81.2872 12.7972 79.076 11.6836 77.0269 12.36ZM62.4138 16.8754C64.115 9.17086 65.1585 8.04604 66.9601 7.45129C68.7695 6.85398 70.7952 8.02889 71.4716 10.0779C72.148 12.127 71.22 14.277 69.4106 14.8743L62.3355 17.2099L62.4138 16.8754ZM50.0264 13.0414C51.8357 12.4441 53.3361 12.7292 59.2899 17.9066L59.5442 18.1314L52.4691 20.467C50.6598 21.0643 48.6341 19.8894 47.9576 17.8404C47.2889 15.7887 48.217 13.6387 50.0264 13.0414ZM64.1633 44.0464L55.5031 46.9053C54.8227 47.1299 54.0822 46.757 53.8575 46.0766L50.1818 34.942L60.0792 31.6747L64.1633 44.0464ZM59.2624 29.2004L46.8907 33.2845L44.8486 27.0987C44.624 26.4182 44.9969 25.6777 45.6774 25.4531L56.8119 21.7774L59.2624 29.2004ZM71.5863 41.5959L66.6377 43.2296L59.2862 20.9605L64.2349 19.3269L71.5863 41.5959ZM83.5496 36.2746C83.7742 36.9551 83.4013 37.6956 82.7209 37.9202L74.0607 40.7791L69.9765 28.4074L79.8739 25.1401L83.5496 36.2746ZM81.5314 21.849L69.1597 25.9331L66.7092 18.5101L77.8438 14.8343C78.5242 14.6097 79.2647 14.9827 79.4893 15.6631L81.5314 21.849Z" fill="#346BD5"/>
</g>
<path fill-rule="evenodd" clip-rule="evenodd" d="M21.0173 2.69422L24.7885 14.7623C24.4479 14.9591 24.4217 15.3573 24.6239 16.0808C24.7529 16.5458 24.8982 17.0048 25.0435 17.464L25.0435 17.4642C25.1102 17.675 25.1769 17.8859 25.2421 18.0973C25.4636 18.8125 25.6847 19.5277 25.9057 20.2427L25.906 20.2437L25.9063 20.2446L25.9066 20.2455L25.9069 20.2464L25.9071 20.2473L25.9074 20.2482L25.9077 20.2492L25.908 20.2501L25.9083 20.251L25.9086 20.2519L25.9089 20.2528L25.9091 20.2537L25.9094 20.2546L25.9097 20.2556L25.91 20.2565L25.9103 20.2574L25.9106 20.2583L25.9109 20.2592L25.9111 20.2601L25.9114 20.2611L25.9115 20.2612C26.4963 22.1534 27.081 24.0451 27.674 25.9351C27.8748 26.5729 28.5872 26.9449 29.1614 26.6854C29.6366 26.4729 29.4768 26.1465 29.3347 25.8562L29.3347 25.8562C29.2929 25.7708 29.2526 25.6885 29.2304 25.6131C28.7247 23.9134 28.2028 22.2172 27.6808 20.5209L27.6808 20.5207C27.3445 19.4277 27.0081 18.3347 26.6761 17.2407C26.4157 16.381 26.5161 16.2465 27.3853 16.2778C28.3533 16.3123 29.3213 16.3683 30.2878 16.4241L30.2879 16.4241C30.5464 16.4391 30.8048 16.454 31.063 16.4685C32.7417 16.5648 34.4204 16.663 36.0991 16.7613L36.1015 16.7614C38.6206 16.9088 41.1397 17.0563 43.6588 17.197C45.2155 17.2843 46.7729 17.3654 48.3303 17.4465C50.0599 17.5366 51.7895 17.6266 53.5182 17.7253C56.4904 17.8941 59.4626 18.0683 62.4348 18.2425L62.4379 18.2427C65.4111 18.417 68.3843 18.5913 71.3576 18.7601C73.0546 18.8577 74.7525 18.9475 76.4503 19.0372L76.4509 19.0372C77.9614 19.117 79.4719 19.1969 80.9817 19.2822C83.8636 19.4435 86.7469 19.6104 89.6297 19.7772L89.631 19.7773C91.0513 19.8595 92.4714 19.9417 93.8913 20.0232C94.8518 20.0787 95.8126 20.1328 96.7736 20.1869C98.6821 20.2943 100.591 20.4017 102.499 20.5203C103.431 20.5797 103.528 20.711 103.371 21.6458C103.17 22.8343 102.961 24.021 102.751 25.2079L102.751 25.2082L102.751 25.2086L102.751 25.209L102.751 25.2094L102.751 25.2098L102.751 25.2102L102.751 25.2105L102.751 25.2109L102.751 25.2113L102.751 25.2118L102.751 25.2127L102.75 25.2135L102.75 25.2143L102.75 25.2151L102.75 25.216L102.75 25.2168L102.75 25.2176L102.75 25.2184L102.749 25.2193L102.749 25.2201L102.749 25.2209L102.749 25.2217L102.749 25.2226L102.749 25.2234L102.749 25.2243L102.748 25.2251L102.748 25.2258L102.748 25.2264L102.748 25.227L102.748 25.2276L102.748 25.2283L102.748 25.2289L102.748 25.2295L102.748 25.2301L102.747 25.2308L102.747 25.2314L102.747 25.232L102.747 25.2326L102.747 25.2333L102.747 25.2339L102.747 25.2345L102.747 25.2351L102.747 25.2358L102.746 25.2364L102.746 25.237L102.746 25.2376L102.746 25.2382L102.746 25.2389L102.746 25.2395L102.746 25.2401C102.559 26.2998 102.372 27.3595 102.191 28.4206C102.05 29.2459 102.477 29.5992 103.271 29.3491C103.678 29.2225 103.734 28.8892 103.79 28.5614C103.794 28.5331 103.799 28.5049 103.804 28.4769C104.287 25.7851 104.767 23.0933 105.238 20.3983C105.401 19.4761 105.094 19.0665 104.152 19.0102C102.073 18.8855 99.9926 18.7716 97.9115 18.6577L97.9108 18.6576L97.9101 18.6576L97.9094 18.6575L97.9086 18.6575L97.9079 18.6575L97.9072 18.6574L97.9065 18.6574L97.9058 18.6573L97.9051 18.6573L97.9044 18.6573L97.9037 18.6572L97.903 18.6572L97.9023 18.6571L97.9016 18.6571L97.9008 18.6571L97.9001 18.657L97.8994 18.657L97.8987 18.6569L97.898 18.6569L97.8973 18.6569L97.8966 18.6568L97.8959 18.6568L97.8952 18.6567L97.8945 18.6567L97.8937 18.6567C97.0063 18.6081 96.1187 18.5595 95.2312 18.51C94.1875 18.4532 93.1435 18.3972 92.0994 18.3411L92.0975 18.341L92.0956 18.3409L92.0938 18.3408L92.0919 18.3407L92.09 18.3406L92.0881 18.3405L92.0863 18.3404L92.0844 18.3403L92.0825 18.3402L92.0806 18.3401L92.0788 18.34L92.0769 18.3399L92.075 18.3398L92.0731 18.3397L92.0712 18.3396L92.0694 18.3395L92.0679 18.3394C90.0177 18.2293 87.967 18.1192 85.9177 18.0036C83.7525 17.8816 81.588 17.7566 79.4236 17.6315C77.2592 17.5065 75.0948 17.3814 72.9297 17.2595C71.4611 17.1772 69.9926 17.099 68.5241 17.0207C66.8107 16.9294 65.0974 16.8381 63.384 16.7405C60.5543 16.5803 57.7246 16.4154 54.8943 16.2505L54.8937 16.2504L54.893 16.2504L54.8923 16.2504L54.8916 16.2503L54.8909 16.2503L54.8902 16.2502L54.8895 16.2502L54.8888 16.2502L54.8882 16.2501L54.8875 16.2501L54.8868 16.25L54.8861 16.25L54.8854 16.25L54.8847 16.2499L54.884 16.2499L54.8834 16.2498L54.8827 16.2498L54.882 16.2498L54.8813 16.2497L54.8806 16.2497L54.8799 16.2496L54.8792 16.2496L54.8785 16.2496L54.8779 16.2495L54.8772 16.2495C52.5753 16.1153 50.2731 15.9812 47.9703 15.8495C46.4418 15.7626 44.9132 15.6787 43.385 15.5949L43.3848 15.5949L43.3844 15.5948L43.384 15.5948L43.3836 15.5948L43.3832 15.5948L43.3828 15.5947L43.3824 15.5947L43.382 15.5947L43.3816 15.5947L43.3812 15.5947L43.3808 15.5946L43.3804 15.5946L43.38 15.5946L43.3796 15.5946L43.3792 15.5945L43.3788 15.5945L43.3784 15.5945L43.378 15.5945L43.3776 15.5944L43.3772 15.5944L43.3768 15.5944L43.3764 15.5944L43.376 15.5944L43.3756 15.5943L43.3752 15.5943L43.3748 15.5943C41.8288 15.5095 40.2832 15.4247 38.7385 15.3368C35.7555 15.1647 32.7725 14.9878 29.7467 14.8083L29.7452 14.8082C28.668 14.7443 27.5854 14.6801 26.4955 14.6157L22.4359 1.62498C22.4208 1.57306 22.4009 1.52322 22.3767 1.47599C22.3108 1.34715 22.2142 1.24085 22.0989 1.16349C22.0166 1.10804 21.9239 1.06684 21.8243 1.04344C21.7552 1.02706 21.6835 1.01939 21.6109 1.02128H9.50334C9.04137 1.02128 8.66687 1.39578 8.66687 1.85775C8.66687 2.31972 9.04137 2.69422 9.50334 2.69422H21.0173ZM45.0395 59.334C43.7502 59.4774 42.4596 59.6144 41.145 59.754C40.3959 59.8336 39.6391 59.9139 38.8703 59.9968V59.9999C38.3274 60.0124 38.0387 59.6373 37.8692 59.0808C37.3592 57.4134 36.8434 55.7474 36.3277 54.0819L36.3276 54.0818L36.3276 54.0817L36.3276 54.0816L36.3275 54.0816L36.3275 54.0814L36.3275 54.0813L36.3274 54.0812L36.3272 54.0805C36.0879 53.3076 35.8486 52.5348 35.6099 51.762C35.4601 51.2765 35.3094 50.7913 35.1588 50.3061C34.7069 48.8506 34.2551 47.3952 33.8244 45.9344C33.8031 45.862 33.7698 45.7841 33.7354 45.7039C33.5977 45.3825 33.4433 45.0222 33.9782 44.8121C34.6309 44.5588 35.1455 44.8246 35.362 45.5217C36.2478 48.3672 37.1254 51.2147 38.0031 54.0627L38.0039 54.0654L38.6161 56.0513C38.7134 56.3765 38.8169 56.6985 38.9205 57.0205L38.9251 57.0347C39.3472 58.3368 39.3521 58.3518 40.6997 58.1991C44.279 57.7963 47.8574 57.3911 51.4359 56.986L51.4527 56.9841C55.0342 56.5786 58.6156 56.1731 62.1978 55.7699C65.5209 55.3963 68.8448 55.0251 72.1687 54.6538C75.4926 54.2826 78.8165 53.9113 82.1396 53.5377C83.6069 53.3729 85.0746 53.2065 86.5424 53.0401L86.5494 53.0393L86.5563 53.0385L86.5633 53.0377L86.564 53.0376L86.5646 53.0376L86.5653 53.0375L86.5659 53.0374L86.5665 53.0374L86.5672 53.0373L86.5678 53.0372L86.5685 53.0371L86.5691 53.0371L86.5697 53.037L86.5704 53.0369L86.571 53.0369L86.5717 53.0368L86.5723 53.0367L86.573 53.0367L86.5736 53.0366L86.5742 53.0365L86.5757 53.0364C90.0814 52.6388 93.5883 52.2411 97.0951 51.8651C97.8137 51.787 98.1338 51.5337 98.253 50.799C98.5353 49.0512 98.8502 47.3093 99.1652 45.5673L99.1653 45.5667L99.1653 45.5662L99.1654 45.5656L99.1655 45.5651L99.1656 45.5645L99.1657 45.564L99.1658 45.5634L99.1659 45.5629L99.166 45.5623L99.1661 45.5618L99.1662 45.5612L99.1663 45.5607L99.1664 45.5601L99.1664 45.5596L99.1665 45.559L99.1666 45.5585L99.1667 45.5579L99.1668 45.5574C99.3099 44.7662 99.4529 43.975 99.5929 43.1832L99.5954 43.1692C99.6698 42.7523 99.7402 42.357 100.283 42.2797C101.024 42.1734 101.353 42.4392 101.225 43.177C100.929 44.8776 100.624 46.5763 100.319 48.2746L100.319 48.2764L100.319 48.2785L100.318 48.2809L100.318 48.2833L100.317 48.2858L100.317 48.2882L100.317 48.2907L100.316 48.2931L100.315 48.2967C100.074 49.6414 99.8326 50.9859 99.5961 52.331C99.4768 53.0187 99.0407 53.2626 98.3974 53.3345C95.3323 53.6698 92.2672 54.0159 89.2021 54.362L89.2014 54.3621L89.2006 54.3622L89.1999 54.3622L89.1992 54.3623L89.1984 54.3624L89.1977 54.3625L89.197 54.3626L89.1962 54.3626L89.1955 54.3627L89.1948 54.3628L89.194 54.3629L89.1933 54.363L89.1926 54.363L89.1918 54.3631L89.1911 54.3632L89.1904 54.3633L89.1896 54.3634L89.1889 54.3634L89.1882 54.3635L89.1874 54.3636L89.1867 54.3637L89.186 54.3638L89.1852 54.3638L89.1845 54.3639L89.1838 54.364L87.3361 54.5726C85.1552 54.818 82.9743 55.065 80.7934 55.3119C78.6125 55.5589 76.4316 55.8059 74.2508 56.0513C71.6543 56.3426 69.0578 56.6325 66.4617 56.9222L66.4496 56.9236C63.7003 57.2305 60.9513 57.5373 58.2032 57.8459C56.3341 58.0563 54.4645 58.2685 52.5948 58.4806L52.5914 58.481C50.0739 58.7667 47.5562 59.0524 45.0395 59.334ZM101.934 30.7026V30.7216H103.738C103.776 30.7216 103.815 30.7234 103.856 30.7252L103.856 30.7252C104.087 30.7356 104.338 30.7468 104.338 30.4246C104.338 30.0976 104.026 30.0755 103.769 30.0574L103.744 30.0557L103.526 30.0408L103.352 30.0289C102.649 29.9806 101.947 29.9325 101.24 29.9087C99.7572 29.8588 98.2734 29.8127 96.7896 29.7665L96.7881 29.7665L96.7867 29.7664L96.7852 29.7664L96.7838 29.7663L96.7824 29.7663L96.7809 29.7663L96.7795 29.7662L96.778 29.7662L96.7766 29.7661L96.7752 29.7661L96.7737 29.766L96.7723 29.766L96.7708 29.7659L96.7694 29.7659L96.7679 29.7658L96.7665 29.7658L96.7651 29.7657L96.7636 29.7657L96.7622 29.7657L96.7607 29.7656L96.7593 29.7656L96.7579 29.7655L96.7564 29.7655L96.755 29.7654C94.6213 29.699 92.4875 29.6326 90.3548 29.5554C86.7924 29.4271 83.23 29.2916 79.6676 29.1561L79.6652 29.156C76.5477 29.0375 73.4301 28.9189 70.3126 28.8051C68.7961 28.7498 67.2797 28.7009 65.7635 28.652H65.7634H65.7634H65.7633H65.7633H65.7633H65.7632H65.7632H65.7631H65.7631H65.763H65.763H65.7629H65.7629H65.7628H65.7628H65.7628H65.7627H65.7627H65.7627H65.7626H65.7626H65.7626H65.7625H65.7625C63.9377 28.5932 62.1134 28.5343 60.29 28.4643C56.815 28.3313 53.34 28.1935 49.8645 28.0557L49.8641 28.0557L49.8636 28.0557L49.8632 28.0556L49.8628 28.0556L49.8623 28.0556L49.8619 28.0556L49.8615 28.0556L49.861 28.0556L49.8606 28.0555L49.8602 28.0555L49.8597 28.0555L49.8593 28.0555L49.8589 28.0555L49.8584 28.0555L49.858 28.0554L49.8576 28.0554L49.8571 28.0554L49.8567 28.0554L49.8562 28.0554L49.8558 28.0553L49.8554 28.0553L49.8549 28.0553L49.8545 28.0553L49.8541 28.0553C47.0436 27.9438 44.2328 27.8324 41.4214 27.7234C37.3515 27.5671 33.2784 27.417 29.2085 27.2732C28.5558 27.2513 27.9031 27.2607 27.2504 27.2732C27.0339 27.2763 26.8111 27.3607 26.8142 27.6265C26.8142 27.886 27.037 27.9547 27.2535 27.986C27.3842 28.0046 27.5194 28.0097 27.6514 28.0146H27.6514L27.7211 28.0173C31.8193 28.1548 35.9143 28.2924 40.0125 28.4581C42.7514 28.5675 45.4903 28.6646 48.2292 28.7618L48.2293 28.7618L48.2294 28.7618L48.2295 28.7618L48.2296 28.7618L48.2297 28.7618L48.2298 28.7618L48.2299 28.7618L48.23 28.7618L48.2301 28.7618L48.2302 28.7618L48.2302 28.7618L48.2303 28.7618L48.2304 28.7619L48.2305 28.7619L48.2306 28.7619L48.2307 28.7619L48.2308 28.7619L48.2309 28.7619L48.231 28.7619L48.2311 28.7619L48.2312 28.7619L48.2313 28.7619L48.2313 28.7619L48.2314 28.7619C49.8755 28.8202 51.5196 28.8786 53.1637 28.9395C54.6697 28.9949 56.176 29.0479 57.6827 29.101L57.6837 29.101L57.6844 29.101C60.431 29.1977 63.1783 29.2944 65.9257 29.4054C68.381 29.5059 70.8369 29.5805 73.2929 29.6552C75.9533 29.736 78.6139 29.8168 81.2735 29.9306C82.1257 29.9674 82.9788 29.9908 83.8318 30.0142L83.832 30.0142L83.8321 30.0142L83.8322 30.0142L83.8323 30.0142L83.8324 30.0142L83.8325 30.0143L83.8326 30.0143L83.8328 30.0143L83.8329 30.0143L83.833 30.0143L83.8331 30.0143L83.8332 30.0143L83.8333 30.0143L83.8334 30.0143L83.8336 30.0143L83.8337 30.0143L83.8338 30.0143L83.8339 30.0143L83.834 30.0143L83.8341 30.0143L83.8342 30.0143L83.8344 30.0143L83.8345 30.0144L83.8346 30.0144C84.5732 30.0346 85.3117 30.0548 86.0495 30.0838C89.5801 30.2192 93.1108 30.3575 96.6414 30.4957C98.4055 30.5648 100.17 30.6338 101.934 30.7026ZM37.0753 43.9836C36.652 43.9929 36.2298 44.0308 35.8073 44.0686H35.8073H35.8072H35.8072H35.8072H35.8071H35.8071H35.8071H35.807H35.807H35.807H35.8069H35.8069H35.8069H35.8068H35.8068H35.8068H35.8067H35.8067H35.8067H35.8066H35.8066H35.8066H35.8065C35.2396 44.1194 34.6721 44.1703 34.1006 44.1524C33.9375 44.1524 33.7741 44.1531 33.6107 44.1538H33.6103H33.61H33.6097H33.6093H33.609H33.6087H33.6083H33.608H33.6077H33.6073H33.607H33.6067H33.6063H33.606H33.6057H33.6054H33.605H33.6047H33.6044H33.604H33.6037H33.6034H33.603C33.274 44.1552 32.9444 44.1566 32.6163 44.1524C32.5696 44.1518 32.5197 44.155 32.469 44.1583C32.2474 44.1725 32.0125 44.1875 31.9793 43.8898C31.9424 43.5593 32.2233 43.5325 32.4629 43.5097C32.4885 43.5072 32.5136 43.5048 32.5378 43.5021L32.6258 43.4921L32.6259 43.492C33.0896 43.4389 33.5558 43.3855 34.0221 43.3708C35.393 43.3251 36.7638 43.2833 38.1347 43.2416C40.4196 43.172 42.7044 43.1023 44.9893 43.0144C48.1636 42.891 51.338 42.7557 54.5129 42.6204C57.21 42.5055 59.9076 42.3905 62.6058 42.2828C64.3387 42.2148 66.0715 42.1584 67.8044 42.1021C69.4135 42.0498 71.0225 41.9975 72.6316 41.9358C76.0287 41.8064 79.4257 41.6706 82.8228 41.5348L82.8233 41.5348L82.8238 41.5348L82.8243 41.5348L82.8248 41.5348L82.8252 41.5347L82.8257 41.5347L82.8262 41.5347L82.8267 41.5347L82.8272 41.5346L82.8276 41.5346L82.8281 41.5346L82.8286 41.5346L82.8291 41.5345L82.8296 41.5345L82.83 41.5345L82.8305 41.5345L82.831 41.5345L82.8315 41.5344L82.832 41.5344L82.8325 41.5344L82.8329 41.5344L82.8334 41.5343L82.8339 41.5343C85.7498 41.4178 88.6658 41.3012 91.5817 41.1886C94.0113 41.0947 96.4426 41.0114 98.8743 40.928C99.6807 40.9004 100.487 40.8728 101.294 40.8447C101.451 40.8385 101.607 40.8322 101.764 40.8478C101.801 40.8515 101.84 40.8538 101.879 40.8561C102.112 40.87 102.366 40.8852 102.383 41.1792C102.404 41.5698 102.055 41.5851 101.778 41.5973L101.758 41.5982C101.053 41.6322 100.348 41.6474 99.6433 41.6625H99.6432C98.8603 41.6793 98.077 41.6961 97.2928 41.7389C95.2079 41.8532 93.1206 41.9147 91.0332 41.9761L91.0325 41.9762L91.0319 41.9762L91.0313 41.9762L91.0306 41.9762L91.03 41.9763L91.0293 41.9763L91.0287 41.9763L91.0281 41.9763L91.0274 41.9764L91.0268 41.9764L91.0261 41.9764L91.0255 41.9764L91.0249 41.9764L91.0242 41.9765L91.0236 41.9765L91.0229 41.9765L91.0223 41.9765L91.0217 41.9766L91.021 41.9766L91.0204 41.9766L91.0197 41.9766L91.0191 41.9767L91.0184 41.9767C89.7428 42.0142 88.467 42.0518 87.1917 42.1015C84.586 42.201 81.9803 42.3109 79.3741 42.4208L79.3736 42.4208L79.3731 42.4209L79.3726 42.4209L79.3721 42.4209L79.3716 42.4209L79.371 42.4209L79.3705 42.421L79.37 42.421L79.3695 42.421L79.369 42.421L79.3685 42.4211L79.368 42.4211L79.3675 42.4211L79.367 42.4211L79.3665 42.4212L79.366 42.4212L79.3655 42.4212L79.365 42.4212L79.3645 42.4212L79.364 42.4213L79.3635 42.4213L79.363 42.4213L79.3625 42.4213C77.2239 42.5115 75.0849 42.6017 72.9454 42.6861C72.2027 42.7157 71.4608 42.7415 70.7193 42.7672C69.9726 42.793 69.2263 42.8189 68.48 42.8487C65.4065 42.9709 62.3322 43.0727 59.2582 43.1745C55.9613 43.2837 52.6647 43.3928 49.3699 43.5271C48.4073 43.566 47.4449 43.6069 46.4825 43.6478L46.4803 43.6479L46.478 43.648L46.4758 43.6481L46.4735 43.6482L46.4712 43.6483L46.469 43.6484L46.4667 43.6485L46.4644 43.6485L46.4622 43.6486L46.4599 43.6487L46.4574 43.6488L46.4549 43.6489L46.4524 43.649L46.4498 43.6491L46.4473 43.6492L46.4448 43.6493L46.4423 43.6495L46.4397 43.6496L46.4372 43.6497L46.4347 43.6498L46.4322 43.6499L46.4296 43.65L46.4271 43.6501C43.3107 43.7824 40.1948 43.9146 37.0753 43.9836ZM29.3622 28.6863C28.6844 28.58 28.5683 28.8989 28.7566 29.5054C29.4417 31.7059 30.1188 33.9095 30.7959 36.1129L30.7962 36.1136L30.7964 36.1143L30.7966 36.115L30.7968 36.1157L30.797 36.1164L30.7972 36.1171L30.7975 36.1178L30.7977 36.1185L30.7979 36.1191L30.7981 36.1198L30.7983 36.1205L30.7985 36.1212L30.7988 36.1219L30.799 36.1226L30.7992 36.1233L30.7994 36.124L30.7996 36.1247L30.7998 36.1254L30.8001 36.1261L30.8003 36.1268L30.8005 36.1275L30.8007 36.1282C31.0773 37.0283 31.3539 37.9284 31.631 38.8282C31.746 39.2013 31.8587 39.5751 31.9713 39.9488C32.1965 40.6964 32.4217 41.4439 32.6665 42.1859C32.8579 42.7674 33.4824 43.0238 34.0598 42.7893C34.5344 42.5966 34.4047 42.2708 34.2877 41.9768C34.2624 41.9132 34.2377 41.851 34.2198 41.792C33.6389 39.8902 33.0534 37.9898 32.4678 36.0892L32.4675 36.0882L32.4673 36.0877C31.7814 33.8614 31.0953 31.6347 30.4166 29.4054C30.2503 28.8645 29.9459 28.6207 29.3654 28.6863H29.3622ZM102.571 31.325C103.035 31.3594 103.255 31.5188 103.198 32.0034H103.205L102.169 37.8372C102.119 38.1185 102.071 38.3999 102.023 38.6813C101.975 38.9627 101.928 39.244 101.877 39.5254C101.818 39.8537 101.661 40.0913 101.306 40.1882C100.299 40.4664 100.089 40.282 100.274 39.2534C100.365 38.7429 100.458 38.2323 100.55 37.7217L100.553 37.7041L100.556 37.6863C100.881 35.8824 101.207 34.0776 101.513 32.2691C101.62 31.6407 101.852 31.2718 102.571 31.325ZM38.6676 29.5914L38.6676 29.5914C38.6831 29.6685 38.7008 29.7565 38.729 29.8431L38.73 29.846C39.9943 33.8655 41.2586 37.885 42.5322 41.9014C42.5394 41.9238 42.5466 41.9471 42.5539 41.9708C42.6392 42.2482 42.7445 42.5906 43.1347 42.4235C43.4673 42.2808 43.3619 41.9848 43.2681 41.7216C43.2531 41.6793 43.2383 41.638 43.2257 41.5982C42.0114 37.7246 40.7907 33.8542 39.57 29.9838C39.4916 29.7368 39.4006 29.4898 39.2845 29.2616C39.1966 29.0927 39.0303 28.9896 38.8263 29.0709C38.6506 29.1396 38.6349 29.2991 38.6475 29.4992V29.496C38.6542 29.5249 38.6607 29.5571 38.6676 29.5914ZM50.3113 30.1963C50.2977 30.1425 50.2923 30.087 50.2868 30.031L50.2827 29.9901L50.2799 29.965H50.283L50.2826 29.9531C50.2763 29.7712 50.269 29.5608 50.4901 29.5179C50.7882 29.4585 50.9075 29.6993 50.9671 29.9275C51.2558 31.0342 51.5382 32.1441 51.8049 33.257C52.2223 34.9986 52.6339 36.7416 53.0457 38.485L53.046 38.4864L53.0463 38.4878L53.0467 38.4892L53.047 38.4906L53.0473 38.4919L53.0477 38.4933L53.048 38.4947L53.0483 38.4961L53.0487 38.4975L53.049 38.4989L53.0493 38.5002L53.0497 38.5016L53.05 38.503L53.0503 38.5044L53.0507 38.5058L53.051 38.5072L53.0513 38.5086L53.0517 38.5099L53.0529 38.5154L53.0542 38.5209C53.2495 39.3475 53.4447 40.1743 53.6406 41.001C53.6478 41.0336 53.6563 41.0663 53.6648 41.099L53.6648 41.0991C53.6824 41.1667 53.7002 41.2348 53.7065 41.3043C53.7119 41.3577 53.724 41.4148 53.7361 41.4727C53.7803 41.683 53.8268 41.9039 53.5685 41.9921C53.1982 42.1203 53.0632 41.7858 52.9973 41.5075C52.3223 38.6815 51.6526 35.8554 50.9828 33.0294L50.9814 33.0233C50.7581 32.081 50.5348 31.1387 50.3113 30.1963ZM47.6824 55.8631C47.6705 55.8124 47.6586 55.7616 47.644 55.7137C47.3606 54.8152 47.0775 53.9167 46.7943 53.0182C45.9455 50.3245 45.0966 47.6308 44.2424 44.9371L44.2325 44.9058C44.1495 44.6436 44.0431 44.3071 43.6902 44.4213C43.3562 44.5303 43.4544 44.8178 43.537 45.0596L43.5487 45.0938L43.5575 45.1201L43.5664 45.1478L43.5709 45.1622C44.6755 48.7106 45.7863 52.2559 46.8972 55.8012C46.9348 55.9231 46.9882 56.0482 47.0572 56.1545C47.1607 56.3171 47.3051 56.4296 47.5153 56.3358C47.6848 56.2608 47.7067 56.1045 47.7005 55.9419V55.9388C47.6942 55.9138 47.6883 55.8884 47.6824 55.8631ZM63.2961 41.0855C62.9504 38.7422 62.606 36.3989 62.2648 34.0772L62.2613 34.0534C62.0865 32.8642 61.9126 31.6808 61.7397 30.5059V30.5027C61.7443 30.4308 61.7401 30.3578 61.736 30.2879C61.7236 30.072 61.7128 29.8855 61.9688 29.8524C62.2888 29.8118 62.4206 30.0963 62.4646 30.3558C62.634 31.3562 62.7909 32.3598 62.9353 33.3633C63.2899 35.8363 63.635 38.3092 63.9802 40.7822C64.0022 40.9385 64.021 41.0917 64.0304 41.248C64.0398 41.4419 63.9959 41.6232 63.7762 41.6732C63.5535 41.7201 63.4405 41.5732 63.3714 41.3887C63.3369 41.2918 63.3118 41.1886 63.2961 41.0855ZM56.8658 54.8202V54.8202C56.8521 54.742 56.8385 54.6642 56.8194 54.5882L56.5994 53.6538C55.8976 50.6727 55.1953 47.6895 54.4879 44.7089C54.4534 44.5588 54.3969 44.4088 54.3247 44.2712C54.2494 44.1274 54.1207 44.0242 53.945 44.0586C53.7191 44.1055 53.672 44.2806 53.6877 44.4775C53.7003 44.6307 53.7348 44.7871 53.7724 44.9371C53.9827 45.8313 54.1924 46.7257 54.4022 47.6203C54.8936 49.7159 55.3851 51.812 55.8843 53.9066C55.9815 54.3099 56.1133 54.707 56.264 55.0947C56.333 55.2729 56.5087 55.3729 56.7158 55.2947C56.893 55.2289 56.8863 55.0687 56.8799 54.9153L56.879 54.8946C56.8745 54.8698 56.8702 54.8451 56.8658 54.8204L56.8658 54.8202ZM73.0458 31.1249C73.0268 32.215 73.0925 33.3035 73.1582 34.3925C73.2227 35.4615 73.2873 36.5309 73.2717 37.6027H73.2686V40.5696C73.2689 40.593 73.2699 40.6173 73.2714 40.642L73.2728 40.6662L73.2751 40.7004L73.2752 40.7011L73.2752 40.7018C73.2907 40.9297 73.3075 41.1766 73.0144 41.2105C72.6373 41.2571 72.6142 40.932 72.5951 40.6623L72.595 40.6618C72.5936 40.6422 72.5923 40.6228 72.5908 40.604C72.4966 39.3316 72.4245 38.0623 72.4245 36.7836C72.4251 36.481 72.428 36.1783 72.431 35.8756V35.8754V35.8752V35.8751V35.8749V35.8747V35.8746C72.4434 34.6168 72.4557 33.3581 72.2989 32.1034C72.2613 31.7939 72.2707 31.4781 72.2895 31.1655C72.293 31.1058 72.2921 31.0406 72.2911 30.9739C72.2869 30.6807 72.2823 30.358 72.6504 30.3402C73.0792 30.3206 73.0624 30.715 73.0495 31.0201V31.0202V31.0204V31.0205L73.047 31.0829L73.0464 31.1005L73.0458 31.1249ZM65.6797 52.6819L65.6797 52.6818L65.6797 52.6818L65.6797 52.6817L65.6797 52.6816L65.6797 52.6816L65.6796 52.6815L65.6796 52.6814L65.6796 52.6814L65.6796 52.6813L65.6796 52.6812L65.6796 52.6811L65.6796 52.6811L65.6796 52.681L65.6796 52.6809C65.5769 51.8941 65.4742 51.1066 65.3609 50.3207C65.0691 48.2917 64.7678 46.2596 64.4572 44.2337L64.4514 44.195C64.4123 43.931 64.3631 43.5983 63.9834 43.6459C63.6727 43.6866 63.7135 43.9898 63.748 44.2181C64.1999 47.4069 64.6517 50.5927 65.1161 53.7816C65.1507 54.0254 65.2072 54.3631 65.5617 54.3006C65.8134 54.2574 65.8154 54.0283 65.8172 53.8177C65.8175 53.784 65.8178 53.7509 65.8191 53.7191H65.8159C65.77 53.3742 65.725 53.029 65.6799 52.6838L65.6799 52.6834L65.6798 52.683L65.6798 52.6827L65.6798 52.6823L65.6797 52.6819ZM83.6427 30.6497C83.9412 30.6915 83.9294 30.9147 83.9179 31.1331C83.9139 31.2085 83.91 31.2834 83.9188 31.35H83.922C83.7663 32.6204 83.6112 33.8897 83.4562 35.1583L83.4534 35.1812C83.25 36.8458 83.0468 38.5092 82.8425 40.1726C82.8268 40.3007 82.8017 40.432 82.764 40.554C82.6982 40.7634 82.5946 40.9604 82.3279 40.8947C82.1114 40.8416 82.0706 40.6478 82.0863 40.4571C82.1176 40.0444 82.1521 39.6286 82.2024 39.2159C82.4015 37.5447 82.6033 35.8749 82.8052 34.2046L82.8063 34.1956L82.8072 34.1881C82.9132 33.311 83.0193 32.4339 83.1249 31.5563C83.1277 31.5337 83.1301 31.511 83.1326 31.4884C83.1413 31.408 83.1499 31.328 83.172 31.2499C83.1839 31.2078 83.1944 31.1626 83.205 31.1166C83.2614 30.8723 83.3232 30.6049 83.6427 30.6497ZM73.5322 50.4676H73.3564V50.4597C73.3564 48.2833 73.3564 46.1037 73.3533 43.9273C73.3533 43.6741 73.3533 43.3364 73.0144 43.3145C72.6356 43.2882 72.6195 43.6095 72.6062 43.8764L72.6033 43.9304C72.5845 44.2931 72.5688 44.6589 72.6033 45.0215C72.7539 46.5378 72.7486 48.0567 72.7433 49.5748V49.5749V49.5749V49.575V49.5751V49.5752V49.5753V49.5754V49.5755V49.5756V49.5757V49.5758V49.5759C72.7405 50.3675 72.7377 51.1589 72.7571 51.9495C72.7585 52.0036 72.759 52.0579 72.7594 52.1122C72.7609 52.293 72.7624 52.4736 72.801 52.6467C72.8172 52.7218 72.8232 52.8098 72.8292 52.8996C72.848 53.176 72.868 53.4705 73.1901 53.4658C73.5583 53.4607 73.5432 53.1257 73.53 52.8343C73.527 52.768 73.5241 52.7041 73.5259 52.6467C73.5414 52.1358 73.5381 51.6233 73.5349 51.1104V51.1101V51.1099V51.1097V51.1094V51.1092V51.1089V51.1087V51.1085V51.1082V51.108V51.1077V51.1075C73.5335 50.8932 73.5322 50.6789 73.5322 50.4645V50.4676ZM38.4292 26.4748L38.4292 26.4748C38.442 26.5243 38.4539 26.5703 38.4655 26.6104L38.4623 26.6135C38.4968 26.7886 38.4968 26.923 38.3619 26.995C38.2113 27.0762 38.0544 27.0419 37.9226 26.9418C37.7523 26.8138 37.6929 26.6235 37.6335 26.4329L37.6245 26.4041C37.2167 25.1008 36.8089 23.7983 36.4011 22.4958C35.993 21.1924 35.5849 19.8891 35.1769 18.5851C35.1329 18.4381 35.089 18.288 35.0545 18.1349C35.0137 17.9504 34.9886 17.7503 35.2145 17.6722C35.4185 17.6003 35.5911 17.7222 35.6664 17.891C35.8453 18.2943 36.0116 18.707 36.1434 19.1259C36.7134 20.9327 37.276 22.7414 37.8384 24.549L37.8385 24.5493L37.8386 24.5496L37.8386 24.5498L37.8387 24.5501L37.8388 24.5504L37.8389 24.5507L37.839 24.5509L37.8391 24.5512L37.8392 24.5515L37.8393 24.5518L37.8393 24.552C38.0103 25.1018 38.1813 25.6514 38.3525 26.2009C38.3823 26.2939 38.4071 26.3894 38.4292 26.4748ZM92.2863 40.002C92.2794 40.2998 92.2742 40.5278 92.5796 40.5508C92.895 40.5739 92.9489 40.2913 92.9947 40.051C92.9986 40.0307 93.0024 40.0107 93.0063 39.9912C93.3139 38.4874 93.6183 36.9805 93.9132 35.4736C94.158 34.22 94.3965 32.9663 94.6318 31.7126C94.6758 31.4781 94.7009 31.1905 94.4153 31.1155C94.067 31.0217 93.9791 31.3218 93.9195 31.5782C93.859 31.8326 93.8097 32.087 93.7602 32.3425C93.7404 32.445 93.7205 32.5476 93.6998 32.6505L93.4383 33.9724L93.4352 33.9882L93.4328 34L93.4328 34.0002L93.4313 34.0075C93.0415 35.9779 92.6548 37.9327 92.2846 39.7943H92.2878C92.2895 39.8655 92.2879 39.9347 92.2863 40.0006V40.0008V40.0011V40.0013V40.0016V40.0018V40.002ZM80.9534 52.6123C80.6059 52.5635 80.649 52.3099 80.6864 52.0896C80.7017 51.9996 80.7161 51.9152 80.7024 51.8526V51.8495C80.8492 50.628 80.9936 49.4224 81.137 48.2258L81.141 48.1922L81.144 48.1676L81.1499 48.1181C81.3331 46.5886 81.5147 45.0735 81.6971 43.5584L81.7009 43.527C81.731 43.273 81.7672 42.9684 82.0925 42.9894C82.491 43.0175 82.4597 43.3802 82.4252 43.6584C82.1019 46.394 81.7724 49.1296 81.4273 51.862C81.4214 51.9063 81.4171 51.9548 81.4126 52.0051C81.386 52.3036 81.3535 52.6685 80.9534 52.6123ZM50.3053 26.9666C50.2998 26.9332 50.2943 26.8993 50.2862 26.8668L50.153 26.3154C49.5572 23.8477 48.9608 21.3776 48.3563 18.9102C48.2935 18.657 48.1806 18.3412 47.8605 18.4131C47.5024 18.4938 47.5841 18.7633 47.6541 18.9939C47.6681 19.0401 47.6816 19.0847 47.6911 19.1259C48.2684 21.6329 48.8614 24.1368 49.4544 26.6408L49.4546 26.6417C49.5017 26.8418 49.5707 27.0419 49.6586 27.2294C49.7433 27.4076 49.9033 27.5139 50.1073 27.4639C50.3395 27.4045 50.3332 27.2107 50.3113 27.0231L50.3144 27.02C50.3111 27.0025 50.3082 26.9846 50.3053 26.9666ZM90.2763 51.6306C90.0753 51.5722 90.078 51.3999 90.081 51.2084L90.0816 51.1673L90.0818 51.1398L90.4045 49.4844C90.5576 48.6989 90.7119 47.907 90.8663 47.1162C90.9838 46.5181 91.1006 45.9192 91.2174 45.3204L91.2202 45.306C91.3363 44.7107 91.4523 44.1154 91.5692 43.5209C91.5753 43.4891 91.5813 43.4572 91.5872 43.4251C91.6148 43.2774 91.6426 43.1281 91.6916 42.9894C91.7826 42.7362 91.9238 42.461 92.2376 42.5517C92.5119 42.6286 92.4583 42.8818 92.4134 43.0941L92.4074 43.1222L92.4007 43.1551C91.9018 45.7312 91.3966 48.3073 90.8914 50.8834C90.86 51.0335 90.8129 51.1867 90.7502 51.3274C90.6654 51.5306 90.5242 51.7026 90.2763 51.6306ZM61.6964 24.8218L61.696 24.8194C61.4446 23.0762 61.1959 21.352 60.9427 19.6293C60.905 19.3729 60.8422 19.0509 60.4971 19.1009C60.1488 19.1509 60.1896 19.4917 60.2241 19.7387C60.5724 22.2398 60.9333 24.7409 61.2973 27.2419L61.2995 27.2569C61.3366 27.5077 61.3828 27.8192 61.7366 27.764C62.0365 27.7166 62.0385 27.457 62.0399 27.2572V27.2571C62.0401 27.2333 62.0403 27.2104 62.0409 27.1888L62.0378 27.1857C61.926 26.4134 61.8153 25.6462 61.7052 24.8827L61.7043 24.8766L61.7023 24.863L61.6982 24.8345L61.6964 24.8218ZM72.9146 23.1387V23.1388V23.1391C72.9275 23.6022 72.9404 24.0654 72.9642 24.5283V27.6484C72.9642 27.6788 72.9652 27.7104 72.9662 27.7424C72.9727 27.9528 72.9797 28.1794 72.71 28.2174C72.3491 28.2674 72.2989 27.9516 72.2833 27.6921C72.1295 25.2254 72.0761 22.7556 72.1201 20.2858L72.1205 20.2451C72.1222 20.0296 72.1245 19.7492 72.437 19.7668C72.6955 19.7829 72.716 20.0131 72.7345 20.2203C72.7375 20.2546 72.7405 20.2882 72.7445 20.3202C72.8623 21.2566 72.8885 22.1972 72.9146 23.1383V23.1384V23.1385V23.1386V23.1387ZM94.5094 28.4237C94.4969 28.7895 94.522 29.0271 94.7981 29.024C95.1683 29.0208 95.2343 28.6959 95.2908 28.4177L95.2908 28.4174C95.7238 26.2009 96.1506 23.9843 96.5648 21.7646C96.57 21.7367 96.5762 21.7071 96.5826 21.6765L96.5827 21.6763C96.6313 21.4457 96.6924 21.1555 96.4016 21.0893C96.0015 20.997 95.9253 21.3606 95.8648 21.6492L95.8556 21.6927C95.6375 22.714 95.4325 23.7375 95.2279 24.7595L95.1088 25.3536C94.9663 26.0675 94.8281 26.7813 94.6977 27.4543L94.6965 27.4607C94.632 27.7934 94.5695 28.1161 94.5094 28.4237ZM84.9073 20.4577C85.2061 20.4958 85.18 20.7117 85.1549 20.9196C85.1449 21.0021 85.1351 21.0834 85.1458 21.1518H85.1489C85.0824 21.704 85.0162 22.255 84.9501 22.8053L84.9498 22.8084L84.9488 22.8164L84.9483 22.8204C84.7408 24.5487 84.5342 26.2689 84.3205 27.9891C84.3164 28.0203 84.313 28.0534 84.3095 28.0876C84.2836 28.3413 84.2522 28.6489 83.8843 28.58C83.5329 28.5144 83.5674 28.1361 83.5987 27.8578C83.7612 26.4014 83.9345 24.945 84.1077 23.49L84.1081 23.4865L84.1085 23.4831C84.1625 23.0289 84.2166 22.5748 84.2703 22.121C84.2756 22.0735 84.2807 22.0261 84.2857 21.9786L84.2933 21.9072L84.2933 21.907L84.2933 21.9068L84.2933 21.9067C84.3214 21.6407 84.3494 21.3755 84.3989 21.1143C84.4033 21.0911 84.4075 21.0674 84.4118 21.0432C84.4634 20.7538 84.525 20.4087 84.9073 20.4577Z" fill="#CCCCCC"/>
<path d="M0.720398 1.85752C0.720398 0.933573 1.4694 0.18457 2.39334 0.18457H12.431C13.355 0.18457 14.104 0.933573 14.104 1.85752C14.104 2.78146 13.355 3.53046 12.431 3.53046H2.39334C1.4694 3.53046 0.720398 2.78146 0.720398 1.85752Z" fill="#346BD5"/>
<defs>
<clipPath id="clip0_2688_33099">
<rect width="41.6908" height="41.6908" fill="white" transform="translate(37.4733 13.0693) rotate(-18.269)"/>
</clipPath>
</defs>
</svg>
